<svg width="350" height="346" viewBox="0 0 350 346" fill="none" xmlns="http://www.w3.org/2000/svg">
<path d="M307.111 296.532C300.181 303.828 293.623 308.533 288.442 312.25C227.542 355.947 155.48 343.21 140.165 340.099C117.55 335.506 73.834 326.627 42.2285 289.46C-5.58804 233.228 1.85768 144.638 38.9475 86.1577C45.7318 75.4607 81.5684 16.0899 154.406 6.56873C198.487 0.806658 249.871 12.4281 287.081 43.6034C365.19 109.043 359.629 241.243 307.111 296.532Z" fill="url(#paint0_linear_85_964)"/>
<path d="M89.9882 137.139C91.2588 150.72 94.2421 168.675 97.8276 184.147H100.079C95.4431 165.476 91.1761 139.906 92.4325 110.43C93.6998 80.7053 100.847 44.6153 87.5193 27.3752C76.4266 13.0268 29.3564 10.8818 13.878 10.566C11.9439 10.5265 10.8367 12.7957 12.0406 14.3381C17.9746 21.9428 30.4004 39.5546 31.4828 54.9337C32.9096 75.2043 48.3777 91.1144 63.7475 97.7373C79.117 104.36 87.3939 109.412 89.9882 137.139Z" fill="#BDD0FB"/>
<path d="M33.2305 23.0963C42.7514 25.5573 51.7563 29.981 59.6352 36.04C63.582 39.0577 67.159 42.6035 70.2436 46.5618C73.2953 50.5426 75.8577 54.9521 77.6365 59.6882L78.2951 61.4666C78.5106 62.0607 78.6716 62.6736 78.8622 63.2764C79.0378 63.8813 79.2365 64.4915 79.3923 65.0918L79.8627 66.8932C80.4951 69.294 81.1161 71.6976 81.7128 74.1079C82.9136 78.9263 84.0385 83.7646 85.0899 88.6194C87.197 98.329 89.0099 108.103 90.2325 117.986C90.2619 118.223 90.0969 118.439 89.8641 118.469C89.6394 118.498 89.4335 118.342 89.3931 118.118L89.3907 118.105C88.5217 113.241 87.5603 108.375 86.5087 103.539C85.4786 98.6966 84.3913 93.8667 83.2522 89.0498L81.5208 81.8304L79.7096 74.6312C79.1077 72.2311 78.4814 69.8372 77.8438 67.4466L77.3694 65.6525C77.212 65.0538 77.0231 64.4866 76.8519 63.9021C76.6718 63.3235 76.5222 62.7341 76.318 62.1638L75.6957 60.4561C74.0244 55.9001 71.5606 51.6813 68.6885 47.794C67.2101 45.8814 65.6634 44.0127 63.947 42.3053L63.3156 41.6531L62.6595 41.0262C62.2204 40.61 61.7915 40.1819 61.3435 39.7748C60.4363 38.9735 59.5384 38.1596 58.5884 37.4075C54.8441 34.3274 50.7311 31.7136 46.4569 29.4211C42.1823 27.1346 37.6848 25.2023 33.0692 23.7714L33.048 23.7647C32.8677 23.709 32.7662 23.515 32.821 23.3314C32.8736 23.1538 33.0553 23.0513 33.2305 23.0963Z" fill="white"/>
<path d="M90.4319 155.533C98.4822 167.571 97.4485 174.307 97.696 180.011C97.7397 181.024 97.7945 182.456 97.9096 184.147H100.108C99.659 181.825 99.3406 179.484 99.2266 177.187C98.4438 161.432 94.954 134.54 81.6134 118.453C68.273 102.367 53.6641 100.899 35.2562 115.523C19.9161 127.71 10.3473 133.86 4.73543 135.003C3.34604 135.287 2.6369 136.884 3.31307 138.153C6.91229 144.903 17.0884 160.41 34.1742 159.318C55.9686 157.926 82.3817 143.496 90.4319 155.533Z" fill="#91B3FA"/>
<path d="M41.4918 134.898C42.6973 133.729 43.9746 132.676 45.2927 131.659C46.61 130.646 47.9679 129.681 49.3816 128.801C52.1991 127.029 55.2058 125.516 58.4077 124.475C60.009 123.96 61.6585 123.563 63.3454 123.344C65.0322 123.136 66.7561 123.108 68.4665 123.324C68.8921 123.394 69.322 123.435 69.7439 123.532C70.1622 123.632 70.5952 123.714 71.0015 123.833L73.4038 124.592L75.7546 125.523L78.0332 126.637C81.0197 128.241 83.7219 130.407 85.9703 132.958C88.2362 135.503 90.0088 138.435 91.4673 141.472L92.0147 142.613C92.2026 142.991 92.339 143.391 92.5035 143.778C92.8133 144.561 93.147 145.335 93.4361 146.124L94.2447 148.512C94.5313 149.303 94.7139 150.124 94.9452 150.93C95.8586 154.159 96.4878 157.452 97.0313 160.747C97.0617 160.931 96.9398 161.105 96.7592 161.136C96.5868 161.165 96.4232 161.054 96.3823 160.883L96.3797 160.872C95.6122 157.643 94.8739 154.409 93.8181 151.28C93.3394 149.699 92.7322 148.17 92.1675 146.627C91.8634 145.865 91.5165 145.122 91.1938 144.37C91.0233 143.998 90.88 143.612 90.6873 143.252L90.1258 142.164C88.6395 139.262 86.8351 136.543 84.6799 134.164C82.5233 131.785 79.964 129.823 77.1612 128.32L75.0121 127.282L72.7854 126.414L70.4981 125.705C70.1183 125.596 69.7458 125.523 69.3696 125.429C68.9944 125.339 68.6073 125.302 68.2267 125.235C66.6916 125.03 65.1213 125.042 63.5617 125.223C61.9999 125.393 60.4453 125.728 58.9187 126.183C55.8606 127.09 52.9118 128.443 50.079 130.019C48.668 130.818 47.2698 131.653 45.9127 132.557C44.56 133.463 43.223 134.419 41.949 135.423L41.9407 135.43C41.7903 135.549 41.5738 135.521 41.4572 135.367C41.3479 135.224 41.3661 135.021 41.4918 134.898Z" fill="white"/>
<path d="M80.9288 61.4701C80.9288 49.63 90.5271 40.0318 102.367 40.0318H284.68C294.738 40.0318 303.031 47.914 303.543 57.959L317 322.278C317.4 330.139 311.212 336.769 303.343 336.912L94.3897 340.71C86.9953 340.844 80.9287 334.887 80.9287 327.491L80.9288 61.4701Z" fill="url(#paint1_linear_85_964)"/>
<path d="M124.929 336.216H124.922L101.542 335.914C93.7235 335.813 87.3633 329.369 87.3633 321.551V286.251C87.3633 285.975 87.5869 285.752 87.8624 285.752C88.1381 285.752 88.3616 285.975 88.3616 286.251V321.551C88.3616 328.826 94.2799 334.821 101.555 334.916L124.935 335.218C125.211 335.221 125.431 335.448 125.428 335.723C125.424 335.997 125.201 336.216 124.929 336.216Z" fill="url(#paint2_linear_85_964)"/>
<path d="M87.8624 275.815C87.5869 275.815 87.3633 275.592 87.3633 275.316V269.599C87.3633 269.324 87.5869 269.1 87.8624 269.1C88.1381 269.1 88.3616 269.324 88.3616 269.599V275.316C88.3615 275.592 88.1381 275.815 87.8624 275.815Z" fill="url(#paint3_linear_85_964)"/>
<path d="M95.8649 44.1002C95.8425 40.312 99.174 37.3802 102.928 37.8893C127.824 41.2655 213.436 51.7074 284.22 46.2738C287.448 46.026 290.249 48.4717 290.421 51.7047L304.531 317.202C304.725 320.842 301.945 323.955 298.306 324.171C268.536 325.932 145.933 332.743 102.203 328.162C99.5413 327.884 97.521 325.643 97.5053 322.967L95.8649 44.1002Z" fill="#7D97F4"/>
<path d="M98.7975 50.7532C98.776 47.1077 101.982 44.2862 105.594 44.7762C129.553 48.0252 211.942 58.074 280.06 52.8449C283.166 52.6064 285.862 54.9601 286.027 58.0712L299.607 313.571C299.793 317.074 297.118 320.07 293.615 320.277C264.966 321.973 146.981 328.527 104.897 324.119C102.335 323.851 100.391 321.694 100.376 319.119L98.7975 50.7532Z" fill="#91B3FA"/>
<path opacity="0.58" d="M276.164 88.8558H116.023C115.31 88.8558 114.731 88.2774 114.731 87.564V68.2426C114.731 67.5291 115.31 66.9507 116.023 66.9507H276.164C276.877 66.9507 277.456 67.5291 277.456 68.2426V87.564C277.456 88.2774 276.877 88.8558 276.164 88.8558Z" fill="white"/>
<path opacity="0.58" d="M279.402 191.392H115.099C114.697 191.392 114.372 191.067 114.372 190.666V181.166C114.372 180.765 114.697 180.44 115.099 180.44H279.402C279.804 180.44 280.129 180.765 280.129 181.166V190.666C280.129 191.067 279.804 191.392 279.402 191.392Z" fill="white"/>
<path opacity="0.58" d="M279.599 208.291H114.902C114.609 208.291 114.372 208.053 114.372 207.76V197.868C114.372 197.576 114.61 197.338 114.902 197.338H279.599C279.891 197.338 280.129 197.576 280.129 197.868V207.76C280.129 208.053 279.892 208.291 279.599 208.291Z" fill="white"/>
<path opacity="0.58" d="M283.09 304.779H115.149C114.796 304.779 114.509 304.492 114.509 304.139V294.466C114.509 294.112 114.796 293.826 115.149 293.826H283.09C283.443 293.826 283.73 294.113 283.73 294.466V304.139C283.73 304.492 283.443 304.779 283.09 304.779Z" fill="white"/>
<path opacity="0.25" d="M275.971 168.966H118.346C116.151 168.966 114.372 167.187 114.372 164.992V105.972C114.372 103.778 116.151 101.998 118.346 101.998H273.299C275.423 101.998 277.172 103.67 277.268 105.793L279.941 164.812C280.043 167.075 278.236 168.966 275.971 168.966Z" fill="white"/>
<path d="M276.063 169.592H118.438C115.901 169.592 113.838 167.528 113.838 164.992V105.972C113.838 103.436 115.901 101.373 118.438 101.373H273.39C275.855 101.373 277.874 103.302 277.985 105.764L280.658 164.784C280.715 166.051 280.264 167.254 279.388 168.17C278.512 169.087 277.331 169.592 276.063 169.592ZM118.438 102.624C116.592 102.624 115.09 104.126 115.09 105.972V164.992C115.09 166.838 116.592 168.34 118.438 168.34H276.063C276.986 168.34 277.845 167.973 278.483 167.305C279.121 166.638 279.449 165.763 279.408 164.84L276.735 105.821C276.653 104.028 275.184 102.624 273.39 102.624H118.438Z" fill="white"/>
<path opacity="0.25" d="M278.49 287.145H119.549C116.766 287.145 114.509 284.888 114.509 282.105V225.218C114.509 222.434 116.766 220.178 119.549 220.178H276.285C278.993 220.178 281.216 222.317 281.321 225.022L283.527 281.909C283.637 284.767 281.35 287.145 278.49 287.145Z" fill="white"/>
<path d="M278.49 287.771H119.55C116.425 287.771 113.883 285.229 113.883 282.105V225.218C113.883 222.094 116.425 219.552 119.55 219.552H276.285C279.341 219.552 281.829 221.944 281.947 224.998L284.152 281.885C284.212 283.439 283.652 284.912 282.574 286.033C281.496 287.154 280.046 287.771 278.49 287.771ZM119.55 220.804C117.115 220.804 115.135 222.784 115.135 225.218V282.105C115.135 284.539 117.115 286.519 119.55 286.519H278.49C279.702 286.519 280.832 286.038 281.671 285.165C282.512 284.292 282.948 283.144 282.901 281.934L280.696 225.047C280.604 222.667 278.666 220.804 276.285 220.804H119.55Z" fill="white"/>
<path d="M165.193 168.962L164.082 101.992L162.83 102.013L163.941 168.983L165.193 168.962Z" fill="white"/>
<path d="M226.552 168.94L224.744 101.975L223.493 102.009L225.302 168.974L226.552 168.94Z" fill="white"/>
<path d="M164.031 123.789L164.013 122.537L278.062 120.868L278.08 122.12L164.031 123.789Z" fill="white"/>
<path d="M279.047 147.782H164.3V149.034H279.047V147.782Z" fill="white"/>
<path d="M164.909 220.183L163.657 220.167L162.833 287.133L164.085 287.149L164.909 220.183Z" fill="white"/>
<path d="M281.968 235.824H164.717V237.076H281.968V235.824Z" fill="white"/>
<path d="M282.386 251.263H163.883V252.515H282.386V251.263Z" fill="white"/>
<path d="M283.079 269.962L164.016 268.473L164 269.725L283.063 271.213L283.079 269.962Z" fill="white"/>
<path d="M204.831 3.99315C198.245 -0.58815 192.519 -0.497415 188.488 0.692036C184.811 1.777 182.428 5.32713 182.778 9.14487L184.516 28.1188L205.201 29.9547C205.201 29.9547 217.745 12.9779 204.831 3.99315ZM195.734 19.3006C192.885 19.3006 190.576 16.9915 190.576 14.1428C190.576 11.2941 192.885 8.98485 195.734 8.98485C198.582 8.98485 200.892 11.2941 200.892 14.1428C200.892 16.9915 198.582 19.3006 195.734 19.3006Z" fill="url(#paint4_linear_85_964)"/>
<path d="M186.582 20.1374C186.327 20.1374 186.11 19.9429 186.086 19.6836L185.809 16.6618C185.784 16.3874 185.986 16.1446 186.26 16.1193C186.54 16.093 186.778 16.2963 186.803 16.5712L187.08 19.593C187.105 19.8674 186.903 20.1101 186.628 20.1355C186.613 20.1369 186.597 20.1374 186.582 20.1374ZM186.04 14.2158C185.785 14.2158 185.567 14.0213 185.543 13.762L185.333 11.4681C185 7.83119 187.288 4.4448 190.774 3.41587C193.243 2.68715 195.787 2.58278 198.334 3.10537C198.604 3.1604 198.778 3.42467 198.723 3.69464C198.668 3.96424 198.406 4.13678 198.134 4.08311C195.748 3.59474 193.367 3.69167 191.056 4.37316C188.026 5.2676 186.037 8.21322 186.327 11.3774L186.537 13.6712C186.562 13.9457 186.36 14.1885 186.086 14.2138C186.07 14.2153 186.055 14.2158 186.04 14.2158Z" fill="#91B3FA"/>
<path d="M156.284 40.3808V30.8414C156.284 27.5484 159.013 24.9109 162.305 25.0236L228.076 27.277C230.994 27.377 233.358 29.681 233.533 32.5963L234.083 41.7624L156.284 40.3808Z" fill="url(#paint5_linear_85_964)"/>
<path d="M180.808 28.6179H177.98C177.704 28.6179 177.48 28.3947 177.48 28.1188C177.48 27.8428 177.704 27.6196 177.98 27.6196H180.808C181.084 27.6196 181.307 27.8428 181.307 28.1188C181.307 28.3947 181.084 28.6179 180.808 28.6179Z" fill="#91B3FA"/>
<path d="M159.844 37.3852C159.568 37.3852 159.345 37.162 159.345 36.8861V33.0269C159.345 30.0451 161.77 27.6196 164.752 27.6196H175.151C175.427 27.6196 175.65 27.8428 175.65 28.1188C175.65 28.3947 175.427 28.6179 175.151 28.6179H164.752C162.321 28.6179 160.343 30.596 160.343 33.0269V36.8861C160.343 37.162 160.119 37.3852 159.844 37.3852Z" fill="#91B3FA"/>
<path d="M129.485 42.7897C129.644 39.4864 132.368 36.8895 135.675 36.8894L250.688 36.8863C254.824 36.8862 258.359 39.8622 259.065 43.9371L259.162 44.4995C259.935 48.9629 256.498 53.0452 251.969 53.0452H133.972C131.261 53.0452 129.101 50.7786 129.231 48.0708L129.485 42.7897Z" fill="url(#paint6_linear_85_964)"/>
<path d="M79.3226 141.396C88.3614 141.396 95.6888 134.068 95.6888 125.029C95.6888 115.991 88.3614 108.663 79.3226 108.663C70.2839 108.663 62.9565 115.991 62.9565 125.029C62.9565 134.068 70.2839 141.396 79.3226 141.396Z" fill="url(#paint7_linear_85_964)"/>
<path d="M79.3228 140.851C88.061 140.851 95.1446 133.768 95.1446 125.029C95.1446 116.291 88.061 109.208 79.3228 109.208C70.5846 109.208 63.501 116.291 63.501 125.029C63.501 133.768 70.5846 140.851 79.3228 140.851Z" fill="url(#paint8_linear_85_964)"/>
<path opacity="0.58" d="M65.1486 122.613C65.0713 122.634 64.988 122.637 64.9041 122.62C64.6177 122.561 64.4335 122.282 64.4924 121.996C65.6493 116.362 69.8136 111.928 75.3602 110.423C76.2455 110.183 77.1534 110.022 78.059 109.945C78.35 109.92 78.6062 110.136 78.6308 110.427C78.6559 110.718 78.4418 110.976 78.1484 110.999C77.3063 111.071 76.4613 111.221 75.6371 111.444C70.4782 112.844 66.6048 116.968 65.5285 122.208C65.4873 122.41 65.3353 122.562 65.1486 122.613Z" fill="white"/>
<path opacity="0.78" d="M79.7457 138.663C87.1415 138.663 93.137 132.668 93.137 125.272C93.137 117.876 87.1415 111.881 79.7457 111.881C72.35 111.881 66.3545 117.876 66.3545 125.272C66.3545 132.668 72.35 138.663 79.7457 138.663Z" fill="white"/>
<path d="M81.0836 135.224L80.7022 133.818C79.2205 134.157 77.6768 134.204 76.5247 134.032C76.1135 133.971 75.8141 133.609 75.8146 133.194L75.8166 131.787C75.8172 131.271 76.2724 130.881 76.7839 130.949C77.9216 131.1 79.2746 131.096 80.6346 130.727C82.0465 130.344 82.9695 129.58 82.7033 128.599C82.4632 127.713 81.5068 127.408 79.4018 127.414C76.3943 127.408 74.0533 126.732 73.3846 124.268C72.7809 122.042 73.9473 119.902 76.6476 118.681L76.2661 117.275C76.1433 116.823 76.4107 116.356 76.863 116.233L77.6893 116.009C78.1417 115.887 78.608 116.154 78.7307 116.606L79.0732 117.869C80.4444 117.555 81.4945 117.519 82.3528 117.582C82.7924 117.614 83.1292 117.987 83.1292 118.428V119.729C83.1292 120.23 82.6995 120.621 82.2003 120.573C81.4049 120.496 80.3079 120.489 78.9822 120.848C77.3071 121.303 77.0168 122.126 77.1857 122.749C77.3934 123.514 78.5412 123.768 80.9005 123.847C84.2646 123.937 85.9072 124.878 86.5369 127.199C87.1146 129.329 86.0547 131.672 83.1215 132.981L83.5484 134.555C83.6711 135.008 83.4039 135.474 82.9515 135.597L82.1252 135.821C81.6726 135.943 81.2063 135.676 81.0836 135.224Z" fill="url(#paint9_linear_85_964)"/>
<path d="M111.379 105.396C126.13 105.396 138.088 93.4379 138.088 78.6866C138.088 63.9354 126.13 51.9771 111.379 51.9771C96.6277 51.9771 84.6694 63.9354 84.6694 78.6866C84.6694 93.4379 96.6277 105.396 111.379 105.396Z" fill="url(#paint10_linear_85_964)"/>
<path d="M111.379 104.508C125.64 104.508 137.2 92.9473 137.2 78.6866C137.2 64.426 125.64 52.8654 111.379 52.8654C97.1182 52.8654 85.5576 64.426 85.5576 78.6866C85.5576 92.9473 97.1182 104.508 111.379 104.508Z" fill="url(#paint11_linear_85_964)"/>
<path opacity="0.58" d="M88.151 74.388C88.0785 74.4077 88.0004 74.4113 87.9217 74.3951C87.6532 74.3399 87.4804 74.0775 87.5357 73.8096C89.3958 64.7518 96.0909 57.6223 105.008 55.2031C106.431 54.8171 107.891 54.5585 109.348 54.4356C109.621 54.4121 109.861 54.6146 109.884 54.8879C109.907 55.1607 109.706 55.4035 109.432 55.4237C108.035 55.5422 106.634 55.7902 105.268 56.1606C96.7141 58.4811 90.2919 65.3204 88.5074 74.0088C88.4684 74.1986 88.3261 74.3407 88.151 74.388Z" fill="white"/>
<path opacity="0.78" d="M112.069 100.936C124.139 100.936 133.924 91.1519 133.924 79.082C133.924 67.0121 124.139 57.2275 112.069 57.2275C99.9994 57.2275 90.2148 67.0121 90.2148 79.082C90.2148 91.1519 99.9994 100.936 112.069 100.936Z" fill="white"/>
<path d="M114.253 95.3238L113.631 93.0291C111.213 93.5821 108.694 93.6595 106.813 93.3799C106.142 93.28 105.653 92.6896 105.654 92.0107L105.658 89.7151C105.659 88.8731 106.401 88.2361 107.236 88.3469C109.093 88.5934 111.301 88.588 113.521 87.9858C115.825 87.3607 117.331 86.1134 116.897 84.5123C116.505 83.0674 114.944 82.5684 111.509 82.5781C106.601 82.5678 102.78 81.466 101.689 77.4437C100.703 73.8117 102.607 70.3186 107.014 68.3266L106.391 66.0316C106.191 65.2933 106.627 64.5322 107.365 64.3319L108.714 63.9661C109.452 63.7658 110.213 64.202 110.413 64.9404L110.972 67.0008C113.21 66.489 114.924 66.4303 116.325 66.5328C117.042 66.5852 117.592 67.1938 117.592 67.9134L117.592 70.0357C117.592 70.854 116.891 71.4925 116.076 71.4137C114.778 71.2879 112.987 71.2758 110.824 71.8629C108.09 72.6044 107.617 73.9488 107.892 74.9642C108.231 76.2139 110.104 76.6279 113.955 76.7575C119.445 76.9033 122.126 78.4401 123.153 82.2282C124.096 85.704 122.366 89.5273 117.579 91.6645L118.276 94.2325C118.476 94.971 118.04 95.7321 117.302 95.9323L115.953 96.2981C115.215 96.4985 114.454 96.0623 114.253 95.3238Z" fill="url(#paint12_linear_85_964)"/>
<path d="M144.776 158.923C159.955 158.923 172.26 146.619 172.26 131.44C172.26 116.261 159.955 103.956 144.776 103.956C129.597 103.956 117.292 116.261 117.292 131.44C117.292 146.619 129.597 158.923 144.776 158.923Z" fill="url(#paint13_linear_85_964)"/>
<path d="M144.776 158.01C159.45 158.01 171.346 146.114 171.346 131.44C171.346 116.766 159.45 104.87 144.776 104.87C130.102 104.87 118.207 116.766 118.207 131.44C118.207 146.114 130.102 158.01 144.776 158.01Z" fill="url(#paint14_linear_85_964)"/>
<path opacity="0.58" d="M120.871 127.003C120.799 127.023 120.721 127.026 120.642 127.01C120.373 126.955 120.201 126.693 120.256 126.425C122.169 117.11 129.054 109.778 138.225 107.29C139.688 106.893 141.19 106.627 142.688 106.5C142.96 106.477 143.201 106.679 143.224 106.953C143.247 107.226 143.047 107.467 142.771 107.489C141.333 107.611 139.89 107.866 138.485 108.248C129.677 110.637 123.065 117.678 121.227 126.624C121.189 126.814 121.046 126.956 120.871 127.003Z" fill="white"/>
<path opacity="0.78" d="M145.487 154.335C157.907 154.335 167.975 144.267 167.975 131.847C167.975 119.427 157.907 109.359 145.487 109.359C133.067 109.359 122.999 119.427 122.999 131.847C122.999 144.267 133.067 154.335 145.487 154.335Z" fill="white"/>
<path d="M147.734 148.56L147.093 146.198C144.605 146.768 142.013 146.847 140.078 146.559C139.387 146.456 138.885 145.849 138.886 145.15L138.889 142.788C138.89 141.922 139.654 141.266 140.513 141.38C142.424 141.634 144.696 141.628 146.98 141.009C149.351 140.366 150.901 139.082 150.454 137.435C150.051 135.948 148.445 135.435 144.91 135.445C139.859 135.434 135.928 134.3 134.805 130.161C133.791 126.424 135.75 122.83 140.284 120.78L139.644 118.419C139.438 117.659 139.886 116.876 140.646 116.669L142.033 116.293C142.793 116.087 143.576 116.536 143.782 117.296L144.358 119.416C146.66 118.889 148.424 118.829 149.865 118.934C150.603 118.988 151.169 119.614 151.169 120.355L151.169 122.539C151.169 123.381 150.447 124.038 149.609 123.957C148.274 123.827 146.431 123.815 144.205 124.419C141.392 125.182 140.905 126.565 141.188 127.61C141.537 128.896 143.465 129.322 147.427 129.455C153.076 129.605 155.834 131.187 156.892 135.085C157.862 138.661 156.082 142.595 151.156 144.794L151.873 147.437C152.079 148.197 151.63 148.98 150.871 149.186L149.483 149.562C148.723 149.768 147.94 149.32 147.734 148.56Z" fill="url(#paint15_linear_85_964)"/>
<path d="M165.917 100.261C178.056 100.261 187.897 90.4204 187.897 78.2809C187.897 66.1415 178.056 56.3005 165.917 56.3005C153.777 56.3005 143.937 66.1415 143.937 78.2809C143.937 90.4204 153.777 100.261 165.917 100.261Z" fill="url(#paint16_linear_85_964)"/>
<path d="M165.917 99.5305C177.653 99.5305 187.167 90.0167 187.167 78.2809C187.167 66.5451 177.653 57.0313 165.917 57.0313C154.181 57.0313 144.667 66.5451 144.667 78.2809C144.667 90.0167 154.181 99.5305 165.917 99.5305Z" fill="url(#paint17_linear_85_964)"/>
<path opacity="0.58" d="M146.836 74.8719C146.757 74.8933 146.672 74.8973 146.586 74.8795C146.293 74.8193 146.104 74.533 146.165 74.2406C147.706 66.737 153.252 60.8307 160.639 58.8268C161.817 58.5073 163.026 58.2933 164.234 58.1907C164.532 58.1651 164.794 58.3861 164.819 58.6839C164.845 58.9816 164.627 59.2471 164.326 59.2693C163.183 59.3668 162.038 59.5695 160.923 59.8718C153.932 61.7682 148.684 67.3576 147.225 74.458C147.183 74.665 147.027 74.8199 146.836 74.8719Z" fill="white"/>
<path opacity="0.78" d="M166.485 96.5916C176.418 96.5916 184.47 88.5394 184.47 78.6066C184.47 68.6737 176.418 60.6215 166.485 60.6215C156.552 60.6215 148.5 68.6737 148.5 78.6066C148.5 88.5394 156.552 96.5916 166.485 96.5916Z" fill="white"/>
<path d="M168.283 91.9728L167.77 90.0844C165.78 90.5397 163.707 90.6034 162.16 90.3731C161.607 90.2909 161.205 89.805 161.206 89.2463L161.209 87.3572C161.21 86.6642 161.821 86.14 162.508 86.2312C164.036 86.4341 165.853 86.4296 167.68 85.9342C169.576 85.4198 170.815 84.3932 170.458 83.0755C170.135 81.8865 168.851 81.4759 166.024 81.4839C161.985 81.4755 158.84 80.5688 157.942 77.2586C157.132 74.2696 158.698 71.395 162.325 69.7559L161.812 67.8672C161.648 67.2595 162.006 66.6331 162.614 66.4683L163.724 66.1673C164.331 66.0025 164.958 66.3614 165.123 66.9692L165.583 68.6647C167.424 68.2435 168.834 68.1953 169.987 68.2797C170.578 68.3228 171.03 68.8237 171.03 69.4159L171.03 71.1624C171.03 71.8358 170.453 72.3614 169.782 72.2963C168.714 72.1928 167.241 72.1829 165.46 72.6659C163.211 73.2762 162.821 74.3824 163.047 75.2181C163.326 76.2465 164.868 76.5874 168.037 76.6939C172.555 76.8139 174.761 78.0784 175.606 81.196C176.383 84.0563 174.959 87.2027 171.02 88.9615L171.593 91.0749C171.758 91.6825 171.399 92.3088 170.791 92.4737L169.681 92.7748C169.074 92.9394 168.448 92.5804 168.283 91.9728Z" fill="url(#paint18_linear_85_964)"/>
<path d="M2.45196 177.672C1.66275 205.857 -0.896753 303.074 0.32505 337.525C0.454456 341.175 3.75929 344.104 7.88159 344.224C28.2706 344.815 103.016 346.312 136.365 345.073C143.311 344.815 148.835 339.834 148.979 333.68C149.672 304.097 151.201 220.892 147.567 182.775C147.132 178.209 143.083 174.572 137.932 174.116C115.727 172.149 40.6609 167.342 11.8488 168.997C6.65284 169.295 2.58099 173.064 2.45196 177.672Z" fill="url(#paint19_linear_85_964)"/>
<path d="M8.30811 190.099V213.984C8.30811 218.564 12.0212 222.277 16.6015 222.277H130.719C135.299 222.277 139.012 218.564 139.012 213.984V190.099C139.012 185.518 135.299 181.805 130.719 181.805H16.6015C12.0212 181.805 8.30811 185.518 8.30811 190.099Z" fill="#91B3FA"/>
<path opacity="0.2" d="M133.191 189.962C132.183 188.919 130.8 188.32 129.349 188.297L22.5677 186.6C19.7131 186.555 17.3044 188.714 17.0382 191.556L14.8194 215.246C14.6377 217.186 17.8289 218.819 21.8972 218.868L126.878 220.14C130.94 220.19 134.299 218.64 134.332 216.702L134.728 193.857C134.753 192.406 134.2 191.005 133.191 189.962Z" fill="white"/>
<path d="M36.8376 246.494C36.8376 250.708 33.4214 254.124 29.2076 254.124H19.919C15.705 254.124 12.2891 250.708 12.2891 246.494C12.2891 242.28 15.7051 238.864 19.919 238.864H29.2076C33.4214 238.864 36.8376 242.28 36.8376 246.494Z" fill="url(#paint20_linear_85_964)"/>
<path d="M71.338 246.494C71.338 250.708 67.922 254.124 63.7081 254.124H54.4195C50.2056 254.124 46.7896 250.708 46.7896 246.494C46.7896 242.28 50.2056 238.864 54.4195 238.864H63.7081C67.922 238.864 71.338 242.28 71.338 246.494Z" fill="url(#paint21_linear_85_964)"/>
<path d="M104.511 246.494C104.511 250.708 101.095 254.124 96.8815 254.124H87.5928C83.3788 254.124 79.9629 250.708 79.9629 246.494C79.9629 242.28 83.3789 238.864 87.5928 238.864H96.8815C101.095 238.864 104.511 242.28 104.511 246.494Z" fill="url(#paint22_linear_85_964)"/>
<path d="M138.14 247.614C138.14 251.896 134.668 255.368 130.386 255.368H121.408C117.126 255.368 113.655 251.896 113.655 247.614C113.655 243.332 117.126 239.861 121.408 239.861H130.386C134.668 239.861 138.14 243.332 138.14 247.614Z" fill="url(#paint23_linear_85_964)"/>
<path d="M36.8376 270.379C36.8376 274.593 33.4214 278.009 29.2076 278.009H19.919C15.705 278.009 12.2891 274.593 12.2891 270.379C12.2891 266.165 15.7051 262.749 19.919 262.749H29.2076C33.4214 262.749 36.8376 266.165 36.8376 270.379Z" fill="url(#paint24_linear_85_964)"/>
<path d="M71.338 270.379C71.338 274.593 67.922 278.009 63.7081 278.009H54.4195C50.2056 278.009 46.7896 274.593 46.7896 270.379C46.7896 266.165 50.2056 262.749 54.4195 262.749H63.7081C67.922 262.749 71.338 266.165 71.338 270.379Z" fill="url(#paint25_linear_85_964)"/>
<path d="M104.511 270.379C104.511 274.593 101.095 278.009 96.8815 278.009H87.5928C83.3788 278.009 79.9629 274.593 79.9629 270.379C79.9629 266.165 83.3789 262.749 87.5928 262.749H96.8815C101.095 262.749 104.511 266.165 104.511 270.379Z" fill="url(#paint26_linear_85_964)"/>
<path d="M139.012 270.379C139.012 274.593 135.596 278.009 131.382 278.009H122.093C117.879 278.009 114.463 274.593 114.463 270.379C114.463 266.165 117.879 262.749 122.093 262.749H131.382C135.596 262.749 139.012 266.165 139.012 270.379Z" fill="url(#paint27_linear_85_964)"/>
<path opacity="0.63" d="M36.8376 291.532C36.8376 295.746 33.4214 299.162 29.2076 299.162H19.919C15.705 299.162 12.2891 295.746 12.2891 291.532C12.2891 287.319 15.7051 283.902 19.919 283.902H29.2076C33.4214 283.903 36.8376 287.319 36.8376 291.532Z" fill="url(#paint28_linear_85_964)"/>
<path opacity="0.63" d="M71.338 291.532C71.338 295.746 67.922 299.162 63.7081 299.162H54.4195C50.2056 299.162 46.7896 295.746 46.7896 291.532C46.7896 287.319 50.2056 283.902 54.4195 283.902H63.7081C67.922 283.903 71.338 287.319 71.338 291.532Z" fill="url(#paint29_linear_85_964)"/>
<path opacity="0.63" d="M104.511 291.532C104.511 295.746 101.095 299.162 96.8815 299.162H87.5928C83.3788 299.162 79.9629 295.746 79.9629 291.532C79.9629 287.319 83.3789 283.902 87.5928 283.902H96.8815C101.095 283.903 104.511 287.319 104.511 291.532Z" fill="url(#paint30_linear_85_964)"/>
<path opacity="0.63" d="M36.8376 314.754C36.8376 318.968 33.4214 322.384 29.2076 322.384H19.919C15.705 322.384 12.2891 318.968 12.2891 314.754C12.2891 310.54 15.7051 307.124 19.919 307.124H29.2076C33.4214 307.124 36.8376 310.54 36.8376 314.754Z" fill="url(#paint31_linear_85_964)"/>
<path opacity="0.63" d="M71.338 314.754C71.338 318.968 67.922 322.384 63.7081 322.384H54.4195C50.2056 322.384 46.7896 318.968 46.7896 314.754C46.7896 310.54 50.2056 307.124 54.4195 307.124H63.7081C67.922 307.124 71.338 310.54 71.338 314.754Z" fill="url(#paint32_linear_85_964)"/>
<path opacity="0.63" d="M104.511 314.754C104.511 318.968 101.095 322.384 96.8815 322.384H87.5928C83.3788 322.384 79.9629 318.968 79.9629 314.754C79.9629 310.54 83.3789 307.124 87.5928 307.124H96.8815C101.095 307.124 104.511 310.54 104.511 314.754Z" fill="url(#paint33_linear_85_964)"/>
<path d="M135.695 314.131C135.695 319.465 131.371 323.788 126.037 323.788H125.448C120.114 323.788 115.791 319.465 115.791 314.131V295.628C115.791 290.295 120.114 285.971 125.448 285.971H126.037C131.371 285.971 135.695 290.295 135.695 295.628V314.131Z" fill="url(#paint34_linear_85_964)"/>
<g opacity="0.7">
<path d="M122.425 193.416C122.425 194.332 121.683 195.075 120.767 195.075H116.123C115.206 195.075 114.464 194.332 114.464 193.416C114.464 192.5 115.206 191.758 116.123 191.758H120.767C121.683 191.758 122.425 192.5 122.425 193.416Z" fill="white"/>
<path d="M122.425 215.974C122.425 216.89 121.683 217.633 120.767 217.633H116.123C115.206 217.633 114.464 216.89 114.464 215.974C114.464 215.058 115.206 214.316 116.123 214.316H120.767C121.683 214.316 122.425 215.058 122.425 215.974Z" fill="white"/>
<path d="M115.127 202.705C115.127 203.621 114.384 204.363 113.468 204.363C112.552 204.363 111.81 203.621 111.81 202.705V198.06C111.81 197.144 112.552 196.402 113.468 196.402C114.384 196.402 115.127 197.144 115.127 198.06V202.705Z" fill="white"/>
<path d="M115.127 211.993C115.127 212.909 114.384 213.652 113.468 213.652C112.552 213.652 111.81 212.909 111.81 211.993V207.349C111.81 206.433 112.552 205.69 113.468 205.69C114.384 205.69 115.127 206.433 115.127 207.349V211.993Z" fill="white"/>
<path d="M126.406 202.705C126.406 203.621 125.664 204.363 124.747 204.363C123.831 204.363 123.089 203.621 123.089 202.705V198.06C123.089 197.144 123.831 196.402 124.747 196.402C125.664 196.402 126.406 197.144 126.406 198.06V202.705Z" fill="white"/>
<path d="M126.406 211.993C126.406 212.909 125.664 213.652 124.747 213.652C123.831 213.652 123.089 212.909 123.089 211.993V207.349C123.089 206.433 123.831 205.69 124.747 205.69C125.664 205.69 126.406 206.433 126.406 207.349V211.993Z" fill="white"/>
</g>
<path d="M278.882 344.344C281.815 344.597 286.906 345.009 290.919 345.186C293.331 345.292 294.72 345.056 295.52 344.736C295.518 344.826 295.516 344.911 295.513 344.99C295.493 345.412 295.15 345.75 294.724 345.774C287.141 346.197 281.11 345.921 278.963 345.79C278.519 345.763 278.254 345.28 278.481 344.902C278.595 344.713 278.733 344.527 278.882 344.344Z" fill="url(#paint35_linear_85_964)"/>
<path d="M290.919 345.186C286.905 345.009 281.815 344.598 278.882 344.344C281.766 340.806 290.919 338.421 290.919 338.421H293.504C295.282 340.984 295.539 343.424 295.52 344.736C294.72 345.056 293.331 345.292 290.919 345.186Z" fill="url(#paint36_linear_85_964)"/>
<path d="M293.939 334.201L293.697 338.988C293.671 339.507 293.283 339.942 292.764 340.016C292.248 340.09 291.556 340.1 290.822 339.856C290.371 339.705 290.036 339.325 289.953 338.861L289.117 334.201H293.939Z" fill="url(#paint37_linear_85_964)"/>
<path d="M327.516 345.15C328.788 344.973 329.363 344.312 329.605 343.606C329.606 343.612 329.608 343.619 329.61 343.625C329.797 344.37 329.363 345.142 328.496 345.51C327.447 345.954 326.301 346.029 325.411 345.992C324.457 345.953 323.58 345.558 323.099 344.926L323.091 344.916C324.05 345.39 325.395 345.446 327.516 345.15Z" fill="url(#paint38_linear_85_964)"/>
<path d="M321.519 334.17H323.651C326.898 334.104 328.937 340.953 329.605 343.606C329.363 344.312 328.788 344.973 327.516 345.15C325.395 345.446 324.049 345.39 323.091 344.916C321.337 342.607 320.467 339.226 320.049 337.253C319.573 335.009 321.519 334.17 321.519 334.17Z" fill="url(#paint39_linear_85_964)"/>
<path d="M323.377 329.727L324.561 334.436C324.706 335.013 324.429 335.61 323.896 335.884C323.233 336.224 322.301 336.581 321.444 336.478C321.041 336.429 320.707 336.145 320.573 335.766L318.835 330.812L323.377 329.727Z" fill="url(#paint40_linear_85_964)"/>
<path d="M324.789 331.088C323.316 332.395 318.525 332.567 318.525 332.567C301.269 291.149 294.21 285.266 294.21 285.266C296.701 300.898 294.612 335.508 294.612 335.508C291.764 336.764 288.092 335.508 288.092 335.508C287.861 309.915 283.927 287.595 279.28 269.999C290.944 269.737 297.146 265.745 299.171 264.143C308.894 279.818 324.789 331.088 324.789 331.088Z" fill="url(#paint41_linear_85_964)"/>
<path d="M296.209 216.513C298.417 227.525 297.626 247.233 297.106 256.223C296.96 258.75 298.724 262.253 300.15 264.642C300.373 265.017 300.235 265.497 299.847 265.697C297.46 266.923 289.374 270.725 280.002 271.199C279.377 271.23 278.819 270.804 278.657 270.2C271.705 244.243 263.63 227.656 263.63 227.656C272.545 213.42 296.209 216.513 296.209 216.513Z" fill="url(#paint42_linear_85_964)"/>
<path d="M293.032 284.285C293.13 284.285 293.229 284.259 293.319 284.204C293.58 284.045 293.662 283.705 293.504 283.445C293.411 283.293 291.179 279.685 286.662 277.505C286.387 277.373 286.056 277.487 285.924 277.763C285.791 278.037 285.906 278.368 286.181 278.5C290.392 280.533 292.538 283.986 292.56 284.02C292.664 284.191 292.846 284.285 293.032 284.285Z" fill="url(#paint43_linear_85_964)"/>
<path d="M310.056 248.116C309.347 253.246 307.252 258.842 303.061 264.785L301.468 263.486C301.468 263.486 303.307 256.024 302.261 247.556C304.847 247.051 307.9 247.571 310.056 248.116Z" fill="url(#paint44_linear_85_964)"/>
<path d="M293.743 230.1L296.209 216.513C296.209 216.513 312.684 229.106 310.056 248.116C307.9 247.571 304.847 247.051 302.261 247.555C301.508 241.455 299.258 234.832 293.743 230.1Z" fill="url(#paint45_linear_85_964)"/>
<path d="M263.63 227.656L269.99 241.351C268.962 249.62 264.52 253.195 259.73 254.566C259.432 250.798 258.479 247.753 257.595 245.647C263.714 239.329 263.63 227.656 263.63 227.656Z" fill="url(#paint46_linear_85_964)"/>
<path d="M257.595 245.647C258.479 247.753 259.432 250.798 259.73 254.566C246.952 259.524 243.572 249.909 243.572 249.909L245.933 249.492C251.266 250.054 254.991 248.335 257.595 245.647Z" fill="url(#paint47_linear_85_964)"/>
<path d="M269.489 210.747L272.559 222.033C272.904 223.301 274.276 223.982 275.495 223.494C276.812 222.968 278.483 222.249 279.92 221.473C281.456 220.644 281.936 218.67 280.964 217.221L274.581 207.704L269.489 210.747Z" fill="url(#paint48_linear_85_964)"/>
<path d="M262.773 202.173C262.745 202.366 265.334 215.052 265.334 215.052L272.545 213.42L271.878 201.032C271.878 201.032 263.241 198.928 262.773 202.173Z" fill="url(#paint49_linear_85_964)"/>
<path d="M270.256 203.793L271.118 210.286C271.129 210.369 271.129 210.452 271.117 210.535C271.044 211.044 270.665 212.777 268.916 212.281C267.329 211.832 265.874 211.445 264.869 211.752C264.417 211.89 264.145 212.347 264.239 212.81C264.475 213.962 265.054 216.55 265.899 218.721C266.071 219.161 266.553 219.393 267.007 219.26C268.375 218.862 271.236 217.94 273.364 216.659C273.653 216.486 273.824 216.172 273.81 215.836C273.741 214.197 273.549 209.213 273.711 207.817C273.862 206.506 275.471 205.72 276.17 205.438C276.4 205.346 276.579 205.166 276.671 204.936C276.994 204.125 277.441 202.247 275.075 201.478C274.58 201.317 274.319 200.783 274.495 200.293C274.845 199.318 274.993 197.829 273.163 197.009C271.303 196.175 269.913 197.167 269.163 197.973C268.86 198.299 268.373 198.348 267.997 198.11C267.783 197.975 267.507 197.931 267.173 198.138C266.724 198.418 266.129 198.228 265.897 197.752C265.451 196.837 264.543 195.858 262.722 196.17C259.491 196.723 259.125 200.304 259.977 202.403C260.83 204.501 264.299 203.702 266.04 202.644C267.363 201.84 269.08 202.683 269.827 203.133C270.063 203.276 270.22 203.519 270.256 203.793Z" fill="url(#paint50_linear_85_964)"/>
<path d="M274.001 210.184C274.001 210.184 272.673 206.464 274.038 205.553C275.403 204.642 277.424 205.115 276.979 207.81C276.426 211.162 274.001 210.184 274.001 210.184Z" fill="url(#paint51_linear_85_964)"/>
<path d="M244.519 251.668C243.875 252.171 241.672 251.122 240.323 250.396C239.666 250.043 239.348 249.275 239.574 248.563C239.898 247.54 240.439 246.219 241.105 246.053C242.21 245.776 247.169 249.598 244.519 251.668Z" fill="url(#paint52_linear_85_964)"/>
<path d="M345.653 281.297L217.157 235.597L210.359 254.481L338.81 301.458C341.539 302.456 344.583 301.349 346.045 298.839C347.547 296.26 348.982 292.231 349.068 286.197C349.1 284.003 347.72 282.032 345.653 281.297Z" fill="url(#paint53_linear_85_964)"/>
<path d="M177.405 230.716L195.154 232.895C195.135 235.338 194.336 238.499 191.628 242.125L176.805 232.346C176.018 231.827 176.469 230.601 177.405 230.716Z" fill="url(#paint54_linear_85_964)"/>
<path d="M217.158 235.597C217.971 247.432 210.359 254.481 210.359 254.481L191.628 242.125C194.336 238.499 195.136 235.338 195.154 232.895L217.158 235.597Z" fill="url(#paint55_linear_85_964)"/>
<path d="M344.059 287.088C344.215 287.088 344.36 286.991 344.415 286.836C344.485 286.639 344.381 286.424 344.185 286.354L221.249 242.907C221.051 242.838 220.836 242.941 220.767 243.138C220.697 243.334 220.801 243.55 220.997 243.619L343.933 287.066C343.975 287.081 344.017 287.088 344.059 287.088Z" fill="url(#paint56_linear_85_964)"/>
<path d="M341.938 294.496C342.094 294.496 342.24 294.4 342.294 294.244C342.364 294.048 342.261 293.832 342.064 293.763L219.128 250.316C218.931 250.246 218.716 250.349 218.646 250.546C218.577 250.742 218.68 250.958 218.876 251.028L341.813 294.475C341.854 294.489 341.897 294.496 341.938 294.496Z" fill="url(#paint57_linear_85_964)"/>
<path d="M302.125 263.26L294.688 262.654L291.468 265.623C291.468 265.623 292.23 266.676 294.612 266.07C296.994 265.465 300.257 265.316 300.257 265.316C300.257 265.316 303.546 266.799 303.586 264.025L302.125 263.26Z" fill="url(#paint58_linear_85_964)"/>
<defs>
<linearGradient id="paint0_linear_85_964" x1="390.116" y1="444.307" x2="88.3969" y2="69.5903" gradientUnits="userSpaceOnUse">
<stop stop-color="#DAE3FE"/>
<stop offset="1" stop-color="#E9EFFD"/>
</linearGradient>
<linearGradient id="paint1_linear_85_964" x1="198.896" y1="322.955" x2="182.129" y2="-173.375" gradientUnits="userSpaceOnUse">
<stop stop-color="#09005D"/>
<stop offset="1" stop-color="#1A0F91"/>
</linearGradient>
<linearGradient id="paint2_linear_85_964" x1="40.7856" y1="277.792" x2="230.823" y2="398.522" gradientUnits="userSpaceOnUse">
<stop stop-color="#A737D5"/>
<stop offset="1" stop-color="#EF497A"/>
</linearGradient>
<linearGradient id="paint3_linear_85_964" x1="56.7367" y1="252.684" x2="246.773" y2="373.415" gradientUnits="userSpaceOnUse">
<stop stop-color="#A737D5"/>
<stop offset="1" stop-color="#EF497A"/>
</linearGradient>
<linearGradient id="paint4_linear_85_964" x1="225.171" y1="-23.2203" x2="141.313" y2="87.0923" gradientUnits="userSpaceOnUse">
<stop stop-color="#09005D"/>
<stop offset="1" stop-color="#1A0F91"/>
</linearGradient>
<linearGradient id="paint5_linear_85_964" x1="234.37" y1="-16.2277" x2="150.512" y2="94.0846" gradientUnits="userSpaceOnUse">
<stop stop-color="#09005D"/>
<stop offset="1" stop-color="#1A0F91"/>
</linearGradient>
<linearGradient id="paint6_linear_85_964" x1="223.802" y1="-9.48019" x2="165.9" y2="96.8391" gradientUnits="userSpaceOnUse">
<stop stop-color="#4F52FF"/>
<stop offset="1" stop-color="#4042E2"/>
</linearGradient>
<linearGradient id="paint7_linear_85_964" x1="73.7563" y1="-391.901" x2="74.2924" y2="-342.115" gradientUnits="userSpaceOnUse">
<stop stop-color="#E1473D"/>
<stop offset="1" stop-color="#E9605A"/>
</linearGradient>
<linearGradient id="paint8_linear_85_964" x1="73.7565" y1="-391.902" x2="74.2926" y2="-342.116" gradientUnits="userSpaceOnUse">
<stop stop-color="#FF928E"/>
<stop offset="1" stop-color="#FE7062"/>
</linearGradient>
<linearGradient id="paint9_linear_85_964" x1="74.3847" y1="-391.909" x2="74.9208" y2="-342.122" gradientUnits="userSpaceOnUse">
<stop stop-color="#FF928E"/>
<stop offset="1" stop-color="#FE7062"/>
</linearGradient>
<linearGradient id="paint10_linear_85_964" x1="106.308" y1="-392.252" x2="106.844" y2="-342.465" gradientUnits="userSpaceOnUse">
<stop stop-color="#E1473D"/>
<stop offset="1" stop-color="#E9605A"/>
</linearGradient>
<linearGradient id="paint11_linear_85_964" x1="106.308" y1="-392.252" x2="106.844" y2="-342.466" gradientUnits="userSpaceOnUse">
<stop stop-color="#FF928E"/>
<stop offset="1" stop-color="#FE7062"/>
</linearGradient>
<linearGradient id="paint12_linear_85_964" x1="107.334" y1="-392.263" x2="107.87" y2="-342.476" gradientUnits="userSpaceOnUse">
<stop stop-color="#FF928E"/>
<stop offset="1" stop-color="#FE7062"/>
</linearGradient>
<linearGradient id="paint13_linear_85_964" x1="139.134" y1="-392.606" x2="139.67" y2="-342.819" gradientUnits="userSpaceOnUse">
<stop stop-color="#E1473D"/>
<stop offset="1" stop-color="#E9605A"/>
</linearGradient>
<linearGradient id="paint14_linear_85_964" x1="139.134" y1="-392.605" x2="139.67" y2="-342.819" gradientUnits="userSpaceOnUse">
<stop stop-color="#FF928E"/>
<stop offset="1" stop-color="#FE7062"/>
</linearGradient>
<linearGradient id="paint15_linear_85_964" x1="140.189" y1="-392.618" x2="140.725" y2="-342.832" gradientUnits="userSpaceOnUse">
<stop stop-color="#FF928E"/>
<stop offset="1" stop-color="#FE7062"/>
</linearGradient>
<linearGradient id="paint16_linear_85_964" x1="160.844" y1="-392.839" x2="161.38" y2="-343.052" gradientUnits="userSpaceOnUse">
<stop stop-color="#E1473D"/>
<stop offset="1" stop-color="#E9605A"/>
</linearGradient>
<linearGradient id="paint17_linear_85_964" x1="160.844" y1="-392.84" x2="161.38" y2="-343.054" gradientUnits="userSpaceOnUse">
<stop stop-color="#FF928E"/>
<stop offset="1" stop-color="#FE7062"/>
</linearGradient>
<linearGradient id="paint18_linear_85_964" x1="161.689" y1="-392.848" x2="162.225" y2="-343.061" gradientUnits="userSpaceOnUse">
<stop stop-color="#FF928E"/>
<stop offset="1" stop-color="#FE7062"/>
</linearGradient>
<linearGradient id="paint19_linear_85_964" x1="0.000132441" y1="257.103" x2="149.896" y2="257.103" gradientUnits="userSpaceOnUse">
<stop stop-color="#09005D"/>
<stop offset="1" stop-color="#1A0F91"/>
</linearGradient>
<linearGradient id="paint20_linear_85_964" x1="-13.2645" y1="282.912" x2="87.2468" y2="186.147" gradientUnits="userSpaceOnUse">
<stop stop-color="#4F52FF"/>
<stop offset="1" stop-color="#4042E2"/>
</linearGradient>
<linearGradient id="paint21_linear_85_964" x1="3.33093" y1="300.15" x2="103.842" y2="203.384" gradientUnits="userSpaceOnUse">
<stop stop-color="#4F52FF"/>
<stop offset="1" stop-color="#4042E2"/>
</linearGradient>
<linearGradient id="paint22_linear_85_964" x1="19.2876" y1="316.725" x2="119.799" y2="219.959" gradientUnits="userSpaceOnUse">
<stop stop-color="#4F52FF"/>
<stop offset="1" stop-color="#4042E2"/>
</linearGradient>
<linearGradient id="paint23_linear_85_964" x1="171.206" y1="125.903" x2="139.287" y2="211.646" gradientUnits="userSpaceOnUse">
<stop stop-color="#FF928E"/>
<stop offset="1" stop-color="#FE7062"/>
</linearGradient>
<linearGradient id="paint24_linear_85_964" x1="-1.33081" y1="295.308" x2="99.1806" y2="198.543" gradientUnits="userSpaceOnUse">
<stop stop-color="#4F52FF"/>
<stop offset="1" stop-color="#4042E2"/>
</linearGradient>
<linearGradient id="paint25_linear_85_964" x1="15.2645" y1="312.546" x2="115.776" y2="215.78" gradientUnits="userSpaceOnUse">
<stop stop-color="#4F52FF"/>
<stop offset="1" stop-color="#4042E2"/>
</linearGradient>
<linearGradient id="paint26_linear_85_964" x1="31.2215" y1="329.121" x2="131.733" y2="232.355" gradientUnits="userSpaceOnUse">
<stop stop-color="#4F52FF"/>
<stop offset="1" stop-color="#4042E2"/>
</linearGradient>
<linearGradient id="paint27_linear_85_964" x1="47.8168" y1="346.359" x2="148.329" y2="249.593" gradientUnits="userSpaceOnUse">
<stop stop-color="#4F52FF"/>
<stop offset="1" stop-color="#4042E2"/>
</linearGradient>
<linearGradient id="paint28_linear_85_964" x1="9.2381" y1="306.286" x2="109.75" y2="209.521" gradientUnits="userSpaceOnUse">
<stop stop-color="#4F52FF"/>
<stop offset="1" stop-color="#4042E2"/>
</linearGradient>
<linearGradient id="paint29_linear_85_964" x1="25.8336" y1="323.524" x2="126.345" y2="226.759" gradientUnits="userSpaceOnUse">
<stop stop-color="#4F52FF"/>
<stop offset="1" stop-color="#4042E2"/>
</linearGradient>
<linearGradient id="paint30_linear_85_964" x1="41.7905" y1="340.099" x2="142.302" y2="243.333" gradientUnits="userSpaceOnUse">
<stop stop-color="#4F52FF"/>
<stop offset="1" stop-color="#4042E2"/>
</linearGradient>
<linearGradient id="paint31_linear_85_964" x1="20.8406" y1="318.338" x2="121.352" y2="221.572" gradientUnits="userSpaceOnUse">
<stop stop-color="#4F52FF"/>
<stop offset="1" stop-color="#4042E2"/>
</linearGradient>
<linearGradient id="paint32_linear_85_964" x1="37.4361" y1="335.576" x2="137.948" y2="238.81" gradientUnits="userSpaceOnUse">
<stop stop-color="#4F52FF"/>
<stop offset="1" stop-color="#4042E2"/>
</linearGradient>
<linearGradient id="paint33_linear_85_964" x1="53.3929" y1="352.151" x2="153.905" y2="255.385" gradientUnits="userSpaceOnUse">
<stop stop-color="#4F52FF"/>
<stop offset="1" stop-color="#4042E2"/>
</linearGradient>
<linearGradient id="paint34_linear_85_964" x1="115.193" y1="320.207" x2="148.28" y2="272.136" gradientUnits="userSpaceOnUse">
<stop stop-color="#4F52FF"/>
<stop offset="1" stop-color="#4042E2"/>
</linearGradient>
<linearGradient id="paint35_linear_85_964" x1="295.52" y1="345.172" x2="278.399" y2="345.172" gradientUnits="userSpaceOnUse">
<stop stop-color="#4F52FF"/>
<stop offset="1" stop-color="#4042E2"/>
</linearGradient>
<linearGradient id="paint36_linear_85_964" x1="295.521" y1="341.817" x2="278.882" y2="341.817" gradientUnits="userSpaceOnUse">
<stop stop-color="#09005D"/>
<stop offset="1" stop-color="#1A0F91"/>
</linearGradient>
<linearGradient id="paint37_linear_85_964" x1="293.939" y1="337.132" x2="289.117" y2="337.132" gradientUnits="userSpaceOnUse">
<stop stop-color="#FEBBBA"/>
<stop offset="1" stop-color="#FF928E"/>
</linearGradient>
<linearGradient id="paint38_linear_85_964" x1="329.653" y1="344.803" x2="323.091" y2="344.803" gradientUnits="userSpaceOnUse">
<stop stop-color="#4F52FF"/>
<stop offset="1" stop-color="#4042E2"/>
</linearGradient>
<linearGradient id="paint39_linear_85_964" x1="329.605" y1="339.751" x2="319.974" y2="339.751" gradientUnits="userSpaceOnUse">
<stop stop-color="#09005D"/>
<stop offset="1" stop-color="#1A0F91"/>
</linearGradient>
<linearGradient id="paint40_linear_85_964" x1="324.599" y1="333.112" x2="318.835" y2="333.112" gradientUnits="userSpaceOnUse">
<stop stop-color="#FEBBBA"/>
<stop offset="1" stop-color="#FF928E"/>
</linearGradient>
<linearGradient id="paint41_linear_85_964" x1="224.654" y1="421.404" x2="312.28" y2="284.541" gradientUnits="userSpaceOnUse">
<stop stop-color="#4F52FF"/>
<stop offset="1" stop-color="#4042E2"/>
</linearGradient>
<linearGradient id="paint42_linear_85_964" x1="-3.84964" y1="-870.428" x2="8.66765" y2="-822.236" gradientUnits="userSpaceOnUse">
<stop stop-color="#FF928E"/>
<stop offset="1" stop-color="#FE7062"/>
</linearGradient>
<linearGradient id="paint43_linear_85_964" x1="305.176" y1="311.767" x2="302.414" y2="306.243" gradientUnits="userSpaceOnUse">
<stop stop-color="#4F52FF"/>
<stop offset="1" stop-color="#4042E2"/>
</linearGradient>
<linearGradient id="paint44_linear_85_964" x1="298.193" y1="249.099" x2="318.71" y2="267.267" gradientUnits="userSpaceOnUse">
<stop stop-color="#FEBBBA"/>
<stop offset="1" stop-color="#FF928E"/>
</linearGradient>
<linearGradient id="paint45_linear_85_964" x1="13.6949" y1="-874.983" x2="26.2122" y2="-826.792" gradientUnits="userSpaceOnUse">
<stop stop-color="#FF928E"/>
<stop offset="1" stop-color="#FE7062"/>
</linearGradient>
<linearGradient id="paint46_linear_85_964" x1="-24.2539" y1="-865.127" x2="-11.7366" y2="-816.936" gradientUnits="userSpaceOnUse">
<stop stop-color="#FF928E"/>
<stop offset="1" stop-color="#FE7062"/>
</linearGradient>
<linearGradient id="paint47_linear_85_964" x1="259.73" y1="250.817" x2="243.572" y2="250.817" gradientUnits="userSpaceOnUse">
<stop stop-color="#FEBBBA"/>
<stop offset="1" stop-color="#FF928E"/>
</linearGradient>
<linearGradient id="paint48_linear_85_964" x1="275.436" y1="207.636" x2="275.613" y2="237.81" gradientUnits="userSpaceOnUse">
<stop stop-color="#FEBBBA"/>
<stop offset="1" stop-color="#FF928E"/>
</linearGradient>
<linearGradient id="paint49_linear_85_964" x1="265.646" y1="202.674" x2="277.54" y2="224.242" gradientUnits="userSpaceOnUse">
<stop stop-color="#FEBBBA"/>
<stop offset="1" stop-color="#FF928E"/>
</linearGradient>
<linearGradient id="paint50_linear_85_964" x1="276.196" y1="208.985" x2="258.636" y2="206.451" gradientUnits="userSpaceOnUse">
<stop stop-color="#09005D"/>
<stop offset="1" stop-color="#1A0F91"/>
</linearGradient>
<linearGradient id="paint51_linear_85_964" x1="284.954" y1="221.181" x2="274.909" y2="207.383" gradientUnits="userSpaceOnUse">
<stop stop-color="#FEBBBA"/>
<stop offset="1" stop-color="#FF928E"/>
</linearGradient>
<linearGradient id="paint52_linear_85_964" x1="245.288" y1="248.919" x2="239.502" y2="248.919" gradientUnits="userSpaceOnUse">
<stop stop-color="#FEBBBA"/>
<stop offset="1" stop-color="#FF928E"/>
</linearGradient>
<linearGradient id="paint53_linear_85_964" x1="214.143" y1="221.171" x2="400.521" y2="357.13" gradientUnits="userSpaceOnUse">
<stop stop-color="#E1473D"/>
<stop offset="1" stop-color="#E9605A"/>
</linearGradient>
<linearGradient id="paint54_linear_85_964" x1="176.401" y1="236.417" x2="195.154" y2="236.417" gradientUnits="userSpaceOnUse">
<stop stop-color="#E1473D"/>
<stop offset="1" stop-color="#E9605A"/>
</linearGradient>
<linearGradient id="paint55_linear_85_964" x1="-78.687" y1="-850.995" x2="-66.1697" y2="-802.803" gradientUnits="userSpaceOnUse">
<stop stop-color="#FEBBBA"/>
<stop offset="1" stop-color="#FF928E"/>
</linearGradient>
<linearGradient id="paint56_linear_85_964" x1="241.575" y1="222.835" x2="323.606" y2="307.139" gradientUnits="userSpaceOnUse">
<stop stop-color="#FEBBBA"/>
<stop offset="1" stop-color="#FF928E"/>
</linearGradient>
<linearGradient id="paint57_linear_85_964" x1="239.455" y1="230.243" x2="321.486" y2="314.547" gradientUnits="userSpaceOnUse">
<stop stop-color="#FEBBBA"/>
<stop offset="1" stop-color="#FF928E"/>
</linearGradient>
<linearGradient id="paint58_linear_85_964" x1="290.091" y1="258.248" x2="310.609" y2="276.417" gradientUnits="userSpaceOnUse">
<stop stop-color="#FEBBBA"/>
<stop offset="1" stop-color="#FF928E"/>
</linearGradient>
</defs>
</svg>
