<svg xmlns="http://www.w3.org/2000/svg" width="958.013" height="503.566" viewBox="0 0 958.013 503.566">
  <g id="Group_1890" data-name="Group 1890" transform="translate(-273.789 -142.209)">
    <path id="Path_2632" data-name="Path 2632" d="M339.373,644.571S227.9,524.881,320.521,395.3c82.182-114.973,178-107.114,248.3-60.457,29.941,19.872,116.264,2.449,189.737-114.541,100.2-159.542,447.511-62.779,384.185,182.68-30.646,118.785,93.266,123.1,30.129,241.839Z" transform="translate(-6.264 0)" fill="#ebf3fa"/>
    <g id="Group_1867" data-name="Group 1867" transform="translate(836.474 516.863)">
      <path id="Path_2633" data-name="Path 2633" d="M1818.184,1154.856l8.551,1.406a3.646,3.646,0,0,1,1.758.8,3.049,3.049,0,0,1,1.01,1.557,2.518,2.518,0,0,1,.083.555,2.559,2.559,0,0,1-.032.518l-19.673,119.231a3.14,3.14,0,0,1-3.6,2.367c-.057-.007-.114-.015-.17-.025l-8.551-1.406c-.056-.009-.113-.02-.169-.031a3.136,3.136,0,0,1-2.65-3.4l19.673-119.23a2.549,2.549,0,0,1,.136-.5,2.5,2.5,0,0,1,.257-.5,3.054,3.054,0,0,1,1.457-1.152A3.653,3.653,0,0,1,1818.184,1154.856Z" transform="translate(-1794.662 -1154.805)" fill="#ffb93e"/>
      <path id="Path_2634" data-name="Path 2634" d="M1820.3,1318.449l-10.54,63.877c-.226,1.371-1.8,2.273-3.55,2.058-.057-.007-.113-.015-.17-.025l-8.551-1.406c-.057-.009-.113-.02-.169-.031-1.722-.355-2.928-1.715-2.7-3.086l9.245-56.032C1808.464,1323.642,1814.973,1322.569,1820.3,1318.449Z" transform="translate(-1794.587 -1257.902)" fill="#ffa412"/>
      <g id="Group_1866" data-name="Group 1866" transform="translate(6.832 0.242)">
        <rect id="Rectangle_78" data-name="Rectangle 78" width="1.374" height="15.345" transform="translate(10.78 15.124) rotate(-80.616)" fill="#ffa412"/>
        <rect id="Rectangle_79" data-name="Rectangle 79" width="1.373" height="15.345" transform="translate(10.022 19.715) rotate(-80.643)" fill="#ffa412"/>
        <rect id="Rectangle_80" data-name="Rectangle 80" width="1.373" height="15.345" transform="translate(9.115 25.213) rotate(-80.627)" fill="#ffa412"/>
        <rect id="Rectangle_81" data-name="Rectangle 81" width="1.373" height="15.345" transform="translate(7.724 33.645) rotate(-80.631)" fill="#ffa412"/>
        <rect id="Rectangle_82" data-name="Rectangle 82" width="1.373" height="15.345" transform="translate(6.253 42.561) rotate(-80.629)" fill="#ffa412"/>
        <rect id="Rectangle_83" data-name="Rectangle 83" width="1.373" height="15.345" transform="translate(3.997 56.231) rotate(-80.642)" fill="#ffa412"/>
        <rect id="Rectangle_84" data-name="Rectangle 84" width="1.373" height="15.345" transform="translate(1.886 69.025) rotate(-80.615)" fill="#ffa412"/>
        <rect id="Rectangle_85" data-name="Rectangle 85" width="1.373" height="15.345" transform="translate(0 80.455) rotate(-80.631)" fill="#ffa412"/>
        <rect id="Rectangle_86" data-name="Rectangle 86" width="1.373" height="15.345" transform="translate(11.5 10.761) rotate(-80.642)" fill="#ffa412"/>
        <rect id="Rectangle_87" data-name="Rectangle 87" width="1.373" height="15.345" transform="translate(11.976 7.875) rotate(-80.629)" fill="#ffa412"/>
        <rect id="Rectangle_88" data-name="Rectangle 88" width="1.373" height="15.345" transform="translate(12.435 5.091) rotate(-80.642)" fill="#ffa412"/>
        <path id="Path_2635" data-name="Path 2635" d="M1847.592,1161.27l15.141,2.489.14-.847a2.546,2.546,0,0,0,.032-.517l-15.037-2.472a2.534,2.534,0,0,0-.136.5Z" transform="translate(-1834.812 -1158.271)" fill="#ffa412"/>
        <path id="Path_2636" data-name="Path 2636" d="M1849.031,1156.611l14.7,2.417a3.048,3.048,0,0,0-1.01-1.557l-12.23-2.011A3.058,3.058,0,0,0,1849.031,1156.611Z" transform="translate(-1835.719 -1155.46)" fill="#ffa412"/>
      </g>
    </g>
    <g id="Group_1869" data-name="Group 1869" transform="translate(851.986 516.863)">
      <path id="Path_2637" data-name="Path 2637" d="M1860.11,1154.856l8.551,1.406a3.652,3.652,0,0,1,1.758.8,3.047,3.047,0,0,1,1.01,1.557,2.621,2.621,0,0,1,.051,1.073l-19.673,119.231a3.14,3.14,0,0,1-3.6,2.367c-.056-.007-.113-.015-.17-.025l-8.551-1.406c-.057-.009-.113-.02-.169-.031a3.136,3.136,0,0,1-2.65-3.4l19.673-119.23a2.5,2.5,0,0,1,.137-.5,2.436,2.436,0,0,1,.256-.5,3.053,3.053,0,0,1,1.457-1.152A3.653,3.653,0,0,1,1860.11,1154.856Z" transform="translate(-1836.587 -1154.805)" fill="#ffb93e"/>
      <path id="Path_2638" data-name="Path 2638" d="M1862.221,1318.449l-10.54,63.877c-.226,1.371-1.8,2.273-3.551,2.058-.056-.007-.113-.015-.169-.025l-8.551-1.406c-.057-.009-.113-.02-.169-.031-1.723-.355-2.927-1.715-2.7-3.086l9.245-56.032C1850.39,1323.642,1856.9,1322.569,1862.221,1318.449Z" transform="translate(-1836.512 -1257.902)" fill="#ffa412"/>
      <g id="Group_1868" data-name="Group 1868" transform="translate(6.832 0.242)">
        <rect id="Rectangle_89" data-name="Rectangle 89" width="1.374" height="15.345" transform="translate(10.779 15.124) rotate(-80.616)" fill="#ffa412"/>
        <rect id="Rectangle_90" data-name="Rectangle 90" width="1.373" height="15.345" transform="matrix(0.163, -0.987, 0.987, 0.163, 10.022, 19.715)" fill="#ffa412"/>
        <rect id="Rectangle_91" data-name="Rectangle 91" width="1.373" height="15.345" transform="translate(9.115 25.213) rotate(-80.627)" fill="#ffa412"/>
        <rect id="Rectangle_92" data-name="Rectangle 92" width="1.373" height="15.345" transform="translate(7.724 33.645) rotate(-80.629)" fill="#ffa412"/>
        <rect id="Rectangle_93" data-name="Rectangle 93" width="1.374" height="15.345" transform="translate(6.252 42.561) rotate(-80.629)" fill="#ffa412"/>
        <rect id="Rectangle_94" data-name="Rectangle 94" width="1.373" height="15.345" transform="translate(3.997 56.229) rotate(-80.627)" fill="#ffa412"/>
        <rect id="Rectangle_95" data-name="Rectangle 95" width="1.373" height="15.345" transform="translate(1.885 69.027) rotate(-80.629)" fill="#ffa412"/>
        <rect id="Rectangle_96" data-name="Rectangle 96" width="1.373" height="15.345" transform="translate(0 80.455) rotate(-80.629)" fill="#ffa412"/>
        <rect id="Rectangle_97" data-name="Rectangle 97" width="1.373" height="15.345" transform="translate(11.5 10.759) rotate(-80.627)" fill="#ffa412"/>
        <rect id="Rectangle_98" data-name="Rectangle 98" width="1.373" height="15.345" transform="matrix(0.163, -0.987, 0.987, 0.163, 11.975, 7.877)" fill="#ffa412"/>
        <rect id="Rectangle_99" data-name="Rectangle 99" width="1.373" height="15.345" transform="translate(12.435 5.091) rotate(-80.642)" fill="#ffa412"/>
        <path id="Path_2639" data-name="Path 2639" d="M1889.517,1161.27l15.142,2.489.139-.847a2.493,2.493,0,0,0,.031-.517l-15.035-2.472a2.493,2.493,0,0,0-.137.5Z" transform="translate(-1876.737 -1158.271)" fill="#ffa412"/>
        <path id="Path_2640" data-name="Path 2640" d="M1890.958,1156.611l14.7,2.417a3.049,3.049,0,0,0-1.01-1.557l-12.23-2.011A3.057,3.057,0,0,0,1890.958,1156.611Z" transform="translate(-1877.645 -1155.46)" fill="#ffa412"/>
      </g>
    </g>
    <g id="Group_1875" data-name="Group 1875" transform="translate(679.181 475.556)">
      <g id="Group_1871" data-name="Group 1871" transform="translate(12.892 152.187)">
        <path id="Path_2641" data-name="Path 2641" d="M1531.014,1458.123l-.015,8.666a3.656,3.656,0,0,1-.5,1.864,3.054,3.054,0,0,1-1.374,1.246,2.493,2.493,0,0,1-.536.171,2.521,2.521,0,0,1-.515.052l-120.843-.287a3.14,3.14,0,0,1-2.915-3.174c0-.058,0-.115,0-.172l.016-8.666c0-.057,0-.114,0-.172a3.137,3.137,0,0,1,2.927-3.161l120.842.287a2.514,2.514,0,0,1,.515.054,2.485,2.485,0,0,1,.534.173,3.047,3.047,0,0,1,1.37,1.253A3.641,3.641,0,0,1,1531.014,1458.123Z" transform="translate(-1404.308 -1454.489)" fill="#ffb93e"/>
        <path id="Path_2642" data-name="Path 2642" d="M1471.652,1469.987l-64.739-.154c-1.391,0-2.533-1.416-2.6-3.174,0-.057,0-.115,0-.172l.016-8.666c0-.057,0-.114,0-.172.074-1.757,1.222-3.166,2.613-3.161l56.79.135C1464.628,1459.142,1466.731,1465.395,1471.652,1469.987Z" transform="translate(-1404.308 -1454.488)" fill="#ffa412"/>
        <g id="Group_1870" data-name="Group 1870" transform="translate(44.387 0.1)">
          <rect id="Rectangle_100" data-name="Rectangle 100" width="15.345" height="1.374" transform="translate(66.215 15.502) rotate(-89.864)" fill="#ffa412"/>
          <rect id="Rectangle_101" data-name="Rectangle 101" width="15.345" height="1.373" transform="translate(61.565 15.491) rotate(-89.864)" fill="#ffa412"/>
          <rect id="Rectangle_102" data-name="Rectangle 102" width="15.345" height="1.374" transform="translate(55.988 15.478) rotate(-89.849)" fill="#ffa412"/>
          <rect id="Rectangle_103" data-name="Rectangle 103" width="15.345" height="1.373" transform="matrix(0.002, -1, 1, 0.002, 47.445, 15.458)" fill="#ffa412"/>
          <rect id="Rectangle_104" data-name="Rectangle 104" width="15.345" height="1.373" transform="translate(38.409 15.436) rotate(-89.864)" fill="#ffa412"/>
          <rect id="Rectangle_105" data-name="Rectangle 105" width="15.345" height="1.374" transform="translate(24.555 15.403) rotate(-89.864)" fill="#ffa412"/>
          <rect id="Rectangle_106" data-name="Rectangle 106" width="15.345" height="1.374" transform="translate(11.584 15.373) rotate(-89.864)" fill="#ffa412"/>
          <rect id="Rectangle_107" data-name="Rectangle 107" width="15.345" height="1.373" transform="matrix(0.003, -1, 1, 0.003, 0, 15.345)" fill="#ffa412"/>
          <rect id="Rectangle_108" data-name="Rectangle 108" width="15.345" height="1.374" transform="translate(70.64 15.513) rotate(-89.864)" fill="#ffa412"/>
          <rect id="Rectangle_109" data-name="Rectangle 109" width="15.345" height="1.373" transform="translate(73.566 15.52) rotate(-89.88)" fill="#ffa412"/>
          <rect id="Rectangle_110" data-name="Rectangle 110" width="15.345" height="1.374" transform="translate(76.386 15.526) rotate(-89.864)" fill="#ffa412"/>
          <path id="Path_2643" data-name="Path 2643" d="M1736.51,1455.26l-.029,15.345.859,0a2.5,2.5,0,0,0,.515-.052l.028-15.238a2.517,2.517,0,0,0-.516-.054Z" transform="translate(-1657.967 -1455.074)" fill="#ffa412"/>
          <path id="Path_2644" data-name="Path 2644" d="M1741.669,1455.881l-.027,14.895a3.051,3.051,0,0,0,1.374-1.246l.023-12.4A3.049,3.049,0,0,0,1741.669,1455.881Z" transform="translate(-1661.218 -1455.465)" fill="#ffa412"/>
        </g>
      </g>
      <g id="Group_1873" data-name="Group 1873" transform="translate(0 136.812)">
        <path id="Path_2645" data-name="Path 2645" d="M1496.169,1416.567l-.015,8.666a3.656,3.656,0,0,1-.5,1.864,3.055,3.055,0,0,1-1.374,1.247,2.627,2.627,0,0,1-1.051.222l-120.843-.287a3.139,3.139,0,0,1-2.914-3.174c0-.058,0-.115,0-.172l.016-8.666c0-.057,0-.114,0-.171a3.136,3.136,0,0,1,2.926-3.161l120.843.287c.078,0,.155,0,.231.012a.725.725,0,0,1,.1.012c.036,0,.073.009.108.016s.052.01.078.015a2.493,2.493,0,0,1,.534.173c.026.011.05.023.076.036s.05.023.074.037l.147.082c.028.017.057.035.084.054s.05.031.074.05c.047.031.092.064.137.1s.1.083.15.128.076.069.114.105a.029.029,0,0,1,.006.007c.025.024.051.05.074.076a2.9,2.9,0,0,1,.212.249c.021.026.04.052.058.078s.037.053.056.082c.037.055.074.113.108.17A3.639,3.639,0,0,1,1496.169,1416.567Z" transform="translate(-1369.463 -1412.933)" fill="#ffb93e"/>
        <path id="Path_2646" data-name="Path 2646" d="M1436.807,1428.431l-64.74-.154c-1.391,0-2.533-1.416-2.6-3.174,0-.057,0-.114,0-.172l.016-8.666c0-.057,0-.114,0-.171.074-1.757,1.221-3.165,2.612-3.162l56.788.135c.026.125.052.251.079.378C1429.9,1417.93,1432.02,1423.966,1436.807,1428.431Z" transform="translate(-1369.463 -1412.932)" fill="#ffa412"/>
        <g id="Group_1872" data-name="Group 1872" transform="translate(44.391 0.099)">
          <rect id="Rectangle_111" data-name="Rectangle 111" width="15.345" height="1.374" transform="translate(66.211 15.502) rotate(-89.866)" fill="#ffa412"/>
          <rect id="Rectangle_112" data-name="Rectangle 112" width="15.345" height="1.373" transform="matrix(0.002, -1, 1, 0.002, 61.562, 15.491)" fill="#ffa412"/>
          <rect id="Rectangle_113" data-name="Rectangle 113" width="15.345" height="1.373" transform="translate(55.987 15.477) rotate(-89.864)" fill="#ffa412"/>
          <rect id="Rectangle_114" data-name="Rectangle 114" width="15.345" height="1.373" transform="translate(47.441 15.457) rotate(-89.864)" fill="#ffa412"/>
          <rect id="Rectangle_115" data-name="Rectangle 115" width="15.344" height="1.374" transform="matrix(0.002, -1, 1, 0.002, 38.407, 15.436)" fill="#ffa412"/>
          <rect id="Rectangle_116" data-name="Rectangle 116" width="15.345" height="1.373" transform="translate(24.55 15.403) rotate(-89.85)" fill="#ffa412"/>
          <rect id="Rectangle_117" data-name="Rectangle 117" width="15.345" height="1.373" transform="translate(11.58 15.372) rotate(-89.864)" fill="#ffa412"/>
          <rect id="Rectangle_118" data-name="Rectangle 118" width="15.345" height="1.374" transform="matrix(0.002, -1, 1, 0.002, 0, 15.345)" fill="#ffa412"/>
          <rect id="Rectangle_119" data-name="Rectangle 119" width="15.345" height="1.373" transform="matrix(0.002, -1, 1, 0.002, 70.636, 15.512)" fill="#ffa412"/>
          <rect id="Rectangle_120" data-name="Rectangle 120" width="15.345" height="1.373" transform="translate(73.56 15.519) rotate(-89.864)" fill="#ffa412"/>
          <rect id="Rectangle_121" data-name="Rectangle 121" width="15.345" height="1.373" transform="translate(76.383 15.526) rotate(-89.864)" fill="#ffa412"/>
          <path id="Path_2647" data-name="Path 2647" d="M1701.663,1413.7l-.028,15.345.859,0a2.481,2.481,0,0,0,.515-.052l.028-15.238a2.481,2.481,0,0,0-.516-.055Z" transform="translate(-1623.125 -1413.516)" fill="#ffa412"/>
          <path id="Path_2648" data-name="Path 2648" d="M1706.824,1414.324l-.027,14.895a3.052,3.052,0,0,0,1.374-1.246l.023-12.4A3.053,3.053,0,0,0,1706.824,1414.324Z" transform="translate(-1626.377 -1413.908)" fill="#ffa412"/>
        </g>
      </g>
      <path id="Path_2649" data-name="Path 2649" d="M1513.117,1376.157l-.015,8.665a3.647,3.647,0,0,1-.5,1.863,3.05,3.05,0,0,1-1.374,1.247,2.51,2.51,0,0,1-.535.171,2.543,2.543,0,0,1-.516.052l-120.842-.287a2.607,2.607,0,0,1-1.347-.381,3.4,3.4,0,0,1-1.558-2.644c0-.05-.008-.1-.009-.149s0-.115,0-.172l.015-8.665c0-.057,0-.114,0-.172a3.136,3.136,0,0,1,2.927-3.161l120.842.287a2.549,2.549,0,0,1,.515.055,2.467,2.467,0,0,1,.535.173,3.052,3.052,0,0,1,1.37,1.253A3.644,3.644,0,0,1,1513.117,1376.157Z" transform="translate(-1380.141 -1250.663)" fill="#ffb93e"/>
      <path id="Path_2650" data-name="Path 2650" d="M1453.756,1388.02l-64.74-.153a2.149,2.149,0,0,1-1.2-.382,3.473,3.473,0,0,1-1.39-2.643c0-.05-.008-.1-.009-.149s0-.115,0-.172l.015-8.666c0-.057,0-.114,0-.172.074-1.757,1.223-3.165,2.613-3.161l56.79.135c.874,4.4,2.887,10.431,7.526,14.985C1453.489,1387.768,1453.622,1387.895,1453.756,1388.02Z" transform="translate(-1380.141 -1250.662)" fill="#ffa412"/>
      <path id="Path_2651" data-name="Path 2651" d="M1521.016,1334.7l-.016,8.666a3.647,3.647,0,0,1-.5,1.863,3.046,3.046,0,0,1-1.374,1.246,2.6,2.6,0,0,1-1.051.223l-120.842-.287a3.139,3.139,0,0,1-2.915-3.175c0-.057,0-.115,0-.172l.016-8.666c0-.057,0-.114,0-.172a3.2,3.2,0,0,1,2.581-3.138,2.376,2.376,0,0,1,.346-.023l120.842.286a2.54,2.54,0,0,1,.516.055,2.51,2.51,0,0,1,.534.173,3.053,3.053,0,0,1,1.37,1.253A3.651,3.651,0,0,1,1521.016,1334.7Z" transform="translate(-1385.117 -1224.545)" fill="#ffb93e"/>
      <path id="Path_2652" data-name="Path 2652" d="M1461.654,1346.564l-64.74-.153c-1.39,0-2.533-1.417-2.6-3.175,0-.057,0-.115,0-.172l.016-8.666c0-.057,0-.114,0-.171a3.124,3.124,0,0,1,2.3-3.138,1.911,1.911,0,0,1,.309-.024l56.789.135c0,.008,0,.017,0,.025C1454.638,1335.74,1456.741,1341.98,1461.654,1346.564Z" transform="translate(-1385.117 -1224.543)" fill="#ffa412"/>
      <path id="Path_2653" data-name="Path 2653" d="M1497.079,1293.236l-.016,8.666a3.646,3.646,0,0,1-.5,1.863,3.041,3.041,0,0,1-1.374,1.247,2.525,2.525,0,0,1-.535.171c-.057.01-.113.021-.169.029l-.1.01c-.031,0-.063.006-.1.007-.051,0-.1.006-.155.006l-120.842-.287a3.14,3.14,0,0,1-2.915-3.175c0-.057,0-.115,0-.172l.015-8.666c0-.057,0-.115,0-.171s0-.094.008-.141a3.259,3.259,0,0,1,2.2-2.919c.029-.009.06-.017.089-.024a2.567,2.567,0,0,1,.633-.077l120.842.286c.09,0,.176.007.262.014l.117.015h0l.135.026a2.466,2.466,0,0,1,.535.173,3.047,3.047,0,0,1,1.369,1.253A3.647,3.647,0,0,1,1497.079,1293.236Z" transform="translate(-1370.036 -1198.422)" fill="#ffb93e"/>
      <path id="Path_2654" data-name="Path 2654" d="M1437.717,1305.1l-64.74-.153c-1.39,0-2.533-1.417-2.6-3.174,0-.057,0-.115,0-.172l.015-8.665c0-.057,0-.115,0-.172s0-.094.008-.14a3.194,3.194,0,0,1,2.03-2.94.841.841,0,0,1,.112-.03,2.023,2.023,0,0,1,.463-.052l56.79.135c.006.037.015.072.022.109.908,4.5,3.011,10.677,7.874,15.231Z" transform="translate(-1370.036 -1198.421)" fill="#ffa412"/>
      <path id="Path_2655" data-name="Path 2655" d="M1496.468,1252.055l-.016,8.666a3.638,3.638,0,0,1-.5,1.863,3.049,3.049,0,0,1-1.375,1.247,2.406,2.406,0,0,1-.417.142h0c-.039.011-.076.021-.115.027a2.461,2.461,0,0,1-.516.052l-120.843-.286a2.263,2.263,0,0,1-.378-.031,1.243,1.243,0,0,1-.144-.026,3.236,3.236,0,0,1-2.392-3.118c0-.058,0-.115,0-.172l.015-8.666c0-.058,0-.115,0-.172a3.135,3.135,0,0,1,2.927-3.161l120.842.287c.077,0,.155,0,.231.011l.1.012c.036,0,.073.009.109.017s.051.009.078.015a2.456,2.456,0,0,1,.535.173l.076.035.074.037c.05.026.1.054.147.082s.107.067.158.1.092.065.138.1.1.083.149.128.076.069.113.106a.02.02,0,0,1,.006.007c.025.024.05.05.074.076a3.112,3.112,0,0,1,.212.25c.021.025.04.052.057.078l.057.081c.037.056.074.113.108.17A3.641,3.641,0,0,1,1496.468,1252.055Z" transform="translate(-1369.651 -1172.478)" fill="#ffb93e"/>
      <path id="Path_2656" data-name="Path 2656" d="M1437.106,1263.918l-64.739-.153c-.052,0-.1,0-.154-.006s-.111-.012-.167-.021a3.13,3.13,0,0,1-2.281-3.147c0-.058,0-.115,0-.172l.015-8.666c0-.058,0-.114,0-.172.074-1.758,1.221-3.165,2.612-3.162l56.788.134c.026.125.051.251.078.379.933,4.448,3.025,10.421,7.73,14.876Z" transform="translate(-1369.651 -1172.477)" fill="#ffa412"/>
      <path id="Path_2657" data-name="Path 2657" d="M1513.417,1211.645l-.016,8.666a3.651,3.651,0,0,1-.5,1.863,3.045,3.045,0,0,1-1.374,1.246,2.6,2.6,0,0,1-1.051.223l-120.842-.287a2.62,2.62,0,0,1-1.348-.381,3.4,3.4,0,0,1-1.558-2.644c0-.05-.008-.1-.009-.15s0-.114,0-.172l.016-8.665c0-.057,0-.115,0-.172a3.136,3.136,0,0,1,2.927-3.161l120.842.286a2.514,2.514,0,0,1,.516.055,2.418,2.418,0,0,1,.535.173,3.048,3.048,0,0,1,1.37,1.253A3.651,3.651,0,0,1,1513.417,1211.645Z" transform="translate(-1380.329 -1147.019)" fill="#ffb93e"/>
      <path id="Path_2658" data-name="Path 2658" d="M1454.055,1223.507l-64.74-.153a2.15,2.15,0,0,1-1.2-.381,3.475,3.475,0,0,1-1.39-2.643c0-.05-.008-.1-.009-.15s0-.114,0-.172l.016-8.665c0-.057,0-.115,0-.172.075-1.757,1.223-3.165,2.613-3.162l56.79.134c.875,4.4,2.886,10.432,7.525,14.984Q1453.854,1223.32,1454.055,1223.507Z" transform="translate(-1380.329 -1147.018)" fill="#ffa412"/>
      <path id="Path_2659" data-name="Path 2659" d="M1540.183,1170.235l-.016,8.666a3.653,3.653,0,0,1-.5,1.864,3.043,3.043,0,0,1-1.375,1.246,2.606,2.606,0,0,1-1.051.223l-120.842-.287a3.139,3.139,0,0,1-2.915-3.174c0-.057,0-.114,0-.172l.016-8.665c0-.057,0-.115,0-.172a3.2,3.2,0,0,1,2.581-3.138,2.46,2.46,0,0,1,.346-.023l120.842.287a2.509,2.509,0,0,1,.516.054,2.536,2.536,0,0,1,.534.173,3.055,3.055,0,0,1,1.37,1.254A3.65,3.65,0,0,1,1540.183,1170.235Z" transform="translate(-1397.192 -1120.93)" fill="#ffb93e"/>
      <path id="Path_2660" data-name="Path 2660" d="M1480.821,1182.1l-64.74-.154c-1.39,0-2.533-1.416-2.6-3.174,0-.057,0-.114,0-.172l.016-8.665c0-.057,0-.115,0-.171a3.126,3.126,0,0,1,2.3-3.139,1.845,1.845,0,0,1,.309-.023l56.789.134c0,.007,0,.016.005.024C1473.805,1171.276,1475.908,1177.513,1480.821,1182.1Z" transform="translate(-1397.192 -1120.929)" fill="#ffa412"/>
      <path id="Path_2661" data-name="Path 2661" d="M1497.378,1128.724l-.015,8.665a3.64,3.64,0,0,1-.505,1.863,3.044,3.044,0,0,1-1.374,1.247,2.463,2.463,0,0,1-.535.171c-.056.01-.113.021-.169.029a1.293,1.293,0,0,1-.136.014l-.067.006c-.047,0-.094,0-.143,0l-120.842-.287a3.14,3.14,0,0,1-2.914-3.175c0-.057,0-.114,0-.172l.015-8.666c0-.057,0-.114,0-.172a3.136,3.136,0,0,1,2.926-3.161l120.842.287c.052,0,.1,0,.155.006a2.548,2.548,0,0,1,.36.049,2.476,2.476,0,0,1,.535.173,2.445,2.445,0,0,1,.253.13c.052.03.1.059.15.093a.046.046,0,0,1,.016.01c.05.034.1.069.146.106a.128.128,0,0,1,.025.019,1.444,1.444,0,0,1,.13.109,2.572,2.572,0,0,1,.291.291c.029.031.057.065.082.1a.106.106,0,0,1,.014.019.644.644,0,0,1,.05.063.079.079,0,0,1,.009.013c.029.038.058.079.086.122.04.059.078.118.115.181A3.644,3.644,0,0,1,1497.378,1128.724Z" transform="translate(-1370.225 -1094.778)" fill="#ffb93e"/>
      <path id="Path_2662" data-name="Path 2662" d="M1438.016,1140.587l-64.739-.154c-1.39,0-2.534-1.417-2.6-3.174,0-.057,0-.115,0-.172l.015-8.666c0-.057,0-.114,0-.172.074-1.757,1.223-3.165,2.613-3.162l56.789.135c.023.117.047.235.074.355.934,4.479,3.047,10.513,7.823,14.985Z" transform="translate(-1370.225 -1094.777)" fill="#ffa412"/>
      <path id="Path_2663" data-name="Path 2663" d="M1521.465,1088.265l-.015,8.666a3.647,3.647,0,0,1-.505,1.863,3.05,3.05,0,0,1-1.374,1.247,2.485,2.485,0,0,1-.535.17,2.52,2.52,0,0,1-.517.052l-120.842-.287a2.6,2.6,0,0,1-1.305-.357,3.386,3.386,0,0,1-1.6-2.681c0-.045-.006-.091-.007-.137s0-.114,0-.172l.016-8.665c0-.057,0-.115,0-.172a3.2,3.2,0,0,1,2.58-3.138,2.328,2.328,0,0,1,.346-.023l120.843.287a2.609,2.609,0,0,1,1.05.227,3.059,3.059,0,0,1,1.37,1.253A3.65,3.65,0,0,1,1521.465,1088.265Z" transform="translate(-1385.399 -1069.289)" fill="#ffb93e"/>
      <path id="Path_2664" data-name="Path 2664" d="M1462.1,1100.129l-64.74-.154a2.126,2.126,0,0,1-1.165-.357,3.462,3.462,0,0,1-1.429-2.68c0-.045-.006-.09-.007-.137s0-.114,0-.172l.016-8.665c0-.058,0-.115,0-.172a3.125,3.125,0,0,1,2.3-3.139,1.947,1.947,0,0,1,.309-.023l56.789.135c0,.008,0,.017.005.024.877,4.4,2.9,10.438,7.547,14.984C1461.853,1099.894,1461.978,1100.012,1462.1,1100.129Z" transform="translate(-1385.399 -1069.288)" fill="#ffa412"/>
      <path id="Path_2665" data-name="Path 2665" d="M1497.528,1046.8l-.015,8.666a3.644,3.644,0,0,1-.505,1.863,3.047,3.047,0,0,1-1.374,1.247,2.446,2.446,0,0,1-.535.17c-.056.011-.113.022-.17.03l-.1.011c-.031,0-.063.005-.1.007-.051,0-.1.005-.155.005l-120.843-.287a3.14,3.14,0,0,1-2.914-3.175c0-.057,0-.115,0-.172l.016-8.666c0-.057,0-.114,0-.172a3.136,3.136,0,0,1,2.926-3.161l120.843.287a2.529,2.529,0,0,1,.516.055,2.487,2.487,0,0,1,.535.173,3.051,3.051,0,0,1,1.37,1.253A3.643,3.643,0,0,1,1497.528,1046.8Z" transform="translate(-1370.319 -1043.165)" fill="#ffb93e"/>
      <path id="Path_2666" data-name="Path 2666" d="M1438.166,1058.663l-64.74-.153c-1.39,0-2.533-1.417-2.6-3.174,0-.058,0-.115,0-.172l.016-8.666c0-.057,0-.115,0-.172.075-1.757,1.223-3.165,2.612-3.162l56.79.135c.9,4.513,2.993,10.75,7.9,15.34Z" transform="translate(-1370.319 -1043.164)" fill="#ffa412"/>
      <g id="Group_1874" data-name="Group 1874" transform="translate(44.504 0.1)">
        <rect id="Rectangle_122" data-name="Rectangle 122" width="15.345" height="1.373" transform="translate(72.369 137.362) rotate(-89.864)" fill="#ffa412"/>
        <rect id="Rectangle_123" data-name="Rectangle 123" width="15.345" height="1.373" transform="translate(67.722 137.351) rotate(-89.88)" fill="#ffa412"/>
        <rect id="Rectangle_124" data-name="Rectangle 124" width="15.345" height="1.374" transform="matrix(0.002, -1, 1, 0.002, 62.147, 137.338)" fill="#ffa412"/>
        <rect id="Rectangle_125" data-name="Rectangle 125" width="15.345" height="1.373" transform="translate(53.599 137.317) rotate(-89.864)" fill="#ffa412"/>
        <rect id="Rectangle_126" data-name="Rectangle 126" width="15.345" height="1.374" transform="translate(44.563 137.296) rotate(-89.864)" fill="#ffa412"/>
        <rect id="Rectangle_127" data-name="Rectangle 127" width="15.345" height="1.373" transform="translate(30.709 137.263) rotate(-89.864)" fill="#ffa412"/>
        <rect id="Rectangle_128" data-name="Rectangle 128" width="15.345" height="1.374" transform="translate(17.74 137.232) rotate(-89.88)" fill="#ffa412"/>
        <rect id="Rectangle_129" data-name="Rectangle 129" width="15.345" height="1.373" transform="translate(6.156 137.204) rotate(-89.864)" fill="#ffa412"/>
        <rect id="Rectangle_130" data-name="Rectangle 130" width="15.345" height="1.374" transform="translate(76.794 137.372) rotate(-89.864)" fill="#ffa412"/>
        <rect id="Rectangle_131" data-name="Rectangle 131" width="15.345" height="1.373" transform="translate(79.72 137.379) rotate(-89.88)" fill="#ffa412"/>
        <rect id="Rectangle_132" data-name="Rectangle 132" width="15.345" height="1.373" transform="translate(82.541 137.386) rotate(-89.864)" fill="#ffa412"/>
        <path id="Path_2667" data-name="Path 2667" d="M1718.613,1373.292l-.027,15.345.858,0a2.578,2.578,0,0,0,.516-.052l.028-15.239a2.576,2.576,0,0,0-.516-.055Z" transform="translate(-1633.917 -1251.247)" fill="#ffa412"/>
        <path id="Path_2668" data-name="Path 2668" d="M1723.773,1373.913l-.027,14.895a3.052,3.052,0,0,0,1.374-1.246l.023-12.4A3.052,3.052,0,0,0,1723.773,1373.913Z" transform="translate(-1637.168 -1251.637)" fill="#ffa412"/>
        <rect id="Rectangle_133" data-name="Rectangle 133" width="15.345" height="1.373" transform="translate(33.632 121.924) rotate(-89.864)" fill="#ffa412"/>
        <rect id="Rectangle_134" data-name="Rectangle 134" width="15.345" height="1.374" transform="matrix(0.002, -1, 1, 0.002, 20.661, 121.893)" fill="#ffa412"/>
        <rect id="Rectangle_135" data-name="Rectangle 135" width="15.345" height="1.374" transform="translate(9.079 121.866) rotate(-89.864)" fill="#ffa412"/>
        <path id="Path_2669" data-name="Path 2669" d="M1704.521,1269.622l.028-15.345-1.2,0c.064-.008.128-.016.191-.029l.028-15.238c-.084-.017-.169-.031-.254-.04l.027-14.87h.535l-.027,14.741a3.05,3.05,0,0,0,1.375-1.246l.023-12.4a3.119,3.119,0,0,0-1.088-1.1h.48l.028-15.345-1.373,0-.027,15.008a2.545,2.545,0,0,0-.439-.042l-.858,0-.028,15.346h.255l-.028,15.235.858,0c.053,0,.1,0,.156-.008l-.027,15.33Z" transform="translate(-1623.426 -1147.584)" fill="#ffa412"/>
        <rect id="Rectangle_136" data-name="Rectangle 136" width="15.345" height="1.374" transform="translate(82.64 122.041) rotate(-89.864)" fill="#ffa412"/>
        <rect id="Rectangle_137" data-name="Rectangle 137" width="15.345" height="1.373" transform="translate(85.462 122.047) rotate(-89.85)" fill="#ffa412"/>
        <path id="Path_2670" data-name="Path 2670" d="M1726.512,1331.836l-.028,15.345.859,0a2.515,2.515,0,0,0,.516-.052l.027-15.238a2.513,2.513,0,0,0-.515-.055Z" transform="translate(-1638.892 -1225.129)" fill="#ffa412"/>
        <path id="Path_2671" data-name="Path 2671" d="M1731.671,1332.457l-.027,14.895a3.048,3.048,0,0,0,1.375-1.246l.023-12.395A3.055,3.055,0,0,0,1731.671,1332.457Z" transform="translate(-1642.143 -1225.52)" fill="#ffa412"/>
        <path id="Path_2672" data-name="Path 2672" d="M1668.359,1279.7l.028-15.345h-.254l.028-15.236-1.374,0-.028,15.345h.254l-.027,15.211-1.34,0-.027,15.345,1.373,0,.028-15.321Z" transform="translate(-1600.547 -1173.014)" fill="#ffa412"/>
        <path id="Path_2673" data-name="Path 2673" d="M1642.7,1264.288h-.254l.028-15.235-1.373,0-.028,15.345h.254l-.028,15.235h.339l-.028,15.321,1.373,0,.028-15.345h-.339Z" transform="translate(-1585.081 -1172.972)" fill="#ffa412"/>
        <path id="Path_2674" data-name="Path 2674" d="M1707.734,1290.991l-.027,14.895a3.046,3.046,0,0,0,1.375-1.246l.023-12.4A3.054,3.054,0,0,0,1707.734,1290.991Z" transform="translate(-1627.063 -1199.396)" fill="#ffa412"/>
        <path id="Path_2675" data-name="Path 2675" d="M1619.375,1249l-1.374,0-.028,15.345h.254l-.027,15.212h-.153l-.027,15.345,1.373,0,.028-15.321h.152l.028-15.345h-.254Z" transform="translate(-1570.53 -1172.938)" fill="#ffa412"/>
        <path id="Path_2676" data-name="Path 2676" d="M1594.951,1248.939l-1.373,0-.028,15.345h.254l-.028,15.235,1.373,0,.028-15.345h-.254Z" transform="translate(-1555.143 -1172.901)" fill="#ffa412"/>
        <path id="Path_2677" data-name="Path 2677" d="M1557.509,1248.85l-1.374,0-.028,15.345h.254l-.027,15.235,1.373,0,.028-15.345h-.254Z" transform="translate(-1531.554 -1172.846)" fill="#ffa412"/>
        <path id="Path_2678" data-name="Path 2678" d="M1522.452,1248.767l-1.373,0-.028,15.345h.254l-.028,15.236,1.374,0,.028-15.345h-.254Z" transform="translate(-1509.469 -1172.792)" fill="#ffa412"/>
        <path id="Path_2679" data-name="Path 2679" d="M1491.148,1248.693l-1.374,0-.028,15.345H1490l-.028,15.235,1.373,0,.028-15.344h-.254Z" transform="translate(-1489.746 -1172.746)" fill="#ffa412"/>
        <path id="Path_2680" data-name="Path 2680" d="M1682.065,1249.146l-1.373,0-.028,15.344h.254l-.028,15.211h-.19l-.028,15.345,1.374,0,.028-15.321h.191l.028-15.345h-.254Z" transform="translate(-1610.026 -1173.032)" fill="#ffa412"/>
        <path id="Path_2681" data-name="Path 2681" d="M1688.132,1223.676l-1.105,0,.027-14.966-1.374,0-.028,15.345,1.106,0-.027,14.966h.254l-.028,15.235,1.373,0,.028-15.345h-.254Z" transform="translate(-1613.168 -1147.555)" fill="#ffa412"/>
        <rect id="Rectangle_138" data-name="Rectangle 138" width="15.345" height="1.373" transform="translate(67.831 76.483) rotate(-89.864)" fill="#ffa412"/>
        <path id="Path_2682" data-name="Path 2682" d="M1656.835,1223.6l-.669,0-.027,15.345h.253l-.027,15.235,1.374,0,.027-15.345h-.254l.027-14.856.668,0,.028-15.345-1.373,0Z" transform="translate(-1594.575 -1147.514)" fill="#ffa412"/>
        <rect id="Rectangle_139" data-name="Rectangle 139" width="15.345" height="1.373" transform="translate(53.708 76.449) rotate(-89.849)" fill="#ffa412"/>
        <rect id="Rectangle_140" data-name="Rectangle 140" width="15.345" height="1.374" transform="translate(44.673 76.428) rotate(-89.864)" fill="#ffa412"/>
        <rect id="Rectangle_141" data-name="Rectangle 141" width="15.345" height="1.373" transform="translate(30.82 76.395) rotate(-89.866)" fill="#ffa412"/>
        <rect id="Rectangle_142" data-name="Rectangle 142" width="15.345" height="1.373" transform="matrix(0.002, -1, 1, 0.002, 17.851, 76.364)" fill="#ffa412"/>
        <rect id="Rectangle_143" data-name="Rectangle 143" width="15.345" height="1.374" transform="translate(6.267 76.337) rotate(-89.864)" fill="#ffa412"/>
        <path id="Path_2683" data-name="Path 2683" d="M1694.866,1223.7h-.5l-.028,15.344h.254l-.027,15.211-1.288,0-.028,15.345,1.373,0,.028-15.32,1.288,0,.027-15.345h-.254l.027-14.857h.5l.028-15.344-1.373,0Z" transform="translate(-1617.956 -1147.573)" fill="#ffa412"/>
        <rect id="Rectangle_144" data-name="Rectangle 144" width="15.345" height="1.373" transform="translate(82.652 76.518) rotate(-89.864)" fill="#ffa412"/>
        <path id="Path_2684" data-name="Path 2684" d="M1720.259,1224.076l.028-15.238a2.517,2.517,0,0,0-.516-.055l-.858,0-.028,15.345.859,0A2.513,2.513,0,0,0,1720.259,1224.076Z" transform="translate(-1634.105 -1147.603)" fill="#ffa412"/>
        <path id="Path_2685" data-name="Path 2685" d="M1725.42,1223.05l.022-12.4a3.052,3.052,0,0,0-1.37-1.253l-.027,14.895A3.046,3.046,0,0,0,1725.42,1223.05Z" transform="translate(-1637.356 -1147.994)" fill="#ffa412"/>
        <rect id="Rectangle_145" data-name="Rectangle 145" width="15.345" height="1.373" transform="translate(82.383 61.172) rotate(-89.864)" fill="#ffa412"/>
        <rect id="Rectangle_146" data-name="Rectangle 146" width="15.345" height="1.373" transform="translate(63.614 61.127) rotate(-89.864)" fill="#ffa412"/>
        <rect id="Rectangle_147" data-name="Rectangle 147" width="15.345" height="1.374" transform="translate(54.577 61.106) rotate(-89.864)" fill="#ffa412"/>
        <rect id="Rectangle_148" data-name="Rectangle 148" width="15.345" height="1.373" transform="translate(40.724 61.073) rotate(-89.864)" fill="#ffa412"/>
        <rect id="Rectangle_149" data-name="Rectangle 149" width="15.345" height="1.374" transform="translate(27.753 61.043) rotate(-89.864)" fill="#ffa412"/>
        <rect id="Rectangle_150" data-name="Rectangle 150" width="15.345" height="1.373" transform="translate(16.173 61.015) rotate(-89.88)" fill="#ffa412"/>
        <rect id="Rectangle_151" data-name="Rectangle 151" width="15.345" height="1.374" transform="translate(86.809 61.183) rotate(-89.864)" fill="#ffa412"/>
        <rect id="Rectangle_152" data-name="Rectangle 152" width="15.345" height="1.373" transform="translate(89.732 61.19) rotate(-89.864)" fill="#ffa412"/>
        <rect id="Rectangle_153" data-name="Rectangle 153" width="15.345" height="1.373" transform="matrix(0.002, -1, 1, 0.002, 92.556, 61.196)" fill="#ffa412"/>
        <path id="Path_2686" data-name="Path 2686" d="M1745.68,1167.371l-.028,15.345.858,0a2.568,2.568,0,0,0,.516-.052l.028-15.238a2.569,2.569,0,0,0-.516-.055Z" transform="translate(-1650.968 -1121.515)" fill="#ffa412"/>
        <path id="Path_2687" data-name="Path 2687" d="M1750.84,1167.991l-.027,14.895a3.052,3.052,0,0,0,1.374-1.246l.022-12.4A3.05,3.05,0,0,0,1750.84,1167.991Z" transform="translate(-1654.22 -1121.906)" fill="#ffa412"/>
        <path id="Path_2688" data-name="Path 2688" d="M1667.38,1089.515l1.373,0,.028-15.345-1.34,0,.027-14.967,1.34,0,.028-15.345-1.373,0-.028,15.32-1.339,0-.028,15.345,1.34,0Z" transform="translate(-1600.83 -1043.701)" fill="#ffa412"/>
        <rect id="Rectangle_154" data-name="Rectangle 154" width="15.344" height="1.373" transform="translate(61.895 45.802) rotate(-89.849)" fill="#ffa412"/>
        <rect id="Rectangle_155" data-name="Rectangle 155" width="15.345" height="1.374" transform="translate(38.739 45.748) rotate(-89.864)" fill="#ffa412"/>
        <rect id="Rectangle_156" data-name="Rectangle 156" width="15.345" height="1.373" transform="matrix(0.002, -1, 1, 0.002, 24.886, 45.715)" fill="#ffa412"/>
        <rect id="Rectangle_157" data-name="Rectangle 157" width="15.345" height="1.373" transform="translate(11.915 45.684) rotate(-89.864)" fill="#ffa412"/>
        <rect id="Rectangle_158" data-name="Rectangle 158" width="15.345" height="1.374" transform="translate(0.333 45.656) rotate(-89.866)" fill="#ffa412"/>
        <path id="Path_2689" data-name="Path 2689" d="M1681.3,1089.543l1.215,0-.028,15.321,1.374,0,.028-15.345-1.216,0,.028-15.321h-.19l.027-14.967h.19l.028-15.344-1.374,0-.028,15.321h-.19l-.028,15.345h.19Z" transform="translate(-1610.322 -1043.719)" fill="#ffa412"/>
        <rect id="Rectangle_159" data-name="Rectangle 159" width="15.345" height="1.373" transform="translate(73.899 45.831) rotate(-89.895)" fill="#ffa412"/>
        <path id="Path_2690" data-name="Path 2690" d="M1699.257,1074.6h.242l.028-15.345-1.2,0c.064-.009.128-.017.191-.03l.028-15.237a2.469,2.469,0,0,0-.516-.055l-.858,0-.028,15.345H1698c.052,0,.1,0,.156-.007l-.027,14.983c-.052,0-.1-.009-.155-.009l-.859,0-.028,15.322h-.751l.028-15.322-1.288,0,.027-14.967,1.288,0,.028-15.345-1.374,0-.028,15.321-1.288,0-.027,15.345,1.288,0-.027,14.991,1.044,0-.027,15.321,1.373,0,.028-15.321h.564a2.5,2.5,0,0,0,.516-.052l.027-14.937h.535l-.027,14.765a3.048,3.048,0,0,0,1.374-1.247l.023-12.395A3.1,3.1,0,0,0,1699.257,1074.6Z" transform="translate(-1618.239 -1043.742)" fill="#ffa412"/>
        <rect id="Rectangle_160" data-name="Rectangle 160" width="15.345" height="1.373" transform="translate(33.8 30.745) rotate(-89.88)" fill="#ffa412"/>
        <rect id="Rectangle_161" data-name="Rectangle 161" width="15.345" height="1.373" transform="translate(20.827 30.714) rotate(-89.864)" fill="#ffa412"/>
        <rect id="Rectangle_162" data-name="Rectangle 162" width="15.345" height="1.374" transform="translate(9.245 30.687) rotate(-89.864)" fill="#ffa412"/>
        <rect id="Rectangle_163" data-name="Rectangle 163" width="15.345" height="1.373" transform="matrix(0.002, -1, 1, 0.002, 82.807, 30.861)" fill="#ffa412"/>
        <rect id="Rectangle_164" data-name="Rectangle 164" width="15.345" height="1.373" transform="translate(85.629 30.868) rotate(-89.864)" fill="#ffa412"/>
        <path id="Path_2691" data-name="Path 2691" d="M1726.961,1085.4l-.028,15.345.859,0a2.518,2.518,0,0,0,.516-.053l.027-15.237a2.5,2.5,0,0,0-.515-.055Z" transform="translate(-1639.176 -1069.873)" fill="#ffa412"/>
        <path id="Path_2692" data-name="Path 2692" d="M1733.467,1099.669l.023-12.395a3.054,3.054,0,0,0-1.37-1.253l-.027,14.895A3.052,3.052,0,0,0,1733.467,1099.669Z" transform="translate(-1642.427 -1070.264)" fill="#ffa412"/>
        <rect id="Rectangle_165" data-name="Rectangle 165" width="15.345" height="1.374" transform="translate(61.952 15.491) rotate(-89.864)" fill="#ffa412"/>
        <path id="Path_2693" data-name="Path 2693" d="M1643.438,1043.8l-1.374,0-.028,15.344h.339l-.027,14.966h-.339l-.027,15.344,1.373,0,.027-14.991h.339l.028-15.344h-.339Z" transform="translate(-1585.655 -1043.66)" fill="#ffa412"/>
        <path id="Path_2694" data-name="Path 2694" d="M1618.727,1059.058h-.153l-.027,15.345h.152l-.028,14.991,1.374,0,.028-15.345h-.152l.027-14.967h.153l.027-15.345-1.373,0Z" transform="translate(-1570.891 -1043.625)" fill="#ffa412"/>
        <rect id="Rectangle_166" data-name="Rectangle 166" width="15.345" height="1.373" transform="translate(38.795 15.436) rotate(-89.864)" fill="#ffa412"/>
        <rect id="Rectangle_167" data-name="Rectangle 167" width="15.345" height="1.374" transform="translate(24.941 15.403) rotate(-89.864)" fill="#ffa412"/>
        <rect id="Rectangle_168" data-name="Rectangle 168" width="15.345" height="1.374" transform="translate(11.968 15.372) rotate(-89.85)" fill="#ffa412"/>
        <rect id="Rectangle_169" data-name="Rectangle 169" width="15.345" height="1.374" transform="matrix(0.002, -1, 1, 0.002, 0.39, 15.345)" fill="#ffa412"/>
        <rect id="Rectangle_170" data-name="Rectangle 170" width="15.345" height="1.373" transform="translate(73.948 15.519) rotate(-89.849)" fill="#ffa412"/>
        <path id="Path_2695" data-name="Path 2695" d="M1708.183,1044.557l-.027,14.895a3.05,3.05,0,0,0,1.374-1.247l.023-12.4A3.046,3.046,0,0,0,1708.183,1044.557Z" transform="translate(-1627.346 -1044.141)" fill="#ffa412"/>
      </g>
    </g>
    <g id="Group_1877" data-name="Group 1877" transform="translate(819.701 516.923)">
      <path id="Path_2696" data-name="Path 2696" d="M1774.417,1155.027l8.532,1.515a3.646,3.646,0,0,1,1.748.819,3.052,3.052,0,0,1,.99,1.569,2.466,2.466,0,0,1,.075.557,2.553,2.553,0,0,1-.038.517l-21.2,118.969a3.139,3.139,0,0,1-3.631,2.321c-.057-.008-.114-.016-.17-.027l-8.532-1.515c-.056-.01-.112-.021-.168-.033a3.137,3.137,0,0,1-2.607-3.429l21.2-118.969c.014-.077.031-.153.052-.226a.863.863,0,0,1,.028-.1c.01-.035.022-.07.036-.1s.018-.049.028-.074a2.5,2.5,0,0,1,.263-.5c.015-.023.03-.045.048-.069s.033-.045.05-.067c.034-.043.069-.088.106-.13.021-.025.044-.05.067-.074s.04-.044.063-.064c.039-.041.08-.079.122-.118s.1-.086.151-.125.081-.062.123-.093c0,0,0,0,.009-.006l.087-.059a2.9,2.9,0,0,1,.283-.165c.03-.016.058-.031.086-.044s.06-.027.09-.041c.061-.027.124-.053.186-.077A3.648,3.648,0,0,1,1774.417,1155.027Z" transform="translate(-1749.333 -1154.968)" fill="#ffb93e"/>
      <path id="Path_2697" data-name="Path 2697" d="M1775.749,1318.7l-11.356,63.737c-.244,1.37-1.833,2.25-3.576,2.012-.057-.008-.114-.016-.17-.027l-8.532-1.515c-.057-.01-.112-.021-.169-.033-1.718-.378-2.906-1.751-2.662-3.122l9.961-55.907c.128,0,.256-.007.387-.012C1764.212,1323.679,1770.524,1322.639,1775.749,1318.7Z" transform="translate(-1749.253 -1258.118)" fill="#ffa412"/>
      <g id="Group_1876" data-name="Group 1876" transform="translate(7.363 0.226)">
        <rect id="Rectangle_171" data-name="Rectangle 171" width="1.373" height="15.345" transform="translate(11.614 15.071) rotate(-79.879)" fill="#ffa412"/>
        <rect id="Rectangle_172" data-name="Rectangle 172" width="1.373" height="15.345" transform="matrix(0.175, -0.985, 0.985, 0.175, 10.799, 19.652)" fill="#ffa412"/>
        <rect id="Rectangle_173" data-name="Rectangle 173" width="1.374" height="15.345" transform="translate(9.821 25.139) rotate(-79.896)" fill="#ffa412"/>
        <rect id="Rectangle_174" data-name="Rectangle 174" width="1.374" height="15.345" transform="translate(8.322 33.552) rotate(-79.896)" fill="#ffa412"/>
        <rect id="Rectangle_175" data-name="Rectangle 175" width="1.373" height="15.345" transform="matrix(0.175, -0.985, 0.985, 0.175, 6.737, 42.45)" fill="#ffa412"/>
        <rect id="Rectangle_176" data-name="Rectangle 176" width="1.373" height="15.345" transform="translate(4.307 56.087) rotate(-79.894)" fill="#ffa412"/>
        <rect id="Rectangle_177" data-name="Rectangle 177" width="1.373" height="15.345" transform="matrix(0.175, -0.985, 0.985, 0.175, 2.031, 68.858)" fill="#ffa412"/>
        <rect id="Rectangle_178" data-name="Rectangle 178" width="1.374" height="15.345" transform="translate(0 80.257) rotate(-79.882)" fill="#ffa412"/>
        <rect id="Rectangle_179" data-name="Rectangle 179" width="1.374" height="15.345" transform="translate(12.391 10.716) rotate(-79.896)" fill="#ffa412"/>
        <rect id="Rectangle_180" data-name="Rectangle 180" width="1.374" height="15.345" transform="translate(12.903 7.838) rotate(-79.894)" fill="#ffa412"/>
        <rect id="Rectangle_181" data-name="Rectangle 181" width="1.373" height="15.345" transform="translate(13.399 5.059) rotate(-79.896)" fill="#ffa412"/>
        <path id="Path_2698" data-name="Path 2698" d="M1806.369,1161.326l15.108,2.683.151-.845a2.486,2.486,0,0,0,.038-.517l-15-2.665a2.506,2.506,0,0,0-.143.5Z" transform="translate(-1792.6 -1158.354)" fill="#ffa412"/>
        <path id="Path_2699" data-name="Path 2699" d="M1807.873,1156.712l14.665,2.6a3.046,3.046,0,0,0-.99-1.569l-12.2-2.167A3.053,3.053,0,0,0,1807.873,1156.712Z" transform="translate(-1793.547 -1155.58)" fill="#ffa412"/>
      </g>
    </g>
    <path id="Path_2700" data-name="Path 2700" d="M2505.629,1398.211H2453.7c-2.783-2.36,1.926-7.721,6.845-8.081a30.3,30.3,0,0,1,7.926.938c.714-9.492,4.8-52.16,20.175-50.445,17.294,1.92,0,18.79-4.887,28.779a237.214,237.214,0,0,0-9.187,23.014c1.4.3,2.858.6,4.342.876,2.292-7.038,10.82-30.71,21.667-29.332,12.733,1.615,7.615,11.107-1.41,16.741-6.622,4.143-14.752,10.032-18.616,12.877a55.155,55.155,0,0,0,10.155.813C2499.6,1394.18,2503.946,1396.8,2505.629,1398.211Z" transform="translate(-1372.835 -754.978)" fill="#82b378"/>
    <path id="Path_2701" data-name="Path 2701" d="M730.625,1426.8c-2.063-3.24-8.27-11.648-16.537-10.536-9.007,1.212,9.948,7.151,15.752,10.561a9.646,9.646,0,0,1-3.211-.375c-3.88-1.383-10.524,1.269-12.649,2.2h36.937a5.855,5.855,0,0,0-2.642-3.377,6.6,6.6,0,0,0-3.4-.3c2.2-2.589,3.721-10.859-2.393-8.731-4.467,1.555-4.455,6.609-4.016,9.6-.951.149-1.914.3-2.866.437-1.839-9.372-8.343-36.84-21.527-37.572-13.365-.742,11.333,28.486,19.557,37.835C732.578,1426.656,731.564,1426.752,730.625,1426.8Z" transform="translate(-274.932 -785.286)" fill="#82b378"/>
    <g id="Group_1880" data-name="Group 1880" transform="translate(709.111 295.383)">
      <circle id="Ellipse_30" data-name="Ellipse 30" cx="53.19" cy="53.19" r="53.19" transform="translate(0 75.222) rotate(-45)" fill="#e2810e"/>
      <circle id="Ellipse_31" data-name="Ellipse 31" cx="53.19" cy="53.19" r="53.19" transform="translate(6.202 115.396) rotate(-75.284)" fill="#ffb93e"/>
      <g id="Group_1878" data-name="Group 1878" transform="translate(22.978 29.529)">
        <path id="Path_2702" data-name="Path 2702" d="M1561.025,732.949a48.449,48.449,0,1,1,23.314-6.013A48.5,48.5,0,0,1,1561.025,732.949Zm-.147-94.047a45.708,45.708,0,1,0,12.729,1.816A45.78,45.78,0,0,0,1560.878,638.9Z" transform="translate(-1512.459 -636.01)" fill="#ffa412"/>
      </g>
      <g id="Group_1879" data-name="Group 1879" transform="translate(49.128 43.036)">
        <path id="Path_2703" data-name="Path 2703" d="M1618.1,716.591a7.978,7.978,0,0,0-1.458-2.409,5.843,5.843,0,0,0-2.169-1.472,11.058,11.058,0,0,0-3.1-.69,29.151,29.151,0,0,0-4.225-.028,76.616,76.616,0,0,1-7.77.01,24.123,24.123,0,0,1-6.458-1.171,14.2,14.2,0,0,1-5.072-2.971,16.013,16.013,0,0,1-4.713-11.231,13.465,13.465,0,0,1,1.274-5.466,16.806,16.806,0,0,1,3.473-4.839,22.444,22.444,0,0,1,5.505-3.919l-3.025-7.453,6-2.436,3.069,7.557a20.122,20.122,0,0,1,6.541-.668,15.2,15.2,0,0,1,10.623,5.241,20.228,20.228,0,0,1,3.545,5.883l-10.835,4.4q-1.7-4.179-4.394-5.5a6.844,6.844,0,0,0-5.809-.055,8.7,8.7,0,0,0-2.715,1.651,5.892,5.892,0,0,0-1.483,2.1,5.5,5.5,0,0,0-.377,2.405,8.063,8.063,0,0,0,.6,2.555,7.4,7.4,0,0,0,1.322,2.18,5.474,5.474,0,0,0,2.078,1.408,11.045,11.045,0,0,0,3.115.682,37.191,37.191,0,0,0,4.426.09q4.186-.118,7.748.1a24.4,24.4,0,0,1,6.454,1.213,13.7,13.7,0,0,1,8.635,8.36,14.64,14.64,0,0,1,1.165,5.936,13.307,13.307,0,0,1-1.307,5.439,16.244,16.244,0,0,1-3.545,4.767,24.241,24.241,0,0,1-5.564,3.882l2.814,6.93-5.961,2.42-2.8-6.9a27.146,27.146,0,0,1-6.568,1.085,17.222,17.222,0,0,1-6.379-.919,15.4,15.4,0,0,1-5.614-3.5,18.745,18.745,0,0,1-4.263-6.626l10.835-4.4a11.548,11.548,0,0,0,2.369,3.845,7.471,7.471,0,0,0,2.931,1.894,7.251,7.251,0,0,0,3.209.32,12.416,12.416,0,0,0,3.181-.825,10.368,10.368,0,0,0,2.909-1.709,6.9,6.9,0,0,0,1.722-2.16,5.5,5.5,0,0,0,.579-2.446A6.7,6.7,0,0,0,1618.1,716.591Z" transform="translate(-1583.137 -672.517)" fill="#ffa412"/>
      </g>
    </g>
    <g id="Group_1883" data-name="Group 1883" transform="translate(808.695 198.304)">
      <path id="Path_2704" data-name="Path 2704" d="M1744.011,674.7c-2.225-1.571-7.271-5.028-7.533-4.258a3.388,3.388,0,0,0,.685,2.475c-3.052-1.14-6.151-1.888-13.48-.48a5.491,5.491,0,0,0-3.605,2.373,2.422,2.422,0,0,0,.843,3.781c3.74,2.325,2.656.932,7.854,4.319s11.561,4.25,15.363,1.874l5.1-.851.633-8.392S1746.965,675.2,1744.011,674.7Z" transform="translate(-1719.506 -531.027)" fill="#ffb27d"/>
      <path id="Path_2705" data-name="Path 2705" d="M2094.293,446.159s-12.029,14.271-27.348,8.3c0,0-3.295-7.97-3.342-13.845-.005-.723-.014-1.424-.025-2.09-.082-6.616-.3-10.328-.3-10.328l.015,0c.7-.291,23.417-9.619,23.4-8.844C2086.3,437.243,2094.293,446.159,2094.293,446.159Z" transform="translate(-1936.082 -372.876)" fill="#ffb27d"/>
      <path id="Path_2706" data-name="Path 2706" d="M2084.405,430.673c-2.191,4.061-9.709,12.006-20.827,14.909-.082-6.616-.3-10.328-.3-10.328a.059.059,0,0,1,.015,0C2063.917,435.081,2085.057,429.476,2084.405,430.673Z" transform="translate(-1936.082 -379.933)" fill="#ed975d"/>
      <path id="Path_2707" data-name="Path 2707" d="M2043.645,369.774s25.552,6.007,29.048-9.963,9.147-25.949-7.019-30.459-20.68.887-23.144,5.933S2037.088,367.8,2043.645,369.774Z" transform="translate(-1921.212 -315.141)" fill="#ffb27d"/>
      <path id="Path_2708" data-name="Path 2708" d="M2057.261,342.843c.348.223,5.846,1.912,16.258-18.83a18.063,18.063,0,0,0-1.062-16.523c-3.81-6.224-17.319-11.117-28.544-13.247s-13.918,4.186-16.561,10.534c-2.775,6.663-10.788,12.149-10.788,12.149,9.679,5.407,21.336-2.327,25.375-1.055s5.465,7.637,5.768,9.677.769,3.736,5.848,1.914,2.3,7.2,1.482,8.921C2055.038,336.382,2054.348,340.976,2057.261,342.843Z" transform="translate(-1906.655 -293.821)" fill="#a9453d"/>
      <g id="Group_1881" data-name="Group 1881" transform="translate(108.72 196.168)">
        <path id="Path_2709" data-name="Path 2709" d="M2303.622,1437.6h15.471c3.243,0,6.846-3.248,7.749-9.193s7.57-9.193,9.013-14.06-5.95-11.719-5.95-11.719l-1.236-1.588-1.285-1.655-12.256,2.882s-.3,2.918-.491,6.635a84.674,84.674,0,0,0-.05,8.508c.36,6.491-1.818,13.478-7.582,14.741S2303.622,1437.6,2303.622,1437.6Z" transform="translate(-2195.915 -1186.506)" fill="#2c3a64"/>
        <path id="Path_2710" data-name="Path 2710" d="M2013.35,1464.655h41.01a3.7,3.7,0,0,0,.871-.253c2.738-1.371,1.881-11.854,1.552-15.093-.063-.6-.109-.952-.109-.952s-14.421-11.534-16.405-2.7c-.063.275-.135.546-.212.813v0c-2.5,8.264-13.694,12.017-20.158,13.064C2014.96,1460.338,2013.679,1463.216,2013.35,1464.655Z" transform="translate(-2013.35 -1213.556)" fill="#2c3a64"/>
        <path id="Path_2711" data-name="Path 2711" d="M2035.691,857.033s2.19,27.325,4.764,60.171c3.5,44.619,7.706,99.426,8.122,109.81.72,18.029,3.607,46.868,3.607,46.868s6.846,6.852,20.55,3.964c0,0,12.21-41.168,15.7-84.728.054-.714.108-1.433.162-2.152,3.245-44.344,8.291-137.718,8.291-137.718Z" transform="translate(-2027.425 -842.432)" fill="#2b478b"/>
        <path id="Path_2712" data-name="Path 2712" d="M2035.691,857.033s2.19,27.325,4.764,60.171l47.977,75.914c.054-.714.108-1.433.162-2.152,3.245-44.344,8.291-137.718,8.291-137.718Z" transform="translate(-2027.425 -842.432)" fill="#233862"/>
        <path id="Path_2713" data-name="Path 2713" d="M2062.723,841.862s39.476,98.961,65.433,145.467,34.068,59.485,34.068,59.485,14.872-5.949,16.224-10c0,0-9.926-89.783-27.309-111.669-9.822-12.367-21.36-49.48-21.9-62.459s-3.515-38.665-3.515-38.665Z" transform="translate(-2044.455 -824.016)" fill="#2b478b"/>
      </g>
      <g id="Group_1882" data-name="Group 1882" transform="translate(147.963 74.864)">
        <path id="Path_2714" data-name="Path 2714" d="M2305.513,819.686l.417,6.365s-4.2,11.307,7.564,17.107c0,0,5.034,2.031,5.239-1.889s-.44-2.445-.031-7.964-1.761-10.735-5.411-12.491l-3-3.456Z" transform="translate(-2236.462 -698.516)" fill="#ffb27d"/>
        <path id="Path_2715" data-name="Path 2715" d="M2193.06,621.964c-4.369,1.4-5.07,1.086-5.07,1.086s-21.267-38.719-23.421-42.264-45.154-43.419-45.154-43.419l11.051-41.207s48.906,63.332,54.188,72.42c8.727,15.017,13.841,49.894,13.841,49.894A12.793,12.793,0,0,1,2193.06,621.964Z" transform="translate(-2119.415 -496.16)" fill="#1e3d70"/>
      </g>
      <path id="Path_2716" data-name="Path 2716" d="M2013.08,537.856c.153,8.462.645,17.975,1.308,27.637q.062.86.122,1.719c.425,5.985.885,11.985,1.412,17.835.212,2.345.437,4.664.672,6.942l.036.307c.018.852.122,1.777.216,2.62,2.156,21.913,4.416,39.225,4.836,39.492a2.46,2.46,0,0,0,1.682.428c5.747-.722,22.892.581,36.929-2.472,11.845-2.5,22.044-7.235,32.852-13.622,1.434-.848,4.7-3.094,4.438-4.772-.262-1.845-.745-4.511-1.358-7.862-2.129-11.656-5.805-31.706-7.06-55.171q-.364-6.556-1.06-12.932a196.353,196.353,0,0,0-5.724-30.885c-4.813-17.33-11.886-30.6-20.758-35.792-1.159-.65-7.4,3.32-13.126,7a25.291,25.291,0,0,1-16.279,3.857l-4.768,5.273c-5.773,6.712-11.922,15.648-13.6,28.35q-.19,1.408-.325,2.995A186.422,186.422,0,0,0,2013.08,537.856Z" transform="translate(-1904.428 -405.607)" fill="#2a4e96"/>
      <path id="Path_2717" data-name="Path 2717" d="M2013.08,602.239c.153,8.462.645,17.975,1.308,27.637q.062.859.122,1.719c32.825-20.547,37.881-58.143,37.881-58.143-16.148.708-28.977,4.421-38.864,9.729A186.425,186.425,0,0,0,2013.08,602.239Z" transform="translate(-1904.428 -469.991)" fill="#1e3d70"/>
      <path id="Path_2718" data-name="Path 2718" d="M1788.957,580.352c-.338-4.869,2.183-5.679,2.183-5.679s49.491-8.969,53.7-10.292,40.182-38.747,40.182-38.747,13.789-15.551,25.081-12.117c9.811,2.984,13.646,10.637,14.952,17.928a21.477,21.477,0,0,1-9.973,22.046c-16.889,10.359-50.7,30.77-58.666,33.1-17.724,5.2-65.343.417-65.343.417A15.367,15.367,0,0,1,1788.957,580.352Z" transform="translate(-1763.241 -431.919)" fill="#2a4e96"/>
    </g>
    <path id="Path_2719" data-name="Path 2719" d="M1557.24,859.78V1043.74a19.568,19.568,0,0,1-19.508,19.512H1348.637a19.856,19.856,0,0,1-13.428-5.229,20.1,20.1,0,0,1-4.273-5.55c-.059-.112-.115-.224-.171-.339a19.663,19.663,0,0,1-2.023-7.452c-.035-.453-.05-.911-.05-1.374V860.96a30.19,30.19,0,0,1,14.03-25.416l.022-.012a26.143,26.143,0,0,0,10.842-29.864h178.759a26.139,26.139,0,0,0,9.957,29.27s0,0,.006,0c.451.314.911.616,1.38.9l0,0A28.055,28.055,0,0,1,1557.24,859.78Z" transform="translate(-664.597 -417.984)" fill="#ed9f4a" opacity="0.2"/>
    <path id="Path_2720" data-name="Path 2720" d="M1737.448,859.78V1043.74a19.575,19.575,0,0,1-18.132,19.463c-.454.034-.914.049-1.377.049h-83.263a20,20,0,0,1-19.943-19.944V860.96a30.19,30.19,0,0,1,14.03-25.416,26.135,26.135,0,0,0,10.867-29.876h72.924a26.141,26.141,0,0,0,11.345,30.174A28.056,28.056,0,0,1,1737.448,859.78Z" transform="translate(-844.803 -417.984)" fill="#ed9f4a" opacity="0.2"/>
    <path id="Path_2721" data-name="Path 2721" d="M1566.231,834.938c-5.84-3.5-31.134-15.889-95.46-15.364-73.679.6-103.194,15.494-104.1,15.958a26.144,26.144,0,0,0,10.843-29.864h178.759a26.14,26.14,0,0,0,9.957,29.27Z" transform="translate(-688.524 -417.984)" fill="#ed9f4a" opacity="0.6"/>
    <path id="Path_2722" data-name="Path 2722" d="M1571.889,799.646v8.344a1.5,1.5,0,0,1-1.491,1.495H1386.527a1.5,1.5,0,0,1-1.495-1.495v-8.344a1.5,1.5,0,0,1,1.495-1.495H1570.4A1.5,1.5,0,0,1,1571.889,799.646Z" transform="translate(-700.091 -413.248)" fill="#2b478b"/>
    <path id="Path_2723" data-name="Path 2723" d="M1766.467,799.646v8.344a1.5,1.5,0,0,1-1.492,1.495h-69.6a1.5,1.5,0,0,1-1.495-1.495v-8.344a1.5,1.5,0,0,1,1.495-1.495h69.6A1.5,1.5,0,0,1,1766.467,799.646Z" transform="translate(-894.668 -413.248)" fill="#233862"/>
    <g id="Group_1884" data-name="Group 1884" transform="translate(687.339 418.678)">
      <path id="Path_2724" data-name="Path 2724" d="M1520.59,898.469s-4.74,6.672-9.084,6.765-10.955-3.093-10.955-3.093-3.989-8.891-1.283-12.369a5.808,5.808,0,0,1,5.551.912,8.512,8.512,0,0,1,1.469,1.407,4.661,4.661,0,0,0,2.281,1.546c3.1.944,6.78-1.276,8.157.866a14.538,14.538,0,0,0,2.4,2.837A10.944,10.944,0,0,0,1520.59,898.469Z" transform="translate(-1458.806 -889.436)" fill="#f9ddbf"/>
      <path id="Path_2725" data-name="Path 2725" d="M1391.512,973.5s16.751-40.588,46.9-41.361c0,0,27.832,3.092,29.378,41.361Z" transform="translate(-1391.512 -916.337)" fill="#f9ddbf"/>
      <path id="Path_2726" data-name="Path 2726" d="M1495.851,926.539s12.085,2.688,15.814,1.108c0,0,.564-5.053-4.526-4.344-3.483.485-5.753-1.189-7.087-1.868C1498.163,920.473,1495.349,924.426,1495.851,926.539Z" transform="translate(-1457.209 -909.502)" fill="#f1a34f"/>
      <path id="Path_2727" data-name="Path 2727" d="M1519.02,900.982c-.773.58-3.147-8.172-3.147-8.172a8.48,8.48,0,0,1,1.469,1.407,4.659,4.659,0,0,0,2.281,1.546C1519.631,896.018,1519.769,900.417,1519.02,900.982Z" transform="translate(-1469.86 -891.562)" fill="#e5c1a1"/>
      <path id="Path_2728" data-name="Path 2728" d="M1543.291,905.969c-.17.1-5.76,3.448-6.517,3.448-.773,0,4.121-6.285,4.121-6.285A14.562,14.562,0,0,0,1543.291,905.969Z" transform="translate(-1482.976 -898.065)" fill="#e5c1a1"/>
      <path id="Path_2729" data-name="Path 2729" d="M1435.73,982.555c-.309-.265,11.854-17.91,15.2-18.039s10.877,3.866,16.327,4.381,10.732-1.031,11.763,2.191,3.866,14.641,2.126,16.469S1442.418,988.27,1435.73,982.555Z" transform="translate(-1419.366 -936.736)" fill="#e5c1a1"/>
    </g>
    <g id="Group_1889" data-name="Group 1889" transform="translate(377.431 288.207)">
      <path id="Path_2730" data-name="Path 2730" d="M1354.756,1235.227c-.97.51-1.945.991-2.928,1.457-.935.541-1.886,1.072-2.856,1.578a77.932,77.932,0,0,1-13.763,5.635,20.1,20.1,0,0,1-4.273-5.55c-.746.4-1.492.78-2.244,1.153V1100.7a78.954,78.954,0,0,1,10.2,2.051,74.91,74.91,0,0,1,45.606,34.545C1404.669,1172.163,1391.352,1216.007,1354.756,1235.227Z" transform="translate(-1042.027 -892.065)" fill="#e2810e" opacity="0.5"/>
      <g id="Group_1887" data-name="Group 1887" transform="translate(177.673 200.614)">
        <path id="Path_2731" data-name="Path 2731" d="M1191.693,1118.169a75.67,75.67,0,1,0-29.737,102.8A75.669,75.669,0,0,0,1191.693,1118.169Z" transform="translate(-1043.959 -1079.015)" fill="#e2810e"/>
        <path id="Path_2732" data-name="Path 2732" d="M1149.172,1227.931q-1.4.852-2.844,1.649c-.326.18-.652.358-.979.529-.746.4-1.491.78-2.244,1.153a75.672,75.672,0,0,1-69.838-134.22c.969-.534,1.948-1.047,2.93-1.531q1.431-.714,2.884-1.358a75.6,75.6,0,0,1,22.713-6.107,75.683,75.683,0,0,1,47.377,139.885Z" transform="translate(-1034.114 -1084.441)" fill="#ffb93e"/>
        <g id="Group_1885" data-name="Group 1885" transform="translate(7.141 10.679)">
          <path id="Path_2733" data-name="Path 2733" d="M1122.489,1245.828a69.215,69.215,0,0,1-19.257-2.748,68.524,68.524,0,1,1,19.257,2.748Zm-56.874-37.678a64.83,64.83,0,1,0-5.5-49.314A64.4,64.4,0,0,0,1065.615,1208.15Z" transform="translate(-1053.415 -1107.877)" fill="#ffa412"/>
        </g>
        <g id="Group_1886" data-name="Group 1886" transform="translate(44.343 29.895)">
          <path id="Path_2734" data-name="Path 2734" d="M1219.081,1216.159c-.149-.373-.308-.733-.469-1.087a19.857,19.857,0,0,0-4.59-6.557,20.505,20.505,0,0,0-7.225-4.251,34.584,34.584,0,0,0-9.18-1.725q-5.067-.312-11.025-.143a53.13,53.13,0,0,1-6.3-.127,15.793,15.793,0,0,1-4.431-.969,7.773,7.773,0,0,1-2.958-2,10.544,10.544,0,0,1-1.88-3.1,11.51,11.51,0,0,1-.855-3.637,7.8,7.8,0,0,1,.538-3.421,8.364,8.364,0,0,1,2.109-2.99,12.332,12.332,0,0,1,3.86-2.349,9.738,9.738,0,0,1,8.266.077q3.836,1.878,6.249,7.821l15.417-6.258a28.818,28.818,0,0,0-5.047-8.369,21.622,21.622,0,0,0-15.112-7.455,28.556,28.556,0,0,0-9.3.951l-4.365-10.751-8.533,3.465,4.3,10.6a32,32,0,0,0-7.834,5.574,23.939,23.939,0,0,0-4.938,6.884,19.186,19.186,0,0,0-1.815,7.778,22.784,22.784,0,0,0,6.706,15.976,20.182,20.182,0,0,0,7.216,4.226,34.154,34.154,0,0,0,9.185,1.665,108.685,108.685,0,0,0,11.054-.012,40.832,40.832,0,0,1,6.012.04,15.677,15.677,0,0,1,4.407.979,8.327,8.327,0,0,1,3.086,2.094,11.339,11.339,0,0,1,2.076,3.427,9.5,9.5,0,0,1,.737,3.654,7.8,7.8,0,0,1-.823,3.481,9.837,9.837,0,0,1-2.449,3.073,14.777,14.777,0,0,1-4.14,2.43,17.793,17.793,0,0,1-4.524,1.175,10.333,10.333,0,0,1-4.565-.456,10.621,10.621,0,0,1-4.168-2.694,16.373,16.373,0,0,1-3.371-5.47l-15.413,6.259a26.618,26.618,0,0,0,6.063,9.425,21.881,21.881,0,0,0,7.986,4.981,24.42,24.42,0,0,0,9.075,1.309,38.506,38.506,0,0,0,9.347-1.545l3.981,9.811,8.481-3.443-4-9.857a34.462,34.462,0,0,0,7.915-5.525,23.354,23.354,0,0,0,4.776-6.237c.093-.181.183-.361.271-.545a18.961,18.961,0,0,0,1.858-7.737A20.833,20.833,0,0,0,1219.081,1216.159Z" transform="translate(-1153.962 -1159.814)" fill="#ffa412"/>
        </g>
      </g>
      <g id="Group_1888" data-name="Group 1888" transform="translate(0 0)">
        <path id="Path_2735" data-name="Path 2735" d="M1039.853,571.752c.231-.927-20.155,9.213-21.189,10.36-9.56,10.606-6.834,24.445-1.364,24.578,3.508.085,2.829,5.918,2.829,5.918l39.087-16.535S1054.51,568.629,1039.853,571.752Z" transform="translate(-842.719 -558.666)" fill="#2c3a64"/>
        <path id="Path_2736" data-name="Path 2736" d="M1006.875,552.032s1.4-15.226-15.616-15.226c0,0,5.155,1.4,7.822,4.2,0,0-10.851-6.371-22.66,3.418s-4.471,34.338-8.062,39-17.575,5.594-15.866,20.666,44.381,33.948,41.641,46.417c0,0,16.722-24.582,4.765-35.8,0,0,5.829,5.49,6.422,12.016,0,0,1.582-12.741-6.526-16.816-7.175-3.606-13.052-16.8-12.43-19.152S1006.875,552.032,1006.875,552.032Z" transform="translate(-804.928 -536.806)" fill="#2c3a64"/>
        <path id="Path_2737" data-name="Path 2737" d="M1007.659,750.907c-2.623-12.633-19-16.55-26.754-6.234a13.682,13.682,0,0,0-2.694,6.637c-1.769,14.34,21.158,72.747,24.441,78.036,5.978,9.628,41.178,42.633,41.178,42.633l6.487-3.932s-24.967-42.268-28.833-46.224C1017.015,817.25,1012.64,774.893,1007.659,750.907Z" transform="translate(-821.161 -664.045)" fill="#ed985f"/>
        <path id="Path_2738" data-name="Path 2738" d="M1149.061,1078.287s9.469-6.216,13.053-5.816,13.958,3.386,14.084,4.911-11.558,2.477-12.343,3.31-8.719,6.131-11.6,4.47S1149.061,1078.287,1149.061,1078.287Z" transform="translate(-928.858 -874.267)" fill="#ed985f"/>
        <path id="Path_2739" data-name="Path 2739" d="M806.523,1104.344l-8.459-1.243s-28.44-22.6-32.675-64.773a75.4,75.4,0,0,1-.2-13.039,2.283,2.283,0,0,0-.3-1.439s0-.006-.009-.013c-.911-1.4-3.176-4.891-6.243-9.863-3.023-4.9-8.2-14.158-13.89-24.549-10.255-18.713-22.194-41.094-26.289-48.222-13.049-22.719-6.759-38-6.759-38s36.4-3.6,46.377-12.324l3.593,5.538s7.886,34.916,7.514,35.077q.582,1.781,1.184,3.627c6.224,19.211,13.384,43.222,17.287,62.778,2.193,11,3.356,20.59,2.731,27.122a47.577,47.577,0,0,0,.643,9.935C794.552,1060.018,806.523,1104.344,806.523,1104.344Z" transform="translate(-652.363 -759.877)" fill="#2b478b"/>
        <path id="Path_2740" data-name="Path 2740" d="M958.1,1463.3H922.809s-.846-5.378,1-9.458c1.766-3.916,4.284-4.04.322-10.178,2.242,2.309,9.451,3.264,14.552,2.578.625,1.014,4.03,7.813,6.118,9.313C947.1,1457.215,957.388,1456.625,958.1,1463.3Z" transform="translate(-786.196 -1108.135)" fill="#233862"/>
        <path id="Path_2741" data-name="Path 2741" d="M770.367,935.124c-3.083,17-10.364,45.3-25.618,54.3-10.255-18.713-22.194-41.094-26.289-48.222-13.049-22.719-6.759-38-6.759-38s36.4-3.6,46.377-12.324l3.593,5.538s7.886,34.916,7.514,35.077Q769.765,933.279,770.367,935.124Z" transform="translate(-652.363 -759.877)" fill="#233862"/>
        <path id="Path_2742" data-name="Path 2742" d="M1014.913,750.391a37.774,37.774,0,0,1,7.268,11.4s-7.959,22.856-26.561,25.722C995.62,787.517,1010.338,750.381,1014.913,750.391Z" transform="translate(-832.189 -671.366)" fill="#ed7d2b"/>
        <path id="Path_2743" data-name="Path 2743" d="M655.126,893.294l.12-6.6c-13.15,1.659-45.341-15.714-45.341-15.714s-13.757,9.15-15.64,35.281c-.919,12.754-6.735,66.694-7.378,82.8-.235,5.838-.313,10-.339,11.669a.045.045,0,0,1,0,.017,2.293,2.293,0,0,1-.559,1.358,75.356,75.356,0,0,0-7.125,10.922c-20.065,37.333-9.572,88.062-9.572,88.062l4.66-1.184s16.966-52.589,28.055-75.336a47.657,47.657,0,0,1,5.022-8.6c4.17-5.064,8.566-13.664,12.9-24.014,8.192-19.567,16.144-45.388,21.816-65.38C642.145,926.651,655.126,893.294,655.126,893.294Z" transform="translate(-561.872 -747.338)" fill="#2b478b"/>
        <path id="Path_2744" data-name="Path 2744" d="M993.531,725.97c-21.5-4.934-7.764-35.142-6.518-34.61,2.978-.607,9.52-5.837,15.372-16.051l.791.685,13.2,11.577s-3.052,4.5-5.62,8.912c-2.006,3.452-3.711,6.854-3.441,8.022C1008.382,705.34,999.265,727.287,993.531,725.97Z" transform="translate(-823.324 -624.064)" fill="#ffb27d"/>
        <path id="Path_2745" data-name="Path 2745" d="M1052.788,688.746s-3.054,4.5-5.62,8.912c-8.209-5.06-8.218-15.223-7.585-20.488Z" transform="translate(-859.732 -625.236)" fill="#ed985f"/>
        <path id="Path_2746" data-name="Path 2746" d="M1052.221,654.358s-19.932-11.091-12.834-23.4,9.306-22.026,22.332-15.465,12.768,12.671,11.4,17.354S1057.589,656.926,1052.221,654.358Z" transform="translate(-858.8 -585.05)" fill="#ffb27d"/>
        <path id="Path_2747" data-name="Path 2747" d="M1072.917,622.835c-.912-5.464-3.688-5.986-5.624-5.621-7.362-12.173-19.387-7.422-19.387-7.422a27.139,27.139,0,0,1-15.71,9.436s2.313,4.3,11.843,6.968c2.911.814,6.215.321,9.4-.752a53.211,53.211,0,0,1-13.526,5.1c12.559,1.149,24.508-10.332,25.747-11.56.579,1.779,1.595,5.5.987,8.228-.827,3.7-4.112,10.4-2.106,11.271C1064.542,638.481,1074.286,631.029,1072.917,622.835Z" transform="translate(-855.232 -582.212)" fill="#2c3a64"/>
        <path id="Path_2748" data-name="Path 2748" d="M589.39,1462.87H554.1s-.846-5.378,1-9.459c1.766-3.915,4.532-5.695,3.87-10.432a12.707,12.707,0,0,0,11,4.208c.625,1.013,4.036,6.437,6.123,7.937C578.4,1456.781,588.68,1456.191,589.39,1462.87Z" transform="translate(-553.907 -1107.701)" fill="#233862"/>
        <path id="Path_2749" data-name="Path 2749" d="M808.431,767.32c-4.541,1.585-10.914,2.451-17.434,3.16-9.279,1.013-18.859,1.706-23.878,3.708-1.83.73-3.055,1.631-3.437,2.784-2.175,6.542-11.762,16.635-11.762,16.635-61.448-2.8-68.194-28.5-68.194-28.5,41.342-48.073,111.342-61.988,111.342-61.988s5-2.12,17.591,7.887c8.4,6.681,7.3,9.245,7.3,9.245S821.793,762.658,808.431,767.32Z" transform="translate(-635.694 -641.466)" fill="#f99746"/>
        <path id="Path_2750" data-name="Path 2750" d="M932.654,800.378c-9.279,1.013-18.859,1.706-23.878,3.708a97.854,97.854,0,0,1,12.411-53.7S930.622,788.781,932.654,800.378Z" transform="translate(-777.351 -671.364)" fill="#ed7d2b"/>
        <path id="Path_2751" data-name="Path 2751" d="M956.516,734.362s-23.256,2.3-25.121,17.409,22.3,76.66,25.757,82.233c6.3,10.146,43.392,44.926,43.392,44.926l6.836-4.143S981.07,830.245,977,826.077C970.6,819.533,964.391,739.6,956.516,734.362Z" transform="translate(-791.663 -661.268)" fill="#ffb27d"/>
        <path id="Path_2752" data-name="Path 2752" d="M925.079,754.7c.061.344,21.463,6.991,35.236,0,0,0,2.948-31.778-13.5-30.053s-26.181,6.9-26.595,14.775S925.079,754.7,925.079,754.7Z" transform="translate(-784.675 -655.102)" fill="#f99746"/>
        <path id="Path_2753" data-name="Path 2753" d="M1112.749,1099.767s8.343-7.661,11.944-7.844,14.321,1.091,14.692,2.577-11.008,4.307-11.648,5.256-7.617,7.456-10.724,6.28S1112.749,1099.767,1112.749,1099.767Z" transform="translate(-905.981 -886.523)" fill="#ffb27d"/>
      </g>
    </g>
    <path id="Rectangle_182" data-name="Rectangle 182" d="M1.271,0H956.743a1.271,1.271,0,0,1,1.271,1.271v0a1.271,1.271,0,0,1-1.271,1.271H1.271A1.271,1.271,0,0,1,0,1.271v0A1.271,1.271,0,0,1,1.271,0Z" transform="translate(273.789 643.234)" fill="#2e3552"/>
  </g>
</svg>
