<svg xmlns="http://www.w3.org/2000/svg" width="924.021" height="585.095" viewBox="0 0 924.021 585.095">
  <g id="Group_1923" data-name="Group 1923" transform="translate(638.984 -42.159)">
    <g id="BACKGROUND" transform="translate(-638.984 42.159)">
      <g id="Group_1892" data-name="Group 1892" transform="translate(0 13.586)">
        <path id="Path_2754" data-name="Path 2754" d="M-622.647,334.911a23.173,23.173,0,0,0-15.3,28.98c3.779,12.226,19.379,27.571,31.606,23.792s6.966-23.139,9.564-35.669C-593.151,334.539-610.421,331.132-622.647,334.911Z" transform="translate(638.984 66.828)" fill="#ecf1f7" opacity="0.47"/>
        <path id="Path_2755" data-name="Path 2755" d="M-507.43,70.232A35.1,35.1,0,0,0-554.951,55.9c-17.079,9.163-35.365,36.807-26.2,53.888s36.418,3.643,55.8,3.87C-498.319,113.974-498.266,87.313-507.43,70.232Z" transform="translate(662.283 -51.721)" fill="#ecf1f7" opacity="0.47"/>
      </g>
      <path id="Path_2756" data-name="Path 2756" d="M256.267,534.353c12.124-19.281,15.163-43.2,12.638-65.837a217.123,217.123,0,0,0-19.024-66.546c-9.124-19.387-22.329-36.682-26.092-58.278-4.972-28.531,8.051-55.956,11.074-83.944,6.018-55.716-31.636-104.808-78.346-131.319C118.579,106.9,74.1,98.821,30.483,99.395c-39.258.517-78.447,7.483-116.489,16.846-36.659,9.026-72.5,20.917-110.93,17.166-31.96-3.12-60.744-16.395-90.507-26.293-71.057-23.632-157.133-26.965-222.111,9.01-41.7,23.087-70.888,60.582-83.833,100.894-9.483,29.526-12.295,63.477-5.346,93.36,7.808,33.576,22.232,63.154,18.423,98.523-3.125,29.023-13.788,57.319-12.844,86.76.81,25.305,10.289,50.61,25.025,71.077a32.18,32.18,0,0,0,3.106,3.782H214.833C231.161,561.72,246.4,550.049,256.267,534.353Z" transform="translate(654.293 -22.362)" fill="#ecf1f7" opacity="0.47"/>
      <g id="Group_1893" data-name="Group 1893" transform="translate(88.252)">
        <path id="Path_2757" data-name="Path 2757" d="M145.325,534.828c2.763-21.5-3.705-41.478-2.857-62.378,1.631-40.19,38.553-67.937,51.417-104.065,16.291-45.747,15.51-97.011-4.275-141.589-9.536-21.485-23.464-41.451-42.485-55.26C117.8,150.25,79.38,145.582,43.246,148.281c-53.777,4.019-110.523,26.386-164.593,20.286-29.837-3.366-38.948-34.392-54.358-54.858-17.429-23.147-41.163-41.328-67.4-53.43-48.33-22.29-106.335-24.4-155.732-4.188-52.736,21.579-98.7,74.275-95.681,133.869,1.4,27.571,12.886,54.955,7.568,82.044-6.674,34-33.337,64.976-52.659,92.677A208.213,208.213,0,0,0-576.4,468.973a208.246,208.246,0,0,0,29.6,121.343H126.785A150.092,150.092,0,0,0,145.325,534.828Z" transform="translate(576.865 -42.159)" fill="#ecf1f7" opacity="0.81"/>
      </g>
    </g>
    <g id="OBJECTS" transform="translate(-526.063 92.635)">
      <g id="Group_1899" data-name="Group 1899" transform="translate(48.622)">
        <g id="Group_1895" data-name="Group 1895" transform="translate(65.581 3.284)">
          <g id="Group_1894" data-name="Group 1894">
            <path id="Path_2758" data-name="Path 2758" d="M-383.276,251.854H-403.1a7.415,7.415,0,0,1-7.406-7.407V229.123a65.146,65.146,0,0,1-15.119-6.268l-10.841,10.84a7.414,7.414,0,0,1-10.475,0l-14.015-14.015a7.414,7.414,0,0,1,0-10.475l10.84-10.841a65.182,65.182,0,0,1-6.269-15.119h-15.323a7.415,7.415,0,0,1-7.406-7.406V156.015a7.415,7.415,0,0,1,7.406-7.406h15.323a65.207,65.207,0,0,1,6.269-15.119l-10.84-10.841a7.413,7.413,0,0,1,0-10.473l14.015-14.015a7.412,7.412,0,0,1,10.475,0L-425.624,109a65.148,65.148,0,0,1,15.119-6.268V87.407A7.415,7.415,0,0,1-403.1,80h19.823a7.415,7.415,0,0,1,7.406,7.407v15.323A65.057,65.057,0,0,1-360.751,109l10.84-10.838a7.414,7.414,0,0,1,10.475,0l14.018,14.015a7.41,7.41,0,0,1,0,10.473l-10.843,10.841a65.132,65.132,0,0,1,6.272,15.119h15.322a7.416,7.416,0,0,1,7.407,7.406v19.824a7.417,7.417,0,0,1-7.407,7.406h-15.322a65.134,65.134,0,0,1-6.272,15.119l10.843,10.841a7.412,7.412,0,0,1,0,10.475l-14.018,14.015a7.413,7.413,0,0,1-10.475,0l-10.84-10.84a65.056,65.056,0,0,1-15.119,6.268v15.323A7.415,7.415,0,0,1-383.276,251.854Zm-42.883-33.23,1.129.673a61.7,61.7,0,0,0,16.622,6.892l1.273.321v17.936a4.041,4.041,0,0,0,4.036,4.038h19.823a4.041,4.041,0,0,0,4.036-4.038V226.51l1.274-.321a61.735,61.735,0,0,0,16.622-6.892l1.13-.673,12.685,12.688a4.042,4.042,0,0,0,5.71,0L-327.8,217.3a4.043,4.043,0,0,0,0-5.708L-340.49,198.9l.675-1.128a61.781,61.781,0,0,0,6.893-16.622l.32-1.273h17.935a4.04,4.04,0,0,0,4.038-4.036V156.015a4.04,4.04,0,0,0-4.038-4.036H-332.6l-.32-1.273a61.782,61.782,0,0,0-6.893-16.622l-.675-1.128,12.688-12.69a4.043,4.043,0,0,0,0-5.708l-14.018-14.016a4.049,4.049,0,0,0-5.71,0l-12.685,12.688-1.13-.673a61.736,61.736,0,0,0-16.622-6.892l-1.274-.321V87.407a4.041,4.041,0,0,0-4.036-4.038H-403.1a4.041,4.041,0,0,0-4.036,4.038v17.936l-1.273.321a61.7,61.7,0,0,0-16.622,6.892l-1.129.673-12.688-12.688a4.045,4.045,0,0,0-5.71,0l-14.015,14.016a4.04,4.04,0,0,0,0,5.708l12.687,12.69-.672,1.128a61.679,61.679,0,0,0-6.893,16.622l-.321,1.273h-17.936a4.042,4.042,0,0,0-4.038,4.036v19.824a4.042,4.042,0,0,0,4.038,4.036h17.936l.321,1.273a61.677,61.677,0,0,0,6.893,16.622l.672,1.128-12.687,12.69a4.04,4.04,0,0,0,0,5.708l14.015,14.016a4.045,4.045,0,0,0,5.71,0Zm32.973-5.852a46.9,46.9,0,0,1-46.846-46.846,46.9,46.9,0,0,1,46.846-46.846,46.9,46.9,0,0,1,46.845,46.846A46.9,46.9,0,0,1-393.187,212.773Zm0-90.321a43.524,43.524,0,0,0-43.476,43.476A43.524,43.524,0,0,0-393.187,209.4a43.525,43.525,0,0,0,43.476-43.476A43.525,43.525,0,0,0-393.187,122.451Z" transform="translate(479.114 -80)" fill="#fff"/>
          </g>
        </g>
        <g id="Group_1896" data-name="Group 1896" transform="translate(42.532 162.287)">
          <path id="Path_2759" data-name="Path 2759" d="M-404.278,252.964l-8.3-4.5a36,36,0,0,0,1.084-10.445l9.055-2.692a3.25,3.25,0,0,0,2.188-4.042l-3.209-10.793a3.247,3.247,0,0,0-4.04-2.188L-416.56,221a36.112,36.112,0,0,0-6.615-8.158l4.5-8.3a3.251,3.251,0,0,0-1.311-4.406l-9.9-5.363a3.25,3.25,0,0,0-4.406,1.31l-4.5,8.3a35.967,35.967,0,0,0-10.446-1.083l-2.692-9.057a3.248,3.248,0,0,0-4.042-2.188l-10.793,3.209a3.25,3.25,0,0,0-2.189,4.042l2.694,9.054a36.079,36.079,0,0,0-8.158,6.615l-8.3-4.5a3.248,3.248,0,0,0-4.406,1.31l-5.363,9.9a3.25,3.25,0,0,0,1.31,4.405l8.3,4.5a35.962,35.962,0,0,0-1.083,10.446l-9.055,2.692a3.251,3.251,0,0,0-2.189,4.042l3.209,10.793a3.25,3.25,0,0,0,4.042,2.189l9.056-2.694a36.041,36.041,0,0,0,6.613,8.158l-4.5,8.3a3.251,3.251,0,0,0,1.311,4.405l9.9,5.363a3.25,3.25,0,0,0,4.406-1.31l4.5-8.3a36.022,36.022,0,0,0,10.446,1.084l2.692,9.054A3.25,3.25,0,0,0-439.486,287l10.793-3.208a3.251,3.251,0,0,0,2.189-4.042L-429.2,270.7a36.111,36.111,0,0,0,8.156-6.615l8.3,4.5a3.251,3.251,0,0,0,4.406-1.311l5.363-9.9A3.249,3.249,0,0,0-404.278,252.964Zm-55.668,9.124a25.654,25.654,0,0,1-10.34-34.775,25.654,25.654,0,0,1,34.775-10.34,25.653,25.653,0,0,1,10.34,34.775A25.653,25.653,0,0,1-459.946,262.087Z" transform="translate(495.337 -191.92)" fill="#fff"/>
        </g>
        <g id="Group_1897" data-name="Group 1897" transform="translate(0 100.612)" opacity="0.36">
          <path id="Path_2760" data-name="Path 2760" d="M-455.2,195.486l-6.39-3.461a27.705,27.705,0,0,0,.834-8.038l6.968-2.071A2.5,2.5,0,0,0-452.1,178.8l-2.469-8.307a2.5,2.5,0,0,0-3.111-1.683l-6.968,2.071a27.776,27.776,0,0,0-5.09-6.276l3.461-6.39a2.5,2.5,0,0,0-1.007-3.391l-7.621-4.127a2.5,2.5,0,0,0-3.391,1.009l-3.461,6.39a27.758,27.758,0,0,0-8.038-.834l-2.073-6.968a2.5,2.5,0,0,0-3.11-1.685l-8.305,2.471a2.5,2.5,0,0,0-1.685,3.11l2.072,6.968a27.773,27.773,0,0,0-6.277,5.09l-6.39-3.461a2.5,2.5,0,0,0-3.391,1.009l-4.127,7.619a2.5,2.5,0,0,0,1.009,3.391l6.39,3.461a27.75,27.75,0,0,0-.834,8.038l-6.969,2.073a2.5,2.5,0,0,0-1.685,3.11l2.471,8.307a2.5,2.5,0,0,0,3.11,1.685l6.968-2.073a27.773,27.773,0,0,0,5.09,6.277l-3.461,6.39a2.5,2.5,0,0,0,1.009,3.391l7.619,4.127a2.5,2.5,0,0,0,3.391-1.009l3.461-6.39a27.7,27.7,0,0,0,8.038.834L-485.4,220a2.5,2.5,0,0,0,3.11,1.685l8.307-2.469A2.5,2.5,0,0,0-472.3,216.1l-2.071-6.968a27.773,27.773,0,0,0,6.277-5.09l6.39,3.461a2.5,2.5,0,0,0,3.391-1.009l4.127-7.619A2.5,2.5,0,0,0-455.2,195.486Zm-42.841,7.022a19.741,19.741,0,0,1-7.957-26.763,19.743,19.743,0,0,1,26.763-7.959,19.746,19.746,0,0,1,7.957,26.764A19.744,19.744,0,0,1-498.038,202.508Z" transform="translate(525.276 -148.508)" fill="#599af2"/>
        </g>
        <g id="Group_1898" data-name="Group 1898" transform="translate(226.488)" opacity="0.18">
          <path id="Path_2761" data-name="Path 2761" d="M-279.431,135.623l-7.879-4.268a34.277,34.277,0,0,0,1.027-9.914l8.594-2.556a3.085,3.085,0,0,0,2.077-3.836l-3.045-10.243a3.085,3.085,0,0,0-3.836-2.077l-8.6,2.554a34.223,34.223,0,0,0-6.276-7.741l4.268-7.879a3.087,3.087,0,0,0-1.243-4.182l-9.4-5.089a3.086,3.086,0,0,0-4.182,1.243l-4.268,7.881a34.176,34.176,0,0,0-9.913-1.027l-2.555-8.6a3.085,3.085,0,0,0-3.836-2.077l-10.245,3.046a3.084,3.084,0,0,0-2.077,3.836l2.556,8.594A34.2,34.2,0,0,0-346,99.571l-7.88-4.269a3.085,3.085,0,0,0-4.181,1.243l-5.09,9.4a3.084,3.084,0,0,0,1.245,4.181l7.879,4.268a34.225,34.225,0,0,0-1.027,9.913l-8.594,2.556a3.085,3.085,0,0,0-2.079,3.836l3.046,10.243a3.085,3.085,0,0,0,3.836,2.077l8.6-2.554a34.15,34.15,0,0,0,6.277,7.74l-4.268,7.881A3.085,3.085,0,0,0-347,160.265l9.4,5.089a3.086,3.086,0,0,0,4.182-1.243l4.268-7.88a34.231,34.231,0,0,0,9.914,1.027l2.554,8.6a3.085,3.085,0,0,0,3.836,2.077l10.243-3.046a3.084,3.084,0,0,0,2.078-3.836l-2.556-8.594a34.2,34.2,0,0,0,7.741-6.278l7.881,4.269a3.085,3.085,0,0,0,4.181-1.243l5.089-9.4A3.084,3.084,0,0,0-279.431,135.623Zm-52.832,8.659a24.346,24.346,0,0,1-9.813-33,24.346,24.346,0,0,1,33-9.814,24.347,24.347,0,0,1,9.813,33A24.346,24.346,0,0,1-332.264,144.282Z" transform="translate(365.853 -77.688)" fill="none" stroke="#4c65ba" stroke-miterlimit="10" stroke-width="1"/>
        </g>
      </g>
      <g id="Group_1914" data-name="Group 1914" transform="translate(0 233.987)">
        <g id="Group_1905" data-name="Group 1905" transform="translate(0 18.328)">
          <rect id="Rectangle_185" data-name="Rectangle 185" width="243.647" height="177.884" rx="8.382" fill="#fff"/>
          <path id="Path_2762" data-name="Path 2762" d="M-559.5,304.437v-40.11a9.037,9.037,0,0,1,9.037-9.037H-324.89a9.037,9.037,0,0,1,9.037,9.037v39.16Z" transform="translate(559.5 -255.29)" fill="#ef929c"/>
          <g id="Group_1900" data-name="Group 1900" transform="translate(18.867 58.756)">
            <rect id="Rectangle_186" data-name="Rectangle 186" width="26.952" height="21.562" fill="#ef929c"/>
            <rect id="Rectangle_187" data-name="Rectangle 187" width="26.952" height="21.562" transform="translate(0 37.733)" fill="#ef929c" opacity="0.54"/>
            <rect id="Rectangle_188" data-name="Rectangle 188" width="26.952" height="21.562" transform="translate(0 74.388)" fill="#ef929c" opacity="0.54"/>
          </g>
          <g id="Group_1901" data-name="Group 1901" transform="translate(65.224 58.756)">
            <rect id="Rectangle_189" data-name="Rectangle 189" width="26.952" height="21.562" fill="#ef929c" opacity="0.54"/>
            <rect id="Rectangle_190" data-name="Rectangle 190" width="26.952" height="21.562" transform="translate(0 37.733)" fill="#ef929c"/>
            <rect id="Rectangle_191" data-name="Rectangle 191" width="26.952" height="21.562" transform="translate(0 74.388)" fill="#ef929c" opacity="0.54"/>
          </g>
          <g id="Group_1902" data-name="Group 1902" transform="translate(110.504 58.756)" opacity="0.98">
            <rect id="Rectangle_192" data-name="Rectangle 192" width="26.952" height="21.562" fill="#ef929c" opacity="0.5"/>
            <rect id="Rectangle_193" data-name="Rectangle 193" width="26.952" height="21.562" transform="translate(0 37.733)" fill="#ef929c" opacity="0.5"/>
            <rect id="Rectangle_194" data-name="Rectangle 194" width="26.952" height="21.562" transform="translate(0 74.388)" fill="#ef929c"/>
          </g>
          <g id="Group_1903" data-name="Group 1903" transform="translate(156.861 58.756)" opacity="0.54">
            <rect id="Rectangle_195" data-name="Rectangle 195" width="26.952" height="21.562" fill="#ef929c"/>
            <rect id="Rectangle_196" data-name="Rectangle 196" width="26.952" height="21.562" transform="translate(0 37.733)" fill="#ef929c"/>
            <rect id="Rectangle_197" data-name="Rectangle 197" width="26.952" height="21.562" transform="translate(0 74.388)" fill="#ef929c"/>
          </g>
          <g id="Group_1904" data-name="Group 1904" transform="translate(201.062 58.756)">
            <rect id="Rectangle_198" data-name="Rectangle 198" width="26.952" height="21.562" fill="#ef929c" opacity="0.43"/>
            <rect id="Rectangle_199" data-name="Rectangle 199" width="26.952" height="21.562" transform="translate(0 37.733)" fill="#ef929c"/>
            <rect id="Rectangle_200" data-name="Rectangle 200" width="26.952" height="21.562" transform="translate(0 74.388)" fill="#ef929c" opacity="0.43"/>
          </g>
          <circle id="Ellipse_32" data-name="Ellipse 32" cx="8.524" cy="8.524" r="8.524" transform="translate(71.744 60.678)" fill="none" stroke="#fff" stroke-linecap="round" stroke-miterlimit="10" stroke-width="1"/>
          <line id="Line_3" data-name="Line 3" x2="7.136" y2="12.076" transform="translate(76.345 62.809)" fill="none" stroke="#fff" stroke-linecap="round" stroke-miterlimit="10" stroke-width="1"/>
          <line id="Line_4" data-name="Line 4" x1="12.076" y2="7.136" transform="translate(73.875 65.279)" fill="none" stroke="#fff" stroke-linecap="round" stroke-miterlimit="10" stroke-width="1"/>
        </g>
        <g id="Group_1913" data-name="Group 1913" transform="translate(19.062 0)">
          <g id="Group_1906" data-name="Group 1906">
            <circle id="Ellipse_33" data-name="Ellipse 33" cx="10.781" cy="10.781" r="10.781" transform="translate(0 25.875)" fill="#fff" opacity="0.58"/>
            <path id="Path_2763" data-name="Path 2763" d="M-537.089,282.925h0a4.757,4.757,0,0,1-4.744-4.744V247.133a4.758,4.758,0,0,1,4.744-4.744h0a4.757,4.757,0,0,1,4.744,4.744v31.049A4.756,4.756,0,0,1-537.089,282.925Z" transform="translate(547.87 -242.389)" fill="#3e479b"/>
          </g>
          <g id="Group_1907" data-name="Group 1907" transform="translate(31.928)">
            <circle id="Ellipse_34" data-name="Ellipse 34" cx="10.781" cy="10.781" r="10.781" transform="translate(0 25.875)" fill="#fff" opacity="0.58"/>
            <path id="Path_2764" data-name="Path 2764" d="M-514.615,282.925h0a4.757,4.757,0,0,1-4.744-4.744V247.133a4.757,4.757,0,0,1,4.744-4.744h0a4.758,4.758,0,0,1,4.744,4.744v31.049A4.758,4.758,0,0,1-514.615,282.925Z" transform="translate(525.396 -242.389)" fill="#3e479b"/>
          </g>
          <g id="Group_1908" data-name="Group 1908" transform="translate(62.031)">
            <circle id="Ellipse_35" data-name="Ellipse 35" cx="10.781" cy="10.781" r="10.781" transform="translate(0 25.875)" fill="#fff" opacity="0.58"/>
            <path id="Path_2765" data-name="Path 2765" d="M-493.426,282.925h0a4.757,4.757,0,0,1-4.744-4.744V247.133a4.758,4.758,0,0,1,4.744-4.744h0a4.758,4.758,0,0,1,4.744,4.744v31.049A4.757,4.757,0,0,1-493.426,282.925Z" transform="translate(504.207 -242.389)" fill="#3e479b"/>
          </g>
          <g id="Group_1909" data-name="Group 1909" transform="translate(93.959)">
            <circle id="Ellipse_36" data-name="Ellipse 36" cx="10.781" cy="10.781" r="10.781" transform="translate(0 25.875)" fill="#fff" opacity="0.58"/>
            <path id="Path_2766" data-name="Path 2766" d="M-470.952,282.925h0a4.757,4.757,0,0,1-4.744-4.744V247.133a4.758,4.758,0,0,1,4.744-4.744h0a4.758,4.758,0,0,1,4.744,4.744v31.049A4.758,4.758,0,0,1-470.952,282.925Z" transform="translate(481.733 -242.389)" fill="#3e479b"/>
          </g>
          <g id="Group_1910" data-name="Group 1910" transform="translate(123.98)">
            <circle id="Ellipse_37" data-name="Ellipse 37" cx="10.781" cy="10.781" r="10.781" transform="translate(0 25.875)" fill="#fff" opacity="0.58"/>
            <path id="Path_2767" data-name="Path 2767" d="M-449.821,282.925h0a4.757,4.757,0,0,1-4.744-4.744V247.133a4.758,4.758,0,0,1,4.744-4.744h0a4.758,4.758,0,0,1,4.744,4.744v31.049A4.758,4.758,0,0,1-449.821,282.925Z" transform="translate(460.602 -242.389)" fill="#3e479b"/>
          </g>
          <g id="Group_1911" data-name="Group 1911" transform="translate(155.907)">
            <circle id="Ellipse_38" data-name="Ellipse 38" cx="10.781" cy="10.781" r="10.781" transform="translate(0 25.875)" fill="#fff" opacity="0.58"/>
            <path id="Path_2768" data-name="Path 2768" d="M-427.347,282.925h0a4.757,4.757,0,0,1-4.744-4.744V247.133a4.758,4.758,0,0,1,4.744-4.744h0a4.758,4.758,0,0,1,4.744,4.744v31.049A4.758,4.758,0,0,1-427.347,282.925Z" transform="translate(438.129 -242.389)" fill="#3e479b"/>
          </g>
          <g id="Group_1912" data-name="Group 1912" transform="translate(186.011)">
            <circle id="Ellipse_39" data-name="Ellipse 39" cx="10.781" cy="10.781" r="10.781" transform="translate(0 25.875)" fill="#fff" opacity="0.58"/>
            <path id="Path_2769" data-name="Path 2769" d="M-406.158,282.925h0a4.757,4.757,0,0,1-4.744-4.744V247.133a4.758,4.758,0,0,1,4.744-4.744h0a4.758,4.758,0,0,1,4.744,4.744v31.049A4.757,4.757,0,0,1-406.158,282.925Z" transform="translate(416.939 -242.389)" fill="#3e479b"/>
          </g>
        </g>
      </g>
      <g id="Group_1915" data-name="Group 1915" transform="translate(83.882 365.558)">
        <ellipse id="Ellipse_40" data-name="Ellipse 40" cx="63.387" cy="64.137" rx="63.387" ry="64.137" fill="#599af2"/>
        <ellipse id="Ellipse_41" data-name="Ellipse 41" cx="48.723" cy="49.299" rx="48.723" ry="49.299" transform="translate(14.664 14.838)" fill="#fff"/>
        <rect id="Rectangle_201" data-name="Rectangle 201" width="4.726" height="33.473" rx="0.9" transform="translate(61.024 27.12)" fill="#599af2"/>
        <rect id="Rectangle_202" data-name="Rectangle 202" width="4.726" height="26.884" rx="0.9" transform="translate(90.408 62.586) rotate(90)" fill="#599af2"/>
        <path id="Path_2770" data-name="Path 2770" d="M-446.652,382.269a7.131,7.131,0,0,1-7.089,7.173,7.13,7.13,0,0,1-7.088-7.173,7.131,7.131,0,0,1,7.088-7.173A7.132,7.132,0,0,1-446.652,382.269Z" transform="translate(517.127 -318.132)" fill="#3e479b"/>
      </g>
      <g id="Group_1922" data-name="Group 1922" transform="translate(164.089 8.967)">
        <circle id="Ellipse_42" data-name="Ellipse 42" cx="262.826" cy="262.826" r="262.826" fill="#3e479b"/>
        <circle id="Ellipse_43" data-name="Ellipse 43" cx="238.86" cy="238.86" r="238.86" transform="translate(23.966 23.966)" fill="#fff" opacity="0.55"/>
        <circle id="Ellipse_44" data-name="Ellipse 44" cx="214.495" cy="214.495" r="214.495" transform="translate(48.331 48.331)" fill="#fff"/>
        <g id="Group_1920" data-name="Group 1920" transform="translate(57.718 57.718)">
          <g id="Group_1916" data-name="Group 1916" transform="translate(198.958)">
            <rect id="Rectangle_203" data-name="Rectangle 203" width="11.576" height="39.068" rx="3.309" fill="#373449"/>
            <rect id="Rectangle_204" data-name="Rectangle 204" width="11.576" height="39.068" rx="3.309" transform="translate(0.723 371.148)" fill="#373449"/>
          </g>
          <g id="Group_1917" data-name="Group 1917" transform="translate(0 198.958)">
            <rect id="Rectangle_205" data-name="Rectangle 205" width="11.576" height="39.068" rx="3.309" transform="translate(410.216 0) rotate(90)" fill="#373449"/>
            <rect id="Rectangle_206" data-name="Rectangle 206" width="11.576" height="39.068" rx="3.309" transform="translate(39.068 0.723) rotate(90)" fill="#373449"/>
          </g>
          <g id="Group_1918" data-name="Group 1918" transform="translate(60.38 60.043)">
            <path id="Rectangle_207" data-name="Rectangle 207" d="M3.308,0H8.266a3.31,3.31,0,0,1,3.31,3.31V22.271a3.308,3.308,0,0,1-3.308,3.308H3.31A3.31,3.31,0,0,1,0,22.269V3.308A3.308,3.308,0,0,1,3.308,0Z" transform="matrix(0.707, 0.707, -0.707, 0.707, 281.101, 0)" fill="#373449"/>
            <path id="Rectangle_208" data-name="Rectangle 208" d="M3.308,0H8.266a3.31,3.31,0,0,1,3.31,3.31V25.583a3.309,3.309,0,0,1-3.309,3.309H3.309A3.309,3.309,0,0,1,0,25.583V3.308A3.308,3.308,0,0,1,3.308,0Z" transform="matrix(0.707, 0.707, -0.707, 0.707, 20.435, 261.69)" fill="#373449"/>
          </g>
          <g id="Group_1919" data-name="Group 1919" transform="translate(59.872 60.552)">
            <path id="Rectangle_209" data-name="Rectangle 209" d="M3.308,0H8.266a3.31,3.31,0,0,1,3.31,3.31V22.271a3.308,3.308,0,0,1-3.308,3.308H3.31A3.31,3.31,0,0,1,0,22.269V3.308A3.308,3.308,0,0,1,3.308,0Z" transform="matrix(-0.707, 0.707, -0.707, -0.707, 290.301, 281.101)" fill="#373449"/>
            <path id="Rectangle_210" data-name="Rectangle 210" d="M3.308,0H8.266a3.31,3.31,0,0,1,3.31,3.31V25.583a3.309,3.309,0,0,1-3.309,3.309H3.309A3.309,3.309,0,0,1,0,25.583V3.308A3.308,3.308,0,0,1,3.308,0Z" transform="matrix(-0.707, 0.707, -0.707, -0.707, 28.611, 20.435)" fill="#373449"/>
          </g>
        </g>
        <g id="Group_1921" data-name="Group 1921" transform="translate(256.355 119.15)">
          <rect id="Rectangle_211" data-name="Rectangle 211" width="12.782" height="146.991" rx="3.653" fill="#3e479b"/>
          <rect id="Rectangle_212" data-name="Rectangle 212" width="12.782" height="105.45" rx="3.653" transform="translate(105.45 145.393) rotate(90)" fill="#3e479b"/>
        </g>
        <line id="Line_5" data-name="Line 5" x1="95.864" y2="86.277" transform="translate(263.545 175.87)" fill="none" stroke="#373449" stroke-linecap="round" stroke-miterlimit="10" stroke-width="2"/>
        <circle id="Ellipse_45" data-name="Ellipse 45" cx="23.167" cy="23.167" r="23.167" transform="translate(239.659 239.659)" fill="#4c65ba"/>
      </g>
    </g>
  </g>
</svg>
