<svg width="506" height="365" viewBox="0 0 506 365" fill="none" xmlns="http://www.w3.org/2000/svg">
<path d="M458.397 127.175C432.461 114.396 423.414 -64.5061 308.211 24.9453C262.397 60.5186 196.429 17.4701 133.254 40.9993C75.2362 62.608 73.9026 124.941 81.238 147.381C89.2536 171.9 57.2894 201.216 24.5537 221.349C-26.7958 252.931 10.9637 363.923 59.4741 364.453C107.984 364.984 464.378 363.397 464.378 363.397C464.378 363.397 561.361 177.907 458.397 127.175Z" fill="#00DBEF"/>
<path d="M106.306 194.397C106.306 194.397 69.9637 136.678 55.7613 144.16C41.5589 151.643 106.306 194.397 106.306 194.397Z" fill="#FFDE69"/>
<path d="M103.995 178.888C103.995 178.888 98.4438 135.489 89.6927 137.191C80.9414 138.894 103.995 178.888 103.995 178.888Z" fill="#FFDE69"/>
<path d="M82.7197 233.718C82.7197 233.718 97.9634 223.777 90.5591 210.863C90.5591 210.863 84.676 202.961 78.4806 201.027C78.4806 201.027 82.0888 220.436 78.8107 220.962C75.5323 221.488 76.1875 199.01 76.1875 199.01C76.1875 199.01 59.8191 190.637 53.4639 191.456C53.4639 191.456 63.8417 210.268 60.5483 209.877C57.2548 209.487 45.6408 190.471 45.6408 190.471C45.6408 190.471 28.9488 187.376 26.4609 198.431C23.9731 209.485 28.3771 214.895 30.8527 215.532C33.3284 216.168 49.1383 215.614 48.7657 217.913C48.3928 220.214 37.7741 224.099 31.7842 222.16C31.7842 222.16 38.6558 240.127 47.2662 239.033C55.8767 237.938 58.4477 231.925 63.7801 231.357C69.1119 230.789 73.0408 232.312 70.3975 233.971C67.7541 235.63 58.7 234.738 54.4548 238.918C50.2096 243.098 46.7599 245.69 54.7998 247.358C62.8397 249.027 77.1967 247.585 79.9583 240.651C82.7197 233.718 82.7197 233.718 82.7197 233.718Z" fill="#8F3B99"/>
<path d="M34.1167 201.711C34.1167 201.711 77.5026 216.405 82.7198 233.717C82.7198 233.717 82.6433 241.513 87.1041 250.361L87.1609 253.798C87.1609 253.798 82.4493 242.205 79.9584 240.651C79.9584 240.651 89.3605 225.329 34.1167 201.711Z" fill="#522B73"/>
<path d="M87.1042 250.361C87.1042 250.361 93.9418 261.493 90.3769 275.289L88.6574 274.811C88.6574 274.811 90.0682 259.668 86.4627 252.14C82.8573 244.613 87.1042 250.361 87.1042 250.361Z" fill="#522B73"/>
<path d="M113.678 110.894L71.6307 353.437C70.7755 358.37 74.1627 362.95 78.6659 362.95H100.842L113.678 110.894Z" fill="url(#paint0_linear_84_210)"/>
<path d="M393.178 180.323C393.178 180.323 374.265 166.862 384.237 150.875C384.237 150.875 392.056 141.167 400.007 139.051C400.007 139.051 394.567 163.495 398.705 164.344C402.844 165.192 403.008 136.618 403.008 136.618C403.008 136.618 424.16 126.889 432.192 128.279C432.192 128.279 418.184 151.591 422.382 151.276C426.581 150.962 442.168 127.459 442.168 127.459C442.168 127.459 463.498 124.45 466.167 138.622C468.836 152.793 463.006 159.42 459.834 160.092C456.662 160.764 436.615 159.188 436.986 162.129C437.358 165.069 450.667 170.589 458.358 168.456C458.358 168.456 448.839 190.889 437.955 189.025C427.072 187.162 424.074 179.386 417.329 178.37C410.584 177.355 405.529 179.073 408.812 181.325C412.094 183.577 423.629 182.943 428.834 188.484C434.038 194.025 438.303 197.506 428.022 199.181C417.741 200.856 399.576 198.234 396.377 189.279C393.178 180.323 393.178 180.323 393.178 180.323Z" fill="#FF753C"/>
<path d="M456.302 142.365C456.302 142.365 400.568 158.629 393.178 180.323C393.178 180.323 392.93 190.224 386.875 201.212L386.651 205.573C386.651 205.573 393.146 191.113 396.377 189.278C396.377 189.278 385.118 169.307 456.302 142.365Z" fill="#FFDE69"/>
<path d="M386.875 201.212C386.875 201.212 377.701 214.969 381.616 232.68L383.821 232.168C383.821 232.168 382.7 212.865 387.611 203.507C392.521 194.149 386.875 201.212 386.875 201.212Z" fill="#C7DCFB"/>
<path d="M342.254 121.891C342.254 121.891 313.195 114.772 319.065 89.7848C319.065 89.7848 324.825 73.7128 333.858 67.0257C333.858 67.0257 337.093 100.232 342.594 99.1788C348.094 98.1253 336.598 62.4672 336.598 62.4672C336.598 62.4672 358.95 39.5731 369.519 37.2088C369.519 37.2088 361.623 73.373 366.722 70.8414C371.82 68.3097 381.604 31.1037 381.604 31.1037C381.604 31.1037 406.928 16.4855 416.053 32.7689C425.179 49.052 420.633 60.2744 416.959 62.7276C413.286 65.1807 387.68 73.4376 389.347 76.9092C391.013 80.3808 409.844 80.4683 418.546 73.8934C418.546 73.8934 415.879 106.675 401.565 109.902C387.252 113.129 380.335 104.976 371.523 107.15C362.71 109.323 357.119 114.039 362.128 115.169C367.137 116.3 381.239 109.631 389.987 113.877C398.736 118.122 405.471 120.283 393.356 127.609C381.242 134.935 357.553 140.929 349.904 131.41C342.254 121.891 342.254 121.891 342.254 121.891Z" fill="#6F36BB"/>
<path d="M405.304 42.4576C405.304 42.4576 342.573 91.1151 342.254 121.892C342.254 121.892 345.999 134.345 342.96 151.111L344.466 156.655C344.466 156.655 346.632 135.342 349.904 131.41C349.904 131.41 327.71 112.284 405.304 42.4576Z" fill="#522B73"/>
<path d="M342.96 151.111C342.96 151.111 337.171 172.914 349.297 192.971L351.832 191.21C351.832 191.21 342.533 167.747 344.815 153.593C347.097 139.439 342.96 151.111 342.96 151.111Z" fill="#FFDE69"/>
<path d="M114.183 109.912L86.3133 348.052C85.3893 355.948 90.8989 362.95 98.0359 362.95H138.921L115.87 109.052L114.183 109.912Z" fill="#FF753C"/>
<path d="M114.183 109.912L101.707 346.533C101.237 355.44 107.584 362.95 115.581 362.95H176.557L114.183 109.912Z" fill="url(#paint1_linear_84_210)"/>
<path d="M113.715 111.844L119.781 346.533C119.312 355.44 125.658 362.95 133.655 362.95H194.631L113.715 111.844Z" fill="#FF753C"/>
<path d="M405.658 362.95H165.232C159.229 362.95 154.084 358.164 153.004 351.575L116.419 128.348C114.758 118.213 121.735 108.876 130.969 108.876H368.565C374.568 108.876 379.713 113.663 380.793 120.251L417.886 346.586C419.282 355.103 413.419 362.95 405.658 362.95Z" fill="#D9F9FC"/>
<path d="M121.179 157.338H387.038L380.222 115.192C379.63 111.536 376.778 108.876 373.448 108.876H115.933C114.525 108.876 113.462 110.299 113.716 111.844L121.179 157.338Z" fill="#462160"/>
<path d="M127.395 96.1931C121.039 96.1931 115.869 101.959 115.869 109.051H118.083C118.083 103.321 122.26 98.6609 127.395 98.6609C132.53 98.6609 136.71 103.321 136.71 109.051C136.71 110.202 136.542 111.307 136.231 112.34C135.316 115.394 133.164 117.819 130.44 118.871C129.644 119.178 128.803 119.372 127.926 119.426V121.897C128.949 121.846 129.934 121.646 130.871 121.314C134.609 119.994 137.53 116.596 138.54 112.341C138.789 111.289 138.921 110.187 138.921 109.051C138.922 101.959 133.751 96.1931 127.395 96.1931Z" fill="#78ACEA"/>
<path d="M130.96 120.571C130.96 120.827 130.928 121.078 130.871 121.314C130.578 122.492 129.612 123.356 128.464 123.356C127.086 123.356 125.968 122.108 125.968 120.571C125.968 119.034 127.086 117.786 128.464 117.786C129.268 117.786 129.983 118.212 130.44 118.87C130.768 119.342 130.96 119.931 130.96 120.571Z" fill="#78ACEA"/>
<path d="M168.72 96.1931C162.364 96.1931 157.194 101.959 157.194 109.051H159.406C159.406 103.321 163.585 98.6609 168.72 98.6609C173.856 98.6609 178.032 103.321 178.032 109.051C178.032 110.202 177.865 111.307 177.553 112.34C176.639 115.394 174.486 117.819 171.766 118.871C170.97 119.178 170.125 119.372 169.248 119.426V121.897C170.272 121.846 171.257 121.646 172.193 121.314C175.934 119.994 178.855 116.596 179.865 112.341C180.114 111.289 180.247 110.187 180.247 109.051C180.247 101.959 175.076 96.1931 168.72 96.1931Z" fill="#78ACEA"/>
<path d="M172.283 120.571C172.283 120.827 172.25 121.078 172.193 121.314C171.901 122.492 170.937 123.356 169.787 123.356C168.409 123.356 167.291 122.108 167.291 120.571C167.291 119.034 168.409 117.786 169.787 117.786C170.593 117.786 171.308 118.212 171.766 118.871C172.09 119.342 172.283 119.931 172.283 120.571Z" fill="#78ACEA"/>
<path d="M210.046 96.1931C203.69 96.1931 198.52 101.959 198.52 109.051H200.731C200.731 103.321 204.908 98.6609 210.046 98.6609C215.181 98.6609 219.358 103.321 219.358 109.051C219.358 110.202 219.19 111.307 218.879 112.34C217.964 115.394 215.812 117.819 213.091 118.871C212.296 119.178 211.451 119.372 210.574 119.426V121.897C211.594 121.846 212.582 121.646 213.519 121.314C217.261 119.991 220.179 116.596 221.188 112.341C221.437 111.289 221.569 110.187 221.569 109.051C221.57 101.959 216.4 96.1931 210.046 96.1931Z" fill="#78ACEA"/>
<path d="M213.608 120.571C213.608 120.827 213.576 121.078 213.519 121.314C213.226 122.492 212.26 123.356 211.112 123.356C209.735 123.356 208.617 122.108 208.617 120.571C208.617 119.034 209.735 117.786 211.112 117.786C211.916 117.786 212.631 118.212 213.091 118.871C213.416 119.342 213.608 119.931 213.608 120.571Z" fill="#78ACEA"/>
<path d="M251.369 96.1931C245.013 96.1931 239.845 101.959 239.845 109.051H242.057C242.057 103.321 246.234 98.6609 251.369 98.6609C256.504 98.6609 260.684 103.321 260.684 109.051C260.684 110.202 260.516 111.307 260.205 112.34C259.29 115.394 257.138 117.819 254.415 118.871C253.619 119.178 252.777 119.372 251.9 119.426V121.897C252.92 121.846 253.909 121.646 254.845 121.314C258.586 119.991 261.505 116.596 262.514 112.341C262.763 111.289 262.896 110.187 262.896 109.051C262.896 101.959 257.725 96.1931 251.369 96.1931Z" fill="#78ACEA"/>
<path d="M254.934 120.571C254.934 120.827 254.902 121.078 254.845 121.314C254.552 122.492 253.586 123.356 252.438 123.356C251.06 123.356 249.942 122.108 249.942 120.571C249.942 119.034 251.06 117.786 252.438 117.786C253.242 117.786 253.957 118.212 254.414 118.871C254.742 119.342 254.934 119.931 254.934 120.571Z" fill="#78ACEA"/>
<path d="M292.695 96.1931C286.339 96.1931 281.168 101.959 281.168 109.051H283.38C283.38 103.321 287.56 98.6609 292.695 98.6609C297.83 98.6609 302.007 103.321 302.007 109.051C302.007 110.202 301.839 111.307 301.528 112.34C300.613 115.394 298.461 117.819 295.738 118.871C294.944 119.178 294.1 119.372 293.223 119.426V121.897C294.246 121.846 295.231 121.646 296.168 121.314C299.909 119.994 302.83 116.596 303.84 112.341C304.089 111.289 304.222 110.187 304.222 109.051C304.222 101.959 299.051 96.1931 292.695 96.1931Z" fill="#78ACEA"/>
<path d="M296.257 120.571C296.257 120.827 296.224 121.078 296.167 121.314C295.875 122.492 294.912 123.356 293.761 123.356C292.383 123.356 291.265 122.108 291.265 120.571C291.265 119.034 292.383 117.786 293.761 117.786C294.568 117.786 295.282 118.212 295.737 118.871C296.065 119.342 296.257 119.931 296.257 120.571Z" fill="#78ACEA"/>
<path d="M334.02 96.1931C327.665 96.1931 322.494 101.959 322.494 109.051H324.706C324.706 103.321 328.883 98.6609 334.02 98.6609C339.156 98.6609 343.333 103.321 343.333 109.051C343.333 110.202 343.165 111.307 342.854 112.34C341.939 115.394 339.786 117.819 337.063 118.871C336.27 119.178 335.426 119.372 334.549 119.426V121.897C335.572 121.846 336.557 121.646 337.494 121.314C341.232 119.994 344.153 116.596 345.163 112.341C345.412 111.289 345.544 110.187 345.544 109.051C345.544 101.959 340.374 96.1931 334.02 96.1931Z" fill="#78ACEA"/>
<path d="M337.583 120.571C337.583 120.827 337.55 121.078 337.494 121.314C337.201 122.492 336.235 123.356 335.087 123.356C333.709 123.356 332.591 122.108 332.591 120.571C332.591 119.034 333.709 117.786 335.087 117.786C335.891 117.786 336.605 118.212 337.063 118.871C337.391 119.342 337.583 119.931 337.583 120.571Z" fill="#78ACEA"/>
<path d="M375.343 96.1931C368.987 96.1931 363.819 101.959 363.819 109.051H366.031C366.031 103.321 370.208 98.6609 375.343 98.6609C380.478 98.6609 384.658 103.321 384.658 109.051C384.658 110.202 384.49 111.307 384.179 112.34C383.264 115.394 381.112 117.819 378.388 118.871C377.593 119.178 376.751 119.372 375.873 119.426V121.897C376.897 121.846 377.882 121.646 378.819 121.314C382.558 119.994 385.478 116.596 386.488 112.341C386.737 111.289 386.869 110.187 386.869 109.051C386.869 101.959 381.699 96.1931 375.343 96.1931Z" fill="#78ACEA"/>
<path d="M378.908 120.571C378.908 120.827 378.875 121.078 378.819 121.314C378.526 122.492 377.56 123.356 376.412 123.356C375.034 123.356 373.916 122.108 373.916 120.571C373.916 119.034 375.034 117.786 376.412 117.786C377.216 117.786 377.931 118.212 378.388 118.871C378.716 119.342 378.908 119.931 378.908 120.571Z" fill="#78ACEA"/>
<path d="M274.923 236.515H261.484C259.93 236.515 258.413 235.097 258.114 233.363L255.521 218.368C255.222 216.635 256.247 215.216 257.802 215.216H271.241C272.795 215.216 274.311 216.635 274.611 218.368L277.203 233.363C277.503 235.097 276.477 236.515 274.923 236.515Z" fill="#00B9E3"/>
<path d="M308.837 236.515H295.397C293.843 236.515 292.327 235.097 292.027 233.363L289.435 218.368C289.135 216.635 290.161 215.216 291.715 215.216H305.155C306.708 215.216 308.224 216.635 308.524 218.368L311.116 233.363C311.416 235.097 310.39 236.515 308.837 236.515Z" fill="#00B9E3"/>
<path d="M342.75 236.515H329.311C327.757 236.515 326.241 235.097 325.941 233.363L323.348 218.368C323.049 216.635 324.075 215.216 325.628 215.216H339.068C340.621 215.216 342.138 216.635 342.437 218.368L345.03 233.363C345.329 235.097 344.303 236.515 342.75 236.515Z" fill="#78ACEA"/>
<path d="M173.182 236.515H159.743C158.189 236.515 156.673 235.097 156.373 233.363L153.78 218.368C153.481 216.635 154.507 215.216 156.06 215.216H169.5C171.054 215.216 172.57 216.635 172.87 218.368L175.462 233.363C175.762 235.097 174.736 236.515 173.182 236.515Z" fill="#00B9E3"/>
<path d="M158.453 191.496H152.678C152.01 191.496 151.358 190.886 151.229 190.141L150.115 183.697C149.986 182.952 150.427 182.343 151.095 182.343H156.87C157.538 182.343 158.19 182.952 158.318 183.697L159.432 190.141C159.561 190.886 159.12 191.496 158.453 191.496Z" fill="#FFA100"/>
<path d="M207.096 236.515H193.657C192.103 236.515 190.587 235.097 190.287 233.363L187.695 218.368C187.395 216.635 188.421 215.216 189.974 215.216H203.414C204.968 215.216 206.484 216.635 206.784 218.368L209.376 233.363C209.676 235.097 208.65 236.515 207.096 236.515Z" fill="#00B9E3"/>
<path d="M241.009 236.515H227.57C226.016 236.515 224.5 235.097 224.2 233.363L221.608 218.368C221.308 216.635 222.334 215.216 223.888 215.216H237.327C238.881 215.216 240.397 216.635 240.697 218.368L243.289 233.363C243.589 235.097 242.563 236.515 241.009 236.515Z" fill="#00B9E3"/>
<path d="M376.664 236.515H363.224C361.67 236.515 360.154 235.097 359.854 233.363L357.262 218.368C356.962 216.635 357.988 215.216 359.542 215.216H372.981C374.535 215.216 376.051 216.635 376.351 218.368L378.943 233.363C379.243 235.097 378.217 236.515 376.664 236.515Z" fill="#78ACEA"/>
<path d="M269.292 203.947H255.853C254.299 203.947 252.782 202.528 252.483 200.795L249.89 185.799C249.591 184.066 250.617 182.647 252.17 182.647H265.61C267.164 182.647 268.68 184.066 268.98 185.799L271.572 200.795C271.872 202.528 270.846 203.947 269.292 203.947Z" fill="#00B9E3"/>
<path d="M303.206 203.947H289.766C288.212 203.947 286.696 202.528 286.396 200.795L283.804 185.799C283.504 184.066 284.53 182.647 286.084 182.647H299.523C301.077 182.647 302.593 184.066 302.893 185.799L305.486 200.795C305.785 202.528 304.759 203.947 303.206 203.947Z" fill="#00B9E3"/>
<path d="M337.119 203.947H323.68C322.126 203.947 320.61 202.528 320.31 200.795L317.718 185.799C317.418 184.066 318.444 182.647 319.998 182.647H333.437C334.991 182.647 336.507 184.066 336.807 185.799L339.399 200.795C339.699 202.528 338.673 203.947 337.119 203.947Z" fill="#78ACEA"/>
<path d="M371.033 203.947H357.593C356.04 203.947 354.523 202.528 354.224 200.795L351.631 185.799C351.331 184.066 352.357 182.647 353.911 182.647H367.351C368.904 182.647 370.421 184.066 370.72 185.799L373.313 200.795C373.613 202.528 372.586 203.947 371.033 203.947Z" fill="#78ACEA"/>
<path d="M280.891 271.034H267.451C265.898 271.034 264.382 269.616 264.082 267.882L261.49 252.887C261.19 251.154 262.216 249.735 263.769 249.735H277.209C278.763 249.735 280.279 251.154 280.579 252.887L283.171 267.882C283.47 269.616 282.445 271.034 280.891 271.034Z" fill="#00B9E3"/>
<path d="M314.804 271.034H301.365C299.811 271.034 298.295 269.616 297.995 267.882L295.403 252.887C295.103 251.154 296.129 249.735 297.683 249.735H311.122C312.676 249.735 314.192 251.154 314.492 252.887L317.084 267.882C317.384 269.616 316.358 271.034 314.804 271.034Z" fill="#00B9E3"/>
<path d="M348.718 271.034H335.278C333.725 271.034 332.208 269.616 331.909 267.882L329.316 252.887C329.017 251.154 330.042 249.735 331.596 249.735H345.036C346.589 249.735 348.106 251.154 348.405 252.887L350.998 267.882C351.298 269.616 350.271 271.034 348.718 271.034Z" fill="#78ACEA"/>
<path d="M179.15 271.034H165.711C164.157 271.034 162.641 269.616 162.341 267.882L159.749 252.887C159.449 251.154 160.475 249.735 162.029 249.735H175.468C177.022 249.735 178.538 251.154 178.838 252.887L181.43 267.882C181.73 269.616 180.704 271.034 179.15 271.034Z" fill="#00B9E3"/>
<path d="M213.064 271.034H199.625C198.071 271.034 196.554 269.616 196.255 267.882L193.662 252.887C193.363 251.154 194.389 249.735 195.943 249.735H209.382C210.936 249.735 212.452 251.154 212.752 252.887L215.344 267.882C215.644 269.616 214.618 271.034 213.064 271.034Z" fill="#00B9E3"/>
<path d="M246.977 271.034H233.538C231.984 271.034 230.467 269.616 230.168 267.882L227.575 252.887C227.276 251.154 228.302 249.735 229.855 249.735H243.295C244.849 249.735 246.365 251.154 246.665 252.887L249.257 267.882C249.557 269.616 248.531 271.034 246.977 271.034Z" fill="#00B9E3"/>
<path d="M382.631 271.034H369.192C367.638 271.034 366.122 269.616 365.822 267.882L363.23 252.887C362.93 251.154 363.956 249.735 365.51 249.735H378.949C380.503 249.735 382.019 251.154 382.319 252.887L384.911 267.882C385.211 269.616 384.185 271.034 382.631 271.034Z" fill="#78ACEA"/>
<path d="M286.859 305.553H273.419C271.866 305.553 270.349 304.135 270.05 302.401L267.457 287.406C267.158 285.673 268.184 284.255 269.737 284.255H283.177C284.731 284.255 286.247 285.673 286.546 287.406L289.139 302.401C289.438 304.135 288.412 305.553 286.859 305.553Z" fill="#00B9E3"/>
<path d="M320.772 305.553H307.333C305.779 305.553 304.262 304.135 303.963 302.401L301.371 287.406C301.071 285.673 302.097 284.255 303.651 284.255H317.09C318.644 284.255 320.16 285.673 320.46 287.406L323.052 302.401C323.352 304.135 322.326 305.553 320.772 305.553Z" fill="#00B9E3"/>
<path d="M354.686 305.553H341.246C339.692 305.553 338.176 304.135 337.877 302.401L335.284 287.406C334.984 285.673 336.01 284.255 337.564 284.255H351.004C352.557 284.255 354.074 285.673 354.373 287.406L356.966 302.401C357.265 304.135 356.239 305.553 354.686 305.553Z" fill="#78ACEA"/>
<path d="M185.118 305.553H171.679C170.125 305.553 168.609 304.135 168.309 302.401L165.717 287.406C165.417 285.673 166.443 284.255 167.997 284.255H181.436C182.99 284.255 184.506 285.673 184.806 287.406L187.398 302.401C187.698 304.135 186.672 305.553 185.118 305.553Z" fill="#00B9E3"/>
<path d="M219.032 305.553H205.592C204.039 305.553 202.522 304.135 202.223 302.401L199.63 287.406C199.33 285.673 200.356 284.255 201.91 284.255H215.35C216.903 284.255 218.42 285.673 218.719 287.406L221.312 302.401C221.611 304.135 220.585 305.553 219.032 305.553Z" fill="#FFA100"/>
<path d="M252.945 305.553H239.506C237.952 305.553 236.435 304.135 236.136 302.401L233.544 287.406C233.244 285.673 234.27 284.255 235.824 284.255H249.263C250.817 284.255 252.333 285.673 252.633 287.406L255.225 302.401C255.525 304.135 254.499 305.553 252.945 305.553Z" fill="#00B9E3"/>
<path d="M388.599 305.553H375.16C373.606 305.553 372.09 304.135 371.79 302.401L369.197 287.406C368.898 285.673 369.924 284.255 371.477 284.255H384.917C386.471 284.255 387.987 285.673 388.287 287.406L390.879 302.401C391.179 304.135 390.153 305.553 388.599 305.553Z" fill="#78ACEA"/>
<path d="M292.489 338.122H279.05C277.496 338.122 275.98 336.704 275.68 334.97L273.088 319.975C272.788 318.241 273.814 316.823 275.368 316.823H288.807C290.361 316.823 291.877 318.241 292.177 319.975L294.77 334.97C295.069 336.704 294.043 338.122 292.489 338.122Z" fill="#00B9E3"/>
<path d="M326.402 338.122H312.963C311.409 338.122 309.893 336.704 309.593 334.97L307.001 319.975C306.701 318.241 307.727 316.823 309.281 316.823H322.721C324.274 316.823 325.791 318.241 326.09 319.975L328.682 334.97C328.982 336.704 327.956 338.122 326.402 338.122Z" fill="#00B9E3"/>
<path d="M360.316 338.122H346.877C345.323 338.122 343.806 336.704 343.507 334.97L340.914 319.975C340.614 318.241 341.641 316.823 343.194 316.823H356.634C358.187 316.823 359.704 318.241 360.004 319.975L362.596 334.97C362.895 336.704 361.869 338.122 360.316 338.122Z" fill="#78ACEA"/>
<path d="M190.748 338.122H177.309C175.755 338.122 174.239 336.704 173.94 334.97L171.347 319.975C171.047 318.241 172.074 316.823 173.627 316.823H187.067C188.62 316.823 190.137 318.241 190.436 319.975L193.028 334.97C193.328 336.704 192.302 338.122 190.748 338.122Z" fill="#00B9E3"/>
<path d="M224.662 338.122H211.223C209.669 338.122 208.153 336.704 207.853 334.97L205.261 319.975C204.961 318.241 205.987 316.823 207.54 316.823H220.98C222.534 316.823 224.05 318.241 224.35 319.975L226.942 334.97C227.242 336.704 226.216 338.122 224.662 338.122Z" fill="#00B9E3"/>
<path d="M258.576 338.122H245.136C243.582 338.122 242.066 336.704 241.767 334.97L239.174 319.975C238.874 318.241 239.9 316.823 241.454 316.823H254.893C256.447 316.823 257.964 318.241 258.263 319.975L260.856 334.97C261.155 336.704 260.13 338.122 258.576 338.122Z" fill="#00B9E3"/>
<path d="M199.187 185.578H163.582C163.057 185.578 162.628 185.099 162.628 184.513C162.628 183.928 163.057 183.449 163.582 183.449H199.187C199.711 183.449 200.141 183.928 200.141 184.513C200.141 185.099 199.711 185.578 199.187 185.578Z" fill="#00B9E3"/>
<path d="M200.27 190.389H164.665C164.14 190.389 163.711 189.91 163.711 189.325C163.711 188.739 164.14 188.26 164.665 188.26H200.27C200.794 188.26 201.224 188.739 201.224 189.325C201.224 189.91 200.794 190.389 200.27 190.389Z" fill="#00B9E3"/>
<path d="M161.001 149.751H148.782C147.782 149.751 146.963 148.838 146.963 147.721C146.963 146.604 147.782 145.691 148.782 145.691H161.001C162.001 145.691 162.82 146.604 162.82 147.721C162.82 148.838 162.001 149.751 161.001 149.751Z" fill="white"/>
<path d="M194.527 149.751H182.308C181.308 149.751 180.489 148.838 180.489 147.721C180.489 146.604 181.308 145.691 182.308 145.691H194.527C195.527 145.691 196.346 146.604 196.346 147.721C196.346 148.838 195.527 149.751 194.527 149.751Z" fill="white"/>
<path d="M228.053 149.751H215.835C214.834 149.751 214.015 148.838 214.015 147.721C214.015 146.604 214.833 145.691 215.835 145.691H228.053C229.053 145.691 229.873 146.604 229.873 147.721C229.873 148.838 229.053 149.751 228.053 149.751Z" fill="white"/>
<path d="M261.579 149.751H249.36C248.359 149.751 247.541 148.838 247.541 147.721C247.541 146.604 248.359 145.691 249.36 145.691H261.579C262.579 145.691 263.398 146.604 263.398 147.721C263.398 148.838 262.579 149.751 261.579 149.751Z" fill="white"/>
<path d="M295.104 149.751H282.886C281.885 149.751 281.066 148.838 281.066 147.721C281.066 146.604 281.885 145.691 282.886 145.691H295.104C296.105 145.691 296.924 146.604 296.924 147.721C296.924 148.838 296.106 149.751 295.104 149.751Z" fill="white"/>
<path d="M328.63 149.751H316.412C315.412 149.751 314.593 148.838 314.593 147.721C314.593 146.604 315.412 145.691 316.412 145.691H328.63C329.631 145.691 330.45 146.604 330.45 147.721C330.45 148.838 329.631 149.751 328.63 149.751Z" fill="white"/>
<path d="M362.156 149.751H349.938C348.937 149.751 348.119 148.838 348.119 147.721C348.119 146.604 348.937 145.691 349.938 145.691H362.156C363.157 145.691 363.976 146.604 363.976 147.721C363.976 148.838 363.157 149.751 362.156 149.751Z" fill="white"/>
<path d="M284.881 204.242C282.183 204.242 280.218 203.286 279.147 201.432C277.094 197.876 278.679 192.892 283.858 186.616C287.641 182.034 292.058 178.402 292.102 178.366C292.275 178.224 292.52 178.266 292.647 178.46C292.775 178.653 292.737 178.926 292.563 179.068C292.391 179.209 275.365 193.275 279.803 200.961C281.209 203.395 284.219 203.557 286.499 203.262C290.717 202.718 296.217 200.183 301.211 196.482C306.381 192.651 310.023 188.333 311.203 184.636C311.977 182.211 311.737 180.493 310.491 179.53C308.88 178.286 305.515 178.286 301.49 179.527C297.635 180.716 293.755 182.857 291.364 185.115C291.2 185.27 290.953 185.247 290.814 185.063C290.675 184.88 290.696 184.605 290.86 184.45C293.332 182.117 297.325 179.909 301.282 178.688C305.591 177.359 309.109 177.405 310.934 178.815C312.016 179.649 313.067 181.388 311.937 184.928C310.702 188.798 306.95 193.274 301.643 197.207C296.551 200.981 290.923 203.567 286.589 204.127C285.991 204.204 285.421 204.242 284.881 204.242Z" fill="#FFDE69"/>
<path d="M355.429 179.523L354.042 176.603C354.042 176.603 354.73 171.4 348.888 168.109C348.888 168.109 346.752 167.139 345.547 169.082C344.437 170.872 347.663 170.549 347.49 173.611C347.317 176.673 348.619 178.469 350.433 179.467L351.931 181.404L355.429 179.523Z" fill="#FFB27D"/>
<path d="M410.644 172.543C410.644 172.543 405.627 200.02 378.016 208.998C369.397 211.8 349.816 180.139 349.816 180.139C349.816 180.139 350.504 177.221 354.817 177.891C354.817 177.891 373.882 191.974 376.283 193.504C378.412 194.862 392.419 176.054 398.804 173.02C405.189 169.986 410.644 172.543 410.644 172.543Z" fill="#462160"/>
<path d="M329.89 172.026L330.997 178.692L361.051 172.479L359.944 165.812L329.89 172.026Z" fill="#FFDE69"/>
<path d="M323.475 176.827L331.015 178.716L329.909 172.05L323.475 176.827Z" fill="#FFB27D"/>
<path d="M363.823 167.33L364.174 169.438C364.388 170.734 363.621 171.98 362.459 172.22L361.069 172.507L359.962 165.841L361.474 165.529C362.569 165.302 363.621 166.109 363.823 167.33Z" fill="#FFB27D"/>
<path d="M443.608 345.271C443.608 345.271 447.033 348.759 446.365 351.237C445.696 353.715 442.605 355.367 442.187 358.396C441.77 361.425 440.099 363.077 438.595 363.077C437.091 363.077 431.425 363.077 431.425 363.077C431.425 363.077 430.318 360.946 432.992 360.303C435.665 359.661 436.674 356.102 436.506 352.797C436.339 349.493 436.757 345.088 436.757 345.088L442.438 343.619L443.608 345.271Z" fill="#462160"/>
<path d="M401.585 354.292C401.585 354.292 402.2 362.229 400.696 363.055L381.451 363.011C381.451 363.011 381.451 360.533 384.542 359.982C387.633 359.432 393.064 357.413 393.983 352.915C394.902 348.418 401.585 354.292 401.585 354.292Z" fill="#462160"/>
<path d="M385.337 242.167C385.337 242.167 386.352 256.081 387.545 272.806C389.166 295.525 391.116 323.433 391.309 328.719C391.643 337.899 392.981 352.584 392.981 352.584C392.981 352.584 396.154 356.073 402.505 354.602C402.505 354.602 408.164 333.64 409.781 311.46C409.806 311.097 409.831 310.73 409.856 310.364C411.36 287.785 413.698 240.24 413.698 240.24L385.337 242.167Z" fill="url(#paint2_linear_84_210)"/>
<path d="M385.337 242.167C385.337 242.167 386.352 256.081 387.545 272.806L409.781 311.46C409.806 311.097 409.831 310.73 409.856 310.364C411.36 287.786 413.698 240.24 413.698 240.24L385.337 242.167Z" fill="#FF753C"/>
<path d="M389.973 243.819C389.973 243.819 408.269 294.209 420.299 317.889C432.329 341.57 436.089 348.178 436.089 348.178C436.089 348.178 442.981 345.149 443.608 343.084C443.608 343.084 439.007 297.368 430.951 286.223C426.398 279.926 421.051 261.029 420.8 254.42C420.55 247.812 419.171 234.733 419.171 234.733L389.973 243.819Z" fill="url(#paint3_linear_84_210)"/>
<path d="M414.045 166.166C414.045 166.166 401.666 172.83 394.529 170.358C394.529 170.358 396.286 167.885 399.36 166.045C399.113 164.446 398.921 163.059 398.811 161.883C398.509 159.169 398.509 157.631 398.509 157.631L403.285 153.44L407.814 149.429C407.457 160.707 414.045 166.166 414.045 166.166Z" fill="#FFB27D"/>
<path d="M384.556 243.317C384.775 243.528 385.022 243.647 385.299 243.647C387.988 243.586 395.811 245.243 402.424 244.49C408.024 243.887 412.965 242.078 418.262 239.487C418.976 239.125 420.598 238.159 420.568 237.316C420.54 236.35 420.459 234.994 420.35 233.242C420.128 229.797 419.816 224.905 419.716 219.106C419.642 214.806 419.684 210.008 419.964 204.926C419.98 204.585 419.996 204.24 420.009 203.896C420.089 202.033 420.128 200.156 420.128 198.322C420.157 192.411 419.774 186.773 419.005 181.737C417.657 172.991 415.132 166.147 411.401 163.1C410.906 162.677 407.831 164.335 404.978 165.874C402.369 167.292 399.764 167.443 397.293 166.901L394.823 169.313C391.828 172.356 388.535 176.548 387.08 182.883C385.875 188.252 385.161 197.96 384.774 208.034C384.585 212.617 384.446 217.2 384.392 221.572V221.723C384.363 222.175 384.363 222.63 384.363 223.083C384.228 234.269 384.363 243.166 384.556 243.317Z" fill="#522B73"/>
<path d="M407.896 153.741C407.896 153.741 404.767 160.104 398.811 161.883C398.509 159.169 398.509 157.631 398.509 157.631L403.285 153.44L407.896 153.741Z" fill="#ED985F"/>
<path d="M396.331 157.448C396.331 157.448 408.14 159.603 409.249 151.503C410.358 143.402 412.628 138.225 405.135 136.506C397.642 134.787 395.751 137.636 394.783 140.241C393.814 142.846 393.288 156.678 396.331 157.448Z" fill="#FFB27D"/>
<path d="M413.541 135.536C413.649 135.399 413.895 135.289 414.446 135.255C414.446 135.255 414.006 134.948 413.418 134.932C413.303 134.078 412.896 132.567 411.579 132.2C411.579 132.2 412.286 132.621 412.379 133.529C410.854 131.781 407.585 130.508 398.534 131.306C386.607 132.356 390.538 140.877 392.082 141.893C393.626 142.909 397.513 140.124 400.39 140.379C403.267 140.633 403.814 145.272 404.79 145.909C405.766 146.545 405.382 145.42 406.703 144.754C408.023 144.088 408.149 146.529 407.768 148.117C407.386 149.704 409.2 151.798 409.2 151.798C409.2 151.798 409.2 151.798 411.034 149.595C412.868 147.391 414.596 138.059 413.762 136.069C413.689 135.893 413.616 135.715 413.541 135.536Z" fill="#522878"/>
<path d="M354.017 176.465C354.017 176.465 354.423 174.674 353.31 173.869C352.196 173.064 351.172 170.874 350.702 171.171C349.73 171.785 351.235 173.696 350.96 176.078C350.863 176.912 352.604 179.099 354.017 176.465Z" fill="#FFB27D"/>
<path d="M419.716 219.106C419.642 214.806 419.684 210.008 419.964 204.926C419.98 204.585 419.996 204.24 420.009 203.896C418.886 197.691 417.188 192.185 414.689 192.006C414.689 192.006 407.242 205.062 419.716 219.106Z" fill="#462160"/>
<path d="M429.566 241.621C429.566 241.621 428.945 248.354 428.264 249.627C427.583 250.901 424.684 254.971 423.448 255.769C422.213 256.568 424.203 250.407 423.951 249.208C423.699 248.009 422.934 251.396 422.39 251.475C421.845 251.555 421.986 248.507 421.966 247.398C421.947 246.288 424.615 243.55 425.556 241.188C426.496 238.826 429.566 241.621 429.566 241.621Z" fill="#FFB27D"/>
<path d="M411.395 163.033C411.395 163.033 418.868 166.981 422.45 173.05C428.007 182.464 434.449 216.775 434.568 219.952C434.686 223.129 429.866 245.559 429.866 245.559C429.866 245.559 424.977 245.2 423.716 242.446C423.716 242.446 424.692 219.4 424.074 217.919C423.455 216.437 403.691 187.003 405.914 180.722C408.136 174.442 411.395 163.033 411.395 163.033Z" fill="#522B73"/>
<path d="M327.339 173.959L327.733 177.894L323.475 176.827L327.339 173.959Z" fill="#FFDE69"/>
<path d="M489.025 362.95H467.492C466.338 361.858 468.29 359.378 470.33 359.211C471.216 359.137 472.337 359.343 473.617 359.645C473.913 355.253 475.606 335.512 481.983 336.306C489.154 337.194 481.983 345 479.956 349.621C478.455 353.044 476.87 357.952 476.147 360.268C476.728 360.409 477.331 360.547 477.947 360.674C478.897 357.417 482.434 346.465 486.931 347.103C492.212 347.85 490.089 352.242 486.347 354.849C483.601 356.765 480.229 359.49 478.627 360.806C479.985 361.053 481.401 361.22 482.838 361.183C486.527 361.085 488.327 362.298 489.025 362.95Z" fill="#FF753C"/>
<path d="M53.7663 361.808C52.6252 359.808 49.1907 354.617 44.6163 355.304C39.6324 356.053 50.1209 359.719 53.3319 361.824C52.6189 361.835 52.0056 361.771 51.5556 361.592C49.4089 360.738 45.7322 362.376 44.5569 362.95H64.9937C64.8526 362.405 64.4843 361.514 63.5326 360.865C63.197 360.636 62.5226 360.604 61.6516 360.678C62.8667 359.08 63.7107 353.974 60.3278 355.288C57.8565 356.247 57.8632 359.367 58.1058 361.213C57.5803 361.305 57.0469 361.398 56.5201 361.482C55.5025 355.696 51.9037 338.739 44.6092 338.286C37.2143 337.828 50.8801 355.873 55.4302 361.644C54.8472 361.722 54.286 361.781 53.7663 361.808Z" fill="#6F36BB"/>
<path d="M502.692 364.468H19.2899C19.2486 364.468 19.2148 364.43 19.2148 364.384V362.494C19.2148 362.447 19.2486 362.41 19.2899 362.41H502.692C502.733 362.41 502.767 362.447 502.767 362.494V364.384C502.767 364.43 502.733 364.468 502.692 364.468Z" fill="#2E3552"/>
<defs>
<linearGradient id="paint0_linear_84_210" x1="71.4982" y1="236.922" x2="113.678" y2="236.922" gradientUnits="userSpaceOnUse">
<stop stop-color="#F1CC52"/>
<stop offset="1" stop-color="#FF6935"/>
</linearGradient>
<linearGradient id="paint1_linear_84_210" x1="101.683" y1="236.431" x2="176.557" y2="236.431" gradientUnits="userSpaceOnUse">
<stop stop-color="#F1CC52"/>
<stop offset="1" stop-color="#FF6935"/>
</linearGradient>
<linearGradient id="paint2_linear_84_210" x1="385.337" y1="297.602" x2="413.698" y2="297.602" gradientUnits="userSpaceOnUse">
<stop stop-color="#F1CC52"/>
<stop offset="1" stop-color="#FF6935"/>
</linearGradient>
<linearGradient id="paint3_linear_84_210" x1="389.973" y1="291.456" x2="443.607" y2="291.456" gradientUnits="userSpaceOnUse">
<stop stop-color="#F1CC52"/>
<stop offset="1" stop-color="#FF6935"/>
</linearGradient>
</defs>
</svg>
