<svg width="416" height="402" viewBox="0 0 416 402" fill="none" xmlns="http://www.w3.org/2000/svg">
<path d="M214.075 7.37466C169.114 24.6584 164.807 68.8401 124.325 72.6317C89.0519 75.9355 75.6445 43.9537 50.8941 49.6842C13.1923 58.4135 -10.5115 145.315 4.63034 216.771C20.2656 290.553 85.9579 388.638 194.79 395.331C316.977 402.846 409.43 289.992 415.075 190.955C415.685 180.245 419.29 90.505 348.327 37.4934C344.782 34.8443 274.854 -15.9904 214.075 7.37466Z" fill="#F4F7FA"/>
<path d="M155.197 361.716C186.679 356.486 217.5 348.301 248.147 339.513C262.892 335.285 277.646 331.259 292.527 327.536C306.52 324.036 320.503 320.381 334.025 315.318C335.674 314.668 337.31 313.99 338.939 313.295C331.301 285.451 333.209 248.884 285.632 252.665C237.23 256.511 206.888 285.937 184.645 217.348C162.401 148.761 60.5305 48.4745 8.8132 123.39C-20.8675 166.384 43.029 206.598 39.0749 256.83C35.3177 304.562 65.3616 330.516 117.223 337.372C142.674 340.737 151.973 349.062 155.197 361.716Z" fill="url(#paint0_linear_85_760)"/>
<mask id="mask0_85_760" style="mask-type:luminance" maskUnits="userSpaceOnUse" x="0" y="96" width="319" height="260">
<path d="M318.038 259.824C315.344 253.756 303.726 251.227 285.632 252.665C237.23 256.512 206.888 285.937 184.645 217.349C162.401 148.761 60.5305 48.4745 8.8132 123.39C-20.8675 166.384 43.029 206.598 39.0749 256.83C35.3177 304.562 65.3616 330.516 117.223 337.372C150.765 341.807 145.897 350.354 150.637 351.837C220.883 373.818 327.743 281.685 318.038 259.824Z" fill="white"/>
</mask>
<g mask="url(#mask0_85_760)">
<path d="M168.773 300.364C189.408 316.852 211.236 331.259 234.004 343.51C234.36 343.411 234.715 343.312 235.071 343.213C141.573 293.302 65.5175 207.523 19.4614 95.5532L18.4468 95.97C52.2291 178.099 104.211 248.778 168.773 300.364Z" fill="#FCFDFE"/>
<path d="M312.735 322.216C304.892 300.449 299.776 274.349 297.513 244.504L296.42 244.588C298.688 274.497 303.815 300.669 311.677 322.514C312.03 322.415 312.383 322.316 312.735 322.216Z" fill="#FCFDFE"/>
<path d="M159.893 292.686L160.323 291.677C116.652 273.065 67.7449 283.075 34.4067 294.749L34.7695 295.785C67.9246 284.174 116.546 274.211 159.893 292.686Z" fill="#FCFDFE"/>
<path d="M85.0293 213.916L86.0142 213.434C62.5042 165.398 73.4184 110.333 82.0163 81.7844L80.9662 81.4678C72.322 110.17 61.3548 165.544 85.0293 213.916Z" fill="#FCFDFE"/>
</g>
<path d="M161.083 346.039C201.664 351.437 243.486 353.896 283.73 347.909C311.223 343.054 330.454 323.985 353.94 311.923C379.046 291.442 385.487 266.74 366.927 239.146C344.055 205.142 376.66 155.388 337.117 135.117C268.217 99.7959 230.543 204.563 240.786 260.281C251.029 316 216.353 305.496 178.082 319.051C159.858 325.506 154.2 334.721 153.801 345.025C156.227 345.373 158.653 345.716 161.083 346.039Z" fill="#D8DEE8"/>
<mask id="mask1_85_760" style="mask-type:luminance" maskUnits="userSpaceOnUse" x="156" y="128" width="222" height="224">
<path d="M156.31 334.974C155.459 330.196 165.125 323.641 178.083 319.051C216.353 305.496 251.03 316 240.786 260.281C230.543 204.563 268.217 99.7958 337.118 135.117C376.66 155.388 344.055 205.142 366.927 239.147C375.086 251.277 378.415 262.849 377.449 273.75C375.24 298.686 350.423 314.884 339.454 322.056C269.305 367.922 158.924 349.656 156.31 334.974Z" fill="white"/>
</mask>
<g mask="url(#mask1_85_760)">
<path d="M144.835 456.555L144.344 455.812C267.527 390.828 332.453 264.96 318.022 119.115L318.957 119.067C325.796 188.187 314.288 255.367 285.676 313.344C255.596 374.295 206.894 423.817 144.835 456.555Z" fill="#FCFDFE"/>
<path d="M168.846 443.541L168.153 442.943C182.656 428.919 188.555 408.506 185.688 382.273C183.586 363.038 176.906 341.18 165.833 317.303L166.697 316.995C177.806 340.951 184.51 362.896 186.622 382.218C189.518 408.703 183.537 429.335 168.846 443.541Z" fill="#FCFDFE"/>
<path d="M289.38 304.96L288.655 304.394C314.449 276.63 355.541 267.24 385.471 264.252L385.605 265.102C355.84 268.074 314.984 277.401 289.38 304.96Z" fill="#FCFDFE"/>
<path d="M315.061 224.4L314.123 224.392C312.971 182.705 282.902 147.638 265.081 130.445L265.753 129.87C283.67 147.155 313.901 182.421 315.061 224.4Z" fill="#FCFDFE"/>
</g>
<path d="M180.809 324.692C180.716 325.241 180.622 325.794 180.527 326.35C181.06 326.704 181.595 327.055 182.123 327.413C181.675 326.515 181.237 325.608 180.809 324.692Z" fill="url(#paint1_linear_85_760)"/>
<path d="M232.39 333.579C232.562 333.681 232.732 333.786 232.903 333.887C233.443 334.208 233.984 334.526 234.524 334.844C236.607 336.071 239.39 337.605 232.39 333.579Z" fill="url(#paint2_linear_85_760)"/>
<path d="M258.631 209.261C257.868 204.846 245.357 197.159 245.43 165.068C245.588 96.358 190.319 -39.9457 111.923 13.2542C66.9312 43.7861 113.405 109.771 95.7504 159.065C90.4732 173.8 89.5292 187.394 92.1527 199.805C98.0507 227.709 122.178 239.958 152.195 263.663C209.898 309.231 211.505 342.89 229.22 339.409C254.507 334.44 268.367 265.589 258.631 209.261Z" fill="url(#paint3_linear_85_760)"/>
<mask id="mask2_85_760" style="mask-type:luminance" maskUnits="userSpaceOnUse" x="90" y="0" width="156" height="288">
<path d="M235.122 210.522C235.893 193.658 245.39 181.165 245.43 163.993C245.588 95.2829 190.318 -41.0209 111.923 12.179C66.9308 42.7109 113.404 108.695 95.7501 157.989C78.9738 204.831 105.988 240.14 152.195 262.588C177.087 274.68 172.849 285.192 180.133 286.834C210.762 293.74 233.166 253.332 235.122 210.522Z" fill="white"/>
</mask>
<g mask="url(#mask2_85_760)">
<path d="M434.441 360.587C433.797 358.986 434.438 359.635 434.31 358.935C217.145 309.101 152.106 206.647 128.463 -9.87616C128.278 -9.50954 127.342 -10.533 127.659 -9.23772C135.233 77.4842 158.115 168.989 208.1 238.837C260.649 312.271 351.951 339.331 434.441 360.587Z" fill="#FCFDFE"/>
<path d="M202.152 230.075C202.366 229.776 202.578 229.476 202.791 229.177C168.333 200.977 125.082 191.786 81.4087 193.56C81.4381 193.944 81.4757 194.327 81.505 194.711C124.895 192.948 167.915 202.061 202.152 230.075Z" fill="#FCFDFE"/>
<path d="M152.787 126.735C153.147 126.682 153.507 126.628 153.868 126.577C149.41 80.3692 167.012 35.2111 193.437 -2.03354C193.138 -2.25006 192.838 -2.46573 192.541 -2.68481C165.966 34.7673 148.25 80.2687 152.787 126.735Z" fill="#FCFDFE"/>
</g>
<path d="M144.934 75.4035L153.492 58.4017L145.618 47.2388H129.869L121.995 58.4017L130.553 75.4035H144.934Z" fill="white"/>
<path d="M151.968 58.796H123.497C123.297 58.796 123.134 58.6338 123.134 58.4336C123.134 58.2335 123.297 58.0713 123.497 58.0713H151.968C152.168 58.0713 152.33 58.2335 152.33 58.4336C152.33 58.6338 152.168 58.796 151.968 58.796Z" fill="#D8DEE8"/>
<path d="M137.732 58.7962C137.616 58.7962 137.508 58.7412 137.439 58.6477L130.006 48.4796C129.888 48.3181 129.923 48.0913 130.084 47.9732C130.247 47.8549 130.473 47.8904 130.591 48.0519L137.726 57.8123L144.588 48.0574C144.703 47.8937 144.929 47.8542 145.093 47.9694C145.257 48.0846 145.296 48.3105 145.181 48.4741L138.028 58.6423C137.961 58.7378 137.852 58.7951 137.735 58.7961C137.734 58.7962 137.733 58.7962 137.732 58.7962Z" fill="#D8DEE8"/>
<path d="M128.478 132.721C128.478 191.955 176.192 239.974 235.05 239.974C293.909 239.974 341.623 191.955 341.623 132.721C341.623 73.4874 293.909 25.4688 235.05 25.4688C176.192 25.4688 128.478 73.4874 128.478 132.721ZM145.169 132.721C145.169 82.7645 185.41 42.2664 235.05 42.2664C284.69 42.2664 324.932 82.7645 324.932 132.721C324.932 182.678 284.69 223.176 235.05 223.176C185.41 223.176 145.169 182.678 145.169 132.721Z" fill="url(#paint4_linear_85_760)"/>
<path d="M53.0142 153.645C53.0142 201.323 91.4198 239.974 138.796 239.974C186.172 239.974 224.577 201.323 224.577 153.645C224.577 105.966 186.172 67.3159 138.796 67.3159C91.4198 67.3159 53.0142 105.967 53.0142 153.645ZM69.1621 153.645C69.1621 114.942 100.338 83.5668 138.796 83.5668C177.253 83.5668 208.43 114.942 208.43 153.645C208.43 192.348 177.253 223.723 138.796 223.723C100.338 223.723 69.1621 192.348 69.1621 153.645Z" fill="url(#paint5_linear_85_760)"/>
<path d="M147.202 30.7549L148.077 39.4074L137.182 41.0614L148.346 41.6976C148.346 41.6976 153.726 50.9864 153.726 50.3501C153.726 49.7138 152.029 40.912 152.029 40.912L157.223 37.8803L151.439 38.6438L147.202 30.7549Z" fill="white"/>
<path d="M370.383 128.515C366.987 132.124 370.922 140.677 374.299 140.998C377.804 141.332 383.234 133.042 380.553 129.126C378.664 126.367 372.837 125.907 370.383 128.515Z" fill="url(#paint6_linear_85_760)"/>
<path d="M379.56 101.945C375.059 103.646 373.144 115.408 378.257 118.781C382.348 121.479 390.388 118.449 391.682 113.754C393.304 107.868 384.076 100.239 379.56 101.945Z" fill="url(#paint7_linear_85_760)"/>
<path d="M347.179 92.4199C344.008 96.7226 350.472 108.786 356.134 108.413C360.467 108.128 365.774 100.463 363.073 94.8318C360.159 88.7571 349.773 88.8991 347.179 92.4199Z" fill="url(#paint8_linear_85_760)"/>
<path d="M363.364 65.6888C359.562 68.1263 360.638 82.7994 368.042 84.9245C372.515 86.2087 378.672 82.7318 379.502 78.6136C380.889 71.7326 367.396 63.1037 363.364 65.6888Z" fill="url(#paint9_linear_85_760)"/>
<path d="M390.369 67.6006C387.556 68.3036 386.249 78.3244 389.329 80.0775C391.204 81.1452 395.107 79.3756 396.256 76.4108C397.981 71.9577 392.629 67.0357 390.369 67.6006Z" fill="url(#paint10_linear_85_760)"/>
<path d="M392.821 89.911C393.952 88.1403 396.75 87.5052 397.865 88.464C399.694 90.0363 397.568 96.3813 395.634 96.4953C394.051 96.5887 391.106 92.5952 392.821 89.911Z" fill="url(#paint11_linear_85_760)"/>
<path d="M365.626 32.8717C362.826 35.7379 364.629 42.118 366.892 45.7787C369.339 49.7352 375.078 54.9706 379.874 52.9736C384.427 51.0781 385.907 43.5914 383.652 38.6195C380.402 31.4535 369.24 29.1712 365.626 32.8717Z" fill="url(#paint12_linear_85_760)"/>
<path d="M332.03 38.7282C329.243 42.911 334.551 52.8649 342.351 56.2613C346.98 58.2772 354.297 58.7709 356.711 55.082C359.331 51.0781 355.139 43.7293 350.318 40.1176C344.323 35.6255 334.609 34.8574 332.03 38.7282Z" fill="url(#paint13_linear_85_760)"/>
<path d="M353.295 8.62026C348.066 9.92709 345.636 28.5551 351.361 31.8142C354.847 33.7989 362.103 30.5095 364.238 24.9978C367.445 16.72 357.496 7.57015 353.295 8.62026Z" fill="url(#paint14_linear_85_760)"/>
<path d="M316.528 26.8721C317.479 31.0491 332.24 33.2927 334.926 28.7985C336.562 26.0618 334.07 20.2406 329.726 18.4512C323.202 15.7637 315.764 23.5156 316.528 26.8721Z" fill="url(#paint15_linear_85_760)"/>
<path d="M288.246 164.961C281.201 176.603 281.169 190.12 287.781 198.1C290.974 201.953 298.096 207.387 306.411 207.517C310.374 207.579 312.339 206.401 313.74 207.708C317.295 211.025 312.905 226.319 304.552 229.491C293.689 233.616 272.876 218.466 269.64 199.103C266.564 180.69 280.708 166.417 282.497 164.667C284.413 164.765 286.33 164.863 288.246 164.961Z" fill="url(#paint16_linear_85_760)"/>
<path d="M396.603 212.495C396.207 203.801 390.68 198.232 389.3 196.885C381.061 188.836 369.429 189.149 365.706 189.248C352.496 189.602 349.514 196.159 340.297 193.719C332.494 191.653 331.893 186.228 325.176 185.861C318.155 185.478 310.79 190.967 307.842 197.205C302.159 209.231 311.027 227.974 323.684 233.63C336.835 239.507 343.948 226.731 368.059 230.503C376.852 231.879 382.006 234.533 387.705 231.312C393.948 227.785 396.92 219.427 396.603 212.495Z" fill="url(#paint17_linear_85_760)"/>
<path d="M305.398 380.599C305.398 380.599 306.095 381.263 306.087 382.426C306.084 382.772 305.924 383.102 305.641 383.321C305.021 383.801 303.651 384.746 301.522 385.612C298.51 386.837 297.497 386.718 297.375 386.216C297.253 385.715 298.808 384.362 300.141 383.181C301.474 381.999 305.398 380.599 305.398 380.599Z" fill="url(#paint18_linear_85_760)"/>
<path d="M306.394 375.935C306.394 375.935 305.405 380.476 305.472 382.137C305.472 382.137 304.263 383.19 302.562 382.112C302.562 382.112 303.471 377.966 303.056 376.24L306.394 375.935Z" fill="url(#paint19_linear_85_760)"/>
<path d="M338.996 382.446C338.996 382.446 339.778 383.007 339.93 384.16C339.976 384.503 339.863 384.852 339.613 385.108C339.065 385.669 337.839 386.795 335.851 387.947C333.037 389.577 332.017 389.6 331.827 389.119C331.637 388.64 332.99 387.085 334.146 385.73C335.303 384.376 338.996 382.446 338.996 382.446Z" fill="url(#paint20_linear_85_760)"/>
<path d="M340.44 378.261C340.44 378.261 339.451 382.802 339.518 384.462C339.518 384.462 338.309 385.516 336.609 384.437C336.609 384.437 337.517 380.292 337.102 378.566L340.44 378.261Z" fill="url(#paint21_linear_85_760)"/>
<path d="M295.371 280.808C294.963 294.461 295.03 309.113 295.795 324.639C296.75 344.032 298.656 362.013 301.074 378.392C301.986 378.654 303.239 378.907 304.736 378.902C305.791 378.898 306.708 378.766 307.447 378.606C307.879 376.679 308.552 373.745 309.432 370.176C311.025 363.715 311.404 362.856 311.904 360.635C313.977 351.425 311.379 348.794 312.723 339.286C313.017 337.2 313.134 337.386 316.012 327.361C319.6 314.861 321.412 308.615 322.268 303.827C324.565 290.978 325.714 284.553 322.147 280.558C317.487 275.336 306.541 276.051 295.371 280.808Z" fill="url(#paint22_linear_85_760)"/>
<path d="M304.169 370.61C305.699 366.383 303.095 364.205 303.17 356.895C303.235 350.589 305.197 349.818 305.84 342.734C306.431 336.238 305.009 334.376 304.688 328.38C304.082 317.078 308.576 313.327 309.511 304.675C310.155 298.718 309.15 290.035 301.302 278.658C310.251 275.987 318.32 276.269 322.147 280.557C325.714 284.553 324.565 290.978 322.268 303.827C321.412 308.615 319.6 314.861 316.012 327.361C313.134 337.386 313.017 337.2 312.723 339.286C311.379 348.794 313.977 351.425 311.903 360.635C311.404 362.855 311.025 363.714 309.432 370.176C308.552 373.744 307.879 376.679 307.447 378.606C306.708 378.766 305.791 378.897 304.736 378.901C303.239 378.907 301.986 378.653 301.074 378.392C300.927 377.392 300.781 376.385 300.637 375.373C302.154 374.134 303.457 372.577 304.169 370.61Z" fill="url(#paint23_linear_85_760)"/>
<path d="M310.04 279.976C315.393 294.901 320.6 311.484 325.2 329.618C329.674 347.252 332.942 363.862 335.333 379.161C336.041 379.494 337.391 380.013 339.15 379.991C340.651 379.972 341.822 379.567 342.508 379.269C344.312 374.804 346.206 368.992 347.357 362.036C348.097 357.57 348.902 352.705 348.361 346.442C347.642 338.121 345.364 336.788 344.37 328.558C343.626 322.408 344.663 321.201 344.986 312.307C345.487 298.512 345.745 291.403 342.337 286.466C335.017 275.86 313.59 279.356 310.04 279.976Z" fill="url(#paint24_linear_85_760)"/>
<path d="M291.721 282.12C293.331 273.03 292.018 273.479 293.528 262.982C295.504 249.239 297.971 246.964 299.147 237.31C299.842 231.604 300.122 223.031 297.512 212.086C300.476 210.408 310.712 205.095 324.252 207.217C325.961 207.485 327.582 207.851 329.116 208.288C330.512 207.438 332.449 208.466 336.107 208.471C344.423 208.482 351.637 203.17 354.895 199.372C361.642 191.506 361.84 177.991 354.994 166.23C356.912 166.165 358.83 166.1 360.748 166.035C361.99 167.306 378.31 184.449 373.016 200.684C370.014 209.89 360.661 216.966 360.013 217.446C354.018 221.891 350.429 221.632 344.398 227.73C342.696 229.449 340.369 232.111 338.907 232.636C333.353 242.344 333.424 248.253 335.234 252.038C337.058 255.854 340.47 257.146 344.095 264.659C347.691 272.112 346.165 274.637 349.414 277.914C355.242 283.79 364.141 279.688 366.057 283.713C367.939 287.666 361.234 295.572 354.433 299.52C349.048 302.646 343.857 303.143 340.204 303.455C333.568 304.021 332.487 302.599 321.356 301.657C313.021 300.951 308.309 300.552 302.028 301.44C293.332 302.67 290.571 305.102 288.492 303.353C285.76 301.054 289.405 295.201 291.721 282.12Z" fill="url(#paint25_linear_85_760)"/>
<path d="M323.183 197.57C322.752 198.729 322.171 201.289 323.403 203.613C324.481 205.648 326.508 206.555 327.319 206.927C329.278 207.825 330.463 207.571 330.512 207.944C330.623 208.767 324.994 211.374 319.205 210.159C315.802 209.445 312.591 207.463 312.815 206.368C313.066 205.141 317.438 206.033 318.966 203.663C319.943 202.149 319.327 199.971 318.552 198.225C319.685 197.287 322.047 198.51 323.183 197.57Z" fill="url(#paint26_linear_85_760)"/>
<path d="M321.836 201.736C321.836 201.736 319.828 204.185 316.821 203.326C314.134 202.558 314.898 195.742 316.881 194.674C317.543 194.318 318.739 194.361 319.634 194.849C320.163 195.138 320.308 195.433 321.181 195.886C321.987 196.304 322.244 196.25 322.46 196.54C322.729 196.904 322.838 197.681 321.964 199.542C322.585 199.07 323.249 198.977 323.653 199.3C323.717 199.352 323.881 199.531 323.95 199.766C324.2 200.617 323.391 201.469 321.836 201.736Z" fill="url(#paint27_linear_85_760)"/>
<path opacity="0.3" d="M334.707 289.823C329.887 280.104 317.665 279.154 317.117 271.412C316.717 265.75 323.167 264.983 325.729 256.826C329.582 244.56 318.021 236.674 322.114 228.247C324.91 222.491 330.983 224.77 345.097 217.383C351.684 213.936 362.142 208.463 368.156 197.519C370.602 193.067 371.831 188.587 372.395 184.571C374.125 189.615 374.804 195.2 373.016 200.684C370.014 209.89 360.662 216.966 360.013 217.446C354.018 221.891 350.429 221.632 344.398 227.73C342.697 229.449 340.369 232.111 338.907 232.636C333.354 242.344 333.424 248.253 335.234 252.038C337.058 255.854 340.471 257.146 344.096 264.659C347.692 272.112 346.165 274.638 349.415 277.914C355.242 283.79 364.141 279.689 366.057 283.713C367.939 287.666 361.234 295.572 354.433 299.52C349.048 302.646 343.857 303.143 340.204 303.455C338.53 303.598 337.21 303.614 335.992 303.543C337.196 297.378 336.281 292.997 334.707 289.823Z" fill="url(#paint28_linear_85_760)"/>
<path d="M357.822 166.144C357.659 166.15 356.328 163.143 357.859 161.731C359.39 160.318 364.253 157.887 364.818 157.173C365.382 156.458 363.849 161.604 361.603 162.917C359.357 164.229 359.343 166.093 359.343 166.093L357.822 166.144Z" fill="url(#paint29_linear_85_760)"/>
<path d="M286.554 164.905C286.554 164.905 287.283 163.053 285.951 161.69C284.619 160.327 281.46 160.017 281.007 157.506C280.554 154.996 279.248 159.841 280.738 161.18C282.229 162.519 284.345 164.792 284.345 164.792L286.554 164.905Z" fill="url(#paint30_linear_85_760)"/>
<path d="M256.589 217.418C250.099 216.622 244.086 223.192 237.765 217.154C229.843 209.588 228.208 179.037 231.737 168.514C217.04 159.584 192.672 158.273 183 175.256C170.609 197.013 183.089 220.098 200.748 234.446C222.857 252.411 233.636 253.746 253.082 232.348C254.41 227.345 255.107 222.146 256.589 217.418Z" fill="url(#paint31_linear_85_760)"/>
<path d="M228.098 397.005C229.157 396.937 235.125 396.429 237.723 392.374C240.779 387.605 237.507 380.528 236.396 378.036C231.055 366.046 221.736 338.899 209.097 300.216C185.713 298.245 179.627 306.224 178.262 308.301C170.129 320.682 184.675 344.163 194.423 359.899C205.634 377.996 213.071 382.399 217.729 393.567C217.771 393.603 217.832 393.656 217.908 393.719C222.185 397.308 227.728 397.029 228.098 397.005Z" fill="url(#paint32_linear_85_760)"/>
<path opacity="0.3" d="M226.823 397.065C228.746 397.127 230.371 396.789 231.565 396.421C231.155 393.134 230.377 389.715 228.931 385.719C222.182 367.072 211.342 364.355 202.195 348.713C196.401 338.805 191.298 323.713 193.631 300.497C182.765 302.146 179.256 306.788 178.262 308.301C170.129 320.681 184.675 344.163 194.423 359.899C205.634 377.996 213.071 382.398 217.729 393.566C218.981 394.581 222.226 396.917 226.823 397.065Z" fill="url(#paint33_linear_85_760)"/>
<path d="M129.651 282.926C147.051 281.372 164.404 279.07 181.877 278.607C181.883 278.593 181.889 278.58 181.894 278.566C186.698 275.662 191.779 275.531 197.139 278.173C201.669 279.866 206.198 281.558 210.728 283.25C214.685 285.045 218.59 286.934 222.454 288.901C222.323 278.757 225.115 266.707 227.921 250.143C236.652 198.608 241.017 172.84 229.534 161.165C219.772 151.239 203.587 152.514 178.825 154.466C154.252 156.403 134.751 157.94 122.469 172.016C101.366 196.205 115.232 241.769 118.297 251.843C122.709 266.341 127.588 272.653 129.651 282.926Z" fill="white"/>
<path d="M230.464 161.721C226.022 157.059 215.092 148.542 186.304 153.839C185.91 184.631 183.643 200.552 183.25 231.343C171.57 201.491 161.765 187.466 150.085 157.614C133.777 161.005 125.561 168.407 121.713 172.743C103.05 193.77 119.124 231.734 125.848 253.828C131.601 272.732 129.921 273.76 130.18 291.364C130.479 311.764 121.797 326.302 128.325 334.283C132.968 339.961 138.743 336.495 161.996 341.322C182.032 345.481 181.854 348.908 192.446 348.448C197.052 348.248 206.159 345.057 224.373 338.676C232.885 335.693 236.005 334.386 237.326 331.237C240.036 324.782 232.499 316.991 228.469 310.434C219.325 295.557 224.059 280.239 228.826 252.101C237.67 199.898 241.948 173.773 230.464 161.721Z" fill="url(#paint34_linear_85_760)"/>
<path opacity="0.3" d="M117.778 253.356C114.664 243.123 100.579 196.84 122.016 172.271C130.92 162.065 143.562 158.35 159.145 156.343C130.188 172.737 123.226 184.007 124.468 191.897C126.888 207.271 159.737 205.376 172.643 231.909C179.075 245.133 177.459 259.052 174.401 285.39C171.356 311.62 166.226 315.49 167.371 329.988C167.668 333.745 168.37 337.968 169.772 342.589C167.634 342.03 165.181 341.448 162.299 340.849C139.046 336.022 133.271 339.489 128.628 333.811C122.1 325.83 130.629 315.456 130.33 295.057C130.071 277.453 123.53 272.26 117.778 253.356Z" fill="url(#paint35_linear_85_760)"/>
<path d="M165.549 135.814C166.008 140.906 165.71 145.005 165.343 147.827C164.922 151.062 164.501 151.926 163.931 152.649C161.932 155.187 154.203 155.764 153.814 157.272C153.311 159.225 164.035 167.247 173.225 163.77C178.495 161.776 182.512 156.285 181.453 154.174C180.678 152.63 177.591 153.702 176.05 151.808C174.402 149.785 175.732 145.862 177.542 142.27C175.271 139.045 167.826 139.045 165.549 135.814Z" fill="url(#paint36_linear_85_760)"/>
<path d="M161.192 140.317C159.535 137.76 159.611 133.472 161.758 130.884C163.606 128.655 166.372 128.481 168.03 128.375C172.839 128.07 178.796 130.506 180.708 135.241C181.841 138.049 178.9 143.575 178.433 144.572C177.906 145.699 177.021 146.043 176.182 146.869C175.018 148.014 173.196 149.835 170.22 152.883C170.041 151.92 169.756 150.723 169.278 149.416C169.094 148.913 168.352 146.948 167.176 145.285C164.821 141.955 162.763 142.743 161.192 140.317Z" fill="url(#paint37_linear_85_760)"/>
<path d="M174.386 150.421C174.386 150.421 171.005 155.638 164.759 154.826C159.178 154.101 158.925 140.905 162.617 138.327C163.849 137.467 166.255 137.22 168.175 137.904C169.309 138.309 169.677 138.831 171.544 139.454C173.267 140.03 173.768 139.857 174.275 140.351C174.909 140.97 175.331 142.42 174.068 146.206C175.188 145.135 176.494 144.776 177.387 145.281C177.529 145.362 177.904 145.659 178.104 146.088C178.826 147.642 177.429 149.486 174.386 150.421Z" fill="url(#paint38_linear_85_760)"/>
<path d="M174.562 139.579C174.283 139.774 175.066 140.88 175.064 142.379C175.061 145.29 172.103 148.608 169.226 148.731C167.526 148.803 167.106 147.707 164.325 147.23C162.604 146.934 161.155 147.078 160.241 147.231C159.228 150.357 159.916 153.577 161.881 155.173C163.998 156.892 166.832 156.103 168.017 155.772C168.811 155.551 171.354 154.848 172.768 152.52C174.24 150.094 172.964 148.502 174.604 146.9C175.431 146.091 176.485 145.783 177.567 144.186C177.861 143.752 178.062 143.365 178.185 143.104C176.802 141.412 174.968 139.296 174.562 139.579Z" fill="url(#paint39_linear_85_760)"/>
<path d="M162.222 148.532C162.222 148.532 163.402 149.267 165.498 149.271C165.6 149.271 165.711 149.309 165.721 149.365C165.76 149.575 164.379 150.426 163.159 149.987C162.294 149.675 161.649 148.764 161.776 148.55C161.831 148.46 162.028 148.484 162.222 148.532Z" fill="url(#paint40_linear_85_760)"/>
<path d="M244.095 219.976C247.184 218.239 247.035 219.161 250.978 217.225C253.213 216.128 255.371 214.829 258.489 214.824C259.35 214.822 259.542 214.921 259.647 215.064C260.714 216.534 254.53 225.315 245.988 226.996C243.504 227.484 241.394 227.26 240.153 227.047C239.608 226.639 238.969 226.008 238.876 225.172C238.638 223.042 242.104 221.094 244.095 219.976Z" fill="url(#paint41_linear_85_760)"/>
<path d="M162.708 161.565L173.891 162.545L165.524 172.172L162.708 161.565Z" fill="url(#paint42_linear_85_760)"/>
<path d="M178.153 158.09L170.905 163.388L180.614 166.515L178.153 158.09Z" fill="url(#paint43_linear_85_760)"/>
<path d="M140.896 165.929C141.906 159.708 142.478 155.863 140.152 152.735C134.95 145.738 118.155 146.222 108.163 154.062C100.776 159.858 103.206 164.889 96.3953 169.831C86.6016 176.936 78.0603 168.575 63.8837 173.535C52.6817 177.454 39.883 187.99 37.8225 202.778C36.7345 210.587 38.2118 222.66 46.324 228.959C57.6825 237.777 74.6226 229.508 77.0019 234.841C79.5121 240.467 60.5477 249.416 62.1739 260.628C63.3292 268.594 74.2739 273.545 80.594 275.191C95.7501 279.138 114.369 271.903 124.225 258.782C134.945 244.513 124.265 237.973 134.533 202.182C135.629 198.363 137.384 187.552 140.896 165.929Z" fill="url(#paint44_linear_85_760)"/>
<path d="M109.7 285.045C109.7 285.045 69.9693 328.908 50.3364 392.435C58.6106 393.657 66.8825 394.917 75.208 395.619C93.279 397.143 141.747 397.778 178.581 400.68C214.159 403.482 238.994 400.019 249.037 396.253C252.456 394.971 235.417 393.806 216.135 365.56C194.635 334.064 194.023 333.628 191.654 328.493C183.599 311.029 184.64 302.977 175.826 292.259C174.144 290.214 169.525 284.541 164.523 275.977C162.976 273.329 161.439 270.222 159.84 266.169C149.26 239.352 167.762 212.196 158.122 200.305C154.299 195.588 152.917 194.292 151.797 193.72C150.721 193.171 149.84 192.926 149.375 192.798C135.357 188.924 128.284 187.222 124.59 188.732C115.167 192.583 116.25 215.728 116.493 220.909C117.565 243.822 123.846 252.559 119.062 267.815C117.008 274.363 112.343 282.233 109.7 285.045Z" fill="white"/>
<g opacity="0.5">
<path d="M153.118 238.732C154.299 260.042 138.033 266.88 141.999 285.186C144.664 297.486 151.031 297.738 154.916 308.941C166.218 341.527 118.842 375.137 129.009 391.995C130.463 394.406 133.885 397.786 177.552 397.429C203.177 397.22 244.719 396.88 245.422 390.049C245.641 387.91 241.64 386.854 235.321 382.137C227.017 375.939 222.503 369.105 213.476 355.437C213.476 355.437 194.925 327.352 192.596 309.041C192.59 308.994 192.484 308.146 192.312 306.991C192.231 306.449 192.131 305.818 192.008 305.107C187.321 277.977 181.745 282.07 174.994 256.821C168.15 231.224 177.014 219.67 164.966 204.808C158.87 197.287 151.42 193.856 148.727 192.65C145.423 191.172 136.009 186.965 127.71 188.047C130.942 192.507 134.384 197.656 137.811 203.487C147.641 220.211 152.555 228.573 153.118 238.732Z" fill="#D8DEE8"/>
</g>
<path d="M134.67 171.348C134.67 171.348 132.687 184.2 127.842 187.019C126.069 188.05 125.284 189.104 124.957 190.078C124.37 191.827 124.533 193.465 124.648 193.856C125.853 197.965 146.668 196.153 154.061 195.412C151.031 192.667 147.966 189.797 144.877 186.797C143.059 185.031 141.287 183.273 139.56 181.525L139.82 174.385L134.67 171.348Z" fill="url(#paint45_linear_85_760)"/>
<path d="M133.023 176.934C133.023 176.934 138.6 182.21 145.099 178.372C150.919 174.937 144.199 159.507 138.906 158.588C137.141 158.282 134.159 159.116 132.366 160.757C131.106 161.912 128.177 167.348 131.344 172.243C129.682 172.079 128.371 172.752 128.169 173.597C127.912 174.67 129.498 175.771 129.857 176.02C131.102 176.885 132.422 176.946 133.023 176.934Z" fill="url(#paint46_linear_85_760)"/>
<path d="M235.122 224.432C237.155 223.53 240.487 221.07 241.601 219.668C242.715 218.266 247.338 213.088 245.688 216.726C244.038 220.364 244.805 222.619 247.64 223.484C250.474 224.35 255.062 220.251 255.455 222.299C255.849 224.347 250.952 228.959 247.515 228.563C244.078 228.168 239.515 228.222 235.909 227.577C235.629 226.542 235.331 225.518 235.122 224.432Z" fill="white"/>
<path d="M123.611 193.172C120.129 196.843 122.765 207.688 123.933 210.111C135.137 233.356 169.378 238.047 191.97 238.693C207.376 239.134 224.535 235.192 239.147 229.688C237.867 226.926 237.657 224.84 235.41 221.883C223.93 225.01 198.237 220.988 190.172 217.786C168.737 209.276 150.961 187.927 131.203 188.85C129.342 188.937 125.551 191.127 123.611 193.172Z" fill="white"/>
<path opacity="0.7" d="M135.582 151.971C130.281 148.081 124.276 147.758 122.461 147.68C119.424 147.551 113.125 147.281 108.046 151.186C102.812 155.209 104.377 159.43 99.8941 161.423C95.2397 163.493 91.996 159.634 86.5512 162C85.9131 162.277 81.745 164.088 80.6448 167.659C78.784 173.7 87.2773 180.289 101.037 192.58C106.489 197.45 108.199 198.379 110.158 198.117C115.257 197.434 118.474 188.65 124.323 172.893C126.043 168.26 128.978 164.147 130.747 159.533C131.609 157.284 132.717 154.109 134.9 153.75C136.878 153.425 138.846 155.558 139.001 155.363C139.137 155.192 137.648 153.488 135.582 151.971Z" fill="#F4F7FA"/>
<path d="M129.877 157.79C131.492 156.377 134.735 154.294 138.988 155.377C139.428 155.489 139.712 154.929 139.353 154.65L133.329 149.973C131.898 148.862 129.615 149.101 129.047 150.422L128.801 157.279C128.78 157.85 129.447 158.166 129.877 157.79Z" fill="white"/>
<path d="M124.82 237.008C125.554 234.814 126.509 232.922 127.627 230.876C131.957 227.964 134.012 222.626 138.024 219.507C142.036 216.388 136.867 231.608 135.268 233.215C133.669 234.822 130.695 237.184 128.805 238.892C127.434 238.313 126.157 237.62 124.82 237.008Z" fill="url(#paint47_linear_85_760)"/>
<path d="M120.195 265.996C128.028 250.771 130.463 245.182 130.433 244.129C130.432 244.069 130.379 242.517 130.379 240.415C130.379 240.415 130.379 240.415 130.379 240.415C130.283 239.352 130.132 238.47 130.005 237.838C129.04 235.244 128.074 232.649 127.108 230.055C125.431 229.072 121.74 228.762 120.17 227.657C120.158 227.695 120.14 227.739 120.113 227.742C119.716 227.783 118.503 218.89 118.409 218.195C117.847 214.048 117.215 208.079 116.992 200.432C112.734 207.729 110.148 214.499 108.547 220.498C107.751 223.483 105.941 230.786 105.724 240.605C105.517 250.014 106.577 270.113 112.688 271.33C114.207 271.632 116.566 270.875 120.195 265.996Z" fill="url(#paint48_linear_85_760)"/>
<g opacity="0.6">
<path d="M64.6958 379.059C67.4108 380.467 77.1833 373.042 77.4233 364.683C77.6873 355.49 66.1857 353.366 65.3339 343.015C64.6384 334.564 71.9474 332.975 72.8742 321.978C73.5034 314.513 70.7295 305.816 65.1122 300.174C57.7675 292.797 50.6212 295.725 46.407 288.989C41.4477 281.062 47.8052 271.346 45.3662 270.114C41.8212 268.323 23.3921 286.326 27.4792 298.694C30.9149 309.091 47.2843 306.493 51.8133 318.288C55.6214 328.206 45.458 333.717 49.5256 345.296C52.8748 354.83 61.8937 355.212 64.1975 365.869C65.7699 373.144 62.7419 378.046 64.6958 379.059Z" fill="url(#paint49_linear_85_760)"/>
<mask id="mask3_85_760" style="mask-type:luminance" maskUnits="userSpaceOnUse" x="26" y="269" width="52" height="111">
<path d="M64.6958 379.059C67.4108 380.467 77.1833 373.042 77.4233 364.683C77.6873 355.49 66.1857 353.366 65.3339 343.015C64.6384 334.564 71.9474 332.975 72.8742 321.978C73.5034 314.513 70.7295 305.816 65.1122 300.174C57.7675 292.797 50.6212 295.725 46.407 288.989C41.4477 281.062 47.8052 271.346 45.3662 270.114C41.8212 268.323 23.3921 286.326 27.4792 298.694C30.9149 309.091 47.2843 306.493 51.8133 318.288C55.6214 328.206 45.458 333.717 49.5256 345.296C52.8748 354.83 61.8937 355.212 64.1975 365.869C65.7699 373.144 62.7419 378.046 64.6958 379.059Z" fill="white"/>
</mask>
<g mask="url(#mask3_85_760)">
<path d="M66.5982 367.316L66.8184 367.184C60.6701 356.91 57.9223 346.697 58.6516 336.831C59.0618 331.283 60.4511 326.997 61.677 323.215C63.2769 318.278 64.5408 314.379 62.252 310.582C59.9925 306.835 55.9817 305.837 51.7355 304.78C47.0975 303.625 42.3015 302.431 39.3544 297.528C36.4276 292.657 37.1604 287.038 37.4734 284.639C38.6608 275.537 44.6684 269.724 47.1963 267.647L47.033 267.448C44.4815 269.544 38.4175 275.413 37.2186 284.606C36.9021 287.031 36.1612 292.713 39.1342 297.66C42.136 302.655 46.9846 303.862 51.6734 305.029C55.8666 306.073 59.8272 307.058 62.0318 310.715C64.2602 314.411 63.0742 318.07 61.4324 323.135C60.2023 326.931 58.8078 331.233 58.3953 336.812C57.6622 346.732 60.4218 356.995 66.5982 367.316Z" fill="white"/>
</g>
<mask id="mask4_85_760" style="mask-type:luminance" maskUnits="userSpaceOnUse" x="26" y="269" width="52" height="111">
<path d="M64.6958 379.059C67.4108 380.467 77.1833 373.042 77.4233 364.683C77.6873 355.49 66.1857 353.366 65.3339 343.015C64.6384 334.564 71.9474 332.975 72.8742 321.978C73.5034 314.513 70.7295 305.816 65.1122 300.174C57.7675 292.797 50.6212 295.725 46.407 288.989C41.4477 281.062 47.8052 271.346 45.3662 270.114C41.8212 268.323 23.3921 286.326 27.4792 298.694C30.9149 309.091 47.2843 306.493 51.8133 318.288C55.6214 328.206 45.458 333.717 49.5256 345.296C52.8748 354.83 61.8937 355.212 64.1975 365.869C65.7699 373.144 62.7419 378.046 64.6958 379.059Z" fill="white"/>
</mask>
<g mask="url(#mask4_85_760)">
<path d="M38.8318 299.889C39.5652 299.864 40.2124 299.675 40.6997 299.247C41.7784 298.299 41.4772 296.699 41.1281 294.846C40.7574 292.877 40.337 290.646 41.2372 288.348C42.479 285.178 45.9341 282.764 51.5068 281.174L51.4363 280.927C45.7823 282.54 42.2703 285.006 40.998 288.255C40.0709 290.621 40.5169 292.99 40.8756 294.893C41.2236 296.742 41.4987 298.202 40.53 299.053C38.65 300.705 34.0319 298.463 31.8128 297.385C26.6836 294.894 22.2757 291.028 18.7116 285.894L18.5005 286.041C22.0901 291.211 26.5312 295.106 31.7005 297.616C33.4189 298.451 36.5438 299.968 38.8318 299.889Z" fill="white"/>
</g>
<mask id="mask5_85_760" style="mask-type:luminance" maskUnits="userSpaceOnUse" x="26" y="269" width="52" height="111">
<path d="M64.6958 379.059C67.4108 380.467 77.1833 373.042 77.4233 364.683C77.6873 355.49 66.1857 353.366 65.3339 343.015C64.6384 334.564 71.9474 332.975 72.8742 321.978C73.5034 314.513 70.7295 305.816 65.1122 300.174C57.7675 292.797 50.6212 295.725 46.407 288.989C41.4477 281.062 47.8052 271.346 45.3662 270.114C41.8212 268.323 23.3921 286.326 27.4792 298.694C30.9149 309.091 47.2843 306.493 51.8133 318.288C55.6214 328.206 45.458 333.717 49.5256 345.296C52.8748 354.83 61.8937 355.212 64.1975 365.869C65.7699 373.144 62.7419 378.046 64.6958 379.059Z" fill="white"/>
</mask>
<g mask="url(#mask5_85_760)">
<path d="M62.247 321.146L62.3244 321.093C64.1804 319.806 65.4734 318.255 66.1678 316.483C67.5791 312.881 66.2115 309.147 65.005 305.853C63.8901 302.808 62.9273 300.179 64.2863 298.284C65.0544 297.213 66.4701 296.564 68.4943 296.355L68.4678 296.099C66.3673 296.316 64.89 297.001 64.0774 298.134C62.639 300.14 63.6235 302.828 64.7634 305.941C65.9542 309.193 67.3038 312.878 65.9281 316.389C65.2625 318.088 64.0268 319.581 62.2547 320.828C60.1449 319.205 57.8209 318.01 55.3452 317.274C47.6279 314.981 40.7159 317.909 38.1025 319.275L38.2216 319.502C40.807 318.151 47.6441 315.254 55.2722 317.521C57.7462 318.256 60.0679 319.456 62.1721 321.089L62.247 321.146Z" fill="white"/>
</g>
<mask id="mask6_85_760" style="mask-type:luminance" maskUnits="userSpaceOnUse" x="26" y="269" width="52" height="111">
<path d="M64.6958 379.059C67.4108 380.467 77.1833 373.042 77.4233 364.683C77.6873 355.49 66.1857 353.366 65.3339 343.015C64.6384 334.564 71.9474 332.975 72.8742 321.978C73.5034 314.513 70.7295 305.816 65.1122 300.174C57.7675 292.797 50.6212 295.725 46.407 288.989C41.4477 281.062 47.8052 271.346 45.3662 270.114C41.8212 268.323 23.3921 286.326 27.4792 298.694C30.9149 309.091 47.2843 306.493 51.8133 318.288C55.6214 328.206 45.458 333.717 49.5256 345.296C52.8748 354.83 61.8937 355.212 64.1975 365.869C65.7699 373.144 62.7419 378.046 64.6958 379.059Z" fill="white"/>
</mask>
<g mask="url(#mask6_85_760)">
<path d="M58.7879 346.628L58.8427 346.598C59.1151 346.448 86.0817 331.602 87.2228 331.219L87.1411 330.975C85.9932 331.36 60.4943 345.395 58.7734 346.343L27.3902 333.009L27.2896 333.245L58.7879 346.628Z" fill="white"/>
</g>
</g>
<g opacity="0.3">
<path d="M61.939 385.246C63.915 385.121 66.8052 384.739 70.0767 383.538C73.5156 382.275 76.8047 381.068 78.7985 378.033C81.1005 374.529 79.0522 372.635 81.2635 369.454C83.7769 365.839 87.2899 367.285 89.8964 363.527C91.6657 360.976 91.6085 358.058 91.5579 355.478C91.4973 352.385 90.6783 347.73 89.3044 347.623C87.6758 347.496 88.0581 353.98 83.3948 357.041C79.8636 359.36 77.1186 357.3 73.4684 360.144C72.9738 360.529 70.2198 362.674 69.7254 366.036C69.1191 370.158 71.9851 372.118 71.7979 375.623C71.6644 378.125 69.7526 381.486 61.939 385.246Z" fill="url(#paint50_linear_85_760)"/>
<mask id="mask7_85_760" style="mask-type:luminance" maskUnits="userSpaceOnUse" x="61" y="347" width="31" height="39">
<path d="M61.939 385.246C63.915 385.121 66.8052 384.739 70.0767 383.538C73.5156 382.275 76.8047 381.068 78.7985 378.033C81.1005 374.529 79.0522 372.635 81.2635 369.454C83.7769 365.839 87.2899 367.285 89.8964 363.527C91.6657 360.976 91.6085 358.058 91.5579 355.478C91.4973 352.385 90.6783 347.73 89.3044 347.623C87.6758 347.496 88.0581 353.98 83.3948 357.041C79.8636 359.36 77.1186 357.3 73.4684 360.144C72.9738 360.529 70.2198 362.674 69.7254 366.036C69.1191 370.158 71.9851 372.118 71.7979 375.623C71.6644 378.125 69.7526 381.486 61.939 385.246Z" fill="white"/>
</mask>
<g mask="url(#mask7_85_760)">
<path d="M60.6635 386.391C61.3833 386.012 62.3212 385.584 63.3142 385.131C67.67 383.142 73.6357 380.418 74.2176 376.393C74.524 374.273 74.6294 372.586 74.7138 371.23C74.877 368.612 74.9753 367.032 76.2847 365.319C77.8366 363.289 79.7477 362.785 81.7709 362.252C83.5909 361.771 85.4729 361.275 87.1164 359.598C89.7837 356.877 90.5817 352.211 89.4883 345.728L89.2349 345.771C90.3138 352.168 89.5393 356.759 86.9329 359.418C85.3387 361.045 83.4915 361.532 81.7052 362.003C79.7291 362.524 77.6858 363.063 76.0803 365.163C74.7235 366.938 74.6232 368.548 74.4569 371.214C74.3728 372.565 74.2679 374.247 73.9628 376.356C73.4011 380.242 67.5091 382.932 63.207 384.897C62.2106 385.352 61.2697 385.781 60.5435 386.163L60.6635 386.391Z" fill="white"/>
</g>
<mask id="mask8_85_760" style="mask-type:luminance" maskUnits="userSpaceOnUse" x="61" y="347" width="31" height="39">
<path d="M61.939 385.246C63.915 385.121 66.8052 384.739 70.0767 383.538C73.5156 382.275 76.8047 381.068 78.7985 378.033C81.1005 374.529 79.0522 372.635 81.2635 369.454C83.7769 365.839 87.2899 367.285 89.8964 363.527C91.6657 360.976 91.6085 358.058 91.5579 355.478C91.4973 352.385 90.6783 347.73 89.3044 347.623C87.6758 347.496 88.0581 353.98 83.3948 357.041C79.8636 359.36 77.1186 357.3 73.4684 360.144C72.9738 360.529 70.2198 362.674 69.7254 366.036C69.1191 370.158 71.9851 372.118 71.7979 375.623C71.6644 378.125 69.7526 381.486 61.939 385.246Z" fill="white"/>
</mask>
<g mask="url(#mask8_85_760)">
<path d="M84.5915 362.671C85.7531 362.631 87.0807 362.386 88.4293 361.732C93.3198 359.358 93.9747 353.692 94.0002 353.451L93.7446 353.424C93.7198 353.659 93.0807 359.188 88.3172 361.5C85.8502 362.697 83.4519 362.487 82.0684 362.189C82.8401 361.733 84.7368 360.379 85.1302 357.894C85.4578 355.823 84.5502 354.207 84.1447 353.608L83.9318 353.752C84.3203 354.325 85.1896 355.873 84.8763 357.854C84.4282 360.684 81.9371 361.984 81.6546 362.122L81.3398 362.277L81.6801 362.362C82.363 362.534 83.388 362.713 84.5915 362.671Z" fill="white"/>
</g>
<mask id="mask9_85_760" style="mask-type:luminance" maskUnits="userSpaceOnUse" x="61" y="347" width="31" height="39">
<path d="M61.939 385.246C63.915 385.121 66.8052 384.739 70.0767 383.538C73.5156 382.275 76.8047 381.068 78.7985 378.033C81.1005 374.529 79.0522 372.635 81.2635 369.454C83.7769 365.839 87.2899 367.285 89.8964 363.527C91.6657 360.976 91.6085 358.058 91.5579 355.478C91.4973 352.385 90.6783 347.73 89.3044 347.623C87.6758 347.496 88.0581 353.98 83.3948 357.041C79.8636 359.36 77.1186 357.3 73.4684 360.144C72.9738 360.529 70.2198 362.674 69.7254 366.036C69.1191 370.158 71.9851 372.118 71.7979 375.623C71.6644 378.125 69.7526 381.486 61.939 385.246Z" fill="white"/>
</mask>
<g mask="url(#mask9_85_760)">
<path d="M74.6884 370.231L74.7747 370.093C75.5082 368.924 76.8354 367.346 78.9938 366.469C83.868 364.489 88.4377 367.975 88.6301 368.124L88.7877 367.921C88.5909 367.768 83.9068 364.196 78.8971 366.231C76.7596 367.099 75.4157 368.633 74.6457 369.818C73.9754 369.101 72.3316 367.028 72.4556 364.078C72.6275 359.986 75.9884 357.851 76.3709 357.621L76.2384 357.401C75.8436 357.638 72.3764 359.841 72.1988 364.067C72.0627 367.302 73.9828 369.514 74.5744 370.115L74.6884 370.231Z" fill="white"/>
</g>
<mask id="mask10_85_760" style="mask-type:luminance" maskUnits="userSpaceOnUse" x="61" y="347" width="31" height="39">
<path d="M61.939 385.246C63.915 385.121 66.8052 384.739 70.0767 383.538C73.5156 382.275 76.8047 381.068 78.7985 378.033C81.1005 374.529 79.0522 372.635 81.2635 369.454C83.7769 365.839 87.2899 367.285 89.8964 363.527C91.6657 360.976 91.6085 358.058 91.5579 355.478C91.4973 352.385 90.6783 347.73 89.3044 347.623C87.6758 347.496 88.0581 353.98 83.3948 357.041C79.8636 359.36 77.1186 357.3 73.4684 360.144C72.9738 360.529 70.2198 362.674 69.7254 366.036C69.1191 370.158 71.9851 372.118 71.7979 375.623C71.6644 378.125 69.7526 381.486 61.939 385.246Z" fill="white"/>
</mask>
<g mask="url(#mask10_85_760)">
<path d="M73.6325 378.196L73.7525 378.03C74.7798 376.609 76.134 375.42 77.6677 374.592C79.8456 373.415 81.941 373.18 83.3175 373.189L83.3192 372.932C81.9131 372.922 79.7712 373.163 77.5457 374.365C76.0372 375.18 74.6995 376.336 73.665 377.715L68.4468 368.044L68.2207 368.166L73.6325 378.196Z" fill="white"/>
</g>
</g>
<g opacity="0.7">
<path d="M94.8415 290.964C96.4388 292.35 91.837 296.374 90.8967 304.866C89.4019 318.364 99.1896 324.624 95.4095 334.388C93.3729 339.648 89.9575 342.706 89.9575 342.706C88.835 343.711 88.0892 344.117 84.372 346.976C84.027 347.241 80.6947 349.806 79.8511 350.538C74.1357 355.499 79.6688 366.743 74.718 374.77C71.2981 380.315 65.6687 383.137 61.2754 384.671C71.2155 375.852 73.1144 368.917 72.862 364.08C72.5119 357.371 68.0406 355.009 67.7036 346.593C67.4683 340.714 69.5607 339.651 72.3414 329.763C76.6415 314.471 73.1375 311.678 77.5526 303.872C82.7349 294.709 92.8465 289.233 94.8415 290.964Z" fill="url(#paint51_linear_85_760)"/>
<mask id="mask11_85_760" style="mask-type:luminance" maskUnits="userSpaceOnUse" x="61" y="290" width="36" height="95">
<path d="M94.8415 290.964C96.4388 292.35 91.837 296.374 90.8967 304.866C89.4019 318.364 99.1896 324.624 95.4095 334.388C93.3729 339.648 89.9575 342.706 89.9575 342.706C88.835 343.711 88.0892 344.117 84.372 346.976C84.027 347.241 80.6947 349.806 79.8511 350.538C74.1357 355.499 79.6688 366.743 74.718 374.77C71.2981 380.315 65.6687 383.137 61.2754 384.671C71.2155 375.852 73.1144 368.917 72.862 364.08C72.5119 357.371 68.0406 355.009 67.7036 346.593C67.4683 340.714 69.5607 339.651 72.3414 329.763C76.6415 314.471 73.1375 311.678 77.5526 303.872C82.7349 294.709 92.8465 289.233 94.8415 290.964Z" fill="white"/>
</mask>
<g mask="url(#mask11_85_760)">
<path d="M70.6762 378.344C73.5045 373.789 75.026 369.067 75.1984 364.309C75.3309 360.654 74.6315 358.311 73.9551 356.046C73.2998 353.851 72.6809 351.778 72.9616 348.742C73.362 344.41 75.1778 342.363 77.2805 339.993C79.0668 337.98 81.0912 335.697 82.4871 331.587C84.3908 325.982 83.4761 321.879 82.5915 317.912C81.7627 314.194 80.9797 310.683 82.3591 306.046C84.2604 299.654 89.5621 294.104 98.1168 289.55L97.9959 289.323C89.3782 293.91 84.0343 299.512 82.1127 305.972C80.7142 310.674 81.5409 314.382 82.3404 317.968C83.2174 321.901 84.1241 325.968 82.2437 331.505C80.8644 335.566 78.8583 337.827 77.0882 339.822C74.9556 342.226 73.1139 344.302 72.7054 348.718C72.4202 351.804 73.0461 353.9 73.7088 356.12C74.3793 358.365 75.0723 360.687 74.9415 364.299C74.7706 369.012 73.262 373.692 70.4575 378.208L70.6762 378.344Z" fill="white"/>
</g>
<mask id="mask12_85_760" style="mask-type:luminance" maskUnits="userSpaceOnUse" x="61" y="290" width="36" height="95">
<path d="M94.8415 290.964C96.4388 292.35 91.837 296.374 90.8967 304.866C89.4019 318.364 99.1896 324.624 95.4095 334.388C93.3729 339.648 89.9575 342.706 89.9575 342.706C88.835 343.711 88.0892 344.117 84.372 346.976C84.027 347.241 80.6947 349.806 79.8511 350.538C74.1357 355.499 79.6688 366.743 74.718 374.77C71.2981 380.315 65.6687 383.137 61.2754 384.671C71.2155 375.852 73.1144 368.917 72.862 364.08C72.5119 357.371 68.0406 355.009 67.7036 346.593C67.4683 340.714 69.5607 339.651 72.3414 329.763C76.6415 314.471 73.1375 311.678 77.5526 303.872C82.7349 294.709 92.8465 289.233 94.8415 290.964Z" fill="white"/>
</mask>
<g mask="url(#mask12_85_760)">
<path d="M81.7137 314.218L81.7656 314.015C82.1682 312.44 83.5468 308.503 87.6455 305.958C91.3523 303.656 95.134 303.894 96.5882 304.102L96.6245 303.848C95.1434 303.635 91.289 303.393 87.5098 305.74C83.4985 308.231 82.0432 312.029 81.5705 313.748C79.8822 312.224 78.6016 310.328 77.8607 308.252C76.1363 303.423 77.7636 299.103 78.5433 297.47L78.3115 297.359C77.5179 299.021 75.8618 303.419 77.6185 308.339C78.3969 310.518 79.7585 312.503 81.5564 314.079L81.7137 314.218Z" fill="white"/>
</g>
<mask id="mask13_85_760" style="mask-type:luminance" maskUnits="userSpaceOnUse" x="61" y="290" width="36" height="95">
<path d="M94.8415 290.964C96.4388 292.35 91.837 296.374 90.8967 304.866C89.4019 318.364 99.1896 324.624 95.4095 334.388C93.3729 339.648 89.9575 342.706 89.9575 342.706C88.835 343.711 88.0892 344.117 84.372 346.976C84.027 347.241 80.6947 349.806 79.8511 350.538C74.1357 355.499 79.6688 366.743 74.718 374.77C71.2981 380.315 65.6687 383.137 61.2754 384.671C71.2155 375.852 73.1144 368.917 72.862 364.08C72.5119 357.371 68.0406 355.009 67.7036 346.593C67.4683 340.714 69.5607 339.651 72.3414 329.763C76.6415 314.471 73.1375 311.678 77.5526 303.872C82.7349 294.709 92.8465 289.233 94.8415 290.964Z" fill="white"/>
</mask>
<g mask="url(#mask13_85_760)">
<path d="M78.2584 338.677L78.4009 338.656C80.5876 338.339 82.4327 337.551 83.8851 336.315C85.5805 334.871 86.2135 333.268 86.8836 331.57C87.2924 330.536 87.7148 329.466 88.4026 328.374C90.1504 325.598 93.1561 323.493 97.3363 322.116L97.2559 321.872C93.0177 323.268 89.9655 325.41 88.1852 328.237C87.4846 329.349 87.0577 330.43 86.6447 331.476C85.9866 333.143 85.365 334.717 83.7185 336.119C82.3352 337.297 80.5822 338.057 78.5065 338.38C78.4283 336.022 78.1393 333.663 77.6476 331.368C76.7373 327.117 75.1328 323.039 72.8788 319.247L72.6577 319.378C74.8976 323.146 76.4918 327.198 77.3963 331.421C77.8949 333.749 78.1834 336.141 78.2542 338.533L78.2584 338.677Z" fill="white"/>
</g>
<mask id="mask14_85_760" style="mask-type:luminance" maskUnits="userSpaceOnUse" x="61" y="290" width="36" height="95">
<path d="M94.8415 290.964C96.4388 292.35 91.837 296.374 90.8967 304.866C89.4019 318.364 99.1896 324.624 95.4095 334.388C93.3729 339.648 89.9575 342.706 89.9575 342.706C88.835 343.711 88.0892 344.117 84.372 346.976C84.027 347.241 80.6947 349.806 79.8511 350.538C74.1357 355.499 79.6688 366.743 74.718 374.77C71.2981 380.315 65.6687 383.137 61.2754 384.671C71.2155 375.852 73.1144 368.917 72.862 364.08C72.5119 357.371 68.0406 355.009 67.7036 346.593C67.4683 340.714 69.5607 339.651 72.3414 329.763C76.6415 314.471 73.1375 311.678 77.5526 303.872C82.7349 294.709 92.8465 289.233 94.8415 290.964Z" fill="white"/>
</mask>
<g mask="url(#mask14_85_760)">
<path d="M72.8458 351.915L72.9497 351.715C73.4373 350.779 75.3297 347.634 79.2103 346.46C84.2753 344.928 88.3908 348.011 88.8435 348.368L89.0026 348.166C88.5393 347.8 84.327 344.645 79.1358 346.214C75.3996 347.344 73.4627 350.256 72.8283 351.399C71.5921 349.379 70.6444 347.211 70.0098 344.951C68.9763 341.27 68.7862 337.292 69.46 333.446L69.2068 333.401C68.5263 337.285 68.7186 341.303 69.7623 345.021C70.4234 347.375 71.4208 349.63 72.7268 351.724L72.8458 351.915Z" fill="white"/>
</g>
</g>
<path d="M60.1862 385.566C62.5598 385.076 66.9845 383.812 70.2733 380.333C76.1624 374.102 74.8715 364.506 71.0294 359.009C66.2342 352.148 59.92 355.186 55.3901 348.72C50.2457 341.377 56.7387 335.101 51.3859 327.481C47.7527 322.309 41.5543 320.636 36.0741 319.156C29.5038 317.383 18.8999 316.197 17.3262 318.933C15.4606 322.176 29.484 325.374 31.3521 336.76C32.7669 345.383 25.7375 349.717 28.1401 358.905C28.4656 360.149 30.2782 367.081 36.8708 370.152C45.4914 374.167 54.249 367.837 59.0848 371.806C61.0473 373.416 62.6297 376.941 60.1862 385.566Z" fill="url(#paint52_linear_85_760)"/>
<g opacity="0.7">
<mask id="mask15_85_760" style="mask-type:luminance" maskUnits="userSpaceOnUse" x="17" y="317" width="58" height="69">
<path d="M60.1859 385.566C62.5595 385.076 66.9842 383.812 70.2729 380.333C76.1621 374.102 74.8712 364.507 71.0292 359.01C66.2337 352.149 59.9196 355.187 55.3897 348.721C50.2452 341.378 56.7383 335.102 51.3856 327.482C47.7523 322.309 41.554 320.636 36.0737 319.157C29.5033 317.383 18.8994 316.198 17.3257 318.933C15.4601 322.177 29.4835 325.374 31.3516 336.761C32.7664 345.384 25.737 349.718 28.1396 358.905C28.465 360.15 30.2777 367.081 36.8703 370.152C45.4909 374.167 54.2486 367.838 59.0843 371.806C61.0471 373.417 62.6293 376.942 60.1859 385.566Z" fill="white"/>
</mask>
<g mask="url(#mask15_85_760)">
<path d="M60.2036 388.323C67.1063 380.159 69.687 373.596 67.8741 368.817C66.4279 365.004 62.877 363.714 58.7654 362.221C54.6006 360.709 49.88 358.994 46.5312 354.162C43.4733 349.749 43.5522 345.73 43.6355 341.475C43.7112 337.614 43.7893 333.621 41.2831 329.36C37.2708 322.539 28.4614 318.34 15.0997 316.882L15.0718 317.138C28.3483 318.587 37.0925 322.743 41.0614 329.49C43.5309 333.689 43.4533 337.645 43.3786 341.47C43.2981 345.579 43.2148 349.827 46.3201 354.308C49.7153 359.208 54.4768 360.937 58.6777 362.463C62.7301 363.934 66.2295 365.205 67.6341 368.908C69.4113 373.593 66.8453 380.07 60.0074 388.157L60.2036 388.323Z" fill="white"/>
</g>
<mask id="mask16_85_760" style="mask-type:luminance" maskUnits="userSpaceOnUse" x="17" y="317" width="58" height="69">
<path d="M60.1859 385.566C62.5595 385.076 66.9842 383.812 70.2729 380.333C76.1621 374.102 74.8712 364.507 71.0292 359.01C66.2337 352.149 59.9196 355.187 55.3897 348.721C50.2452 341.378 56.7383 335.102 51.3856 327.482C47.7523 322.309 41.554 320.636 36.0737 319.157C29.5033 317.383 18.8994 316.198 17.3257 318.933C15.4601 322.177 29.4835 325.374 31.3516 336.761C32.7664 345.384 25.737 349.718 28.1396 358.905C28.465 360.15 30.2777 367.081 36.8703 370.152C45.4909 374.167 54.2486 367.838 59.0843 371.806C61.0471 373.417 62.6293 376.942 60.1859 385.566Z" fill="white"/>
</mask>
<g mask="url(#mask16_85_760)">
<path d="M44.3638 351.43C44.477 351.426 44.5893 351.413 44.7006 351.39C46.6466 350.994 47.5039 347.877 48.3326 344.863C49.6309 340.143 49.3622 336.062 49.0865 334.05C48.2052 327.617 45.2148 322.721 42.8615 319.747L42.66 319.906C44.9934 322.856 47.9583 327.709 48.8318 334.084C49.105 336.077 49.371 340.119 48.085 344.795C47.2766 347.734 46.4408 350.774 44.6493 351.139C41.8237 351.713 38.1434 345.377 36.7593 342.991L36.6527 342.807C35.724 341.209 35.1926 339.845 34.7239 338.642C34.0654 336.952 33.4968 335.493 32.0816 333.984C29.9473 331.707 26.8038 330.332 22.7388 329.897L22.7114 330.153C26.7137 330.581 29.8031 331.929 31.894 334.159C33.2753 335.632 33.8356 337.07 34.4843 338.735C34.9565 339.947 35.4918 341.321 36.4303 342.936L36.5369 343.12C37.8941 345.459 41.4164 351.531 44.3638 351.43Z" fill="white"/>
</g>
<mask id="mask17_85_760" style="mask-type:luminance" maskUnits="userSpaceOnUse" x="17" y="317" width="58" height="69">
<path d="M60.1859 385.566C62.5595 385.076 66.9842 383.812 70.2729 380.333C76.1621 374.102 74.8712 364.507 71.0292 359.01C66.2337 352.149 59.9196 355.187 55.3897 348.721C50.2452 341.378 56.7383 335.102 51.3856 327.482C47.7523 322.309 41.554 320.636 36.0737 319.157C29.5033 317.383 18.8994 316.198 17.3257 318.933C15.4601 322.177 29.4835 325.374 31.3516 336.761C32.7664 345.384 25.737 349.718 28.1396 358.905C28.465 360.15 30.2777 367.081 36.8703 370.152C45.4909 374.167 54.2486 367.838 59.0843 371.806C61.0471 373.417 62.6293 376.942 60.1859 385.566Z" fill="white"/>
</mask>
<g mask="url(#mask17_85_760)">
<path d="M44.9389 365.692C47.8536 365.592 51.635 364.192 56.244 361.502L56.3842 361.42L56.2725 361.303C54.4013 359.331 53.1392 357.127 52.5215 354.753C51.7971 351.97 52.1898 349.748 52.7331 346.673L52.7775 346.421C54.3879 337.292 55.1961 332.71 54.9652 330.613C54.5155 326.528 52.3168 322.538 48.4299 318.752L48.2506 318.937C52.0936 322.679 54.2669 326.617 54.7098 330.641C54.9366 332.701 54.1305 337.271 52.5242 346.376L52.4798 346.628C51.9309 349.736 51.5342 351.981 52.2726 354.818C52.8892 357.187 54.1343 359.388 55.9746 361.361C49.0658 365.37 44.0807 366.434 41.1548 364.523C39.5248 363.459 38.948 361.772 38.28 359.817C37.6105 357.858 36.8516 355.638 34.8646 353.498C32.2937 350.729 28.5331 349.043 23.6872 348.487L23.6577 348.742C28.441 349.291 32.148 350.95 34.6761 353.673C36.626 355.773 37.3755 357.966 38.0366 359.9C38.7199 361.9 39.31 363.626 41.0141 364.739C42.0711 365.428 43.3813 365.746 44.9389 365.692Z" fill="white"/>
</g>
<mask id="mask18_85_760" style="mask-type:luminance" maskUnits="userSpaceOnUse" x="17" y="317" width="58" height="69">
<path d="M60.1859 385.566C62.5595 385.076 66.9842 383.812 70.2729 380.333C76.1621 374.102 74.8712 364.507 71.0292 359.01C66.2337 352.149 59.9196 355.187 55.3897 348.721C50.2452 341.378 56.7383 335.102 51.3856 327.482C47.7523 322.309 41.554 320.636 36.0737 319.157C29.5033 317.383 18.8994 316.198 17.3257 318.933C15.4601 322.177 29.4835 325.374 31.3516 336.761C32.7664 345.384 25.737 349.718 28.1396 358.905C28.465 360.15 30.2777 367.081 36.8703 370.152C45.4909 374.167 54.2486 367.838 59.0843 371.806C61.0471 373.417 62.6293 376.942 60.1859 385.566Z" fill="white"/>
</mask>
<g mask="url(#mask18_85_760)">
<path d="M46.2868 375.681C53.1783 375.444 57.9545 371.841 58.005 371.802C58.2734 371.596 58.5475 371.372 58.8297 371.142C60.3112 369.931 61.9922 368.561 64.2778 368.607C65.52 368.633 66.7648 369.077 67.9784 369.925L68.1246 370.028L68.1754 369.857C68.6456 368.264 68.6639 366.785 68.2293 365.461C67.6758 363.775 66.4151 362.799 65.303 361.939C64.1668 361.059 63.1855 360.3 63.1318 359C63.0054 355.933 65.1636 353.878 65.5978 353.497L65.428 353.304C64.9787 353.698 62.7437 355.827 62.8751 359.011C62.9337 360.431 64.0082 361.262 65.1458 362.142C66.2288 362.98 67.4561 363.93 67.9852 365.542C68.3878 366.768 68.3851 368.137 67.9775 369.613C66.7684 368.801 65.5262 368.376 64.2833 368.351C61.9004 368.299 60.183 369.704 58.6671 370.943C58.3871 371.172 58.115 371.394 57.8488 371.599C57.7954 371.639 52.4417 375.677 44.8996 375.425C37.6026 375.182 32.241 368.222 30.2747 365.241L30.0601 365.383C32.0485 368.397 37.4741 375.435 44.891 375.682C45.3649 375.697 45.831 375.697 46.2868 375.681Z" fill="white"/>
</g>
</g>
<defs>
<linearGradient id="paint0_linear_85_760" x1="-1.6786" y1="181.562" x2="838.81" y2="534.269" gradientUnits="userSpaceOnUse">
<stop offset="0.0036" stop-color="#E38DDD"/>
<stop offset="1" stop-color="#9571F6"/>
</linearGradient>
<linearGradient id="paint1_linear_85_760" x1="-2.37053" y1="203.719" x2="756.182" y2="708.491" gradientUnits="userSpaceOnUse">
<stop stop-color="#AA80F9"/>
<stop offset="0.9964" stop-color="#6165D7"/>
</linearGradient>
<linearGradient id="paint2_linear_85_760" x1="9.86831" y1="185.315" x2="768.447" y2="690.105" gradientUnits="userSpaceOnUse">
<stop stop-color="#AA80F9"/>
<stop offset="0.9964" stop-color="#6165D7"/>
</linearGradient>
<linearGradient id="paint3_linear_85_760" x1="69.6974" y1="88.2454" x2="611.83" y2="449.004" gradientUnits="userSpaceOnUse">
<stop stop-color="#AA80F9"/>
<stop offset="0.9964" stop-color="#6165D7"/>
</linearGradient>
<linearGradient id="paint4_linear_85_760" x1="231.477" y1="136.072" x2="430.586" y2="-50.641" gradientUnits="userSpaceOnUse">
<stop stop-color="#FFC444"/>
<stop offset="0.9964" stop-color="#F36F56"/>
</linearGradient>
<linearGradient id="paint5_linear_85_760" x1="75.9957" y1="92.3858" x2="202.279" y2="215.571" gradientUnits="userSpaceOnUse">
<stop stop-color="#FFC444"/>
<stop offset="0.9964" stop-color="#F36F56"/>
</linearGradient>
<linearGradient id="paint6_linear_85_760" x1="374.716" y1="128.35" x2="381.33" y2="181.983" gradientUnits="userSpaceOnUse">
<stop offset="0.0036" stop-color="#E38DDD"/>
<stop offset="1" stop-color="#9571F6"/>
</linearGradient>
<linearGradient id="paint7_linear_85_760" x1="382.473" y1="103.522" x2="390.993" y2="172.61" gradientUnits="userSpaceOnUse">
<stop stop-color="#FFC444"/>
<stop offset="0.9964" stop-color="#F36F56"/>
</linearGradient>
<linearGradient id="paint8_linear_85_760" x1="354.467" y1="91.8893" x2="363.216" y2="162.841" gradientUnits="userSpaceOnUse">
<stop stop-color="#FFC444"/>
<stop offset="0.9964" stop-color="#F36F56"/>
</linearGradient>
<linearGradient id="paint9_linear_85_760" x1="369.385" y1="66.9703" x2="378.991" y2="144.867" gradientUnits="userSpaceOnUse">
<stop offset="0.0036" stop-color="#E38DDD"/>
<stop offset="1" stop-color="#9571F6"/>
</linearGradient>
<linearGradient id="paint10_linear_85_760" x1="391.314" y1="68.9041" x2="397.292" y2="117.387" gradientUnits="userSpaceOnUse">
<stop stop-color="#FF9085"/>
<stop offset="1" stop-color="#FB6FBB"/>
</linearGradient>
<linearGradient id="paint11_linear_85_760" x1="395.18" y1="89.0772" x2="399.089" y2="120.771" gradientUnits="userSpaceOnUse">
<stop stop-color="#FFC444"/>
<stop offset="0.9964" stop-color="#F36F56"/>
</linearGradient>
<linearGradient id="paint12_linear_85_760" x1="373.576" y1="33.2858" x2="384.385" y2="120.937" gradientUnits="userSpaceOnUse">
<stop offset="0.0036" stop-color="#E38DDD"/>
<stop offset="1" stop-color="#9571F6"/>
</linearGradient>
<linearGradient id="paint13_linear_85_760" x1="343.321" y1="38.1166" x2="354.102" y2="125.547" gradientUnits="userSpaceOnUse">
<stop stop-color="#FFC444"/>
<stop offset="0.9964" stop-color="#F36F56"/>
</linearGradient>
<linearGradient id="paint14_linear_85_760" x1="355.051" y1="11.0435" x2="366.165" y2="101.17" gradientUnits="userSpaceOnUse">
<stop stop-color="#FF9085"/>
<stop offset="1" stop-color="#FB6FBB"/>
</linearGradient>
<linearGradient id="paint15_linear_85_760" x1="318.483" y1="25.5173" x2="390.288" y2="18.1984" gradientUnits="userSpaceOnUse">
<stop offset="0.0036" stop-color="#E38DDD"/>
<stop offset="1" stop-color="#9571F6"/>
</linearGradient>
<linearGradient id="paint16_linear_85_760" x1="285.865" y1="194.361" x2="472.615" y2="429.25" gradientUnits="userSpaceOnUse">
<stop stop-color="#FDF53F"/>
<stop offset="1" stop-color="#D93C65"/>
</linearGradient>
<linearGradient id="paint17_linear_85_760" x1="381.202" y1="287.807" x2="341.935" y2="185.536" gradientUnits="userSpaceOnUse">
<stop stop-color="#444B8C"/>
<stop offset="0.9964" stop-color="#26264F"/>
</linearGradient>
<linearGradient id="paint18_linear_85_760" x1="306.077" y1="383.624" x2="297.39" y2="383.55" gradientUnits="userSpaceOnUse">
<stop stop-color="#444B8C"/>
<stop offset="0.9964" stop-color="#26264F"/>
</linearGradient>
<linearGradient id="paint19_linear_85_760" x1="302.88" y1="387.572" x2="305.232" y2="373.328" gradientUnits="userSpaceOnUse">
<stop stop-color="#311944"/>
<stop offset="1" stop-color="#893976"/>
</linearGradient>
<linearGradient id="paint20_linear_85_760" x1="339.926" y1="385.955" x2="331.836" y2="385.886" gradientUnits="userSpaceOnUse">
<stop stop-color="#444B8C"/>
<stop offset="0.9964" stop-color="#26264F"/>
</linearGradient>
<linearGradient id="paint21_linear_85_760" x1="338.343" y1="388.157" x2="338.694" y2="375.012" gradientUnits="userSpaceOnUse">
<stop stop-color="#311944"/>
<stop offset="1" stop-color="#893976"/>
</linearGradient>
<linearGradient id="paint22_linear_85_760" x1="488.221" y1="465.304" x2="-371.846" y2="-196.626" gradientUnits="userSpaceOnUse">
<stop stop-color="#FF9085"/>
<stop offset="1" stop-color="#FB6FBB"/>
</linearGradient>
<linearGradient id="paint23_linear_85_760" x1="319.855" y1="394.394" x2="310.056" y2="309.685" gradientUnits="userSpaceOnUse">
<stop stop-color="#FFC444"/>
<stop offset="0.9964" stop-color="#F36F56"/>
</linearGradient>
<linearGradient id="paint24_linear_85_760" x1="496.879" y1="454.054" x2="-363.184" y2="-207.872" gradientUnits="userSpaceOnUse">
<stop stop-color="#FF9085"/>
<stop offset="1" stop-color="#FB6FBB"/>
</linearGradient>
<linearGradient id="paint25_linear_85_760" x1="290.025" y1="191.054" x2="476.776" y2="425.945" gradientUnits="userSpaceOnUse">
<stop stop-color="#FDF53F"/>
<stop offset="1" stop-color="#D93C65"/>
</linearGradient>
<linearGradient id="paint26_linear_85_760" x1="312.412" y1="189.327" x2="325.347" y2="214.458" gradientUnits="userSpaceOnUse">
<stop stop-color="#311944"/>
<stop offset="1" stop-color="#893976"/>
</linearGradient>
<linearGradient id="paint27_linear_85_760" x1="296.052" y1="207.816" x2="311.186" y2="201.774" gradientUnits="userSpaceOnUse">
<stop stop-color="#311944"/>
<stop offset="1" stop-color="#893976"/>
</linearGradient>
<linearGradient id="paint28_linear_85_760" x1="333.002" y1="187.473" x2="469.544" y2="660.522" gradientUnits="userSpaceOnUse">
<stop stop-color="#FF9085"/>
<stop offset="1" stop-color="#FB6FBB"/>
</linearGradient>
<linearGradient id="paint29_linear_85_760" x1="356.704" y1="179.321" x2="359.81" y2="165.652" gradientUnits="userSpaceOnUse">
<stop stop-color="#311944"/>
<stop offset="1" stop-color="#893976"/>
</linearGradient>
<linearGradient id="paint30_linear_85_760" x1="280.722" y1="173.002" x2="282.811" y2="163.809" gradientUnits="userSpaceOnUse">
<stop stop-color="#311944"/>
<stop offset="1" stop-color="#893976"/>
</linearGradient>
<linearGradient id="paint31_linear_85_760" x1="197.237" y1="229.006" x2="152.692" y2="283.568" gradientUnits="userSpaceOnUse">
<stop stop-color="#444B8C"/>
<stop offset="0.9964" stop-color="#26264F"/>
</linearGradient>
<linearGradient id="paint32_linear_85_760" x1="199.952" y1="318.621" x2="213.571" y2="381.271" gradientUnits="userSpaceOnUse">
<stop stop-color="#311944"/>
<stop offset="1" stop-color="#6B3976"/>
</linearGradient>
<linearGradient id="paint33_linear_85_760" x1="195.422" y1="319.613" x2="209.046" y2="382.286" gradientUnits="userSpaceOnUse">
<stop stop-color="#311944"/>
<stop offset="1" stop-color="#6B3976"/>
</linearGradient>
<linearGradient id="paint34_linear_85_760" x1="218.438" y1="204.512" x2="150.05" y2="288.281" gradientUnits="userSpaceOnUse">
<stop stop-color="#444B8C"/>
<stop offset="0.9964" stop-color="#26264F"/>
</linearGradient>
<linearGradient id="paint35_linear_85_760" x1="201.136" y1="189.746" x2="132.775" y2="273.483" gradientUnits="userSpaceOnUse">
<stop stop-color="#AA80F9"/>
<stop offset="0.9964" stop-color="#6165D7"/>
</linearGradient>
<linearGradient id="paint36_linear_85_760" x1="160.803" y1="174.417" x2="178.34" y2="128.792" gradientUnits="userSpaceOnUse">
<stop stop-color="#FFC444"/>
<stop offset="0.9964" stop-color="#F36F56"/>
</linearGradient>
<linearGradient id="paint37_linear_85_760" x1="181.341" y1="168.736" x2="168.343" y2="130.386" gradientUnits="userSpaceOnUse">
<stop stop-color="#311944"/>
<stop offset="1" stop-color="#6B3976"/>
</linearGradient>
<linearGradient id="paint38_linear_85_760" x1="169.719" y1="140.879" x2="164.382" y2="195.557" gradientUnits="userSpaceOnUse">
<stop stop-color="#FFC444"/>
<stop offset="0.9964" stop-color="#F36F56"/>
</linearGradient>
<linearGradient id="paint39_linear_85_760" x1="176.803" y1="170.357" x2="163.751" y2="131.845" gradientUnits="userSpaceOnUse">
<stop stop-color="#311944"/>
<stop offset="1" stop-color="#6B3976"/>
</linearGradient>
<linearGradient id="paint40_linear_85_760" x1="163.6" y1="146.782" x2="164.045" y2="153.792" gradientUnits="userSpaceOnUse">
<stop stop-color="#FFC444"/>
<stop offset="1" stop-color="#F36F56"/>
</linearGradient>
<linearGradient id="paint41_linear_85_760" x1="317.851" y1="313.341" x2="220.339" y2="181.137" gradientUnits="userSpaceOnUse">
<stop stop-color="#FFC444"/>
<stop offset="0.9964" stop-color="#F36F56"/>
</linearGradient>
<linearGradient id="paint42_linear_85_760" x1="162.258" y1="166.706" x2="173.44" y2="167.685" gradientUnits="userSpaceOnUse">
<stop stop-color="#444B8C"/>
<stop offset="0.9964" stop-color="#26264F"/>
</linearGradient>
<linearGradient id="paint43_linear_85_760" x1="180.588" y1="161.422" x2="173.34" y2="166.72" gradientUnits="userSpaceOnUse">
<stop stop-color="#444B8C"/>
<stop offset="0.9964" stop-color="#26264F"/>
</linearGradient>
<linearGradient id="paint44_linear_85_760" x1="171.442" y1="168.741" x2="63.5669" y2="236.283" gradientUnits="userSpaceOnUse">
<stop stop-color="#311944"/>
<stop offset="1" stop-color="#893976"/>
</linearGradient>
<linearGradient id="paint45_linear_85_760" x1="-1939.3" y1="627.255" x2="-2228.22" y2="688.803" gradientUnits="userSpaceOnUse">
<stop stop-color="#FFC444"/>
<stop offset="0.9964" stop-color="#F36F56"/>
</linearGradient>
<linearGradient id="paint46_linear_85_760" x1="-2782.34" y1="1481.65" x2="-3118.67" y2="1632.74" gradientUnits="userSpaceOnUse">
<stop stop-color="#FFC444"/>
<stop offset="0.9964" stop-color="#F36F56"/>
</linearGradient>
<linearGradient id="paint47_linear_85_760" x1="131.674" y1="215.015" x2="133.149" y2="255.642" gradientUnits="userSpaceOnUse">
<stop stop-color="#FFC444"/>
<stop offset="0.9964" stop-color="#F36F56"/>
</linearGradient>
<linearGradient id="paint48_linear_85_760" x1="130.634" y1="236.306" x2="83.2941" y2="235.098" gradientUnits="userSpaceOnUse">
<stop stop-color="#444B8C"/>
<stop offset="0.9964" stop-color="#26264F"/>
</linearGradient>
<linearGradient id="paint49_linear_85_760" x1="68.4172" y1="352.186" x2="26.9595" y2="248.245" gradientUnits="userSpaceOnUse">
<stop stop-color="#FFC444"/>
<stop offset="0.9964" stop-color="#F36F56"/>
</linearGradient>
<linearGradient id="paint50_linear_85_760" x1="95.0147" y1="355.054" x2="41.8432" y2="394.143" gradientUnits="userSpaceOnUse">
<stop stop-color="#FFC444"/>
<stop offset="0.9964" stop-color="#F36F56"/>
</linearGradient>
<linearGradient id="paint51_linear_85_760" x1="68.3493" y1="366.55" x2="113.065" y2="248.691" gradientUnits="userSpaceOnUse">
<stop stop-color="#FF9085"/>
<stop offset="1" stop-color="#FB6FBB"/>
</linearGradient>
<linearGradient id="paint52_linear_85_760" x1="72.2299" y1="372.466" x2="-6.24416" y2="306.429" gradientUnits="userSpaceOnUse">
<stop offset="0.0036" stop-color="#E38DDD"/>
<stop offset="1" stop-color="#9571F6"/>
</linearGradient>
</defs>
</svg>
