<svg xmlns="http://www.w3.org/2000/svg" width="960" height="486.771" viewBox="0 0 960 486.771">
  <g id="Group_1948" data-name="Group 1948" transform="translate(-129.724 -246.066)">
    <path id="Path_2772" data-name="Path 2772" d="M346.836,890.137c.04.029,773.849-.093,773.849-.093s2.237-4.643,5.039-10.719c2.077-4.5,4.65-10.482,7.321-17.678v0q.747-2.006,1.5-4.139,1.053-2.992,2.107-6.214.392-1.192.776-2.417c1.547-4.894,3.052-10.146,4.44-15.7q.145-.581.289-1.168.778-3.19,1.5-6.513.4-1.843.78-3.722l.051-.259c.094-.465.184-.93.274-1.4a232.787,232.787,0,0,0,3.774-28.384q.183-2.622.3-5.287.123-2.687.173-5.413a191.667,191.667,0,0,0-2.445-34.882q-1.152-6.987-2.907-14.047-1.291-5.153-2.937-10.319c-.2-.64-.408-1.283-.626-1.926a165.838,165.838,0,0,0-9.579-22.956c-.346-.683-.7-1.372-1.063-2.058a169.339,169.339,0,0,0-9.874-16.433q-.565-.835-1.147-1.665-3.231-4.633-6.877-9.205-5.308-6.665-11.557-13.16-8.652-8.99-17.158-16.346-3.5-3.048-6.973-5.829-2.975-2.394-5.933-4.593c-.11-.083-.226-.166-.337-.25q-6.842-5.093-13.56-9.248c-.915-.566-1.824-1.122-2.739-1.668q-6.592-3.935-13.058-7.052-1.411-.684-2.817-1.332c-29.483-13.594-56.812-15.365-80.988-13.111-18.691,1.742-35.5,5.893-49.959,8.852q-1.424.292-2.816.568c-9.412,1.851-17.771,3.071-24.942,2.6-11.446-.758-20.779-7.8-30.809-18.195q-1.1-1.136-2.2-2.322c-5.845-6.257-11.99-13.554-18.971-21.323q-1.908-2.127-3.91-4.3c-2.638-2.859-5.4-5.769-8.3-8.7-.447-.454-.9-.9-1.355-1.357q-1.47-1.464-3-2.933-.671-.651-1.354-1.3-4.951-4.706-10.486-9.394a209.033,209.033,0,0,0-62.369-36.306c-.014-.006-.025-.009-.037-.014A259.024,259.024,0,0,0,698.793,490.1a386.7,386.7,0,0,0-47.652-6.96q-5.98-.5-12.021-.832-6.481-.349-13-.491-3.91-.082-7.825-.086c-6.454-.011-12.911.147-19.328.479q-3.417.172-6.814.413c-27.766,1.972-54.517,7.3-77.09,16.814-15.832,6.67-75.48,36.518-92.981,87.009-5.528,15.936-6.854,33.927-1.281,53.895C440.523,711,410.49,719.8,372.913,753.472,322.759,798.412,306.609,859.052,346.836,890.137Z" transform="translate(-129.95 -157.501)" fill="#fcecdb"/>
    <path id="Path_2773" data-name="Path 2773" d="M1174.494,1657.739h-23.25c-1.246-1.057.863-3.457,3.065-3.618a13.635,13.635,0,0,1,3.549.42c.32-4.25,2.147-23.353,9.034-22.585,7.742.86,0,8.413-2.189,12.885a106.556,106.556,0,0,0-4.114,10.3c.629.137,1.28.27,1.944.393,1.026-3.151,4.844-13.75,9.7-13.133,5.7.724,3.409,4.972-.631,7.5-2.965,1.854-6.605,4.491-8.335,5.765a24.714,24.714,0,0,0,4.547.364C1171.8,1655.934,1173.741,1657.107,1174.494,1657.739Z" transform="translate(-686.318 -926.209)" fill="#a8d29f"/>
    <g id="Group_1924" data-name="Group 1924" transform="translate(239.483 706.297)">
      <path id="Path_2774" data-name="Path 2774" d="M504.707,1658.893s-9.988-27.429-17-25.092S504.707,1658.893,504.707,1658.893Z" transform="translate(-477.874 -1633.659)" fill="#a8d29f"/>
      <path id="Path_2775" data-name="Path 2775" d="M493.961,1683.679c-.85,0-16.788-16.54-17.85-12.209S493.961,1683.679,493.961,1683.679Z" transform="translate(-470.953 -1658.445)" fill="#a8d29f"/>
      <path id="Path_2776" data-name="Path 2776" d="M500.656,1700.2s-6.592-6.044-14.937-4.47-11.91,3.3-17.152,2.1a7.759,7.759,0,0,0-7.92,2.366Z" transform="translate(-460.648 -1674.97)" fill="#a8d29f"/>
    </g>
    <path id="Path_2777" data-name="Path 2777" d="M2640.622,851.418l.035-.048A.146.146,0,0,0,2640.622,851.418Z" transform="translate(-1688.875 -404.54)" fill="#7f2722"/>
    <g id="Group_1925" data-name="Group 1925" transform="translate(528.466 412.858)">
      <path id="Path_2778" data-name="Path 2778" d="M1520.535,782.387s9.833-11.028-6.98-13.131-19.672-15.416-31.219-19.348c-10.685-3.639-29.52,3.949-31.25,7.167,0,0,4.529,13.37,1.294,24.153s15.1,22.213,21.565,20.919c0,0-11.214.93-16.551-2.231,0,0,9.057,8.627,19.571,4.755s19.984-5.974,21.638-.96S1520.535,782.387,1520.535,782.387Z" transform="translate(-1417.234 -748.942)" fill="#aa443e"/>
      <path id="Path_2779" data-name="Path 2779" d="M1601.6,1226.274c-2.407,9.63-4.043,17.125-2.384,20.942,3.963,9.119-5.33,42.652-10.853,60.731-2.151,7.042-3.73,11.739-3.73,11.739h-8.411s.193-4.71.455-11.739c.637-16.905,1.676-47.226,1.394-57.6-.4-14.687-8.961-90.428-8.961-90.428s1.295-.129,3.4-.317c9.1-.806,33.4-2.685,34.222.172C1613.35,1182.707,1606.12,1208.24,1601.6,1226.274Z" transform="translate(-1496.117 -1022.492)" fill="#ffb27d"/>
      <path id="Path_2780" data-name="Path 2780" d="M1608.231,1226.274c-10.526-5.176-26.564-23.769-26.564-23.769s-3.28-23.579-2.52-42.9c9.1-.806,33.4-2.685,34.222.172C1619.977,1182.707,1612.747,1208.24,1608.231,1226.274Z" transform="translate(-1502.744 -1022.492)" fill="#ed975d"/>
      <path id="Path_2781" data-name="Path 2781" d="M1583.142,910.339c.789-.219,1.629-3.144,2.3-6.275.811-3.763,1.394-7.814,1.394-7.814l3.6.07,9.621.186.788.016a45,45,0,0,0-.92,5.822,28.961,28.961,0,0,0,.229,7.844c.381,1.987,1,3.228,1.623,3.549C1602.317,913.977,1582.214,910.222,1583.142,910.339Z" transform="translate(-1505.47 -847.391)" fill="#ffb27d"/>
      <path id="Path_2782" data-name="Path 2782" d="M1607.668,909.792c-5.975-1.473-13.32-13.939-13.32-13.939a7.238,7.238,0,0,1,3.6.071c3.291.8,6.893,3.331,9.488,6.025A28.922,28.922,0,0,0,1607.668,909.792Z" transform="translate(-1512.98 -846.996)" fill="#ed975d"/>
      <path id="Path_2783" data-name="Path 2783" d="M1609.149,861.617s-17.174-.311-16.816-11-1.618-17.933,9.363-18.187,12.973,3.9,13.722,7.5S1613.627,861.422,1609.149,861.617Z" transform="translate(-1511.63 -804.729)" fill="#ffb27d"/>
      <path id="Path_2784" data-name="Path 2784" d="M1549.153,935.057s19.248.809,35.422,5.742c0,0,6.038,18.142,1.295,32.16s9.584,41.012,9.584,41.012-41.08,4.249-42.212-1.25S1538.963,960.774,1549.153,935.057Z" transform="translate(-1480.203 -873.327)" fill="#ffb27d"/>
      <path id="Path_2785" data-name="Path 2785" d="M1707.728,1262.478l-7.175,7.276-12.823-10.656c-15.569-12.943-39.808-33.115-40.048-33.445-15.317-15.443-42.558-88.505-42.558-88.505s3.966-8.12,24.776-8.912c8.5-.324,15.179,12.5,20.341,28.3,5.913,18.083,9.84,40.064,12.254,50.694a11.153,11.153,0,0,0,1.7,3.875,11.309,11.309,0,0,0,4.108,3.613c11.4,5.9,23.174,21.658,30.851,33.468C1704.4,1256.254,1707.728,1262.478,1707.728,1262.478Z" transform="translate(-1520.183 -1002.429)" fill="#ffb27d"/>
      <path id="Path_2786" data-name="Path 2786" d="M1651.736,838.977s27.1-12.589,28.769-15.248,2.049-34.829,1.4-39.357h4.206s8.195,35.351,5.823,43.978-36.247,26.545-36.247,26.545Z" transform="translate(-1551.334 -772.621)" fill="#ffb27d"/>
      <path id="Path_2787" data-name="Path 2787" d="M1725.266,1268.156c-4.843-.411-27.35-46.029-28.764-46.984a98.323,98.323,0,0,1,14.809-7.586c5.913,18.083,9.84,40.064,12.254,50.694A11.169,11.169,0,0,0,1725.266,1268.156Z" transform="translate(-1581.252 -1059.475)" fill="#ed975d"/>
      <path id="Path_2788" data-name="Path 2788" d="M1433.641,949.22s1.375-5.39-27.7,27.978l-26.568-13.088-2.554,2.849s27.207,24.623,30.743,23.508,26.077-21.091,26.077-21.091Z" transform="translate(-1367.602 -882.578)" fill="#ffb27d"/>
      <path id="Path_2789" data-name="Path 2789" d="M1570.364,993.118c-8.76-11.338-13.893-26.636-16.921-38.644-.028-.106-.053-.209-.079-.314,13.146-9.271,6.273-28.094,6.273-28.094-5.719,1.169-19.28,6.729-19.3,6.738h0s-4.843,6.541-11.746,5.571-8.416-8.714-8.42-8.736h0c-.021,0-6.9-1.4-11.014,0-2.5.849-18.628,14.237-18.736,15.531-.105,1.265,5.461,15.724,16.494,18.08-1.223,36.8,9.608,89.21,9.608,89.21,29.9,2.578,53.463-14.2,64.684-24.229a80.018,80.018,0,0,0,7.164-7.133A212.092,212.092,0,0,0,1570.364,993.118Z" transform="translate(-1443.521 -867.319)" fill="#6bb7bf"/>
      <path id="Path_2790" data-name="Path 2790" d="M1628.754,898.9s.431,1.671,1.563,1.941,4.1.647,4.367.431a14.581,14.581,0,0,0,1.186-1.671S1631.125,898.413,1628.754,898.9Z" transform="translate(-1535.974 -849.083)" fill="#fff"/>
      <path id="Path_2791" data-name="Path 2791" d="M1736.952,762.639s-1.806-.458-2.075-3.478c-.18-2.018-1.078-3.376-.674-3.477.432-.108,1.642,2.147,2.1,2.642.389.418,1.293-6.631,2.264-6.47s3.289,1.348,2.588,10.783Z" transform="translate(-1606.379 -750.888)" fill="#ffb27d"/>
      <path id="Path_2792" data-name="Path 2792" d="M1360.8,975.928s-3.455-5.74-4.493-6.875c-2.057-2.249-7.121-3.113-7.276-1.965s3.5,2.282,4.009,4.8c.143.7-1.5-.462-2.468-.865-.584-.243-.866.069-.528.436,1.719,1.866,2.8,3.88,4.272,4.469a19.179,19.179,0,0,1,3.929,2.849Z" transform="translate(-1349.024 -894.396)" fill="#ffb27d"/>
      <path id="Path_2793" data-name="Path 2793" d="M1564.213,1659.693c-4.1,1.155-7.333,3.817-9.6,5.541s-15.851,3.235-17.575,1.294,5.606-5.68,7.977-6.881,9.6-14.664,9.6-14.664h8.411S1568.308,1658.542,1564.213,1659.693Z" transform="translate(-1474.505 -1347.789)" fill="#ffb27d"/>
      <path id="Path_2794" data-name="Path 2794" d="M1908.064,1561.7c-3.235.265-3.558-6.415-8.049-9.974s-7.175-11.457-7.175-11.457l7.175-7.276s9.181,3.044,9.018,8.058,4.367,9.38,5.177,13.1S1911.3,1561.428,1908.064,1561.7Z" transform="translate(-1712.469 -1272.941)" fill="#ffb27d"/>
      <path id="Path_2795" data-name="Path 2795" d="M1590.857,825.237s-2.542,1.967-10.521,0-6.686,13.722-13.64,11.781-18.082-23.615-2.491-23.938S1588.494,815.882,1590.857,825.237Z" transform="translate(-1487.556 -791.792)" fill="#aa443e"/>
      <path id="Path_2796" data-name="Path 2796" d="M1713.91,1078.271a80.062,80.062,0,0,1-7.165,7.133c-33.015-12.409-28.244-73.788-28.244-73.788a2.353,2.353,0,0,1,.483.032c3.028,12.008,8.161,27.305,16.921,38.644A212.181,212.181,0,0,1,1713.91,1078.271Z" transform="translate(-1569.061 -924.493)" fill="#5ea7aa"/>
      <path id="Path_2797" data-name="Path 2797" d="M1563.839,1618.857a7.706,7.706,0,0,0,.014,4.8c1.3,3.93,3.381,11.528.36,12.377-4.1,1.155-7.333,3.817-9.6,5.542s-15.851,3.235-17.575,1.294,5.606-5.681,7.977-6.881c1.791-.9,6.342-8.788,8.469-12.607a9.718,9.718,0,0,0,1.221-4.347c.082-2.048.212-5.355.364-9.449,0,0,7.54,3.871,11.684,0C1565.54,1613.569,1564.508,1616.8,1563.839,1618.857Z" transform="translate(-1474.505 -1324.135)" fill="#c65447"/>
      <path id="Path_2798" data-name="Path 2798" d="M1882.226,1532.905c-3.235.265-3.558-6.415-8.048-9.973-3.24-2.568-5.54-7.4-6.57-9.885a7.173,7.173,0,0,0-2.051-2.774l-11.377-9.454s2.73-9.316,11.425-10.908c3.723,5.726,6.48,10.523,7.767,12.825a4.649,4.649,0,0,0,2.238,2.017c2.575,1.092,7.708,3.744,7.587,7.5-.161,5.014,4.367,9.38,5.176,13.1S1885.461,1532.636,1882.226,1532.905Z" transform="translate(-1686.632 -1244.149)" fill="#c65447"/>
    </g>
    <g id="Group_1928" data-name="Group 1928" transform="translate(681.124 418.748)">
      <path id="Path_2799" data-name="Path 2799" d="M1962.765,918.951s12.024,4.68,22.851-7.413c-.252.385-7.588,11.654-13.868,13.7.809.567,1.589,1.162,2.344,1.774,3.222,2.6,6.034,5.448,9.189,7.149,0,0,0,0,.006,0,7.831,4.216,14.552,6.158,20.216,6.378,5.359-2.4,8.447-7.588,10.187-12.091.837-.649,1.668-1.305,2.48-1.942a20.854,20.854,0,0,1-5.671,13.342c7.773-2,12.74-7.966,15.128-15.428q.22-.678.405-1.372c.069-.249.137-.5.195-.749a36.058,36.058,0,0,0,.9-5.3,42.7,42.7,0,0,0-2.529-18.882q-.153-.406-.312-.8a.222.222,0,0,1-.012-.032,35.8,35.8,0,0,0-3.267-6.273c-2.322-3.528-2.729-8.164-2.194-12.864,1.162-10.272,6.814-20.85,6.814-20.85a16.076,16.076,0,0,0-2.729-3.092c-3.592-3.251-10.915-7.61-23.1-5.362-18.538,3.42-24.951,16.615-22.812,32.881s1.646,25.674-10.717,29.944c-.041.016-.083.029-.127.045A5.578,5.578,0,0,0,1962.765,918.951Z" transform="translate(-1913.615 -821.186)" fill="#163560"/>
      <path id="Path_2800" data-name="Path 2800" d="M2084.915,1028.512s15.124,17.093,21.441,19.347c6.508,2.32,29.86-1.054,29.86-1.054s-2.7-20.56-2.128-26.917,14.675-29.582,15.814-39.178-9.736-19.37-9.736-19.37-7.36.017-7.835-.86c-.215-.4-.4-.8-.575-1.211a20.012,20.012,0,0,1-1.172-9.46l-14.075-.581c.126,1.7.226,3.16.3,4.425a9.492,9.492,0,0,1-6.557,9.625c-3.853,1.24-7.169,2.707-7.408,3.61-1.214,4.6,10.329,36.283,6.359,39.371C2092.585,1019.175,2084.915,1028.512,2084.915,1028.512Z" transform="translate(-1995.479 -888.688)" fill="#ffb27d"/>
      <path id="Path_2801" data-name="Path 2801" d="M2180.168,949.227s.943,6.964,15.247,10.041a20,20,0,0,1-1.172-9.46Z" transform="translate(-2059.14 -888.688)" fill="#ed975d"/>
      <path id="Path_2802" data-name="Path 2802" d="M2180.643,898.9s-13.839,10.014-19.944,1.3-12-13.292-3.421-20.055,12.643-4.652,15.388-2.239S2184.088,896.067,2180.643,898.9Z" transform="translate(-2040.965 -839.468)" fill="#ffb27d"/>
      <path id="Path_2803" data-name="Path 2803" d="M2215.641,931.089s.923.944,3.558-.878c0,0,2.211-1.53,1.412-2.7A8.632,8.632,0,0,0,2215.641,931.089Z" transform="translate(-2082.846 -874.178)" fill="#fff"/>
      <path id="Path_2804" data-name="Path 2804" d="M2144.835,848.315s5.335-8.357-3.393-12.731c-14.664-7.348-15.229,12.379-19.614,13.754s-9.542,10.2-4.235,16.34,12.16,4.682,13.579,7.793,6.129,1.616,5.8.5c-.128-.433-1.273-1.063-1.917-2.687-.355-.9.612-1.9.256-1.916-3.519-.135-5.624-5.5-1.845-5.109a4.721,4.721,0,0,0,5.185-4.715c-.16-1.493-3.766-4.936-.416-6.857S2142.936,850.881,2144.835,848.315Z" transform="translate(-2015.813 -811.645)" fill="#163560"/>
      <path id="Path_2805" data-name="Path 2805" d="M2090.206,1321.219c-5.129,22.708,15.463,68.85,15.463,68.85h7.075s-3.014-54.171,1.11-67.711c2.411-7.912,7.4-33.528,11.133-53.456,2.655-14.178,4.673-25.479,4.673-25.479H2075.1s4.18,44.933,12.157,66.825C2089.224,1315.633,2090.513,1319.859,2090.206,1321.219Z" transform="translate(-1988.923 -1085.307)" fill="#ffb27d"/>
      <path id="Path_2806" data-name="Path 2806" d="M2093.768,1243.423s-3.32,45.17,6.02,68.036l37.289-42.557c2.656-14.178,4.673-25.479,4.673-25.479Z" transform="translate(-2001.013 -1085.307)" fill="#ed975d"/>
      <path id="Path_2807" data-name="Path 2807" d="M1866.4,1229.016c24.886,23.365,70.226,42.484,70.226,42.484,10.259-4.9,48.329-74.228,48.329-74.228a87.641,87.641,0,0,0-40.837-17.5c-7.945-1.147-12.261,5.376-14.462,14.719-1.67,7.088-2.126,15.8-2.029,24.019a233.769,233.769,0,0,0,2.029,27.219s-7.455-8.552-18.805-10.448c-30.582-5.109-39.814-11.361-39.814-11.361Z" transform="translate(-1849.442 -1042.683)" fill="#ffb27d"/>
      <path id="Path_2808" data-name="Path 2808" d="M2251.5,868.525s21.748-3.5,24.2-16.459c1.71-9.047,6.577-41.006,6.577-41.006l4.978-.707s2.1,38.556-.229,44.4c-2.963,7.43-24.955,28.661-24.955,28.661Z" transform="translate(-2106.811 -795.875)" fill="#ffb27d"/>
      <path id="Path_2809" data-name="Path 2809" d="M2039.652,990.944l-10.92,3.824s-17,21.138-21.811,23.562c-6.118,3.083-32.616,4.6-32.616,4.6l-.285,3.514s24.789,5.888,36.781,3.514c3.118-.617,26.68-19.662,26.68-19.662Z" transform="translate(-1921.366 -916.569)" fill="#ffb27d"/>
      <path id="Path_2810" data-name="Path 2810" d="M1832.229,1285.813s-6.857-5.414-9.136-7.693-8.833-11.112-7.693-13.106,6.9,4.427,12.537,4.843,6.416,2.268,7.672,6.568a49.854,49.854,0,0,0,2,5.919Z" transform="translate(-1815.267 -1099.48)" fill="#ffb27d"/>
      <path id="Path_2811" data-name="Path 2811" d="M2043.759,964.231v0s12.066,1.121,14.071.331c1.987-.783,5.9-3.738,9.766-6.754.837-.65,1.668-1.305,2.48-1.942,3.873-3.031,7.24-5.642,7.928-5.509a.027.027,0,0,1,.01,0,.3.3,0,0,1,.14.073,8.77,8.77,0,0,1,1.378,3.346c1.27,4.557,2.522,12.186,2.3,13.384a.024.024,0,0,0,0,.013.372.372,0,0,1-.036.1c0,.006,0,.01-.006.013s0,.006-.01.013c-.506.71-8.129,6.945-11.45,9.641-.93.765-1.526,1.242-1.526,1.242s.077.042.224.115.33.169.579.293c.573.29,1.433.713,2.529,1.232l0,0c2.512,1.194,6.25,2.885,10.507,4.522,7.579,2.926,16.8,5.687,23.636,5.213q.74-.053,1.443-.153s-1.12-6.477.5-9.326,12.463-29.04,12.944-30.957a40.989,40.989,0,0,0,.732-6.209c.042-.563.08-1.105.128-1.614.143-1.577.341-2.815.751-3.216.016-.016.038-.038.064-.061a.288.288,0,0,1,.034-.035c.025-.025.057-.057.092-.089.056-.057.118-.121.192-.188a.4.4,0,0,1,.051-.051c2.678-2.656,16.148-16.121,21.968-23.98.038-.054.076-.105.112-.153a17.063,17.063,0,0,0,2.439-4.1l0,0c.13-.4.248-.831.356-1.274,1.458-6,.921-15.017.921-15.017s0,0-.016-.006a27.558,27.558,0,0,0-4.519-.8,29.44,29.44,0,0,0-5.632-.048h0s-2.168,12.826-2.79,13.52c-1.649,1.841-20.2,16.344-23.531,17.347-.008,0-.01,0-.013,0a1.022,1.022,0,0,1-.286.051h-.048c-.427-.006-.847-.013-1.242-.013a.228.228,0,0,0-.067,0c-1.627-.012-3.077-.131-3.077-.131s4.994,6.681,4.427,12.005-15.958,5.132-20.136,1.9a42.473,42.473,0,0,1-6.77-7.543c-1.061-1.42-1.929-2.678-2.458-3.458-.354-.519-.551-.825-.551-.825l-.016.006c-.028.007-.086.026-.175.057-.035.01-.073.026-.117.038s-.093.032-.145.048c-.716.245-2.181.761-3.651,1.391a24.777,24.777,0,0,0-2.254,1.079.032.032,0,0,0-.013.01,8.207,8.207,0,0,0-1.248.818c-3.376,2.777-19.433,22.293-21.468,23.652-.007.006-.009.01-.015.01a.527.527,0,0,1-.115.061c-1.322.4-9.317,2.286-9.317,2.286v0a22.3,22.3,0,0,0-.676,4.649A14.25,14.25,0,0,0,2043.759,964.231Z" transform="translate(-1967.52 -850.551)" fill="#c65447"/>
      <path id="Path_2812" data-name="Path 2812" d="M2172.153,1681.186s6.952,4.662,10.513,5.374,10.259,1.221,10.829,3.46h-29.348a19.7,19.7,0,0,1,.931-8.834C2166.711,1676.3,2172.153,1681.186,2172.153,1681.186Z" transform="translate(-2048.332 -1376.424)" fill="#ffb27d"/>
      <path id="Path_2813" data-name="Path 2813" d="M2050.976,1248.337c1.459-1.55,9.378-7.821,39.209-3.755,0,0-18.742-21.473-37.181-20.264C2051.334,1231.406,2050.878,1240.12,2050.976,1248.337Z" transform="translate(-1972.789 -1072.505)" fill="#ed975d"/>
      <path id="Path_2814" data-name="Path 2814" d="M2120.634,1095.611a148.143,148.143,0,0,0,13.842,6.164c4.3-5.348,6.494-14.365,5.9-19.847-.939-8.74-9.18-13.425-10.392-14.07,1.534,1.22,4.159,16.049,3.633,16.856a.042.042,0,0,1-.01.013c-.506.712-8.13,6.944-11.45,9.643C2121.228,1095.132,2120.634,1095.611,2120.634,1095.611Z" transform="translate(-2019.351 -967.973)" fill="#c4453b"/>
      <path id="Path_2815" data-name="Path 2815" d="M2282.806,972.876c1.042-1.016,23.053-22.771,24.954-28.663C2307.76,944.213,2279.456,962.024,2282.806,972.876Z" transform="translate(-2127.551 -885.337)" fill="#c4453b"/>
      <g id="Group_1927" data-name="Group 1927" transform="translate(28.402 126.148)">
        <path id="Path_2816" data-name="Path 2816" d="M2012.7,1164.842s34.527,30.434,42.992,44.679c.223.376,0,1.3,0,1.7,0,0-9.094,1.374-16.218-2.673s-11.113-3.193-15.957-2.339a17.685,17.685,0,0,1-16.342-5.128c-5.312-5.414-13.006-2.944-17-2.754a15.176,15.176,0,0,1-11.017-4.748c-2.279-2.66-9.688-5.129-12.727-3.325s-8.735,1.045-12.346-1.8-5.51-7.788-12.728-6.269-10.828,1.52-14.056-.76-8.928-6.165-13.868-4.792-12.38-6.807-12.38-6.807-.362-1.526,0-1.7c4.928-2.382,42.565-18.267,74.246-15.745C1975.307,1152.377,1991.331,1163.828,2012.7,1164.842Z" transform="translate(-1900.9 -1150.425)" fill="#c65447"/>
        <path id="Path_2817" data-name="Path 2817" d="M1901.381,1164.734s.361.4.979,1.005c2.08,2.039,7.059,6.439,10.857,5.913a4.273,4.273,0,0,0,.545-.113.007.007,0,0,0,0,0c4.94-1.367,10.633,2.515,13.861,4.8s6.84,2.28,14.057.76a10.681,10.681,0,0,1,4.083-.152c3.649.644,5.453,3.525,7.821,5.711v0c.267.246.539.481.824.707a13.661,13.661,0,0,0,6.869,2.707,9.092,9.092,0,0,0,5.477-.9,6.591,6.591,0,0,1,3.932-.556,16.021,16.021,0,0,1,8.47,3.536c.117.113.225.228.324.343a15.171,15.171,0,0,0,11.018,4.748c2.845-.133,7.57-1.429,11.978-.2l0,0a11.061,11.061,0,0,1,5.015,2.953,17.58,17.58,0,0,0,8.638,4.984h0a19.188,19.188,0,0,0,7.7.145c3.167-.561,5.968-1.118,9.518-.309l0,0a23.767,23.767,0,0,1,6.434,2.644c7.125,4.047,16.219,2.672,16.219,2.672-7.267-13.675-42.992-46.379-42.992-46.379-21.37-1.013-37.4-12.465-37.4-12.465C1941.62,1144.581,1901.381,1164.734,1901.381,1164.734Z" transform="translate(-1901.221 -1147.037)" fill="#f99746"/>
        <g id="Group_1926" data-name="Group 1926" transform="translate(1.139 11.629)">
          <path id="Path_2818" data-name="Path 2818" d="M2244.389,1276.745h0a19.187,19.187,0,0,0,7.7.144c3.166-.561,5.968-1.118,9.517-.309-.2-.256-13.465-17.2-15.154-16.124S2240.748,1274.583,2244.389,1276.745Z" transform="translate(-2130.611 -1234.435)" fill="#ed7d2b"/>
          <path id="Path_2819" data-name="Path 2819" d="M2135.889,1249.7c.117.113.225.228.324.343a15.171,15.171,0,0,0,11.018,4.749c2.845-.133,7.57-1.429,11.979-.2-.106-.23-6.945-14.91-10.408-15.428C2145.8,1238.718,2136.7,1245.135,2135.889,1249.7Z" transform="translate(-2059.087 -1220.226)" fill="#ed7d2b"/>
          <path id="Path_2820" data-name="Path 2820" d="M1904.332,1189.172c2.082,2.039,7.06,6.439,10.858,5.914.181-.035.362-.071.544-.113a.008.008,0,0,0,.006,0c.366-.154,23.87-10.174,25.08-12.423C1941.945,1180.458,1910.455,1186.2,1904.332,1189.172Z" transform="translate(-1904.332 -1182.1)" fill="#ed7d2b"/>
          <path id="Path_2821" data-name="Path 2821" d="M1980.516,1214.772c3.229,2.28,6.84,2.28,14.056.76a10.669,10.669,0,0,1,4.083-.152s13.84-7.958,13.232-10.449S1980.516,1213.071,1980.516,1214.772Z" transform="translate(-1955.248 -1197.107)" fill="#ed7d2b"/>
          <path id="Path_2822" data-name="Path 2822" d="M2058.749,1239.614v0c.268.246.539.481.825.707a13.657,13.657,0,0,0,6.867,2.707,9.092,9.092,0,0,0,5.477-.9,6.6,6.6,0,0,1,3.932-.555c.882-.783,8.207-7.366,6.81-9C2081.177,1230.821,2057.943,1237.2,2058.749,1239.614Z" transform="translate(-2007.519 -1215.629)" fill="#ed7d2b"/>
        </g>
      </g>
      <path id="Path_2823" data-name="Path 2823" d="M2339.825,781.887a20.4,20.4,0,0,0-1.744-6.582c-1.415-2.673,3.7-7.784,5.426-8.334s2.987-.236,2.987.786-2.438,2.752-1.966,4.246a13.587,13.587,0,0,1,1,5.032c-.13,1.808-.573,4.145-.573,4.145Z" transform="translate(-2164.514 -766.703)" fill="#ffb27d"/>
      <path id="Path_2824" data-name="Path 2824" d="M1953.1,1081.935a26,26,0,0,1-4.543-2.328c-2.02-1.365-6.558,2.29-7.149,3.629s-.447,2.374.373,2.463,2.416-1.716,3.573-1.209a10.96,10.96,0,0,0,3.948,1.231c1.461.053,3.372-.1,3.372-.1Z" transform="translate(-1899.332 -975.623)" fill="#ffb27d"/>
    </g>
    <g id="Group_1929" data-name="Group 1929" transform="translate(1009.808 592.912)">
      <path id="Path_2825" data-name="Path 2825" d="M2828.931,1319.415a10.824,10.824,0,0,1-6.28,2.011,9.805,9.805,0,0,1-5.156-2.471l-1.822,3.537s4.659,2.537,8.507,1.6a9.877,9.877,0,0,0,3.885-2.484A3.373,3.373,0,0,0,2828.931,1319.415Z" transform="translate(-2815.673 -1309.95)" fill="#6bb7bf"/>
      <path id="Path_2826" data-name="Path 2826" d="M2846.892,1294.1l4.882-2.294s-.2,10.379-8.6,13.937C2843.169,1305.743,2848.24,1298.409,2846.892,1294.1Z" transform="translate(-2834.049 -1291.805)" fill="#86d1cd"/>
    </g>
    <g id="Group_1930" data-name="Group 1930" transform="translate(194.216 632.334)">
      <path id="Path_2827" data-name="Path 2827" d="M334.422,1428.222s-4.3-3.246-5.407-8.094c-.823-3.6,1.242-8.115,1.411-8.319l-5.759-1.147s-1.706,7.641,1.182,12.723a14.574,14.574,0,0,0,5.1,4.5A4.976,4.976,0,0,0,334.422,1428.222Z" transform="translate(-324.167 -1410.662)" fill="#6bb7bf"/>
      <path id="Path_2828" data-name="Path 2828" d="M348.915,1451.933l5.239,5.995s-14.809,3.933-23.274-6.544C330.88,1451.383,343.347,1455.6,348.915,1451.933Z" transform="translate(-328.653 -1437.877)" fill="#86d1cd"/>
    </g>
    <g id="Group_1931" data-name="Group 1931" transform="translate(735.879 347.643)">
      <path id="Path_2829" data-name="Path 2829" d="M1980.84,570.545s-.645-5.059,1.905-9.018c1.892-2.938,6.318-4.527,6.568-4.549l-3.033-4.66s-6.3,3.9-7.836,9.219a13.813,13.813,0,0,0,.328,6.435A4.711,4.711,0,0,0,1980.84,570.545Z" transform="translate(-1978.149 -552.319)" fill="#6bb7bf"/>
      <path id="Path_2830" data-name="Path 2830" d="M1989.739,595.368l-.594,7.515s-12.461-7.428-10.966-20.094C1978.179,582.788,1983.572,594.023,1989.739,595.368Z" transform="translate(-1978.055 -572.682)" fill="#86d1cd"/>
    </g>
    <g id="Group_1932" data-name="Group 1932" transform="translate(538.453 644.553)">
      <path id="Path_2831" data-name="Path 2831" d="M1383.121,1450.386s2.135-4.6,11.635-2.18c4.258,1.083,11.629,7.346,1.883,12.633-10.138,5.5-13.339-.246-13.339-.246s16.327-2.681,14-9.276c-2.572-7.278-9.413.6-9.413.6A12.547,12.547,0,0,0,1383.121,1450.386Z" transform="translate(-1380.819 -1447.503)" fill="#f1a34f"/>
      <path id="Path_2832" data-name="Path 2832" d="M1376.9,1473.047a5.06,5.06,0,0,1,1.095-6.457l4.05,3.228s-3.941,3.107,0,5.9C1382.041,1475.723,1377.463,1474.465,1376.9,1473.047Z" transform="translate(-1376.181 -1460.26)" fill="#db7714"/>
    </g>
    <g id="Group_1933" data-name="Group 1933" transform="translate(684.24 491.665)">
      <path id="Path_2833" data-name="Path 2833" d="M1836.031,989.013s5.551-3.856,9.718,1.893l4.576-1.969s-2.26-3.568-11.131-1.986C1833.391,987.986,1836.031,989.013,1836.031,989.013Z" transform="translate(-1830.565 -986.546)" fill="#5685d8"/>
      <path id="Path_2834" data-name="Path 2834" d="M1820.756,992.784s1.512-6.238,12.9-6.238c0,0-4.266.4-7.6,5.941Z" transform="translate(-1820.756 -986.546)" fill="#739af0"/>
    </g>
    <path id="Path_2835" data-name="Path 2835" d="M2291.848,1307.457s4.023-2.54,4.447-5.61c0,0,3.917.212,4.763,1.482,0,0-1.8,5.082-3.917,6.034C2297.141,1309.363,2292.377,1309.68,2291.848,1307.457Z" transform="translate(-1453.041 -705.604)" fill="#f1a34f"/>
    <path id="Path_2836" data-name="Path 2836" d="M1344.44,624.155s-2.609-1.648-2.884-3.639c0,0-2.54.137-3.09.962,0,0,1.167,3.3,2.541,3.913C1341.007,625.391,1344.1,625.6,1344.44,624.155Z" transform="translate(-812.311 -250.254)" fill="#ed7d2b"/>
    <path id="Path_2837" data-name="Path 2837" d="M2295.01,1479.456s3.565-2.252,3.94-4.972c0,0,3.471.187,4.222,1.313,0,0-1.594,4.5-3.471,5.347C2299.7,1481.145,2295.479,1481.426,2295.01,1479.456Z" transform="translate(-1455.157 -820.982)" fill="#86d1cd"/>
    <g id="Group_1934" data-name="Group 1934" transform="translate(422.961 359.636)">
      <path id="Path_2838" data-name="Path 2838" d="M1276.013,1314.6s16.944,5.88,22.524,5.14c0,0,.373-2.858-4.539-5.521s-9.141-11.548-11.808-10.876a25.04,25.04,0,0,0-6.193,3.08Z" transform="translate(-1192.866 -1066.214)" fill="#163560"/>
      <path id="Path_2839" data-name="Path 2839" d="M1340.951,1231.449s17.7-2.907,22.25-6.219c0,0-1.035-2.69-6.622-2.69s-13.541-5.794-15.565-3.932a25.014,25.014,0,0,0-3.975,5.659Z" transform="translate(-1233.662 -1009.363)" fill="#163560"/>
      <path id="Path_2840" data-name="Path 2840" d="M1111.215,1166.543q-7.235-.228-13.614-.612c-64.6-3.815-66.487-18.18-66.487-18.18-10.743-32.921,32.427-65.612,32.427-65.612s26.194-3.678,25.155,11.718-37.279,45.638-37.279,45.638c12.066,1.13,31.682,7.915,45.132,13.028,8.58,3.262,14.651,5.844,14.651,5.844a8.034,8.034,0,0,1,.975,4.152A12.5,12.5,0,0,1,1111.215,1166.543Z" transform="translate(-1028.056 -918.147)" fill="#1c468a"/>
      <path id="Path_2841" data-name="Path 2841" d="M1097.6,1165.931c-64.6-3.815-66.487-18.18-66.487-18.18-10.743-32.921,32.427-65.612,32.427-65.612s26.194-3.678,25.155,11.718-37.279,45.638-37.279,45.638c12.066,1.13,31.682,7.915,45.132,13.028C1098.169,1156.71,1099.23,1161.726,1097.6,1165.931Z" transform="translate(-1028.056 -918.147)" fill="#163560"/>
      <path id="Path_2842" data-name="Path 2842" d="M1174.025,1136.05l-.063.016c-55.608,15.017-75.23,14.8-80.883,13.668-2.507-.5-4.271-4.16-4.271-4.16-10.739-32.922,35.05-70.03,35.05-70.03s19.728-.894,25.233,8.105a9.984,9.984,0,0,1,1.384,6.04c-.669,9.915-15.676,24.205-26.274,33.121-5.6,4.713-9.971,7.925-10.344,8.2l-.02.014c18.5-11.416,56.212-2.138,56.212-2.138a11.858,11.858,0,0,1,2.882,2.825A10.278,10.278,0,0,1,1174.025,1136.05Z" transform="translate(-1066.672 -913.981)" fill="#1c468a"/>
      <path id="Path_2843" data-name="Path 2843" d="M1286.782,690.885c-2.049-.108-6.578,6.362-7.441,6.9s-.431-2.372-1.11-4.421-2.233,2.588-2.233,5.5a8.767,8.767,0,0,0,2.233,5.286,3.146,3.146,0,0,1-.489,1.425c-2.647,4.4-8.225,14.374-12.7,22.436-3.706,6.637-6.637,11.971-6.637,11.971a164.739,164.739,0,0,0-17.672,2.036c-6.026.977-11.4,2.077-14.414,2.728-1.588.326-2.525.53-2.525.53s-.367,1.1-.774,2.769c-.285,1.14-.57,2.606-.814,4.153-.733,5.416-.407,12.012,5.578,12.379a14.149,14.149,0,0,0,3.339-.245,61.223,61.223,0,0,0,11.849-3.258,185.942,185.942,0,0,0,19.138-8.184,54.824,54.824,0,0,0,7.085-3.95c.9-.773,3.013-6.555,5.334-13.6,3.787-11.524,8.185-26.467,8.877-28.87,0,0,6.075-9.979,6.291-11.381S1288.83,690.992,1286.782,690.885Z" transform="translate(-1156.725 -656.918)" fill="#ffb27d"/>
      <path id="Path_2844" data-name="Path 2844" d="M1125.349,598.292c-1.779-.485,7.926-9.877,1.779-9.813-4.926.052-10.358,10.626-10.358,10.626-.814,1.506-1.707,3.013-1.707,3.013-8.266,10.587-13.437,19.057-16.654,25.694-6.271,12.948-5.09,18.689-5.09,18.689a39.659,39.659,0,0,0,.529,7.778c1.669,12.5,7,30.5,8.225,34.57l.244.855,14.577-10.465a14.14,14.14,0,0,0-.041-3.46,55.372,55.372,0,0,0-1.873-8.795c-.041-.163-.122-.326-.163-.489-1.384-4.845-3.257-10.017-4.886-14.252-.284-.733-.529-1.425-.814-2.076a1.749,1.749,0,0,1-.163-.407c-1.588-3.991-2.768-6.719-2.768-6.719.488-1.059,1.018-2.117,1.506-3.217l.244-.61c.326-.733.652-1.466.936-2.2a4.36,4.36,0,0,1,.163-.408,2.469,2.469,0,0,0,.2-.488.126.126,0,0,0,.041-.081,262.073,262.073,0,0,0,10.3-31.475,2.9,2.9,0,0,1,.882-1.227c.017-.007,7.312-3.1,9.271-4.229S1127.128,598.777,1125.349,598.292Z" transform="translate(-1070.719 -588.479)" fill="#ffb27d"/>
      <path id="Path_2845" data-name="Path 2845" d="M1081.576,804.2s-19.714-20.452-36.576-32.892a44.037,44.037,0,0,1-1.781-7.264,8.754,8.754,0,0,0-.488,5.629c-4.58-3.227-8.863-5.739-12.374-6.938-1.181-6.861,5.42-14.071,5.42-14.071-5.67,2.3-7.969,9.862-8.721,13.327a6.917,6.917,0,0,0-1.7.055s-.57-23.167,34.816-23.167c13.768,0,11.8-23.919,31.392-22.2,0,0,21.4,4.181,17.406,22.845s2.57,22.846,4.853,27.03S1106.4,800.015,1081.576,804.2Z" transform="translate(-1025.356 -674.096)" fill="#aa443e"/>
      <path id="Path_2846" data-name="Path 2846" d="M1201.206,826.664l-20.638,8.173-2.192-9.144a37.252,37.252,0,0,1,.527-8.654,69.307,69.307,0,0,1,2.25-9.418c.028-.09.044-.136.044-.136l.531-.013,1.714-.046,11.6-.3a22.179,22.179,0,0,0-.764,4.823A17.091,17.091,0,0,0,1201.206,826.664Z" transform="translate(-1127.574 -734.607)" fill="#ffb27d"/>
      <path id="Path_2847" data-name="Path 2847" d="M1122.612,849.343s-27.731,15.345-6.454,77.468l44.337,2.416s-18.942-26.354-14.412-35.412,13.589-37.471,13.589-37.471Z" transform="translate(-1080.674 -762.821)" fill="#e5b0b4"/>
      <path id="Path_2848" data-name="Path 2848" d="M1187.632,746.263s-3.862,12.981-5.718,14.018-26.173,13.515-33.541,14.518a16.282,16.282,0,0,0-3.49.7l0,0a.572.572,0,0,0-.3.226.281.281,0,0,0-.022.056c-.521,1.372-7.049,23.613-7.2,29.513-.108,4.112,18.019,30.571,17.8,33.572a2.073,2.073,0,0,1-.183.736c-1.021,2.25-6.012,2.058-10.112-.09a64.971,64.971,0,0,0-10.436-4.255c-4.755-1.465-10.1-2.431-14.452-1.54-8.365,1.717-16.948-.428-19.952-9.653s-2.573-28.1-3.43-31.965-1.611-15.973,3.533-24.019h0a.011.011,0,0,1,0-.009s.643-1.288-.428-3.967-8.9-30.894-7.723-39.368a44.312,44.312,0,0,1,5.511-17.688,14.855,14.855,0,0,1,5.935,3.162c2.734,2.44,4.518,4.975,4.95,5.082,0,0-2.88,6.44-2.719,6.976s9.921,28.212,10.457,29.82c0,0,3.841-.333,4.673.5,0,0-.327,7.938,17.691,1.358,0,0,1.112-.18,1.164.751,0,0,23.238-3.711,31.322-4.29,0,0,.433-.048,2.93-4.721,2.97-5.557,4.193-6.872,4.193-6.872A10.275,10.275,0,0,1,1187.632,746.263Z" transform="translate(-1069.807 -667.724)" fill="#ffb93e"/>
      <path id="Path_2849" data-name="Path 2849" d="M1223.723,977.368a2.085,2.085,0,0,1-.183.736c-1.021,2.25-6.012,2.058-10.112-.09a64.987,64.987,0,0,0-10.436-4.255c-2.871-7.14-6.832-17.976-8.344-26.788-2.3-13.431,15.824-30.307,18.472-32.689-.522,1.372-7.049,23.613-7.2,29.513C1205.81,947.908,1223.936,974.367,1223.723,977.368Z" transform="translate(-1138.363 -806.221)" fill="#ffa412"/>
      <path id="Path_2850" data-name="Path 2850" d="M1195.492,812.441s-9.663,4.914-15.375,5.088a69.214,69.214,0,0,1,2.251-9.418,5.873,5.873,0,0,1,.574-.149,4.5,4.5,0,0,1,1.2-.093c.17.01.341.028.515.047C1189.451,808.471,1195.492,812.441,1195.492,812.441Z" transform="translate(-1128.787 -735.098)" fill="#ed975d"/>
      <path id="Path_2851" data-name="Path 2851" d="M1170.239,760.711s16.478,8.349,21.519-1.992,10.564-16.229.257-22-14.291-2.826-16.813.216S1166.083,758.273,1170.239,760.711Z" transform="translate(-1121.288 -685.351)" fill="#ffb27d"/>
      <path id="Path_2852" data-name="Path 2852" d="M1185.943,734.775s4.995,4.969,3.526,9.688.906,14.11,7.344,15.183,14.091-20.687,5.62-24.871-22.313-6.252-26.492-1-2.573,11.9-2.573,11.9S1179.166,734.453,1185.943,734.775Z" transform="translate(-1124.074 -683.493)" fill="#aa443e"/>
      <path id="Path_2853" data-name="Path 2853" d="M1180.71,800.683s-.677,1.113-3.616-.051c0,0-2.468-.977-1.959-2.277A8.523,8.523,0,0,1,1180.71,800.683Z" transform="translate(-1125.411 -728.743)" fill="#fff"/>
    </g>
    <g id="Group_1936" data-name="Group 1936" transform="translate(277.541 422.946)">
      <path id="Path_2854" data-name="Path 2854" d="M739.787,809.823l2.02-3.225c8.037-10.743,4.857-16.276,2.388-19.1a19.463,19.463,0,0,0-7.022-5.016c-.1-.044-.2-.082-.306-.124a15.782,15.782,0,0,0-4.194-1.59c-17.125-8.528-27.7,24.4-25.541,27.152s8.743,4.242,8.743,4.242a5.647,5.647,0,0,1-.446-1.34c1.548,2.14,8.713,3.451,8.713,3.451a11.461,11.461,0,0,1-1.534-7.161l4.1.783c.439,3.19,1.453,6.381,2.729,8.01,2.5,3.189,8.913,4.253,8.913,4.253a4.185,4.185,0,0,1-.172-1.439c.058.688,1.081,1.423,1.081,1.423a8.543,8.543,0,0,0,2.6-.162S738.185,819,739.787,809.823Z" transform="translate(-665.226 -779.359)" fill="#233862"/>
      <path id="Path_2855" data-name="Path 2855" d="M732.76,926.3l-.029.011C732.68,926.3,732.691,926.3,732.76,926.3Z" transform="translate(-682.499 -877.562)" fill="#ffb27d"/>
      <path id="Path_2856" data-name="Path 2856" d="M752.776,880c.24,2.155.528,4.089.655,5.01.287,2.064-19.3.721-20.549.717.871-.378,3.528-8.807,4.369-12.022,1.019-3.9,1.82-8.112,1.82-8.112l13.832.874.823.051a48.014,48.014,0,0,0-1.125,5.319c-.033.222-.066.448-.094.666A35.918,35.918,0,0,0,752.776,880Z" transform="translate(-682.621 -836.992)" fill="#ffb27d"/>
      <path id="Path_2857" data-name="Path 2857" d="M765.092,880.8c-9.675-2.835-13.781-14.011-13.781-14.011,4.092.12,9.423,2.961,13.607,5.848-.033.222-.066.448-.095.667A35.934,35.934,0,0,0,765.092,880.8Z" transform="translate(-694.937 -837.79)" fill="#ed975d"/>
      <path id="Path_2858" data-name="Path 2858" d="M764.825,832.77s-17.48-4.32-14.622-15.165S752.73,798.9,764.011,801.2s12.35,7.007,12.277,10.859S769.445,833.614,764.825,832.77Z" transform="translate(-693.985 -793.687)" fill="#ffb27d"/>
      <path id="Path_2859" data-name="Path 2859" d="M763.371,800.092s-8.133,11.457-15.944,11.4-10.464-2.855-10.464-2.855A21.422,21.422,0,0,0,746.976,798.2S761.379,793.087,763.371,800.092Z" transform="translate(-685.349 -790.746)" fill="#233862"/>
      <path id="Path_2860" data-name="Path 2860" d="M812.2,806.977s2.807,3.782,2.944,6.772-.977,8.777.73,9.022c0,0,5.879-7.695,3.139-13.653C816.105,802.8,812.2,806.977,812.2,806.977Z" transform="translate(-735.63 -796.911)" fill="#233862"/>
      <path id="Path_2861" data-name="Path 2861" d="M779.033,803.718s-6.921,12.42-17.278,14.243c0,0,11.394-5.74,14.505-14.325S779.033,803.718,779.033,803.718Z" transform="translate(-701.918 -793.048)" fill="#233862"/>
      <path id="Path_2862" data-name="Path 2862" d="M786.7,876.2s.218,1.651,1.271,2.042,3.849,1.1,4.132.923a13.964,13.964,0,0,0,1.331-1.462S789.029,876.015,786.7,876.2Z" transform="translate(-718.589 -844.072)" fill="#fff"/>
      <path id="Path_2863" data-name="Path 2863" d="M701.588,1265.835q-.333,1.393-.663,2.756c-1.317,5.476-2.544,10.555-3.317,14.8-1,5.531-1.242,9.645.077,11.374,5.428,7.118,0,63.6,0,63.6l-6.179,6.364s-10.74-55.767-13.653-64.505c-1.326-3.972-3.255-20.939-4.959-38.259q-.131-1.3-.255-2.6c-.295-3.03-.579-6.048-.852-8.994-1.529-16.387-2.673-30.419-2.673-30.419s11.392-8.01,21.743-8.9c6.1-.532,11.833,1.409,14.666,8.9C709.649,1230.861,705.47,1249.684,701.588,1265.835Z" transform="translate(-640.004 -1067.82)" fill="#ffb27d"/>
      <path id="Path_2864" data-name="Path 2864" d="M717.125,1265.835c-8.465-6.113-20.374-16.992-24.7-34.825-.827-8.866,6.164-17.291,13.966-19.952,6.1-.532,11.833,1.409,14.666,8.9C725.186,1230.861,721.006,1249.684,717.125,1265.835Z" transform="translate(-655.541 -1067.82)" fill="#ed975d"/>
      <path id="Path_2865" data-name="Path 2865" d="M853.569,1051.628l41.6,10.745v4.858s-41.4-.485-44.068-5.1S853.569,1051.628,853.569,1051.628Z" transform="translate(-761.116 -961.323)" fill="#ffb27d"/>
      <path id="Path_2866" data-name="Path 2866" d="M812.448,1298.145l-1.944,8.028s-56.273-29.065-63.551-34.646c-2.924-2.243-6.787-14.422-10.366-28.2-5.33-20.535-10.026-44.619-10.026-44.619s7.889-30.34,29.006-11.771c12.638,11.113,10.672,32.524,9.288,49.177-.921,11.174-1.584,20.207,2.607,22.548,8.174,4.561,32.16,25.577,39.752,40.035Z" transform="translate(-678.396 -1047.732)" fill="#ffb27d"/>
      <path id="Path_2867" data-name="Path 2867" d="M635.536,994.4c-14.7-3.74-30.851-26.54-30.851-26.54l4.138-3.589c4.284,5.051,22.1,13.75,22.1,13.75-.1-4.623.025-8.839.317-12.676,1.977-26.081,11.808-34.77,14.492-36.677a6.485,6.485,0,0,1,.682-.439s.01.189.025.549c.039.774.11,2.336.183,4.479C647.166,949.222,647.817,997.53,635.536,994.4Z" transform="translate(-596.944 -878.854)" fill="#ffb27d"/>
      <path id="Path_2868" data-name="Path 2868" d="M682.811,958.885c-.762,18.606-3.545,37.03-11.646,35.844-9.929-1.449-12.516-10.717-13.043-17.606a39.6,39.6,0,0,1,.145-7.655s4.887-.023,5.678-.751c3.753-3.467,2.638-37.468,4.5-41s13.912-5.8,13.912-5.8S683.569,940.495,682.811,958.885Z" transform="translate(-632.58 -874.638)" fill="#f99746"/>
      <path id="Path_2869" data-name="Path 2869" d="M683.043,1007.63c-.762,18.606-3.545,37.03-11.646,35.844-9.929-1.449-12.516-10.717-13.043-17.606,2.438-.123,6.73-.717,8.435-3.319,2.441-3.723,10.059-27.691,10.059-27.691S679.844,1000.238,683.043,1007.63Z" transform="translate(-632.812 -923.382)" fill="#ed7d2b"/>
      <path id="Path_2870" data-name="Path 2870" d="M762.275,951.723c2.691,3.822,1.209,11.234-4.435,17.2-3.505,3.706-8.253,5.9-15.979,4.758-3.368-.5-12.779-5.81-13.768-12.288-.177-1.175-.277-1.861-.277-1.861s-4.284,4.29-4.444,5.1c-.072.364-.441,3.606-.5,4.049a15.623,15.623,0,0,0,.314,2.5s-20.468,8.951-37.389-1.243c0,0-4.825-41.346-1.36-48.225,1.722-3.418,11.381-10.075,14.744-13.016a5.375,5.375,0,0,0,1.315-3.94c-.171-1.085,1.077-2.914,2.124-2.581,2.022.648,7.745,3.479,11.772,2.4,2.006-.533,4.549-2.852,6.494-2.321,2.376.649-.134,6.368,1.213,6.443,1.856.092,11.881,2.1,12.722,3.714.293.563,3.173,8.191,6.783,18.287a.088.088,0,0,1,.006.026C748.386,949.667,758.325,946.113,762.275,951.723Z" transform="translate(-649.407 -861.418)" fill="#f99746"/>
      <path id="Path_2871" data-name="Path 2871" d="M782.012,1043.777s-.5-15.772-1.773-15.579-19.661,17.89-15.291,24.97S782.012,1043.777,782.012,1043.777Z" transform="translate(-703.603 -945.663)" fill="#ed7d2b"/>
      <path id="Path_2872" data-name="Path 2872" d="M729.355,1157.584a122.189,122.189,0,0,1-17.526,3.633c-12.926,1.787-31,2.432-47.133-3.633,0,0-1.33-24.012,2.494-36.53s5.611-18.509,5.611-18.509,15.319,3.841,30.878.862a50.512,50.512,0,0,0,6.525-1.687s9.6,20.376,12.237,29.108S729.355,1157.584,729.355,1157.584Z" transform="translate(-636.902 -994.801)" fill="#2b478b"/>
      <path id="Path_2873" data-name="Path 2873" d="M800.428,1157.584a122.19,122.19,0,0,1-17.525,3.633c-19.143-10.855-9.809-56.533-9.809-56.533q.852-.69,1.659-1.278a50.519,50.519,0,0,0,6.525-1.687s9.6,20.376,12.237,29.108S800.428,1157.584,800.428,1157.584Z" transform="translate(-707.975 -994.801)" fill="#233862"/>
      <g id="Group_1935" data-name="Group 1935" transform="translate(35.062 102.747)">
        <path id="Path_2874" data-name="Path 2874" d="M704.164,1098.658c-11.349,0-16.026-3.906-16.372-4.172l-.734-5.344c.109.081,15.336,9.224,38.9.467l-.5,4.049C716.4,1097.026,710.059,1098.658,704.164,1098.658Z" transform="translate(-687.058 -1089.141)" fill="#b64c41"/>
      </g>
      <path id="Path_2875" data-name="Path 2875" d="M985.517,1075.071s7.632-3.759,10.667-4.123,8.131-.486,8.131,0-5.461,3.878-6.918,4.123-4.248,2.309-3.4,2.552,5.34-.789,5.4,0-2.731,1.275-3.216,1.881-2.185,1.335-4.916.97-5.751-.546-5.751-.546Z" transform="translate(-851.464 -974.021)" fill="#ffb27d"/>
      <path id="Path_2876" data-name="Path 2876" d="M593.217,1013.821l-4.149,3.62s-7.37-5.384-7.723-7.591v-.221c0-2.295,4.678-7.062,8.562-7.238a2.091,2.091,0,0,1,1.059.266c2.069,1.293,2.315,6.686,2.3,9.476C593.257,1013.149,593.217,1013.821,593.217,1013.821Z" transform="translate(-581.345 -928.416)" fill="#ffb27d"/>
      <path id="Path_2877" data-name="Path 2877" d="M832.652,1409.36l-1.945,8.027s-56.273-29.065-63.551-34.646c-2.924-2.243-6.787-14.422-10.366-28.2,4.8.987,15.175,1.511,28.268-7.213-.921,11.174-1.584,20.207,2.607,22.548,8.174,4.561,32.16,25.577,39.751,40.035Z" transform="translate(-698.6 -1158.948)" fill="#2b478b"/>
      <path id="Path_2878" data-name="Path 2878" d="M986.087,1521.479a.44.44,0,0,1-.05-.011,3.512,3.512,0,0,1-2.177-2.286c-.506-1.212-.658-2.207-1.121-3.406l-1.9-3.279c-1.987-2.617-2.684-2-2.684-2s-.52.666-1.287,1.545c-1.268,1.45-3.212,3.472-4.588,3.991a4,4,0,0,0-1.966,1.539,3.785,3.785,0,0,0-.586,1.348s4.08.711,3.725,2.722c-.692,3.891-.529,4.6-.458,4.727l.025.027s6.959,3.642,9.184,4.357c3.96,1.268,6.029,3.96,7.312,5.19a2.293,2.293,0,0,0,1.948.614c1.044-.165,2.4-.5,2.7-1.14Z" transform="translate(-840.91 -1267.952)" fill="#f99746"/>
      <path id="Path_2879" data-name="Path 2879" d="M705.3,1397.525c5.428,7.118,0,63.6,0,63.6l-6.179,6.364s-10.74-55.767-13.653-64.505c-1.325-3.972-3.255-20.939-4.959-38.259,5.148,2.3,17.709,7.3,28.031,6.619-1.318,5.476-2.545,10.556-3.317,14.8C704.22,1391.682,703.983,1395.8,705.3,1397.525Z" transform="translate(-647.619 -1170.576)" fill="#233862"/>
      <path id="Path_2880" data-name="Path 2880" d="M721.854,1660.342l-3.333,1.8c-1.212.429-2.211.552-3.437,1.022a7.111,7.111,0,0,0-3.235,2.368c-.941,3.823-2.275,3.58-2.275,3.58l-13.392.125c-.631-.316.439-3.018.952-3.523,1.266-1.248,5.055-.62,6.437-4.542.779-2.2,4.622-9.055,4.622-9.055l.027-.023c.129-.067.842-.21,4.712.594,2,.414,2.828-3.644,2.828-3.644a3.783,3.783,0,0,1,1.331.624,4,4,0,0,1,1.481,2.009c.479,1.391,2.444,3.393,3.857,4.7.856.792,1.507,1.331,1.507,1.331S724.528,1658.431,721.854,1660.342Z" transform="translate(-657.964 -1360.595)" fill="#f99746"/>
    </g>
    <rect id="Rectangle_214" data-name="Rectangle 214" width="960" height="2.484" rx="1.242" transform="translate(129.724 730.352)" fill="#233862"/>
    <g id="Group_1938" data-name="Group 1938" transform="translate(285.94 296.686)">
      <path id="Path_2881" data-name="Path 2881" d="M670.191,415.062a25.479,25.479,0,0,1,3.515,7.826c5.5,19.69-2.924,52.952-2.924,52.952s-45.232-4.447-56.978-21.168c-8.88-12.642-9.276-28.542-2.209-40.275a32.291,32.291,0,0,1,9.135-9.807C636.3,393.652,658.445,398.341,670.191,415.062Z" transform="translate(-606.68 -398.684)" fill="#86d1cd"/>
      <path id="Path_2882" data-name="Path 2882" d="M799.946,628.257s2.537,4.977,4.468,4.073,3.358-4.388,2.481-5.349S799.946,628.257,799.946,628.257Z" transform="translate(-735.845 -551.1)" fill="#86d1cd"/>
      <path id="Path_2883" data-name="Path 2883" d="M798.858,629.351l-.919.645a.439.439,0,0,1-.609-.107h0a.439.439,0,0,1,.106-.61l.918-.645a.438.438,0,0,1,.609.107h0A.439.439,0,0,1,798.858,629.351Z" transform="translate(-734.043 -552.313)" fill="#f99746"/>
      <g id="Group_1937" data-name="Group 1937" transform="translate(63.393 77.327)">
        <path id="Path_2884" data-name="Path 2884" d="M838.884,676.624a4.807,4.807,0,0,0-1.33-1.651,1.3,1.3,0,0,0-1.168-.25c.075-.177,7.508-17.768,4.576-25.277-1.59-4.073-12.325-.526-20.951,2.324-7.608,2.514-13.64,5.68-15.783,3.06-1.989-2.432,1.1-8.388,3.185-13.167,1.23-2.813,2.623-6,2.03-6.634-.723-.768-3.145.586-5.091,1.674-2.435,1.361-4.537,2.536-5.564,1.528-1.842-1.808-.534-6.218-.477-6.4l.214.065c-.013.042-.74,4.317.782,5.811.631.62,2.878-.636,4.683-1.645,2.506-1.4,5.493-3.246,6.611-2.056.885.941-.71,3.84-2.51,7.96-1.906,4.362-4.277,9.79-2.618,11.923,1.182,1.52,7.854-.684,14.3-2.816,9.846-3.254,20.9-7.335,22.742-2.608,1.283,3.286.887,8.824-.532,16.575A92.484,92.484,0,0,1,838.884,676.624Z" transform="translate(-797.809 -631.825)" fill="#f99746"/>
      </g>
      <path id="Path_2885" data-name="Path 2885" d="M675.3,415.062a25.474,25.474,0,0,1,3.515,7.826c-.057,13.709-10.926,24.376-32.434,26-44.536,3.364-29.675-34.489-29.675-34.489v0a32.294,32.294,0,0,1,9.135-9.807C641.411,393.652,663.555,398.341,675.3,415.062Z" transform="translate(-611.79 -398.684)" fill="#abddda"/>
      <path id="Path_2886" data-name="Path 2886" d="M703.923,415.6c-.26,2.038-6.637,5.227-11.5,4.607s-7.308-4.235-7.313-6.29c-.01-3.934,5.766-4.771,10.625-4.151S704.183,413.564,703.923,415.6Z" transform="translate(-659.1 -405.968)" fill="#c5efeb"/>
    </g>
    <g id="Group_1940" data-name="Group 1940" transform="translate(586.606 246.066)">
      <path id="Path_2887" data-name="Path 2887" d="M1610.063,286.422a31.847,31.847,0,0,1-.586,10.7c-5.187,25.008-33.607,57.1-33.607,57.1s-47.654-30.871-51.1-56.165c-2.608-19.123,6.071-37,20.642-45.969a40.339,40.339,0,0,1,15.762-5.648C1584.724,243.227,1606.614,261.128,1610.063,286.422Z" transform="translate(-1524.304 -246.066)" fill="#ed7d2b"/>
      <path id="Path_2888" data-name="Path 2888" d="M1679.77,572.153s-.038,6.979,2.624,7.083,6.243-2.945,5.821-4.514S1679.77,572.153,1679.77,572.153Z" transform="translate(-1628.205 -463.998)" fill="#ed7d2b"/>
      <path id="Path_2889" data-name="Path 2889" d="M1678.311,570.8l-1.39.19a.549.549,0,0,1-.616-.468h0a.549.549,0,0,1,.469-.615l1.389-.19a.549.549,0,0,1,.616.468h0A.548.548,0,0,1,1678.311,570.8Z" transform="translate(-1625.887 -462.363)" fill="#1c468a"/>
      <g id="Group_1939" data-name="Group 1939" transform="translate(44.548 108.226)">
        <path id="Path_2890" data-name="Path 2890" d="M1684.651,645.355a5.991,5.991,0,0,0-.529-2.595,1.62,1.62,0,0,0-1.153-.947c.185-.153,18.521-15.416,19.573-25.432.57-5.433-13.379-7.65-24.587-9.433-9.887-1.572-18.4-1.517-19.273-5.654-.813-3.841,6.028-8.681,11.084-12.788,2.978-2.418,6.354-5.159,6.057-6.2-.361-1.267-3.825-1.153-6.609-1.062-3.483.115-6.49.214-7.051-1.494-1.008-3.063,2.972-7.208,3.142-7.383l.2.195c-.038.039-3.3,4.367-2.464,6.9.345,1.05,3.558.944,6.141.859,3.585-.118,7.958-.453,8.517,1.51.442,1.552-2.989,3.855-7.35,7.4-4.616,3.749-10.361,8.414-9.742,11.732.441,2.365,9.109,3.744,17.492,5.077,12.795,2.035,27.4,3.84,26.737,10.145-.46,4.383-4.075,10.3-10.1,18.093A115.6,115.6,0,0,1,1684.651,645.355Z" transform="translate(-1658.616 -572.367)" fill="#1c468a"/>
      </g>
      <path id="Path_2891" data-name="Path 2891" d="M1625.059,286.422a31.848,31.848,0,0,1-.587,10.7c-7.925,15.184-26.1,20.792-50.908,10.262-51.362-21.8-13.161-55.3-13.161-55.3v0a40.336,40.336,0,0,1,15.762-5.648C1599.72,243.227,1621.609,261.128,1625.059,286.422Z" transform="translate(-1539.301 -246.066)" fill="#f99746"/>
      <path id="Path_2892" data-name="Path 2892" d="M1690.856,282.593c-1.457,2.113-10.363,2-15.4-1.478s-5.682-8.891-4.51-11.174c2.245-4.372,9.137-1.989,14.173,1.485S1692.313,280.481,1690.856,282.593Z" transform="translate(-1621.973 -260.439)" fill="#ffb680"/>
    </g>
    <g id="Group_1942" data-name="Group 1942" transform="translate(862.676 309.592)">
      <path id="Path_2893" data-name="Path 2893" d="M2466.8,479.507a19.045,19.045,0,0,1-4.627,4.439c-12.479,8.817-38.01,11.242-38.01,11.242s-8.23-32.958.591-45.426c6.668-9.427,17.762-13.7,27.8-11.671a24.137,24.137,0,0,1,9.2,3.967C2473.363,450.273,2475.624,467.039,2466.8,479.507Z" transform="translate(-2402.649 -437.597)" fill="#ffa412"/>
      <path id="Path_2894" data-name="Path 2894" d="M2427.156,611.236s-2.865,3.036-1.743,4.168,3.932,1.261,4.388.4S2427.156,611.236,2427.156,611.236Z" transform="translate(-2405.64 -553.644)" fill="#ffa412"/>
      <path id="Path_2895" data-name="Path 2895" d="M2430.331,610.486l-.684-.484a.327.327,0,0,1-.079-.456h0a.327.327,0,0,1,.456-.078l.685.484a.328.328,0,0,1,.078.456h0A.327.327,0,0,1,2430.331,610.486Z" transform="translate(-2408.552 -552.423)" fill="#f99746"/>
      <g id="Group_1941" data-name="Group 1941" transform="translate(0 57.49)">
        <path id="Path_2896" data-name="Path 2896" d="M2366.322,650.741a3.6,3.6,0,0,0,.829-1.351.973.973,0,0,0-.117-.885c.143.009,14.393.822,18.942-3.128,2.468-2.143-2.726-8.809-6.9-14.165-3.681-4.725-7.425-8.175-6.119-10.342,1.213-2.011,6.182-1.334,10.068-1.065,2.29.159,4.886.339,5.181-.237.359-.7-1.2-2.067-2.458-3.163-1.569-1.372-2.925-2.557-2.472-3.533.81-1.751,4.243-1.938,4.388-1.945l.009.167c-.033,0-3.226.563-3.9,2.01-.278.6,1.171,1.866,2.335,2.883,1.616,1.413,3.665,3.051,3.107,4.138-.441.859-2.882.465-6.234.233-3.549-.246-7.966-.552-9.051,1.151-.773,1.214,2.454,5.357,5.575,9.363,4.763,6.114,10.413,12.867,7.548,15.354-1.991,1.729-5.988,2.84-11.8,3.789A69.09,69.09,0,0,1,2366.322,650.741Z" transform="translate(-2366.322 -610.928)" fill="#f99746"/>
      </g>
      <path id="Path_2897" data-name="Path 2897" d="M2490.11,480.5a19.051,19.051,0,0,1-4.626,4.44c-9.665,3.4-19.9-1.569-26.45-16.3-13.555-30.507,16.825-29.552,16.825-29.552v0a24.143,24.143,0,0,1,9.2,3.967C2496.669,451.266,2498.93,468.032,2490.11,480.5Z" transform="translate(-2425.956 -438.59)" fill="#ffb93e"/>
      <path id="Path_2898" data-name="Path 2898" d="M2547.192,491.333c-1.5.329-5.346-3.36-6.13-6.935s1.147-6.208,2.591-6.727c2.767-1,4.808,2.861,5.591,6.436S2548.693,491,2547.192,491.333Z" transform="translate(-2482.985 -464.273)" fill="#ffd599"/>
    </g>
    <g id="Group_1945" data-name="Group 1945" transform="translate(865.664 444.321)">
      <path id="Path_2899" data-name="Path 2899" d="M2395.87,1091.119s-2.824-3.427-4.343-3.909-4.458-2.756-4.841-1.818,1.976,2.383,1.852,3.455-7.5,2.792-7.455,3.926a4.359,4.359,0,0,0,4.548,3.56c2.813-.314,9.948-2.008,11.413-1.276S2395.87,1091.119,2395.87,1091.119Z" transform="translate(-2381.082 -1005.114)" fill="#ffb27d"/>
      <path id="Path_2900" data-name="Path 2900" d="M2562.6,1672.737h30.478c2.184-1.481-.589-15.959-.589-15.959s-8.318-3.156-9.755,3.262-10.6,8.453-15.439,9.236C2563.976,1669.815,2562.928,1671.637,2562.6,1672.737Z" transform="translate(-2502.393 -1386.616)" fill="#233862"/>
      <path id="Path_2901" data-name="Path 2901" d="M2587.319,1256.365s1.37,17.091,2.98,37.636c2.188,27.909,8.091,97.105,8.091,97.105s3.869,3.3,12.441,1.5a270.955,270.955,0,0,0,9.477-51.117c.034-.447.068-.9.1-1.346,2.03-27.736,5.185-86.142,5.185-86.142Z" transform="translate(-2518.916 -1117.947)" fill="#6bb7bf"/>
      <path id="Path_2902" data-name="Path 2902" d="M2585.909,1243.329s1.838,23,3.447,43.543l30.01,47.483c.034-.446.067-.9.1-1.346,2.03-27.736,5.186-86.141,5.186-86.141Z" transform="translate(-2517.974 -1110.817)" fill="#599dad"/>
      <path id="Path_2903" data-name="Path 2903" d="M2639.159,959.643a13.58,13.58,0,0,0,9.376,1.263,19.436,19.436,0,0,0,6.353-2.681,18.729,18.729,0,0,0,2.563-1.93s-.112-.163-.3-.482c-.981-1.679-3.959-7.715-2.634-17.414a6.881,6.881,0,0,0-2.394.4c-4.318,1.023-13,3.485-13.385,3.594h-.016s-.105,2.04-.463,5.7c-.03.322-.062.659-.1,1.008-.045.429-.088.884-.142,1.351C2637.616,954.245,2639.159,959.643,2639.159,959.643Z" transform="translate(-2552.754 -906.997)" fill="#ffb27d"/>
      <path id="Path_2904" data-name="Path 2904" d="M2638.874,948.965c6.447,1.478,16.069-8.041,16.069-8.041a10.186,10.186,0,0,0-2.205-1.25c-4.318,1.023-13,3.485-13.385,3.595h-.016S2639.231,945.308,2638.874,948.965Z" transform="translate(-2553.371 -907.877)" fill="#ed975d"/>
      <path id="Path_2905" data-name="Path 2905" d="M2628.669,895.619a32.809,32.809,0,0,0,6.031,1.405c4.942.667,11.442.274,13.483-5.706,3.44-10.065,7.832-16.1-2.288-20.211-5.417-2.2-8.883-2.317-11.238-1.477a8.139,8.139,0,0,0-4.163,3.605C2628.53,876.315,2624.577,893.857,2628.669,895.619Z" transform="translate(-2545.358 -860.742)" fill="#ffb27d"/>
      <g id="Group_1943" data-name="Group 1943" transform="translate(76.671 126.585)">
        <path id="Path_2906" data-name="Path 2906" d="M2832.135,1620.9s2.665,5.435,2.481,8.417c-.138,2.244-1.413,4.929-2.426,7.218a5.807,5.807,0,0,1-2.648,2.867c-2,1.016-5.083,3.1-5.9,6.561h13.553s5.7-11.428,9.759-13.089c3.521-1.441,3.5-7.216-.564-9.492-1.974-1.1-5.655-7.31-5.655-7.31Z" transform="translate(-2753.525 -1486.512)" fill="#233862"/>
        <path id="Path_2907" data-name="Path 2907" d="M2612.246,1231.417s23.538,71.6,36.042,81.534,43.029,50.016,43.029,50.016,8.826-4.045,10.3-8.091c0,0-22.986-52.682-34.019-56.812-9.77-3.656-2.758-60.526-22.66-70.435C2631.8,1221.087,2612.246,1231.417,2612.246,1231.417Z" transform="translate(-2612.246 -1225.458)" fill="#6bb7bf"/>
      </g>
      <path id="Path_2908" data-name="Path 2908" d="M2613.755,857.093c5.861,4.212,13.966.071,16.486,1.192s2.968,5.34,3.014,6.68.222,2.474,3.641,1.671a1.66,1.66,0,0,1,1.241.074c1.417.841-.394,4.918-.94,5.8,0,0-.787,2.921.959,4.343.211.17,3.639,1.669,11.9-10.976a11.746,11.746,0,0,0,.533-10.761c-2-4.305-10.378-8.466-17.478-10.671a9.509,9.509,0,0,0-6.178-.231c-2.573.941-3.947,3.374-5.309,5.818C2619.342,854.139,2613.755,857.093,2613.755,857.093Z" transform="translate(-2536.584 -843.805)" fill="#a9453d"/>
      <path id="Path_2909" data-name="Path 2909" d="M2499.176,1008.191c12.928-17.368-4.063-24.707-13.407-21.376-6.462,2.3-10.381,6.228-13.882,11.545-4.145,6.294-10.61,15.124-17.811,21.327v0l0-.005-32.039,2.8-.19,6.546c.507,1.451,24.143,3.476,30.087,5.379C2451.929,1034.414,2481.781,1031.561,2499.176,1008.191Z" transform="translate(-2408.323 -938.859)" fill="#f99746"/>
      <path id="Path_2910" data-name="Path 2910" d="M2581.277,1067.137a96.677,96.677,0,0,0,28.073,4.617,70.049,70.049,0,0,0,10.724-1.144c3.587-.606,6.421-1.221,6.421-1.221,3.071-.71,6.464-2.607,6.01-6.11-1.378-10.642-.488-38.52-1.195-55.931a9.376,9.376,0,0,1,2.125-5.773s.006,0,.006-.006c.354-.387-2.866-18.011-6.4-21.306-2.041-1.905-11.518-2.881-12.239-2.727-.216-.047-.432-.1-.656-.136,0,0-10.025,5.441-17.312,1.346,0,0-10.635,2.451-13.694,5.685a28.423,28.423,0,0,0-5.382,15.462c-.162,10.465.246,22.356.246,22.359C2577.269,1033.648,2573.394,1067.137,2581.277,1067.137Z" transform="translate(-2511.622 -933.09)" fill="#f99746"/>
      <path id="Path_2911" data-name="Path 2911" d="M2654.228,977.846s-10.859,11.2-18.623,8.906c0,0-1.035-1.512,2.461-2S2645.337,984.468,2654.228,977.846Z" transform="translate(-2551.09 -933.388)" fill="#ed7d2b"/>
      <path id="Path_2912" data-name="Path 2912" d="M2682.235,1119.322c3.586-.606,6.421-1.221,6.421-1.221,3.072-.709,6.464-2.607,6.01-6.11-1.377-10.641-.488-38.52-1.195-55.931a9.37,9.37,0,0,1,2.125-5.773c-3.387,2.992-12.6,12.467-19.446,19.541C2666.647,1079.645,2665.945,1097.547,2682.235,1119.322Z" transform="translate(-2573.781 -981.802)" fill="#ed7d2b"/>
      <path id="Path_2913" data-name="Path 2913" d="M2632.032,929.364s-.212,1.3,2.818,2.343c0,0,2.544.874,3.008-.463A8.636,8.636,0,0,0,2632.032,929.364Z" transform="translate(-2548.796 -900.986)" fill="#fff"/>
      <g id="Group_1944" data-name="Group 1944" transform="translate(78.254 91.244)">
        <path id="Path_2914" data-name="Path 2914" d="M2617.946,1141.085l2.552-.381c.979-.274,1.729-.713,1.758-1.656l.149-4.979a1.842,1.842,0,0,0-1.225-1.812c-2.432-.822-4.608-2.822-4.083-5.857,0,0,1.405-7.279,1.436-7.493l9.393.282c.019.216,1.158,7.571,1.158,7.571.559,2.786-1.972,4.954-4.471,5.613a1.7,1.7,0,0,0-1.282,1.58l-.151,5.046c-.029.985.678,1.453,1.73,1.837l2.429.56c.19.006.2.238.011.232l-9.413-.282C2617.748,1141.339,2617.758,1141.171,2617.946,1141.085Z" transform="translate(-2617.018 -1118.906)" fill="#7693ce"/>
        <path id="Path_2915" data-name="Path 2915" d="M2618.4,1127.947a5.448,5.448,0,0,0,5.414,4.3c2.61.078,5.236-1.735,5.755-4.07a3.879,3.879,0,0,0,.047-1.392,9.707,9.707,0,0,0-.251-1.164c-.041-.146-1.028-6.423-1.028-6.423l-8.53-.256-1.328,6.749c-.024.107-.047.214-.062.321l-.026.116h.006c-.014.107-.034.211-.046.318A5.3,5.3,0,0,0,2618.4,1127.947Z" transform="translate(-2617.89 -1118.93)" fill="#ebf3fa"/>
        <path id="Path_2916" data-name="Path 2916" d="M2618.561,1145.954a5.449,5.449,0,0,0,5.414,4.3c2.609.078,5.236-1.735,5.755-4.07a23.126,23.126,0,0,0-6.212-.137A18.712,18.712,0,0,1,2618.561,1145.954Z" transform="translate(-2618.05 -1136.937)" fill="#c94c43"/>
        <path id="Path_2917" data-name="Path 2917" d="M2635.435,1128.506a3.843,3.843,0,0,0,.049-1.392,9.788,9.788,0,0,0-.251-1.164c-.043-.146-1.028-6.423-1.028-6.423l1.075.033s.986,6.277,1.028,6.423a9.62,9.62,0,0,1,.251,1.164,3.851,3.851,0,0,1-.047,1.392c-.52,2.335-3.146,4.147-5.756,4.07-.186-.006-.372-.022-.555-.043A5.759,5.759,0,0,0,2635.435,1128.506Z" transform="translate(-2625.829 -1119.321)" fill="#fff" opacity="0.7"/>
      </g>
      <path id="Path_2918" data-name="Path 2918" d="M2634.7,1162.05s-8.689-3.855-10.9-2.614-4.965,5.516-3.723,7.171,15.17,0,15.17,0Z" transform="translate(-2540.604 -1054.585)" fill="#ffb27d"/>
      <path id="Path_2919" data-name="Path 2919" d="M2711.5,1046.652c-14.872-52.935-31.673-60.62-31.673-60.62s-7.953,12.443-8.628,19.614c-.545,5.8,15.941,26.409,22.986,33.671h0s-33.293,4.118-34.835,4.945-4.852,4.051-3.749,8.094c0,0,40.068,1.354,46.339.873C2712.143,1052.445,2711.5,1046.652,2711.5,1046.652Z" transform="translate(-2564.401 -938.859)" fill="#f99746"/>
    </g>
    <path id="Path_2920" data-name="Path 2920" d="M1230.324,652.584l-5.958,37.909a29.138,29.138,0,0,1-6.972-1.369c-12.71-4.06-19.992-15.314-19.992-15.314Z" transform="translate(-717.625 -271.686)" fill="#f99746"/>
    <path id="Path_2921" data-name="Path 2921" d="M1217.393,689.124c-12.71-4.06-19.992-15.314-19.992-15.314l32.923-21.227S1214.171,670.016,1217.393,689.124Z" transform="translate(-717.625 -271.686)" fill="#ed7d2b"/>
    <g id="Group_1946" data-name="Group 1946" transform="translate(951.765 419.91)">
      <path id="Path_2922" data-name="Path 2922" d="M2666.273,803.039a46.543,46.543,0,0,1-6.268.574c-12.974.441-19.329-4.59-19.329-4.59l18.578-28.818Z" transform="translate(-2640.677 -770.205)" fill="#f99746"/>
      <path id="Path_2923" data-name="Path 2923" d="M2660.005,803.613c-12.974.441-19.329-4.59-19.329-4.59l18.578-28.818S2656.608,793.728,2660.005,803.613Z" transform="translate(-2640.677 -770.205)" fill="#ed7d2b"/>
    </g>
    <g id="Group_1947" data-name="Group 1947" transform="translate(277.894 467.682)">
      <path id="Path_2924" data-name="Path 2924" d="M576.455,986.373l1.681.882,18.871-38.773h0Z" transform="translate(-576.455 -937.124)" fill="#f99746"/>
      <path id="Path_2925" data-name="Path 2925" d="M636.113,928.25s3.833,1.495,5.5-1.617c0,0-1.985,3.629.629,5.2a4.4,4.4,0,0,0-5.367,2.05S639,930.35,636.113,928.25Z" transform="translate(-616.326 -922.521)" fill="#ffb93e"/>
      <path id="Path_2926" data-name="Path 2926" d="M636.943,922.127s-.337-2.562-1.6-2.679S636.533,920.974,636.943,922.127Z" transform="translate(-615.569 -917.716)" fill="#ffb93e"/>
      <path id="Path_2927" data-name="Path 2927" d="M628.895,936.961s-2.525-.544-3.063.61S627.67,936.96,628.895,936.961Z" transform="translate(-609.403 -929.338)" fill="#ffb93e"/>
      <path id="Path_2928" data-name="Path 2928" d="M655.777,935.286s3.721-.236,3.579.628S657.247,935.314,655.777,935.286Z" transform="translate(-629.468 -928.284)" fill="#ffb93e"/>
      <path id="Path_2929" data-name="Path 2929" d="M648.446,949.508s2.848,2.4,2.148,2.931S649.487,950.547,648.446,949.508Z" transform="translate(-624.569 -937.81)" fill="#ffb93e"/>
      <path id="Path_2930" data-name="Path 2930" d="M647.894,917.882s.289-4.022-.726-3.616S647.789,916.9,647.894,917.882Z" transform="translate(-623.494 -914.236)" fill="#ffb93e"/>
      <path id="Path_2931" data-name="Path 2931" d="M655.062,922.112s2.1-2.769,2.527-2.133S655.062,922.112,655.062,922.112Z" transform="translate(-628.99 -918.011)" fill="#ffb93e"/>
    </g>
    <path id="Path_2932" data-name="Path 2932" d="M589.068,1009.85c-3.045,1.853-7.723,0-7.723,0v-.221c0-2.295,4.678-7.062,8.562-7.238a2.091,2.091,0,0,1,1.059.266C591.186,1004.288,591.5,1008.437,589.068,1009.85Z" transform="translate(-301.83 -505.47)" fill="#ffb27d"/>
  </g>
</svg>
