<svg width="388" height="385" viewBox="0 0 388 385" fill="none" xmlns="http://www.w3.org/2000/svg">
<path d="M367.913 259.012C327.979 347.187 226.695 383.294 148.104 375.125C126.645 372.894 83.4692 368.407 50.3692 335.762C-13.1968 273.07 -0.517125 145.082 63.1511 70.9104C71.3504 61.3586 128.059 -2.60037 214.279 0.0819903C277.404 2.04585 320.972 38.6428 326.268 43.1993C332.957 48.9554 347.692 62.6092 360.779 84.0542C391.53 134.443 392.867 203.912 367.913 259.012Z" fill="url(#paint0_linear_85_659)"/>
<path d="M103.806 227.416C103.806 227.416 104.968 178.555 82.4633 165.478C59.9586 152.401 17.1692 144.225 15.5653 74.0651C14.6262 32.9906 13.6099 15.0321 12.9287 7.2014C12.663 4.14685 15.3774 1.68118 18.3906 2.24878C39.7045 6.26398 108.944 22.7907 123.461 70.0499C140.67 126.076 103.806 227.416 103.806 227.416Z" fill="#91B3FA"/>
<path d="M34.8742 21.7696C58.2705 42.6358 85.3239 79.5647 99.7437 116.494C101.595 122.58 107.009 135.522 109.36 158.518C111.46 177.697 110.416 197.964 107.87 211.379C107.709 212.227 106.891 212.784 106.043 212.623C104.584 212.347 104.778 210.778 104.791 210.827C107.699 187.907 106.492 159.379 99.8288 133.638C91.3156 102.031 72.3278 71.3873 52.6882 45.397L50.6672 42.8377C35.4513 23.2968 32.2481 23.1529 33.6704 21.7908C34.0063 21.4691 34.5323 21.4661 34.8742 21.7696Z" fill="#7D97F4"/>
<path d="M139.972 321.358C143.017 322.851 111.147 282.774 101.164 219.83C96.4592 190.17 96.3978 153.007 79.5019 138.686C65.4398 126.767 17.5888 134.292 1.93177 137.152C-0.024721 137.509 -0.683281 139.981 0.839545 141.26C8.34783 147.565 24.4098 162.439 28.5946 177.429C34.1108 197.187 52.895 209.754 69.7115 213.155C86.5281 216.556 95.8829 219.856 104.075 246.75C112.268 273.643 131.321 317.115 139.972 321.358Z" fill="#7D97F4"/>
<path d="M23.9523 145.5C43.928 146.337 65.3707 155.449 76.2519 172.542L77.2789 174.173C79.6511 177.997 93.0945 205.185 100.561 227.721C100.654 228.002 100.502 228.306 100.221 228.399C99.7435 228.557 99.5046 228.031 99.5501 228.078C94.3481 215.346 86.8766 199.204 80.9261 187.134C74.5447 173.962 70.079 165.041 55.523 156.497C39.322 147.295 23.8442 146.348 23.8907 146.357C23.6545 146.333 23.4823 146.122 23.5067 145.886C23.5299 145.659 23.7273 145.491 23.9523 145.5Z" fill="#91B3FA"/>
<path d="M126.31 326.63C128.117 327.583 116.132 306.955 115.213 288.781C114.293 270.607 110.193 239.589 94.5211 221.034C78.849 202.48 61.6865 200.787 40.0611 217.655C22.0401 231.711 10.7988 238.805 4.20621 240.124C2.57379 240.45 1.74068 242.293 2.53512 243.756C6.7634 251.543 18.7181 269.429 38.7903 268.17C64.3939 266.564 95.4235 249.919 104.881 263.804C114.338 277.689 113.124 285.458 113.414 292.038C113.705 298.619 114.353 320.326 126.31 326.63Z" fill="#91B3FA"/>
<path d="M47.3262 239.934C55.1699 232.415 67.9442 225.025 79.1087 226.403C93.6343 228.743 103.311 238.443 108.589 252.882C110.652 259.013 111.501 262.286 112.721 269.801C112.818 270.401 111.933 270.581 111.785 269.995C110.898 266.465 110.019 262.769 108.703 258.946C101.047 234.282 84.7034 230.96 84.0676 230.456C82.832 230.578 75.3415 224.97 57.5676 234.534C54.2487 236.341 51.0179 238.403 47.9849 240.677L47.9681 240.69C47.7486 240.855 47.4373 240.81 47.2726 240.591C47.1202 240.387 47.1473 240.105 47.3262 239.934Z" fill="#7D97F4"/>
<path d="M103.141 29.4156C94.05 30.2062 87.08 37.82 87.054 46.9456C86.8956 102.752 86.6345 295.242 90.272 363.373C90.6574 370.59 96.5747 376.261 103.803 376.339C139.551 376.723 242.38 377.43 300.757 373.696C312.916 372.919 322.377 362.848 322.363 350.665C322.292 292.094 321.356 127.374 313.333 52.0818C312.372 43.0607 305.12 36.0192 296.075 35.3144C257.086 32.2766 153.55 25.0317 103.141 29.4156Z" fill="url(#paint1_linear_85_659)"/>
<path d="M101.404 61.5706C100.702 109.308 98.703 268.11 102.192 326.721C102.702 335.287 109.357 342.051 117.574 342.337C151.405 343.516 238.158 345.798 287.592 340.358C296.493 339.379 303.297 331.663 303.534 322.321C304.77 273.605 308.11 125.7 304.719 67.7439C304.178 58.4984 297.114 51.1212 288.26 50.5246C251.629 48.0563 157.566 42.3641 115.529 45.8649C107.638 46.5219 101.526 53.306 101.404 61.5706Z" fill="url(#paint2_linear_85_659)"/>
<path d="M183.143 37.7158C183.172 39.0346 184.224 40.0998 185.542 40.1399C192.052 40.3377 210.39 40.899 218.586 41.1944C220.202 41.2526 221.437 39.774 221.096 38.1931C221.068 38.1433 220.858 36.1165 218.788 35.9727C213.244 35.5871 196.517 34.5477 185.463 35.1854C183.193 35.3163 183.069 37.8977 183.143 37.7158Z" fill="url(#paint3_linear_85_659)"/>
<path d="M193.597 35.912C193.828 35.9038 194.061 35.9554 194.29 36.0654L206.382 41.889C207.251 42.3079 208.221 42.5114 209.185 42.4773C210.15 42.4432 211.103 42.1723 211.941 41.6933L223.593 35.0336C223.813 34.9078 224.042 34.84 224.274 34.8319C224.7 34.8169 225.134 35.0057 225.434 35.3368C225.637 35.5617 225.864 35.948 225.787 36.5127L223.985 49.8123C223.721 51.7622 224.433 53.7161 225.889 55.0391L235.824 64.0632C236.437 64.6197 236.326 65.2963 236.25 65.5613C236.174 65.8262 235.91 66.4589 235.095 66.6066L221.89 69.0029C219.954 69.354 218.316 70.6348 217.507 72.4288L211.995 84.6657C211.655 85.4203 210.977 85.5244 210.702 85.5341C210.426 85.5437 209.743 85.4877 209.35 84.7587L202.991 72.9399C202.058 71.2071 200.334 70.0448 198.378 69.8307L185.037 68.3694C184.214 68.2793 183.906 67.6669 183.811 67.4078C183.717 67.1486 183.559 66.4815 184.131 65.8834L193.406 56.1827C194.766 54.7606 195.339 52.7614 194.938 50.8351L192.205 37.6951C192.089 37.1373 192.288 36.7359 192.475 36.4974C192.751 36.1459 193.17 35.927 193.597 35.912Z" fill="url(#paint4_linear_85_659)"/>
<path opacity="0.67" d="M222.165 53.0935C222.308 53.0885 222.443 53.1744 222.494 53.3154C222.931 54.5125 223.66 55.5981 224.603 56.455L228.382 59.8883C228.52 60.0136 228.531 60.2272 228.405 60.3652C228.28 60.5031 228.066 60.5134 227.928 60.3881L224.149 56.9548C223.125 56.0247 222.333 54.8461 221.86 53.5466C221.796 53.3715 221.886 53.1778 222.061 53.1138C222.096 53.1013 222.131 53.0947 222.165 53.0935Z" fill="white"/>
<path opacity="0.67" d="M214.606 42.4187C214.727 42.4144 214.846 42.476 214.911 42.5886C215.003 42.7505 214.947 42.9568 214.785 43.0494L213.225 43.9409C212.025 44.6273 210.659 45.0158 209.277 45.0645C207.895 45.1131 206.505 44.8215 205.259 44.2213C205.091 44.1405 205.02 43.9387 205.101 43.7707C205.182 43.6025 205.384 43.532 205.552 43.613C206.7 44.1658 207.98 44.4345 209.253 44.3896C210.526 44.3447 211.784 43.9868 212.89 43.3548L214.45 42.4633C214.499 42.4349 214.553 42.4205 214.606 42.4187Z" fill="white"/>
<path opacity="0.67" d="M197.989 40.3181C198.254 40.3088 198.522 40.3384 198.786 40.4089C198.966 40.4572 199.073 40.6421 199.025 40.8223C198.977 41.0024 198.792 41.1095 198.612 41.0613C197.92 40.8766 197.19 41.0663 196.659 41.5693C196.126 42.0733 195.906 42.7765 196.056 43.4986L197.472 50.308C198.047 53.0686 197.226 55.9334 195.277 57.9714L190.471 62.9984C189.912 63.5831 189.743 64.3858 190.02 65.1457C190.297 65.9058 190.943 66.4121 191.747 66.5001L198.66 67.2574C201.463 67.5643 203.934 69.2299 205.27 71.7131L208.566 77.8377C208.949 78.5501 209.661 78.9583 210.469 78.9298C211.277 78.9012 211.958 78.4441 212.291 77.7065L215.147 71.3653C216.306 68.7943 218.653 66.9588 221.428 66.4556L228.271 65.2139C228.679 65.1398 229.047 64.9548 229.336 64.6786C229.47 64.5496 229.684 64.5542 229.813 64.689C229.942 64.8238 229.937 65.0374 229.803 65.1663C229.418 65.5343 228.93 65.7807 228.391 65.8784L221.548 67.1202C218.993 67.5837 216.83 69.2744 215.763 71.6429L212.906 77.984C212.473 78.9464 211.548 79.5676 210.493 79.6047C209.438 79.6419 208.472 79.0875 207.971 78.1578L204.676 72.0333C203.445 69.7458 201.168 68.2114 198.587 67.9288L191.673 67.1715C190.624 67.0566 189.747 66.3688 189.386 65.377C189.025 64.385 189.253 63.2948 189.983 62.5318L194.789 57.5049C196.584 55.6276 197.34 52.9886 196.812 50.4456L195.395 43.6363C195.199 42.6936 195.498 41.7374 196.195 41.0787C196.696 40.6046 197.332 40.3413 197.989 40.3181Z" fill="white"/>
<path d="M132.026 58.5721C132.203 58.566 132.381 58.6054 132.556 58.6894L141.8 63.1414C142.465 63.4616 143.206 63.6171 143.944 63.5912C144.681 63.5652 145.41 63.358 146.05 62.9918L154.958 57.9005C155.127 57.8044 155.302 57.7525 155.479 57.7462C155.805 57.7348 156.136 57.8791 156.366 58.1322C156.521 58.304 156.694 58.5994 156.636 59.0311L155.258 69.1985C155.056 70.6892 155.6 72.183 156.714 73.1942L164.309 80.0932C164.777 80.5185 164.693 81.0358 164.635 81.2384C164.576 81.4411 164.374 81.9247 163.752 82.0376L153.656 83.8695C152.176 84.1379 150.924 85.1171 150.306 86.4887L146.091 95.8436C145.832 96.4205 145.313 96.5001 145.103 96.5076C144.892 96.5149 144.37 96.472 144.07 95.9148L139.208 86.8795C138.495 85.5547 137.177 84.6661 135.682 84.5026L125.482 83.3853C124.853 83.3165 124.618 82.8483 124.546 82.6501C124.473 82.4521 124.353 81.9421 124.79 81.4847L131.881 74.0687C132.92 72.9814 133.358 71.4532 133.052 69.9804L130.962 59.935C130.874 59.5087 131.026 59.2017 131.169 59.0194C131.38 58.751 131.7 58.5835 132.026 58.5721Z" fill="url(#paint5_linear_85_659)"/>
<path opacity="0.67" d="M153.867 71.7072C153.975 71.7033 154.079 71.7689 154.118 71.8769C154.452 72.7919 155.009 73.622 155.73 74.2769L158.62 76.9015C158.725 76.9974 158.733 77.1607 158.637 77.2662C158.541 77.3718 158.378 77.3796 158.273 77.2837L155.383 74.6591C154.6 73.948 153.995 73.047 153.633 72.0535C153.584 71.9196 153.654 71.7715 153.788 71.7226C153.814 71.7132 153.84 71.708 153.867 71.7072Z" fill="white"/>
<path opacity="0.67" d="M148.087 63.5465C148.18 63.5433 148.271 63.5904 148.32 63.6764C148.391 63.8002 148.348 63.9579 148.224 64.0286L147.032 64.7101C146.114 65.2347 145.07 65.5318 144.013 65.569C142.957 65.6062 141.895 65.3833 140.942 64.9244C140.813 64.8626 140.759 64.7083 140.821 64.5799C140.883 64.4514 141.037 64.3975 141.166 64.4593C142.043 64.882 143.022 65.0873 143.995 65.0531C144.969 65.0189 145.93 64.7453 146.776 64.262L147.969 63.5805C148.006 63.5589 148.047 63.5479 148.087 63.5465Z" fill="white"/>
<path opacity="0.67" d="M135.385 61.9405C135.587 61.9334 135.792 61.9561 135.994 62.01C136.131 62.0469 136.213 62.1883 136.176 62.326C136.139 62.4638 135.998 62.5456 135.86 62.5088C135.332 62.3675 134.774 62.5127 134.367 62.8971C133.96 63.2825 133.792 63.82 133.907 64.3722L134.99 69.5778C135.428 71.6883 134.801 73.8784 133.311 75.4366L129.637 79.2796C129.21 79.7265 129.081 80.3401 129.292 80.9212C129.504 81.5023 129.997 81.8894 130.612 81.9567L135.897 82.5357C138.04 82.7702 139.929 84.0436 140.951 85.9421L143.47 90.6242C143.763 91.1687 144.307 91.4808 144.925 91.4591C145.543 91.4373 146.064 91.0878 146.318 90.5239L148.501 85.6762C149.387 83.7107 151.182 82.3075 153.303 81.9228L158.534 80.9734C158.846 80.9168 159.128 80.7753 159.348 80.564C159.451 80.4654 159.615 80.469 159.713 80.5721C159.812 80.675 159.808 80.8385 159.705 80.9369C159.411 81.2183 159.038 81.4066 158.626 81.4814L153.395 82.4307C151.441 82.7851 149.788 84.0776 148.972 85.8883L146.788 90.7359C146.457 91.4718 145.75 91.9466 144.943 91.975C144.137 92.0034 143.398 91.5795 143.016 90.8687L140.496 86.1866C139.555 84.4379 137.815 83.2649 135.841 83.0488L130.556 82.4698C129.753 82.3819 129.083 81.8563 128.807 81.098C128.531 80.3396 128.706 79.5062 129.264 78.9229L132.938 75.0798C134.31 73.6446 134.888 71.6271 134.484 69.6831L133.401 64.4775C133.251 63.7568 133.48 63.0257 134.012 62.5221C134.396 62.1595 134.882 61.9583 135.385 61.9405Z" fill="white"/>
<path d="M107.173 105.432C107.283 105.428 107.395 105.453 107.504 105.505L113.289 108.291C113.705 108.492 114.169 108.589 114.63 108.573C115.092 108.557 115.548 108.427 115.948 108.198L121.523 105.012C121.628 104.951 121.738 104.919 121.849 104.915C122.053 104.908 122.26 104.998 122.403 105.157C122.501 105.264 122.609 105.449 122.572 105.719L121.711 112.082C121.584 113.015 121.925 113.949 122.621 114.582L127.374 118.899C127.667 119.166 127.615 119.489 127.578 119.616C127.542 119.743 127.415 120.045 127.026 120.116L120.708 121.263C119.782 121.431 118.998 122.043 118.612 122.901L115.974 128.756C115.812 129.117 115.488 129.166 115.356 129.171C115.224 129.176 114.897 129.149 114.71 128.8L111.667 123.146C111.221 122.317 110.396 121.761 109.46 121.658L103.078 120.959C102.684 120.916 102.537 120.623 102.492 120.499C102.447 120.375 102.371 120.056 102.645 119.77L107.082 115.129C107.732 114.449 108.006 113.493 107.815 112.571L106.507 106.285C106.452 106.018 106.547 105.826 106.636 105.712C106.768 105.544 106.968 105.439 107.173 105.432Z" fill="url(#paint6_linear_85_659)"/>
<path opacity="0.67" d="M120.84 113.651C120.908 113.649 120.973 113.69 120.997 113.758C121.206 114.33 121.554 114.85 122.006 115.26L123.814 116.902C123.88 116.962 123.885 117.064 123.825 117.13C123.765 117.196 123.663 117.201 123.597 117.141L121.788 115.499C121.299 115.054 120.92 114.49 120.693 113.868C120.663 113.784 120.706 113.692 120.79 113.661C120.806 113.655 120.823 113.652 120.84 113.651Z" fill="white"/>
<path opacity="0.67" d="M117.223 108.545C117.281 108.543 117.338 108.572 117.369 108.626C117.413 108.704 117.387 108.802 117.309 108.846L116.563 109.273C115.988 109.601 115.335 109.787 114.674 109.81C114.013 109.834 113.348 109.694 112.752 109.407C112.671 109.368 112.638 109.272 112.676 109.191C112.715 109.111 112.811 109.077 112.892 109.116C113.441 109.38 114.053 109.509 114.662 109.487C115.271 109.466 115.873 109.295 116.403 108.992L117.149 108.566C117.172 108.553 117.198 108.546 117.223 108.545Z" fill="white"/>
<path opacity="0.67" d="M109.274 107.54C109.401 107.536 109.529 107.55 109.655 107.584C109.741 107.607 109.792 107.695 109.769 107.781C109.746 107.868 109.658 107.919 109.572 107.896C109.241 107.807 108.892 107.898 108.637 108.139C108.382 108.38 108.277 108.716 108.349 109.062L109.027 112.319C109.301 113.64 108.909 115.011 107.976 115.985L105.677 118.39C105.41 118.67 105.329 119.054 105.462 119.418C105.594 119.781 105.903 120.023 106.287 120.066L109.595 120.428C110.936 120.575 112.118 121.371 112.757 122.559L114.334 125.489C114.517 125.83 114.858 126.025 115.244 126.012C115.631 125.998 115.957 125.779 116.116 125.426L117.482 122.393C118.036 121.163 119.16 120.285 120.487 120.044L123.761 119.45C123.956 119.414 124.132 119.326 124.27 119.194C124.334 119.132 124.436 119.134 124.498 119.199C124.56 119.263 124.558 119.366 124.493 119.427C124.31 119.603 124.076 119.721 123.818 119.768L120.544 120.362C119.322 120.584 118.287 121.393 117.777 122.526L116.41 125.559C116.203 126.02 115.76 126.317 115.256 126.335C114.751 126.352 114.289 126.087 114.049 125.642L112.473 122.712C111.884 121.618 110.795 120.884 109.56 120.749L106.252 120.387C105.75 120.331 105.331 120.003 105.158 119.528C104.985 119.054 105.095 118.532 105.444 118.167L107.743 115.762C108.602 114.864 108.964 113.601 108.711 112.385L108.033 109.127C107.939 108.676 108.082 108.219 108.416 107.904C108.655 107.677 108.96 107.551 109.274 107.54Z" fill="white"/>
<path d="M284.947 65.6189C284.77 65.6181 284.593 65.6628 284.421 65.7523L275.317 70.484C274.662 70.8244 273.926 71.0024 273.188 70.9989C272.45 70.9954 271.716 70.8105 271.064 70.4641L262.005 65.6467C261.834 65.5557 261.657 65.5093 261.48 65.5083C261.154 65.5068 260.827 65.6612 260.605 65.9213C260.455 66.0977 260.291 66.3983 260.363 66.8281L262.05 76.9488C262.297 78.4325 261.798 79.9421 260.716 80.9871L253.336 88.1144C252.88 88.5539 252.981 89.0682 253.045 89.2691C253.109 89.4699 253.326 89.9471 253.952 90.041L264.098 91.5642C265.586 91.7873 266.867 92.7278 267.527 94.08L272.025 103.302C272.302 103.871 272.822 103.934 273.033 103.936C273.244 103.936 273.765 103.878 274.047 103.312L278.631 94.1321C279.304 92.7862 280.594 91.858 282.084 91.6488L292.244 90.2211C292.871 90.1331 293.092 89.6578 293.158 89.4578C293.224 89.2577 293.329 88.7442 292.878 88.3004L285.565 81.1039C284.492 80.0489 284.008 78.5346 284.269 77.0532L286.051 66.9488C286.127 66.5199 285.966 66.2178 285.817 66.0399C285.598 65.7779 285.273 65.6204 284.947 65.6189Z" fill="url(#paint7_linear_85_659)"/>
<path opacity="0.67" d="M263.517 79.4138C263.408 79.4133 263.307 79.4821 263.271 79.591C262.965 80.5158 262.433 81.3624 261.732 82.0392L258.925 84.7507C258.822 84.8496 258.819 85.0131 258.918 85.1157C259.017 85.2182 259.181 85.2211 259.283 85.1221L262.091 82.4105C262.852 81.6759 263.429 80.7568 263.761 79.7528C263.805 79.6174 263.732 79.4715 263.596 79.4268C263.57 79.4181 263.543 79.4138 263.517 79.4138Z" fill="white"/>
<path opacity="0.67" d="M269.045 71.0806C268.952 71.0802 268.862 71.1299 268.816 71.2176C268.749 71.3433 268.797 71.4998 268.923 71.5667L270.135 72.2116C271.069 72.708 272.121 72.9731 273.179 72.9779C274.236 72.9828 275.291 72.7277 276.23 72.2401C276.356 72.1743 276.405 72.0184 276.34 71.892C276.274 71.7654 276.118 71.7162 275.992 71.782C275.127 72.2312 274.155 72.4663 273.181 72.4617C272.207 72.4571 271.238 72.213 270.378 71.7557L269.165 71.1107C269.127 71.0904 269.086 71.0807 269.045 71.0806Z" fill="white"/>
<path opacity="0.67" d="M281.693 69.0882C281.49 69.0873 281.286 69.1162 281.086 69.1762C280.95 69.2172 280.872 69.3612 280.913 69.4976C280.954 69.6342 281.098 69.7117 281.235 69.6706C281.758 69.5135 282.321 69.6414 282.738 70.0132C283.158 70.3859 283.342 70.9181 283.244 71.4736L282.32 76.7098C281.946 78.8326 282.64 81.0026 284.176 82.5145L287.966 86.2438C288.407 86.6774 288.555 87.287 288.361 87.874C288.167 88.4614 287.686 88.8632 287.073 88.9491L281.808 89.6889C279.673 89.9887 277.824 91.3193 276.861 93.2478L274.485 98.0046C274.209 98.5579 273.675 98.8864 273.057 98.8835C272.438 98.8805 271.907 98.547 271.636 97.9913L269.306 93.2123C268.36 91.2748 266.524 89.9269 264.392 89.6072L259.134 88.8178C258.82 88.7708 258.535 88.6379 258.308 88.4336C258.202 88.3382 258.039 88.3466 257.943 88.4526C257.848 88.5585 257.856 88.7217 257.962 88.8172C258.265 89.0895 258.643 89.2663 259.057 89.3284L264.315 90.1177C266.279 90.4125 267.971 91.6539 268.842 93.4389L271.172 98.2178C271.526 98.9431 272.247 99.3961 273.054 99.4C273.861 99.4038 274.587 98.9576 274.947 98.2356L277.323 93.4788C278.21 91.7023 279.914 90.4767 281.88 90.2005L287.145 89.4605C287.944 89.3483 288.598 88.8024 288.851 88.0361C289.104 87.2696 288.904 86.4419 288.329 85.8758L284.539 82.1466C283.123 80.7539 282.484 78.755 282.829 76.7995L283.753 71.5633C283.88 70.8384 283.63 70.1146 283.082 69.6275C282.687 69.277 282.195 69.0907 281.693 69.0882Z" fill="white"/>
<path d="M307.267 102.381C307.156 102.38 307.046 102.409 306.938 102.464L301.241 105.426C300.831 105.638 300.371 105.75 299.909 105.748C299.447 105.746 298.988 105.63 298.58 105.413L292.911 102.399C292.804 102.342 292.693 102.312 292.583 102.312C292.378 102.311 292.174 102.408 292.035 102.57C291.941 102.681 291.839 102.869 291.883 103.138L292.939 109.471C293.094 110.4 292.782 111.344 292.105 111.998L287.486 116.458C287.201 116.733 287.264 117.055 287.304 117.181C287.344 117.306 287.48 117.605 287.871 117.664L294.221 118.617C295.152 118.757 295.954 119.345 296.366 120.191L299.181 125.962C299.354 126.318 299.68 126.358 299.812 126.359C299.944 126.359 300.27 126.322 300.446 125.968L303.315 120.224C303.736 119.382 304.543 118.801 305.475 118.67L311.833 117.777C312.226 117.721 312.364 117.424 312.405 117.299C312.447 117.174 312.513 116.852 312.23 116.574L307.654 112.071C306.983 111.411 306.68 110.464 306.843 109.537L307.958 103.214C308.006 102.945 307.905 102.756 307.812 102.645C307.675 102.48 307.472 102.382 307.267 102.381Z" fill="url(#paint8_linear_85_659)"/>
<path opacity="0.67" d="M293.857 111.013C293.789 111.013 293.726 111.056 293.703 111.124C293.512 111.703 293.179 112.233 292.741 112.656L290.983 114.353C290.919 114.415 290.917 114.517 290.979 114.582C291.041 114.646 291.144 114.648 291.208 114.586L292.965 112.889C293.441 112.429 293.803 111.854 294.01 111.226C294.038 111.141 293.992 111.05 293.907 111.022C293.89 111.016 293.874 111.013 293.857 111.013Z" fill="white"/>
<path opacity="0.67" d="M297.316 105.799C297.258 105.798 297.202 105.829 297.173 105.884C297.131 105.963 297.161 106.061 297.239 106.103L297.998 106.506C298.583 106.817 299.241 106.983 299.903 106.986C300.564 106.989 301.225 106.829 301.812 106.524C301.891 106.483 301.922 106.385 301.881 106.306C301.84 106.227 301.742 106.196 301.663 106.237C301.122 106.518 300.514 106.666 299.904 106.663C299.295 106.66 298.688 106.507 298.15 106.221L297.391 105.817C297.367 105.805 297.342 105.799 297.316 105.799Z" fill="white"/>
<path opacity="0.67" d="M305.231 104.552C305.104 104.551 304.977 104.57 304.851 104.607C304.766 104.633 304.717 104.723 304.743 104.808C304.769 104.894 304.859 104.942 304.944 104.916C305.272 104.818 305.624 104.898 305.885 105.131C306.148 105.364 306.263 105.697 306.202 106.045L305.624 109.321C305.39 110.65 305.824 112.008 306.785 112.954L309.157 115.287C309.433 115.559 309.525 115.94 309.404 116.308C309.282 116.675 308.981 116.927 308.598 116.98L305.303 117.443C303.968 117.631 302.81 118.464 302.207 119.67L300.721 122.647C300.548 122.993 300.214 123.199 299.827 123.197C299.44 123.195 299.107 122.987 298.938 122.639L297.479 119.648C296.888 118.436 295.738 117.592 294.405 117.392L291.114 116.898C290.918 116.869 290.739 116.786 290.597 116.658C290.531 116.598 290.429 116.603 290.369 116.67C290.309 116.736 290.315 116.838 290.381 116.898C290.57 117.068 290.807 117.179 291.066 117.218L294.357 117.712C295.586 117.896 296.644 118.673 297.189 119.79L298.647 122.78C298.869 123.234 299.32 123.518 299.825 123.52C300.33 123.522 300.784 123.243 301.01 122.791L302.496 119.815C303.051 118.703 304.117 117.936 305.348 117.763L308.643 117.3C309.143 117.23 309.552 116.888 309.71 116.409C309.869 115.929 309.743 115.411 309.383 115.057L307.012 112.723C306.126 111.852 305.726 110.601 305.942 109.377L306.52 106.1C306.6 105.647 306.443 105.194 306.1 104.889C305.854 104.67 305.545 104.554 305.231 104.552Z" fill="white"/>
<path d="M290.986 316.219H114.028C112.669 316.219 111.567 315.117 111.567 313.758V141.902C111.567 140.543 112.669 139.441 114.028 139.441H290.986C292.345 139.441 293.447 140.543 293.447 141.902V313.758C293.447 315.117 292.345 316.219 290.986 316.219Z" fill="#7D97F4"/>
<path d="M248.295 158.778H165.437C164.959 158.778 164.571 158.39 164.571 157.912V148.832C164.571 148.354 164.958 147.966 165.437 147.966H248.295C248.773 147.966 249.161 148.354 249.161 148.832V157.912C249.161 158.39 248.773 158.778 248.295 158.778Z" fill="#BDD0FB"/>
<path d="M284.463 181.019H122.94C122.461 181.019 122.074 180.632 122.074 180.153V172C122.074 171.522 122.461 171.134 122.94 171.134H284.463C284.942 171.134 285.329 171.522 285.329 172V180.153C285.329 180.632 284.941 181.019 284.463 181.019Z" fill="#BDD0FB"/>
<path d="M225.027 203.26H122.434C121.956 203.26 121.568 202.873 121.568 202.394V194.241C121.568 193.763 121.956 193.375 122.434 193.375H225.027C225.506 193.375 225.893 193.763 225.893 194.241V202.394C225.893 202.873 225.506 203.26 225.027 203.26Z" fill="#BDD0FB"/>
<path d="M279.753 225.831H123.193C122.715 225.831 122.327 225.444 122.327 224.966V216.812C122.327 216.334 122.715 215.947 123.193 215.947H279.753C280.231 215.947 280.619 216.334 280.619 216.812V224.966C280.619 225.444 280.231 225.831 279.753 225.831Z" fill="#BDD0FB"/>
<path d="M252.123 248.073H122.687C122.209 248.073 121.821 247.685 121.821 247.207V239.054C121.821 238.576 122.209 238.188 122.687 238.188H252.123C252.601 238.188 252.989 238.575 252.989 239.054V247.207C252.988 247.685 252.601 248.073 252.123 248.073Z" fill="#BDD0FB"/>
<path d="M284.969 271.864H123.446C122.967 271.864 122.58 271.476 122.58 270.998V262.844C122.58 262.366 122.967 261.979 123.446 261.979H284.969C285.447 261.979 285.835 262.366 285.835 262.844V270.998C285.835 271.476 285.447 271.864 284.969 271.864Z" fill="#BDD0FB"/>
<path d="M217.663 294.105H122.94C122.461 294.105 122.074 293.717 122.074 293.239V285.086C122.074 284.607 122.461 284.22 122.94 284.22H217.663C218.141 284.22 218.529 284.607 218.529 285.086V293.239C218.529 293.717 218.141 294.105 217.663 294.105Z" fill="#BDD0FB"/>
<path d="M300.21 381.8C304.349 382.158 311.534 382.74 317.198 382.989C320.603 383.139 322.563 382.805 323.692 382.353C323.69 382.481 323.687 382.601 323.682 382.712C323.655 383.308 323.171 383.785 322.568 383.819C311.866 384.416 303.354 384.026 300.324 383.841C299.697 383.803 299.324 383.122 299.644 382.588C299.805 382.321 299.999 382.059 300.21 381.8Z" fill="url(#paint9_linear_85_659)"/>
<path d="M317.198 382.989C311.534 382.739 304.349 382.158 300.209 381.8C304.279 376.807 317.198 373.441 317.198 373.441H320.846C323.356 377.058 323.719 380.502 323.692 382.353C322.563 382.805 320.603 383.138 317.198 382.989Z" fill="url(#paint10_linear_85_659)"/>
<path d="M321.461 367.485L321.119 374.241C321.082 374.973 320.535 375.588 319.802 375.693C319.073 375.797 318.097 375.81 317.061 375.465C316.424 375.254 315.952 374.717 315.834 374.062L314.654 367.485H321.461Z" fill="url(#paint11_linear_85_659)"/>
<path d="M368.851 382.938C370.646 382.688 371.458 381.755 371.799 380.758C371.801 380.767 371.803 380.776 371.806 380.785C372.07 381.836 371.457 382.926 370.233 383.445C368.754 384.071 367.136 384.178 365.88 384.126C364.533 384.071 363.296 383.513 362.616 382.621L362.606 382.607C363.959 383.277 365.857 383.356 368.851 382.938Z" fill="url(#paint12_linear_85_659)"/>
<path d="M360.387 367.441H363.396C367.979 367.348 370.857 377.014 371.799 380.758C371.459 381.755 370.646 382.688 368.851 382.938C365.857 383.356 363.959 383.277 362.606 382.607C360.13 379.349 358.903 374.577 358.313 371.792C357.641 368.625 360.387 367.441 360.387 367.441Z" fill="url(#paint13_linear_85_659)"/>
<path d="M363.009 361.17L364.68 367.816C364.885 368.63 364.495 369.473 363.741 369.86C362.807 370.339 361.491 370.843 360.281 370.697C359.713 370.629 359.24 370.228 359.052 369.693L356.599 362.701L363.009 361.17Z" fill="url(#paint14_linear_85_659)"/>
<path d="M365.002 363.091C362.923 364.935 356.161 365.179 356.161 365.179C331.806 306.723 321.843 298.419 321.843 298.419C325.36 320.482 322.41 369.329 322.41 369.329C318.391 371.103 313.209 369.329 313.209 369.329C312.883 333.207 307.331 301.706 300.772 276.871C317.233 276.501 325.987 270.868 328.846 268.607C342.568 290.729 365.002 363.091 365.002 363.091Z" fill="url(#paint15_linear_85_659)"/>
<path d="M324.665 201.383C327.781 216.925 326.664 244.741 325.931 257.429C325.725 260.995 328.214 265.939 330.226 269.312C330.542 269.841 330.347 270.518 329.799 270.8C326.43 272.531 315.017 277.897 301.79 278.565C300.908 278.609 300.121 278.009 299.892 277.156C290.08 240.52 278.684 217.11 278.684 217.11C291.266 197.017 324.665 201.383 324.665 201.383Z" fill="url(#paint16_linear_85_659)"/>
<path d="M320.181 297.034C320.319 297.034 320.46 296.997 320.586 296.92C320.954 296.696 321.07 296.216 320.847 295.849C320.716 295.634 317.565 290.541 311.19 287.466C310.803 287.28 310.336 287.441 310.148 287.829C309.961 288.217 310.124 288.684 310.512 288.87C316.455 291.738 319.485 296.612 319.515 296.661C319.662 296.901 319.918 297.034 320.181 297.034Z" fill="url(#paint17_linear_85_659)"/>
<path d="M344.209 245.987C343.208 253.227 340.251 261.124 334.336 269.513L332.087 267.68C332.087 267.68 334.683 257.148 333.207 245.196C336.856 244.484 341.166 245.217 344.209 245.987Z" fill="url(#paint18_linear_85_659)"/>
<path d="M321.185 220.559L324.665 201.383C324.665 201.383 347.917 219.157 344.209 245.987C341.166 245.217 336.856 244.484 333.207 245.196C332.144 236.585 328.969 227.238 321.185 220.559Z" fill="url(#paint19_linear_85_659)"/>
<path d="M278.684 217.11L287.66 236.44C286.208 248.109 279.939 253.155 273.18 255.091C272.758 249.772 271.414 245.475 270.166 242.503C278.802 233.586 278.684 217.11 278.684 217.11Z" fill="url(#paint20_linear_85_659)"/>
<path d="M270.165 242.503C271.413 245.475 272.758 249.772 273.18 255.091C255.145 262.088 250.374 248.518 250.374 248.518L253.707 247.93C261.234 248.723 266.491 246.297 270.165 242.503Z" fill="url(#paint21_linear_85_659)"/>
<path d="M286.954 193.246L291.287 209.174C291.773 210.964 293.709 211.925 295.431 211.236C297.289 210.493 299.647 209.479 301.676 208.384C303.842 207.214 304.52 204.427 303.149 202.383L294.14 188.95L286.954 193.246Z" fill="url(#paint22_linear_85_659)"/>
<path d="M277.474 181.144C277.435 181.417 281.088 199.321 281.088 199.321L291.266 197.017L290.325 179.534C290.325 179.534 278.135 176.564 277.474 181.144Z" fill="url(#paint23_linear_85_659)"/>
<path d="M288.036 183.43L289.252 192.595C289.268 192.712 289.267 192.828 289.251 192.946C289.148 193.664 288.614 196.11 286.145 195.41C283.905 194.776 281.851 194.23 280.432 194.664C279.795 194.859 279.41 195.504 279.544 196.157C279.876 197.783 280.693 201.435 281.886 204.499C282.129 205.121 282.81 205.447 283.45 205.26C285.381 204.698 289.419 203.397 292.422 201.589C292.829 201.344 293.072 200.902 293.052 200.427C292.954 198.114 292.684 191.081 292.911 189.109C293.125 187.259 295.396 186.15 296.383 185.753C296.706 185.622 296.96 185.368 297.089 185.044C297.546 183.899 298.176 181.249 294.837 180.163C294.138 179.936 293.77 179.183 294.018 178.491C294.513 177.114 294.721 175.013 292.138 173.856C289.512 172.679 287.552 174.079 286.493 175.216C286.065 175.676 285.378 175.746 284.847 175.41C284.544 175.219 284.155 175.157 283.684 175.45C283.05 175.845 282.21 175.576 281.883 174.904C281.254 173.613 279.973 172.231 277.402 172.671C272.841 173.452 272.325 178.507 273.528 181.468C274.731 184.43 279.628 183.302 282.085 181.809C283.952 180.674 286.375 181.864 287.429 182.499C287.763 182.7 287.984 183.043 288.036 183.43Z" fill="url(#paint24_linear_85_659)"/>
<path d="M293.321 192.45C293.321 192.45 291.446 187.2 293.373 185.914C295.299 184.628 298.152 185.296 297.524 189.099C296.743 193.831 293.321 192.45 293.321 192.45Z" fill="url(#paint25_linear_85_659)"/>
<path d="M251.711 251.001C250.803 251.71 247.693 250.229 245.79 249.206C244.863 248.707 244.414 247.622 244.732 246.618C245.19 245.174 245.953 243.31 246.893 243.075C248.453 242.685 255.452 248.078 251.711 251.001Z" fill="url(#paint26_linear_85_659)"/>
<path d="M382.174 285.054L197.896 229.353L189.594 256.441L373.896 313.945C377.811 315.166 382.028 313.399 383.919 309.76C385.861 306.023 387.61 300.244 387.322 291.73C387.217 288.635 385.139 285.95 382.174 285.054Z" fill="url(#paint27_linear_85_659)"/>
<path d="M141.514 225.173L166.688 227.04C166.828 230.485 165.915 234.996 162.343 240.292L140.779 227.513C139.634 226.834 140.187 225.075 141.514 225.173Z" fill="url(#paint28_linear_85_659)"/>
<path d="M197.895 229.353C199.846 245.984 189.593 256.441 189.593 256.441L162.343 240.292C165.915 234.996 166.828 230.485 166.688 227.04L197.895 229.353Z" fill="url(#paint29_linear_85_659)"/>
<path d="M380.32 293.327C380.539 293.317 380.738 293.171 380.804 292.948C380.889 292.666 380.729 292.369 380.447 292.284L204.161 239.382C203.878 239.298 203.581 239.458 203.497 239.74C203.412 240.021 203.573 240.319 203.854 240.403L380.141 293.305C380.201 293.323 380.261 293.33 380.32 293.327Z" fill="url(#paint30_linear_85_659)"/>
<path d="M377.833 303.917C378.052 303.907 378.251 303.761 378.317 303.538C378.402 303.256 378.242 302.959 377.96 302.874L201.674 249.972C201.391 249.888 201.095 250.047 201.011 250.329C200.926 250.611 201.086 250.908 201.368 250.993L377.654 303.895C377.714 303.913 377.774 303.92 377.833 303.917Z" fill="url(#paint31_linear_85_659)"/>
<path d="M333.015 267.361L322.518 266.505L317.973 270.695C317.973 270.695 319.048 272.182 322.41 271.327C325.772 270.473 330.378 270.263 330.378 270.263C330.378 270.263 335.019 272.356 335.076 268.441L333.015 267.361Z" fill="url(#paint32_linear_85_659)"/>
<defs>
<linearGradient id="paint0_linear_85_659" x1="402.939" y1="430.222" x2="132.191" y2="125.388" gradientUnits="userSpaceOnUse">
<stop stop-color="#DAE3FE"/>
<stop offset="1" stop-color="#E9EFFD"/>
</linearGradient>
<linearGradient id="paint1_linear_85_659" x1="222.892" y1="-67.5586" x2="192.71" y2="374.789" gradientUnits="userSpaceOnUse">
<stop stop-color="#09005D"/>
<stop offset="1" stop-color="#1A0F91"/>
</linearGradient>
<linearGradient id="paint2_linear_85_659" x1="100.196" y1="194.294" x2="306.196" y2="194.294" gradientUnits="userSpaceOnUse">
<stop stop-color="#DAE3FE"/>
<stop offset="1" stop-color="#E9EFFD"/>
</linearGradient>
<linearGradient id="paint3_linear_85_659" x1="183.128" y1="38.0895" x2="221.153" y2="38.0895" gradientUnits="userSpaceOnUse">
<stop stop-color="#4F52FF"/>
<stop offset="1" stop-color="#4042E2"/>
</linearGradient>
<linearGradient id="paint4_linear_85_659" x1="186.168" y1="97.1868" x2="231.941" y2="22.323" gradientUnits="userSpaceOnUse">
<stop stop-color="#FF928E"/>
<stop offset="1" stop-color="#FE7062"/>
</linearGradient>
<linearGradient id="paint5_linear_85_659" x1="124.049" y1="47.521" x2="158.001" y2="94.9129" gradientUnits="userSpaceOnUse">
<stop stop-color="#FF928E"/>
<stop offset="1" stop-color="#FE7062"/>
</linearGradient>
<linearGradient id="paint6_linear_85_659" x1="94.537" y1="101.281" x2="135.563" y2="128.16" gradientUnits="userSpaceOnUse">
<stop stop-color="#FF928E"/>
<stop offset="1" stop-color="#FE7062"/>
</linearGradient>
<linearGradient id="paint7_linear_85_659" x1="239.347" y1="106.595" x2="294.986" y2="63.9113" gradientUnits="userSpaceOnUse">
<stop stop-color="#FF928E"/>
<stop offset="1" stop-color="#FE7062"/>
</linearGradient>
<linearGradient id="paint8_linear_85_659" x1="278.041" y1="131.747" x2="315.596" y2="97.9628" gradientUnits="userSpaceOnUse">
<stop stop-color="#FF928E"/>
<stop offset="1" stop-color="#FE7062"/>
</linearGradient>
<linearGradient id="paint9_linear_85_659" x1="323.692" y1="382.969" x2="299.527" y2="382.969" gradientUnits="userSpaceOnUse">
<stop stop-color="#4F52FF"/>
<stop offset="1" stop-color="#4042E2"/>
</linearGradient>
<linearGradient id="paint10_linear_85_659" x1="323.693" y1="378.233" x2="300.21" y2="378.233" gradientUnits="userSpaceOnUse">
<stop stop-color="#09005D"/>
<stop offset="1" stop-color="#1A0F91"/>
</linearGradient>
<linearGradient id="paint11_linear_85_659" x1="321.461" y1="371.621" x2="314.654" y2="371.621" gradientUnits="userSpaceOnUse">
<stop stop-color="#FEBBBA"/>
<stop offset="1" stop-color="#FF928E"/>
</linearGradient>
<linearGradient id="paint12_linear_85_659" x1="371.866" y1="382.448" x2="362.606" y2="382.448" gradientUnits="userSpaceOnUse">
<stop stop-color="#4F52FF"/>
<stop offset="1" stop-color="#4042E2"/>
</linearGradient>
<linearGradient id="paint13_linear_85_659" x1="371.799" y1="375.318" x2="358.207" y2="375.318" gradientUnits="userSpaceOnUse">
<stop stop-color="#09005D"/>
<stop offset="1" stop-color="#1A0F91"/>
</linearGradient>
<linearGradient id="paint14_linear_85_659" x1="364.734" y1="365.947" x2="356.599" y2="365.947" gradientUnits="userSpaceOnUse">
<stop stop-color="#FEBBBA"/>
<stop offset="1" stop-color="#FF928E"/>
</linearGradient>
<linearGradient id="paint15_linear_85_659" x1="436.532" y1="267.531" x2="383.481" y2="294.41" gradientUnits="userSpaceOnUse">
<stop stop-color="#4F52FF"/>
<stop offset="1" stop-color="#4042E2"/>
</linearGradient>
<linearGradient id="paint16_linear_85_659" x1="-2036.23" y1="-2322.59" x2="-1963.61" y2="-2243.36" gradientUnits="userSpaceOnUse">
<stop stop-color="#FF928E"/>
<stop offset="1" stop-color="#FE7062"/>
</linearGradient>
<linearGradient id="paint17_linear_85_659" x1="337.321" y1="335.821" x2="333.423" y2="328.025" gradientUnits="userSpaceOnUse">
<stop stop-color="#53D8FF"/>
<stop offset="1" stop-color="#3840F7"/>
</linearGradient>
<linearGradient id="paint18_linear_85_659" x1="327.465" y1="247.373" x2="356.423" y2="273.016" gradientUnits="userSpaceOnUse">
<stop stop-color="#FEBBBA"/>
<stop offset="1" stop-color="#FF928E"/>
</linearGradient>
<linearGradient id="paint19_linear_85_659" x1="-2018.93" y1="-2338.44" x2="-1946.31" y2="-2259.22" gradientUnits="userSpaceOnUse">
<stop stop-color="#FF928E"/>
<stop offset="1" stop-color="#FE7062"/>
</linearGradient>
<linearGradient id="paint20_linear_85_659" x1="-2054.32" y1="-2306" x2="-1981.7" y2="-2226.77" gradientUnits="userSpaceOnUse">
<stop stop-color="#FF928E"/>
<stop offset="1" stop-color="#FE7062"/>
</linearGradient>
<linearGradient id="paint21_linear_85_659" x1="273.18" y1="249.799" x2="250.374" y2="249.799" gradientUnits="userSpaceOnUse">
<stop stop-color="#FEBBBA"/>
<stop offset="1" stop-color="#FF928E"/>
</linearGradient>
<linearGradient id="paint22_linear_85_659" x1="295.348" y1="188.854" x2="295.597" y2="231.441" gradientUnits="userSpaceOnUse">
<stop stop-color="#FEBBBA"/>
<stop offset="1" stop-color="#FF928E"/>
</linearGradient>
<linearGradient id="paint23_linear_85_659" x1="281.529" y1="181.851" x2="298.316" y2="212.293" gradientUnits="userSpaceOnUse">
<stop stop-color="#FEBBBA"/>
<stop offset="1" stop-color="#FF928E"/>
</linearGradient>
<linearGradient id="paint24_linear_85_659" x1="242.087" y1="122.781" x2="314.313" y2="228.647" gradientUnits="userSpaceOnUse">
<stop stop-color="#09005D"/>
<stop offset="1" stop-color="#1A0F91"/>
</linearGradient>
<linearGradient id="paint25_linear_85_659" x1="308.78" y1="207.972" x2="294.602" y2="188.497" gradientUnits="userSpaceOnUse">
<stop stop-color="#FEBBBA"/>
<stop offset="1" stop-color="#FF928E"/>
</linearGradient>
<linearGradient id="paint26_linear_85_659" x1="252.797" y1="247.12" x2="244.63" y2="247.12" gradientUnits="userSpaceOnUse">
<stop stop-color="#FEBBBA"/>
<stop offset="1" stop-color="#FF928E"/>
</linearGradient>
<linearGradient id="paint27_linear_85_659" x1="192.669" y1="209.213" x2="464.682" y2="388.253" gradientUnits="userSpaceOnUse">
<stop stop-color="#09005D"/>
<stop offset="1" stop-color="#1A0F91"/>
</linearGradient>
<linearGradient id="paint28_linear_85_659" x1="185.508" y1="252.324" x2="149.445" y2="223.904" gradientUnits="userSpaceOnUse">
<stop stop-color="#09005D"/>
<stop offset="1" stop-color="#1A0F91"/>
</linearGradient>
<linearGradient id="paint29_linear_85_659" x1="153.118" y1="209.621" x2="287.621" y2="335.159" gradientUnits="userSpaceOnUse">
<stop stop-color="#FF928E"/>
<stop offset="1" stop-color="#FE7062"/>
</linearGradient>
<linearGradient id="paint30_linear_85_659" x1="231.46" y1="209.698" x2="352.841" y2="322.989" gradientUnits="userSpaceOnUse">
<stop stop-color="#FF928E"/>
<stop offset="1" stop-color="#FE7062"/>
</linearGradient>
<linearGradient id="paint31_linear_85_659" x1="228.973" y1="220.288" x2="350.355" y2="333.579" gradientUnits="userSpaceOnUse">
<stop stop-color="#FF928E"/>
<stop offset="1" stop-color="#FE7062"/>
</linearGradient>
<linearGradient id="paint32_linear_85_659" x1="316.03" y1="260.287" x2="344.988" y2="285.93" gradientUnits="userSpaceOnUse">
<stop stop-color="#FEBBBA"/>
<stop offset="1" stop-color="#FF928E"/>
</linearGradient>
</defs>
</svg>
