<svg xmlns="http://www.w3.org/2000/svg" width="190.213" height="138" viewBox="0 0 190.213 138">
  <g id="Group_3127" data-name="Group 3127" transform="translate(-974.272 -453.5)">
    <path id="Path_541" data-name="Path 541" d="M176.622,57.375A68.81,68.81,0,0,0,48.385,42.8a50.109,50.109,0,0,0,5.129,100.088H78.537V126.936H66.026A6.138,6.138,0,0,1,60.9,117.3L92.173,73.514a6.255,6.255,0,0,1,10.2,0L133.647,117.3a6.255,6.255,0,0,1-5.067,9.884H116.069v15.388h25.022a50.044,50.044,0,0,0,35.531-85.2Z" transform="translate(973.433 448.546)" fill="#672c70"/>
    <path id="Path_542" data-name="Path 542" d="M6.852,95.329A50.044,50.044,0,0,1,51.766,45.285,68.81,68.81,0,0,1,113.2,7.752a67.559,67.559,0,0,1,26.961,5.63A67.809,67.809,0,0,0,107.5,5,68.81,68.81,0,0,0,46.074,42.846a50.044,50.044,0,0,0-13.7,96.084,50.044,50.044,0,0,1-25.522-43.6Z" transform="translate(973.351 448.5)" fill="#672c70"/>
  </g>
</svg>