<svg xmlns="http://www.w3.org/2000/svg" width="786.4" height="610.489" viewBox="0 0 786.4 610.489">
  <g id="Group_1770" data-name="Group 1770" transform="translate(-31.919 -76.356)">
    <g id="Group_1778" data-name="Group 1778" transform="translate(31.919 678.701)">
      <rect id="Rectangle_72" data-name="Rectangle 72" width="106.81" height="8.144" rx="1.753" fill="#adbec4"/>
      <rect id="Rectangle_73" data-name="Rectangle 73" width="106.81" height="8.144" rx="1.753" transform="translate(665.5)" fill="#adbec4"/>
      <rect id="Rectangle_74" data-name="Rectangle 74" width="106.81" height="8.144" rx="1.753" transform="translate(139.744)" fill="#adbec4"/>
      <rect id="Rectangle_75" data-name="Rectangle 75" width="168.813" height="8.144" rx="1.753" transform="translate(267.136)" fill="#adbec4"/>
      <rect id="Rectangle_76" data-name="Rectangle 76" width="163.342" height="8.144" rx="1.753" transform="translate(455.018)" fill="#adbec4"/>
    </g>
    <g id="Group_1797" data-name="Group 1797" transform="translate(66.719 83.905)">
      <path id="Path_2425" data-name="Path 2425" d="M58.376,341.438s27.4,72.972,29.065,95.971c0,0,6.865,5.467,18.578.627,0,0,.326-69.746-11.141-91.3S58.376,341.438,58.376,341.438Z" transform="translate(-44.959 129.285)" fill="#ff8b66"/>
      <g id="Group_1780" data-name="Group 1780" transform="translate(6.558 563.57)">
        <path id="Path_2426" data-name="Path 2426" d="M55.481,424.949h57.668a26.44,26.44,0,0,0-1.283-16.83s2.54-9.956,1.547-13.24-12.8-7.235-16.012-3.853a9.191,9.191,0,0,0-2.189,7.109c-1.613-9.134-5.764-9.9-9.788-6.311-4.2,3.729.9,1.881.093,7.817a5.324,5.324,0,0,1-.324,1.219,6.569,6.569,0,0,1-1.573,2.3,11.784,11.784,0,0,1-2.287,1.711,15.264,15.264,0,0,1-1.432.771,22.172,22.172,0,0,1-3.065,1.137,28.533,28.533,0,0,1-5.477,1.03c-7.9.733-11.057,1.3-14.7,5.383-3.634,4.059-1.329,7.336-1.329,7.336Z" transform="translate(-54.612 -389.732)" fill="#cfd8dc"/>
        <g id="Group_1779" data-name="Group 1779" transform="translate(22.223 10.419)">
          <path id="Path_2427" data-name="Path 2427" d="M72.1,396.158a6.57,6.57,0,0,1-1.573,2.3,6.809,6.809,0,0,1,7.988,1.648l1.473-1.872C76.4,393.774,72.432,395.959,72.1,396.158Z" transform="translate(-63.744 -395.449)" fill="#adbec4"/>
          <path id="Path_2428" data-name="Path 2428" d="M74.311,402.958,76.32,401.7c-1.137-3.282-3.213-4.3-4.758-4.6a11.793,11.793,0,0,1-2.287,1.711A6.755,6.755,0,0,1,74.311,402.958Z" transform="translate(-64.776 -394.09)" fill="#adbec4"/>
          <path id="Path_2429" data-name="Path 2429" d="M70.766,404.031l2.118-1.059a6.534,6.534,0,0,0-3.013-4.509,22.158,22.158,0,0,1-3.065,1.137A6.877,6.877,0,0,1,70.766,404.031Z" transform="translate(-66.806 -392.97)" fill="#adbec4"/>
        </g>
      </g>
      <path id="Path_2430" data-name="Path 2430" d="M124.608,417.063c1.575-.828,3.027-2.646,4.332-4.946a49.536,49.536,0,0,0,0-13.949c-1.124-7.148,1.988-12.985,12.1-15.176,9.836-2.132,15.671,2.608,13.4,22.38l0,.007c1.5,8.216,1.806,17.594-1.606,25.5H122.561S117.786,420.644,124.608,417.063Z" transform="translate(6.495 167.908)" fill="#cfd8dc"/>
      <path id="Path_2431" data-name="Path 2431" d="M108.377,343.76a91.848,91.848,0,0,0,11.13,39.961c11.332,20.6,25.341,48.882,25.341,48.882s9.335,9.107,15.265-5.976c0,0-4.186-52.518-13.8-71.74S108.377,343.76,108.377,343.76Z" transform="translate(-3.835 134.635)" fill="#ff8b66"/>
      <g id="Group_1781" data-name="Group 1781" transform="translate(135.172 560.003)">
        <path id="Path_2432" data-name="Path 2432" d="M142.821,396.88s2.8-5.714.3-8.168-5.435,2.1-9.7,1.086-5.252-4.042-6.36.086S127.31,407,142.821,396.88Z" transform="translate(-123.878 -387.775)" fill="#cfd8dc"/>
        <path id="Path_2433" data-name="Path 2433" d="M126.772,392.632s11.452,4.057,17.388,0l-1.507,4.957s-12.447,1.318-14.164-1.819Z" transform="translate(-123.878 -383.781)" fill="#adbec4"/>
        <path id="Path_2434" data-name="Path 2434" d="M128.006,396.194s10.485-1.454,15.544,1.15V399.8s-13.67-3.189-18.09,0Z" transform="translate(-124.957 -381.184)" fill="#adbec4"/>
        <path id="Path_2435" data-name="Path 2435" d="M144.28,403.2a9.558,9.558,0,0,0-8.412-5.311,16.64,16.64,0,0,0-10.683,3.156S135.3,396.877,144.28,403.2Z" transform="translate(-125.184 -379.478)" fill="#adbec4"/>
      </g>
      <g id="Group_1788" data-name="Group 1788" transform="translate(0 304.797)">
        <g id="Group_1782" data-name="Group 1782">
          <path id="Path_2436" data-name="Path 2436" d="M202.354,416.138a30.374,30.374,0,0,1-3.408,5.7c-.273.383-.583.765-.911,1.166-6.306,7.8-20.175,18.207-45.507,7.946,0,0-.638-1.458-1.531-3.754-.146-.4-.31-.82-.492-1.276a93.647,93.647,0,0,1-4.556-15.218c-6.616-36.741-9.076-63.367-12.575-78.476-9.732,23.473-31.565,69.017-32.531,70.967-1.221,2.424,3.645,18.1,3.645,18.1-18.225,5.941-44.341-1.64-44.341-1.64S52.237,396.51,51.034,380c-.929-12.648,30.927-83.506,45.89-115.982.383-.857.765-1.658,1.112-2.46,3.937-8.511,6.452-13.814,6.452-13.814L130,256.362l61.982,27.884s1.093,1.258,2.114,14.033c.018.328.073.693.091,1.021.583,7.6,1.13,18.99,1.458,36.048v1.057q.109,5.577.182,11.974V349.4c.073,9.8.091,21.068.036,34.044-.018.346-.018.693-.018,1.057-.018,4.028-.073,8.2-.109,12.557-.036,3.973,3.1,11.482,5.066,15.8.164.364.328.711.456,1.021C201.916,415.263,202.354,416.138,202.354,416.138Z" transform="translate(-51.014 -247.742)" fill="#0c476b"/>
        </g>
        <g id="Group_1783" data-name="Group 1783" transform="translate(133.698 18.954)">
          <path id="Path_2437" data-name="Path 2437" d="M138.609,413.289c-.273.383-.583.765-.911,1.166-2.825-4.811-7.217-13.012-8.238-18.626-1.476-8.055-2.187-39.73-.018-73.063,2.114-32.312-4.994-64.005-5.066-64.333l1.33-.292c.073.31,7.235,32.2,5.1,64.716-2.169,33.224-1.476,64.752,0,72.716C131.756,400.768,135.838,408.5,138.609,413.289Z" transform="translate(-124.375 -258.142)" fill="#0e3944"/>
        </g>
        <g id="Group_1784" data-name="Group 1784" transform="translate(113.416 23.151)">
          <path id="Path_2438" data-name="Path 2438" d="M138.152,284.378c-19.807-7.137-24.858-23.377-24.906-23.541l1.309-.392c.047.157,4.93,15.753,24.06,22.648Z" transform="translate(-113.246 -260.445)" fill="#0e3944"/>
        </g>
        <g id="Group_1785" data-name="Group 1785" transform="translate(45.91 9.641)">
          <path id="Path_2439" data-name="Path 2439" d="M95.541,254.18c-.419.292-1.166.346-2.916.456-3.845.237-10.844.656-16.42,5.03.383-.857.765-1.658,1.112-2.46,5.467-3.353,11.646-3.718,15.218-3.936a12.712,12.712,0,0,0,2.26-.237Z" transform="translate(-76.205 -253.032)" fill="#0e3944"/>
        </g>
        <g id="Group_1786" data-name="Group 1786" transform="translate(76.294 17.095)">
          <path id="Path_2440" data-name="Path 2440" d="M98.326,324.825c-14.385-28.711,4.239-67.317,4.429-67.7l1.227.6c-.186.381-18.513,38.389-4.432,66.489Z" transform="translate(-92.877 -257.122)" fill="#0e3944"/>
        </g>
        <g id="Group_1787" data-name="Group 1787" transform="translate(76.72 18.62)">
          <path id="Path_2441" data-name="Path 2441" d="M95.307,296.111a7.614,7.614,0,0,1-2.2-.3l.419-1.3a6.6,6.6,0,0,0,5.107-.711c2.09-1.349,3.388-4.075,3.86-8.1,1.422-12.127,10.707-27.109,11.1-27.74l1.159.722c-.095.153-9.517,15.358-10.9,27.178-.521,4.46-2.034,7.52-4.494,9.1A7.453,7.453,0,0,1,95.307,296.111Z" transform="translate(-93.111 -257.959)" fill="#0e3944"/>
        </g>
      </g>
      <path id="Path_2442" data-name="Path 2442" d="M58.561,107.612s2.251-5.181,11.76-5.185c7.328,0,10.133,4.048,10.133,4.048,4.383,12.816,9.1,61.882,10.782,63.628.855.886,55.556,42.646,55.556,42.646-29.5.552-30.645,49.577-30.645,49.577-.953-11.946-42.1-42.055-52.547-61.72C53.87,182.293,49.154,137.459,58.561,107.612Z" transform="translate(-49.006 -62.462)" fill="#f2a668"/>
      <g id="Group_1789" data-name="Group 1789" transform="translate(47.331 146.043)">
        <path id="Path_2443" data-name="Path 2443" d="M216.149,234.9c-4.483,49.462-22.343,97.258-28.54,117.177-1.33,4.3-2.132,6.707-2.132,6.707s-97.01-12.575-108.492-38.782c0,0,.182-.711.492-2.059,2.9-11.919,17.222-60.171,18.863-99.664,1.822-43.94,16.548-59.485,25.478-57.481,0,0,20.065,15.855,32.914,15.8,12.83-.036,43.521-13.978,43.521-13.978S221.6,174.763,216.149,234.9Z" transform="translate(-76.985 -160.633)" fill="#ffb878"/>
      </g>
      <circle id="Ellipse_28" data-name="Ellipse 28" cx="5.81" cy="5.81" r="5.81" transform="translate(119.402 132.332)" fill="#f24052"/>
      <path id="Path_2444" data-name="Path 2444" d="M225.326,109.517s-2.251-5.183-11.76-5.185c-7.328,0-10.133,4.046-10.133,4.046-4.383,12.816-9.1,61.884-10.782,63.63-.855.886-55.556,42.644-55.556,42.644-1.316,34.264,30.645,49.578,30.645,49.578.953-11.948,42.1-42.057,52.547-61.722C230.017,184.2,234.734,139.362,225.326,109.517Z" transform="translate(19.752 -60.895)" fill="#f2a668"/>
      <path id="Path_2445" data-name="Path 2445" d="M115.937,169.08s-5.311,2.123-6.4,4.434,2.993,11.808,10.822,12.526,22.714-8.316,22.107-11.239S130.723,168.106,115.937,169.08Z" transform="translate(-3.028 -7.771)" fill="#f2a668"/>
      <path id="Path_2446" data-name="Path 2446" d="M113.241,162.961s2.925,12.05-1.536,16.856c0,0,7.283,11.751,23.754-.113,0,0-3.136-7.922,0-13.063Z" transform="translate(-1.098 -12.675)" fill="#ef6e4b"/>
      <g id="Group_1793" data-name="Group 1793" transform="translate(91.506 86.525)">
        <path id="Path_2447" data-name="Path 2447" d="M168.36,158.961a5.926,5.926,0,0,0-4.789-5.812,5.916,5.916,0,0,0-4.04-10.093,5.9,5.9,0,0,0-8.646-7.837A5.92,5.92,0,0,0,140.015,132,5.885,5.885,0,0,0,129.3,130.98a5.895,5.895,0,0,0-9.973,3.84,5.9,5.9,0,0,0-9.069,5.006,5.96,5.96,0,0,0,.175,1.372c-.058,0-.115-.018-.175-.018A5.917,5.917,0,0,0,106,151.212a5.913,5.913,0,0,0-.9,11.35,5.894,5.894,0,0,0,2.7,10.652,12.139,12.139,0,0,0,5.36,7.441c2.688,2.471,24.554,4.959,35.008,4.075a5.917,5.917,0,0,0,10.18-4.113c0-.022-.005-.04-.005-.062a5.816,5.816,0,0,0,5.087-7.427,5.886,5.886,0,0,0,2.26-9.218A5.915,5.915,0,0,0,168.36,158.961Z" transform="translate(-101.224 -127.975)" fill="#f24052"/>
        <path id="Path_2448" data-name="Path 2448" d="M131,152.212s6.189-6.178,6.953,1.044c.882,8.367-6.716,11.737-8.2,9.076S131,152.212,131,152.212Z" transform="translate(-78.122 -110.064)" fill="#ff8b66"/>
        <path id="Path_2449" data-name="Path 2449" d="M109.624,152.452s-6.191-6.178-6.953,1.044c-.882,8.367,6.716,11.737,8.2,9.076S109.624,152.452,109.624,152.452Z" transform="translate(-100.092 -109.868)" fill="#ff8b66"/>
        <path id="Path_2450" data-name="Path 2450" d="M129.006,194.03c13.736,0,21.487-8.972,21.487-35.883,0-13.88-7.062-22.393-22.447-22.393s-21.864,8.513-21.864,22.393C106.181,187.063,114.816,194.03,129.006,194.03Z" transform="translate(-97.147 -121.576)" fill="#ff8b66"/>
        <path id="Path_2451" data-name="Path 2451" d="M108.691,154.218c-.241,1.38.964,2.743,2.69,3.045s3.322-.574,3.563-1.955-.964-2.745-2.69-3.045S108.931,152.837,108.691,154.218Z" transform="translate(-95.108 -108.048)" fill="#db614d"/>
        <path id="Path_2452" data-name="Path 2452" d="M124.181,154.96c.091,1.4,1.584,2.44,3.331,2.325s3.093-1.34,3-2.739-1.582-2.438-3.331-2.324S124.09,153.562,124.181,154.96Z" transform="translate(-82.346 -108.039)" fill="#db614d"/>
        <g id="Group_1790" data-name="Group 1790" transform="translate(19.05 29.047)">
          <path id="Path_2453" data-name="Path 2453" d="M112.259,146.608a.681.681,0,0,0,.523-.135c2.185-1.68,5.467-1.086,5.517-1.077a.7.7,0,0,0,.8-.549.685.685,0,0,0-.547-.8c-.144-.031-3.938-.711-6.606,1.34a.686.686,0,0,0,.313,1.223Z" transform="translate(-111.677 -143.913)" fill="#f24052"/>
        </g>
        <g id="Group_1791" data-name="Group 1791" transform="translate(39.131 28.997)">
          <path id="Path_2454" data-name="Path 2454" d="M129.485,146.725a.68.68,0,0,0,.445-.244.689.689,0,0,0-.093-.968c-2.6-2.132-6.413-1.567-6.561-1.54a.684.684,0,0,0-.572.782.7.7,0,0,0,.784.574c.024-.009,3.366-.487,5.477,1.247A.686.686,0,0,0,129.485,146.725Z" transform="translate(-122.695 -143.886)" fill="#f24052"/>
        </g>
        <path id="Path_2455" data-name="Path 2455" d="M112.775,151.04c0,1.706.769,3.089,1.717,3.089s1.715-1.383,1.715-3.089-.767-3.089-1.715-3.089S112.775,149.334,112.775,151.04Z" transform="translate(-91.724 -111.545)" fill="#1a4850"/>
        <path id="Path_2456" data-name="Path 2456" d="M122.84,151.04c0,1.706.769,3.089,1.717,3.089s1.715-1.383,1.715-3.089-.767-3.089-1.715-3.089S122.84,149.334,122.84,151.04Z" transform="translate(-83.446 -111.545)" fill="#1a4850"/>
        <path id="Path_2457" data-name="Path 2457" d="M145.066,143.856s-9.552-.66-30.539-2.169c0,0-7.674,7.993-7.131,27.672,0,0-12.289-35.449,23.585-35.449s19.712,34.663,19.712,34.663S151.74,150.5,145.066,143.856Z" transform="translate(-97.819 -123.093)" fill="#f24052"/>
        <g id="Group_1792" data-name="Group 1792" transform="translate(27.308 32.203)">
          <path id="Path_2458" data-name="Path 2458" d="M119.889,162.109l1.028-1.035-2.717-2.7c2.635-3.725,2.621-12.345,2.619-12.73l-1.46.007c0,.093.015,9.367-2.674,12.283l-.477.516Z" transform="translate(-116.208 -145.645)" fill="#db614d"/>
        </g>
        <path id="Path_2459" data-name="Path 2459" d="M132.43,157.7s-13.519.57-20.344-1.236c0,0-1.206,9.832,9.271,10.321C132.43,167.3,132.43,157.7,132.43,157.7Z" transform="translate(-92.325 -104.542)" fill="#1a4850"/>
      </g>
      <path id="Path_2460" data-name="Path 2460" d="M67.81,101.736s-10.184.472-10.144,3.729.04,7.2,8.546,6.745,8.6-3.789,8.706-6.98S70.587,101.472,67.81,101.736Z" transform="translate(-45.543 -63.078)" fill="#ffb878"/>
      <path id="Path_2461" data-name="Path 2461" d="M185.137,102.738s-10.193-.064-10.324,3.189-.339,7.188,8.179,7.186,8.79-3.332,9.059-6.514S187.926,102.62,185.137,102.738Z" transform="translate(50.778 -62.215)" fill="#ffb878"/>
      <g id="Group_1794" data-name="Group 1794" transform="translate(4.121)">
        <path id="Path_2462" data-name="Path 2462" d="M55.411,98.814c1.458,1.658,3.865,8.114,3.865,8.114,1.011,5.422,1.6,8.416,3.5,10.906,1.883,2.49.891,6.88.891,6.88s7.365,3.783,13.557-.891c0,0-.649-4.35,0-5.584,1.274-2.468,5.362-3.783,6.758-8.761,1.4-5,5.584-10.563,5.584-10.563s-1.194-2.59-3.379-1.011c-2.205,1.6-3.6,5.584-4.795,5.989a3.084,3.084,0,0,1-.729.162.155.155,0,0,0-.06.02,2.94,2.94,0,0,1-2.407-.627.366.366,0,0,1-.142-.12c-2-2.327-2.469-9.167-2.387-12.221.12-4.25-.04-10.118-2.632-9.127s-.222,3.359-2.225,12.728l-.971.12c-.182.669-1.963-5.684-2.387-11.655-.3-4.106-2.994-2.59-3.581-1.294-.607,1.294.3,5.382.485,8.356.142,1.963.3,4.006.4,5.221l-1.132.627c-4.088-7.122-2.692-10.076-5.079-10.219-2.367-.142-1.518,5.868-.242,8.154A22.534,22.534,0,0,1,59.8,99.1c-4.188-4.835-3.723-7.365-5.644-7.062C52.174,92.359,53.954,97.154,55.411,98.814Z" transform="translate(-53.275 -80.498)" fill="#ff8b66"/>
        <path id="Path_2463" data-name="Path 2463" d="M64.374,99.605c1.416-3.906,6.475-5.686,7.1-5.888a2.94,2.94,0,0,1-2.408-.627C64.11,95.315,64.374,99.605,64.374,99.605Z" transform="translate(-44.149 -70.142)" fill="#ef6e4b"/>
      </g>
      <g id="Group_1795" data-name="Group 1795" transform="translate(214.57 1.344)">
        <path id="Path_2464" data-name="Path 2464" d="M202.9,99.55c-1.456,1.66-3.864,8.115-3.864,8.115-1.013,5.422-1.6,8.416-3.5,10.906-1.883,2.488-.891,6.88-.891,6.88s-7.365,3.783-13.556-.891c0,0,.647-4.35,0-5.584-1.276-2.469-5.364-3.783-6.76-8.762-1.4-5-5.584-10.561-5.584-10.561s1.194-2.59,3.379-1.011c2.205,1.6,3.6,5.584,4.795,5.989a3.1,3.1,0,0,0,.729.162.167.167,0,0,1,.062.02,2.944,2.944,0,0,0,2.408-.627.384.384,0,0,0,.14-.122c2-2.327,2.469-9.165,2.389-12.221-.122-4.248.04-10.117,2.63-9.125s.222,3.359,2.225,12.728l.971.12c.182.669,1.963-5.686,2.387-11.655.3-4.108,2.994-2.59,3.581-1.294.607,1.294-.3,5.382-.485,8.356-.142,1.963-.3,4.006-.4,5.22l1.134.629c4.086-7.124,2.69-10.078,5.077-10.219,2.367-.142,1.518,5.867.244,8.154a22.522,22.522,0,0,0-1.5,5.079c4.188-4.837,3.723-7.366,5.646-7.062C206.144,93.1,204.363,97.892,202.9,99.55Z" transform="translate(-168.75 -81.236)" fill="#ff8b66"/>
        <path id="Path_2465" data-name="Path 2465" d="M180.771,100.343c-1.418-3.906-6.475-5.686-7.1-5.888a2.944,2.944,0,0,0,2.407-.627C181.034,96.053,180.771,100.343,180.771,100.343Z" transform="translate(-164.704 -70.879)" fill="#ef6e4b"/>
      </g>
      <g id="Group_1796" data-name="Group 1796" transform="translate(47.331 303.357)">
        <path id="Path_2466" data-name="Path 2466" d="M187.609,281.087c-1.33,4.3-2.132,6.707-2.132,6.707s-97.01-12.575-108.492-38.782c0,0,.182-.711.492-2.059C83.646,257.174,158,282.04,187.609,281.087Z" transform="translate(-76.985 -246.952)" fill="#f2a668"/>
      </g>
    </g>
    <g id="Group_1830" data-name="Group 1830" transform="translate(447.84 76.356)">
      <g id="Group_1798" data-name="Group 1798" transform="translate(130.401 565.1)">
        <path id="Path_2467" data-name="Path 2467" d="M332.679,427.666h47.186c3.3-18.757-1.963-37.534-1.963-37.534l-21.569-3.7c-1.963,11.857-4.33,16.532-7.609,18.939h-.02c-2.387,1.741-5.241,2.305-8.8,3.541a11.319,11.319,0,0,0-7.284,6.778C330.494,421.231,332.679,427.666,332.679,427.666Z" transform="translate(-331.689 -386.429)" fill="#0e3944"/>
        <path id="Path_2468" data-name="Path 2468" d="M332.2,407.14c11.635,1.456,37.191,3.946,35.633-2.792-1.3-5.626-12.079-7.142-19.526-7.527h-.02c-2.387,1.74-5.241,2.305-8.8,3.541A11.318,11.318,0,0,0,332.2,407.14Z" transform="translate(-331.27 -377.882)" fill="#205260"/>
      </g>
      <g id="Group_1799" data-name="Group 1799" transform="translate(288.34 565.1)">
        <path id="Path_2469" data-name="Path 2469" d="M419.43,427.666h47.186a21.908,21.908,0,0,0,.809-9.085,11.428,11.428,0,0,0-8.033-9.672c-4.088-1.418-7.222-1.943-9.792-4.352-2.794-2.63-4.877-7.485-6.637-18.128l-21.569,3.7S416.151,408.909,419.43,427.666Z" transform="translate(-418.351 -386.429)" fill="#0e3944"/>
        <path id="Path_2470" data-name="Path 2470" d="M461.1,410.4a11.428,11.428,0,0,0-8.033-9.672c-4.088-1.418-7.222-1.943-9.792-4.352-5.97,1.843-14.327,5.222-16.916,10.341C422.759,413.737,450.337,412.625,461.1,410.4Z" transform="translate(-412.029 -378.248)" fill="#205260"/>
      </g>
      <g id="Group_1802" data-name="Group 1802" transform="translate(152.354 281.148)">
        <g id="Group_1800" data-name="Group 1800">
          <path id="Path_2471" data-name="Path 2471" d="M507.721,517.79s-3.59,11.719-27.1,3.627c0,0-17.459-131.145-20.156-134.025-2.7-2.9-30.4-88.554-30.4-88.554h-8.675s-27.7,85.656-30.4,88.554c-2.7,2.88-20.138,134.025-20.138,134.025-23.528,8.092-27.118-3.627-27.118-3.627l11.3-141.387,23.546-145.779,47.147,5.267,47.147-5.267,6.142,38.071.255,1.494L496.422,376.4Z" transform="translate(-343.735 -230.623)" fill="#8b383e"/>
        </g>
        <g id="Group_1801" data-name="Group 1801" transform="translate(77.911 20.157)">
          <path id="Path_2472" data-name="Path 2472" d="M427.654,261.092A31.119,31.119,0,0,1,406.5,242.084l1.312-.4A29.686,29.686,0,0,0,427.4,259.6Z" transform="translate(-370.027 -241.683)" fill="#662c33"/>
          <path id="Path_2473" data-name="Path 2473" d="M393.811,269.893a6.309,6.309,0,0,1-4.775,1.986c.055,3.517,0,7.235-.2,10.953h-1.367a218.946,218.946,0,0,0-.984-31.091l1.349-.164c.018.146.966,8.456,1.166,18.917a5.04,5.04,0,0,0,3.827-1.531c4.5-4.757,1.9-18.5,1.859-18.626l1.349-.255C396.144,250.666,398.8,264.645,393.811,269.893Z" transform="translate(-386.485 -234.774)" fill="#662c33"/>
        </g>
      </g>
      <g id="Group_1803" data-name="Group 1803" transform="translate(330.421)">
        <path id="Path_2474" data-name="Path 2474" d="M475.7,101.054c-2.163.447-7.973,4.148-7.973,4.148-4.075,3.718-6.346,5.755-9.364,6.6-3,.853-3.255,6.337-3.255,6.337s-11.538,4.926-13.663-2.535c0,0,4.915-10.807,5.143-12.183.47-2.737-2-6.249-.117-11.064s1.906-11.8,1.906-11.8,2.513-1.347,3.308,1.228c.8,2.606-.49,6.628.219,7.671a3.175,3.175,0,0,0,.483.567.163.163,0,0,1,.036.053,2.948,2.948,0,0,0,2.3.949.37.37,0,0,0,.186-.011c3-.651,7.492-5.828,9.269-8.316,2.462-3.465,6.127-8.05,7.6-5.7s-1.846,2.816-5.892,11.5l.7.682c-.257.643,4.992-3.355,8.928-7.864,2.717-3.095,3.949-.262,3.638,1.124-.3,1.4-3.485,4.113-5.422,6.377-1.3,1.482-2.655,3.014-3.468,3.924l.527,1.183c7.554-3.222,8.219-6.422,10.21-5.1s-2.324,5.6-4.718,6.654a22.577,22.577,0,0,0-4.255,3.153c6.257-1.338,7.41-3.636,8.761-2.236C482.168,97.852,477.858,100.608,475.7,101.054Z" transform="translate(-441.441 -76.356)" fill="#ff8b66"/>
        <path id="Path_2475" data-name="Path 2475" d="M449.586,92.863c1.223-3.971-1.742-8.44-2.121-8.979a2.948,2.948,0,0,0,2.3.949C452.38,89.6,449.586,92.863,449.586,92.863Z" transform="translate(-436.486 -70.164)" fill="#ef6e4b"/>
      </g>
      <g id="Group_1804" data-name="Group 1804" transform="translate(0 63.04)">
        <path id="Path_2476" data-name="Path 2476" d="M270.594,140.064c2.174-.379,8.939.926,8.939.926,5.156,1.961,8.017,3.02,11.134,2.694s5.354,4.7,5.354,4.7,12.54.341,11.777-7.379c0,0-8.546-8.245-9.262-9.44-1.443-2.373-.437-6.548-3.958-10.332-3.539-3.794-6.109-10.27-6.109-10.27s-2.832-.33-2.623,2.358c.215,2.715,2.89,5.983,2.615,7.213a3.154,3.154,0,0,1-.242.705.161.161,0,0,0-.015.064,2.943,2.943,0,0,1-1.79,1.728.388.388,0,0,1-.177.058c-3.029.5-9.111-2.666-11.677-4.328-3.565-2.316-8.657-5.234-9.16-2.508s2.752,1.941,9.7,8.529l-.4.893c.474.5-5.878-1.287-11.194-4.031-3.665-1.881-3.771,1.206-2.971,2.382.789,1.192,4.753,2.544,7.386,3.938,1.75.9,3.578,1.828,4.667,2.373l-.055,1.294c-8.208-.221-10-2.951-11.369-.986-1.354,1.946,4.219,4.352,6.834,4.454a22.608,22.608,0,0,1,5.116,1.367c-6.309,1.057-8.227-.658-8.968,1.141C263.4,139.466,268.418,140.443,270.594,140.064Z" transform="translate(-260.137 -110.946)" fill="#ff8b66"/>
        <path id="Path_2477" data-name="Path 2477" d="M277.711,125.756c-2.6-3.242-1.482-8.489-1.329-9.129a2.943,2.943,0,0,1-1.79,1.728C273.911,123.746,277.711,125.756,277.711,125.756Z" transform="translate(-248.315 -106.273)" fill="#ef6e4b"/>
      </g>
      <g id="Group_1811" data-name="Group 1811" transform="translate(231.65 29.683)">
        <g id="Group_1805" data-name="Group 1805">
          <path id="Path_2478" data-name="Path 2478" d="M502.79,107.113s-1.257,4.611-3.3,11.573c-.82,2.843-1.786,6.069-2.843,9.55-1.64,5.376-3.517,11.318-5.5,17.222-1.075,3.226-2.187,6.433-3.317,9.531a163.764,163.764,0,0,1-8.547,20.229c-.383.711-.766,1.385-1.13,2a42.782,42.782,0,0,1-4.574,6.014,157.9,157.9,0,0,1-12.138,12.174c-2.387,2.205-4.921,4.465-7.527,6.725-4.265,3.7-8.729,7.454-13.158,11.062-2.77,2.278-5.522,4.5-8.183,6.616C418.92,230.7,407.62,239.06,407.62,239.06l-20.375-41.625c5.814-3.937,16.53-10.534,27.738-17.277,2.643-1.6,5.3-3.208,7.946-4.793,4.1-2.442,8.128-4.83,11.846-7.053,2.916-1.713,5.65-3.335,8.11-4.775,3.481-2.059,6.415-3.772,8.511-5.012,2.26-1.33,3.572-2.1,3.572-2.1l2.479-4.811c1.8-3.517,4.483-8.693,7.545-14.543,1.349-2.588,2.77-5.322,4.246-8.092,2.315-4.41,4.739-8.948,7.071-13.286,1.513-2.807,3.007-5.54,4.392-8.074,3.918-7.071,7.2-12.721,8.894-14.981C489.595,92.643,500.038,96.179,502.79,107.113Z" transform="translate(-387.245 -92.643)" fill="#cfd8dc"/>
        </g>
        <g id="Group_1806" data-name="Group 1806" transform="translate(27.738 82.722)">
          <path id="Path_2479" data-name="Path 2479" d="M428.235,175.868c-2.77,2.278-5.522,4.5-8.183,6.616a77.6,77.6,0,0,0-17.587-39.657c2.643-1.6,5.3-3.208,7.946-4.793A86.05,86.05,0,0,1,428.235,175.868Z" transform="translate(-402.465 -138.033)" fill="#8bbddb"/>
        </g>
        <g id="Group_1807" data-name="Group 1807" transform="translate(47.53 70.894)">
          <path id="Path_2480" data-name="Path 2480" d="M439.988,163.418c-2.387,2.205-4.921,4.465-7.527,6.725-4.757-18.042-13.5-28.595-19.136-33.825,2.916-1.713,5.65-3.335,8.11-4.775C427.413,137.612,435.085,147.818,439.988,163.418Z" transform="translate(-413.325 -131.543)" fill="#8bbddb"/>
        </g>
        <g id="Group_1808" data-name="Group 1808" transform="translate(64.151 58.975)">
          <path id="Path_2481" data-name="Path 2481" d="M450.329,148.6c-.383.711-.765,1.385-1.13,2a42.771,42.771,0,0,1-4.575,6.014,92.718,92.718,0,0,0-22.179-24.713c2.26-1.33,3.572-2.1,3.572-2.1L428.5,125A100.005,100.005,0,0,1,450.329,148.6Z" transform="translate(-422.445 -125.003)" fill="#8bbddb"/>
        </g>
        <g id="Group_1809" data-name="Group 1809" transform="translate(77.747 36.34)">
          <path id="Path_2482" data-name="Path 2482" d="M456.057,129.058c-1.075,3.226-2.187,6.433-3.317,9.532a118.258,118.258,0,0,0-22.835-17.915c1.348-2.588,2.77-5.322,4.246-8.092A130.416,130.416,0,0,1,456.057,129.058Z" transform="translate(-429.905 -112.583)" fill="#8bbddb"/>
        </g>
        <g id="Group_1810" data-name="Group 1810" transform="translate(89.064 14.981)">
          <path id="Path_2483" data-name="Path 2483" d="M459.3,111.925c-.82,2.843-1.786,6.069-2.843,9.55a71.28,71.28,0,0,0-20.339-12.539c1.513-2.807,3.007-5.54,4.392-8.074A82.951,82.951,0,0,1,459.3,111.925Z" transform="translate(-436.115 -100.863)" fill="#8bbddb"/>
        </g>
      </g>
      <g id="Group_1818" data-name="Group 1818" transform="translate(33.256 86.763)">
        <g id="Group_1812" data-name="Group 1812">
          <path id="Path_2484" data-name="Path 2484" d="M420.173,182.464l-3.645,46.2s-12.776-3.408-28.777-8.274c-3.08-.929-6.269-1.914-9.495-2.934-5.7-1.8-11.554-3.736-17.2-5.723-3.08-1.075-6.087-2.15-8.985-3.262a165.392,165.392,0,0,1-17.587-7.563,42.89,42.89,0,0,1-6.288-3.827c-.529-.4-1.075-.857-1.658-1.367a142.709,142.709,0,0,1-13.377-13.687c-2.023-2.333-4.1-4.757-6.2-7.253-4.1-4.939-8.2-10.078-11.956-14.908-2.023-2.57-3.918-5.048-5.686-7.363-6.451-8.493-10.935-14.707-10.935-14.707.456-10.771,8.456-13.833,8.456-13.833,2.843,1.75,9.477,6.98,17.2,13.286,2.3,1.877,4.7,3.845,7.126,5.85,4.1,3.39,8.274,6.889,12.156,10.169,2.478,2.078,4.829,4.064,7,5.887,3.536,3.007,6.543,5.577,8.639,7.363,2,1.695,3.171,2.7,3.171,2.7s1.968.31,5.322.82c2.952.456,7,1.094,11.664,1.841,2.861.437,5.941.929,9.185,1.458,3.991.656,8.2,1.33,12.466,2.041,3.025.492,6.069,1,9.076,1.494C402.094,178.947,413.649,181.006,420.173,182.464Z" transform="translate(-278.385 -123.963)" fill="#cfd8dc"/>
        </g>
        <g id="Group_1813" data-name="Group 1813" transform="translate(99.23 51.412)">
          <path id="Path_2485" data-name="Path 2485" d="M342.97,197.188c-3.08-.929-6.269-1.914-9.5-2.934a131.921,131.921,0,0,1,2.515-42.081c3.025.492,6.069,1,9.076,1.494A124.371,124.371,0,0,0,342.97,197.188Z" transform="translate(-332.833 -152.173)" fill="#8bbddb"/>
        </g>
        <g id="Group_1814" data-name="Group 1814" transform="translate(73.682 47.913)">
          <path id="Path_2486" data-name="Path 2486" d="M335.053,151.711a128.936,128.936,0,0,0-7.253,38.4c-3.08-1.075-6.087-2.151-8.985-3.262a136.777,136.777,0,0,1,7.053-36.6C328.729,150.69,331.809,151.182,335.053,151.711Z" transform="translate(-318.815 -150.253)" fill="#8bbddb"/>
        </g>
        <g id="Group_1815" data-name="Group 1815" transform="translate(48.15 42.555)">
          <path id="Path_2487" data-name="Path 2487" d="M325.727,150.83c-4.429,8.383-9.732,19.683-12.976,30.873a42.889,42.889,0,0,1-6.288-3.827c-.529-.4-1.075-.857-1.658-1.367a184.451,184.451,0,0,1,12.429-29.2c2,1.695,3.171,2.7,3.171,2.7S322.374,150.32,325.727,150.83Z" transform="translate(-304.805 -147.313)" fill="#8bbddb"/>
        </g>
        <g id="Group_1816" data-name="Group 1816" transform="translate(28.576 29.305)">
          <path id="Path_2488" data-name="Path 2488" d="M317.429,145.93A180.973,180.973,0,0,0,300.261,168.8c-2.023-2.333-4.1-4.757-6.2-7.253a191.911,191.911,0,0,1,16.366-21.505C312.909,142.121,315.26,144.107,317.429,145.93Z" transform="translate(-294.065 -140.043)" fill="#8bbddb"/>
        </g>
        <g id="Group_1817" data-name="Group 1817" transform="translate(10.935 13.286)">
          <path id="Path_2489" data-name="Path 2489" d="M306.236,137.1a167.646,167.646,0,0,0-16.165,16.767c-2.023-2.57-3.918-5.048-5.686-7.363a173.324,173.324,0,0,1,14.726-15.254C301.407,133.13,303.813,135.1,306.236,137.1Z" transform="translate(-284.385 -131.253)" fill="#8bbddb"/>
        </g>
      </g>
      <g id="Group_1825" data-name="Group 1825" transform="translate(149.331 123.186)">
        <path id="Path_2490" data-name="Path 2490" d="M489.785,312.954s-25.5,26.663-60.178,33.26a351.845,351.845,0,0,1-57.754,5.868s-1.549-6.944-3.937-17.842c-.6-2.807-1.276-5.887-1.986-9.167-1.276-5.887-2.7-12.466-4.173-19.428q-.957-4.456-1.932-9.094c-1.2-5.668-2.424-11.5-3.645-17.35-.62-3.007-1.239-6.032-1.841-9.039-1.513-7.417-2.989-14.762-4.337-21.724q-.929-4.729-1.75-9.185c-1.586-8.347-2.916-15.892-3.882-22.034-.565-3.645-1-6.8-1.276-9.331-.091-.911-.164-1.75-.219-2.5-.456-6.324-.693-12.192-.765-17.459-.055-3.426-.036-6.579,0-9.422.164-10.042.765-16.184.765-16.184,7.2-4.921,56.825,11.008,56.825,11.008s36.65-31.547,42.391-29.269c3.244,1.276,6.324,4.173,9.258,8.329a63.749,63.749,0,0,1,4.811,8.2,145.309,145.309,0,0,1,7.417,18.115c1.057,3.135,2.1,6.415,3.116,9.8,1.677,5.6,3.244,11.482,4.757,17.532.747,3.062,1.495,6.178,2.205,9.313,1.349,5.9,2.624,11.9,3.791,17.878Q478.4,238,479.27,242.7c1,5.395,1.95,10.716,2.807,15.856.565,3.317,1.093,6.579,1.586,9.732,1.112,7.016,2.078,13.559,2.9,19.355.492,3.554.929,6.816,1.312,9.75C489.147,307.031,489.785,312.954,489.785,312.954Z" transform="translate(-342.076 -143.948)" fill="#cfd8dc"/>
        <g id="Group_1819" data-name="Group 1819" transform="translate(0 8.446)">
          <path id="Path_2491" data-name="Path 2491" d="M456.161,156.784c-11.081,11.3-30.6,27.938-53.052,32.422a77,77,0,0,1-14.835,1.294c-14.58,0-31.4-2.934-46.163-6.379-.055-3.426-.036-6.579,0-9.422,19.646,4.738,43.375,8.73,59.212,5.577,21.159-4.21,40.131-21.3,50.027-31.693A63.742,63.742,0,0,1,456.161,156.784Z" transform="translate(-342.076 -148.583)" fill="#8bbddb"/>
        </g>
        <g id="Group_1820" data-name="Group 1820" transform="translate(1.019 34.763)">
          <path id="Path_2492" data-name="Path 2492" d="M466.235,172.828c-11.318,10.607-39.73,30.435-93.711,30.435a245.289,245.289,0,0,1-28.613-1.731c-.565-3.645-1-6.8-1.276-9.331,78.64,9.75,112.829-20.922,120.484-29.178C464.176,166.158,465.214,169.438,466.235,172.828Z" transform="translate(-342.635 -163.023)" fill="#8bbddb"/>
        </g>
        <g id="Group_1821" data-name="Group 1821" transform="translate(6.176 62.1)">
          <path id="Path_2493" data-name="Path 2493" d="M470.869,187.336c-21.906,12.338-66.684,33.133-119.554,33.133q-2.05,0-4.1-.055-.929-4.729-1.749-9.185c54.856,1.586,102.368-21.323,123.2-33.205C469.411,181.085,470.159,184.2,470.869,187.336Z" transform="translate(-345.465 -178.023)" fill="#8bbddb"/>
        </g>
        <g id="Group_1822" data-name="Group 1822" transform="translate(12.263 89.291)">
          <path id="Path_2494" data-name="Path 2494" d="M473.735,202.4c-18.99,10.37-67.359,33.661-123.09,36.5-.62-3.007-1.239-6.032-1.841-9.039,56.7-2.643,106.888-27.92,123.108-36.923Q472.87,197.7,473.735,202.4Z" transform="translate(-348.805 -192.943)" fill="#8bbddb"/>
        </g>
        <g id="Group_1823" data-name="Group 1823" transform="translate(17.749 114.605)">
          <path id="Path_2495" data-name="Path 2495" d="M475.652,216.565C453.91,229.3,406.562,253,353.747,253.926c-.638-2.971-1.276-6-1.932-9.094,53.6-.474,102.751-26.316,122.251-38C474.631,210.15,475.16,213.412,475.652,216.565Z" transform="translate(-351.815 -206.833)" fill="#8bbddb"/>
        </g>
        <g id="Group_1824" data-name="Group 1824" transform="translate(23.854 143.692)">
          <path id="Path_2496" data-name="Path 2496" d="M477.107,232.543c-22.4,12.484-71.915,36.905-116.729,36.905q-1.613,0-3.226-.055c-.6-2.807-1.276-5.887-1.986-9.167,45.671,2.132,100-25.752,120.629-37.434C476.286,226.347,476.724,229.609,477.107,232.543Z" transform="translate(-355.165 -222.793)" fill="#8bbddb"/>
        </g>
      </g>
      <path id="Path_2497" data-name="Path 2497" d="M387.059,149.935s-1.485,12.358,3.073,16.142c0,0-2.309,8.806-9.156,10.479-7.911,1.935-12.367-6.381-12.367-6.381s2.081-12.059-2.9-15.21Z" transform="translate(-173.306 -15.839)" fill="#ef6e4b"/>
      <g id="Group_1829" data-name="Group 1829" transform="translate(155.914 71.223)">
        <path id="Path_2498" data-name="Path 2498" d="M409.511,152.113s4.824-8.179-6.718-21.139c0,0-5.467-12.413-24.3-15.269s-32.8,17.691-32.8,28.983,6.683,0,6.683,0,1.518,7.913,3.645,11.425c0,0-.7,11.381,6.486,11.394S409.511,152.113,409.511,152.113Z" transform="translate(-345.688 -115.436)" fill="#105e99"/>
        <path id="Path_2499" data-name="Path 2499" d="M359.776,143.51s-7.488-3.718-5.983,3.06c1.742,7.851,9.654,8.6,10.191,5.734S359.776,143.51,359.776,143.51Z" transform="translate(-339.186 -93.183)" fill="#ff8b66"/>
        <path id="Path_2500" data-name="Path 2500" d="M378.621,137.709s3.732-7.481,6.617-1.166c3.344,7.315-2.52,12.679-4.675,10.718S378.621,137.709,378.621,137.709Z" transform="translate(-318.607 -100.16)" fill="#ff8b66"/>
        <path id="Path_2501" data-name="Path 2501" d="M386.94,179.315c-12.449,4.175-22.2-1.6-30.382-25.992-4.217-12.579-.4-22.444,13.541-27.118s22.405,1.072,26.624,13.652C405.509,166.064,399.8,175,386.94,179.315Z" transform="translate(-338.085 -107.909)" fill="#ff8b66"/>
        <path id="Path_2502" data-name="Path 2502" d="M379.717,139.009c.638,1.177-.04,2.779-1.512,3.577s-3.186.488-3.824-.689.04-2.781,1.512-3.577S379.08,137.832,379.717,139.009Z" transform="translate(-322.286 -96.979)" fill="#db614d"/>
        <path id="Path_2503" data-name="Path 2503" d="M365.951,144.348c.343,1.3-.693,2.692-2.312,3.122s-3.211-.275-3.552-1.571.693-2.692,2.313-3.12S365.609,143.052,365.951,144.348Z" transform="translate(-333.899 -93.051)" fill="#db614d"/>
        <g id="Group_1826" data-name="Group 1826" transform="translate(40.721 29.346)">
          <path id="Path_2504" data-name="Path 2504" d="M374.8,133.475a.645.645,0,0,1-.514-.042c-2.333-1.23-5.327-.139-5.373-.124a.667.667,0,0,1-.844-.388.657.657,0,0,1,.386-.844c.131-.051,3.6-1.3,6.441.2a.655.655,0,0,1,.275.886A.644.644,0,0,1,374.8,133.475Z" transform="translate(-368.032 -131.538)" fill="#ffb878"/>
        </g>
        <g id="Group_1827" data-name="Group 1827" transform="translate(23.187 34.177)">
          <path id="Path_2505" data-name="Path 2505" d="M359.277,139.155a.656.656,0,0,1-.8-.9c1.363-2.914,4.88-4,5.019-4.04a.657.657,0,0,1,.816.439.669.669,0,0,1-.437.818c-.026,0-3.1.971-4.208,3.339A.659.659,0,0,1,359.277,139.155Z" transform="translate(-358.411 -134.189)" fill="#ffb878"/>
        </g>
        <path id="Path_2506" data-name="Path 2506" d="M373.895,137.475c.518,1.546.242,3.033-.616,3.321s-1.976-.733-2.495-2.278-.242-3.033.618-3.322S373.375,135.928,373.895,137.475Z" transform="translate(-325.262 -99.225)" fill="#1a4850"/>
        <path id="Path_2507" data-name="Path 2507" d="M364.772,140.533c.519,1.545.242,3.033-.616,3.32s-1.976-.733-2.493-2.278-.244-3.034.616-3.321S364.254,138.986,364.772,140.533Z" transform="translate(-332.765 -96.708)" fill="#1a4850"/>
        <path id="Path_2508" data-name="Path 2508" d="M366.294,151.661s11.452-2.267,16.191-6.873c0,0-.687,8.546-6.907,9.887A9,9,0,0,1,366.294,151.661Z" transform="translate(-328.74 -91.295)" fill="#1a4850"/>
        <g id="Group_1828" data-name="Group 1828" transform="translate(38.616 36.551)">
          <path id="Path_2509" data-name="Path 2509" d="M373.5,152.377a12.083,12.083,0,0,1-2.951.527l-.073-1.392c1.427-.078,3.548-.55,3.818-1.227.093-.235-.111-.64-.561-1.11-3.084-3.222-6.707-12.786-6.86-13.191l1.307-.492c.036.1,3.674,9.7,6.561,12.719a2.419,2.419,0,0,1,.849,2.586A3.2,3.2,0,0,1,373.5,152.377Z" transform="translate(-366.877 -135.492)" fill="#db614d"/>
        </g>
        <path id="Path_2510" data-name="Path 2510" d="M368.537,123.305c-27.838,10.322-11.119,36.59-11.119,36.59l4.041,3.672c-1.8-7.54-.516-11.709-.516-11.709-1.93-2.96-2.123-8.347-1.556-10.886,3.539-2.98,12.205-8.609,28.23-10.322.13.131,4.316,4.416,4.764,8.6,0,0,6.4,5.848,9.122,12.721l.488-6.461S395.569,113.282,368.537,123.305Z" transform="translate(-340.135 -110.553)" fill="#ffb878"/>
      </g>
    </g>
    <g id="Group_1845" data-name="Group 1845" transform="translate(496.052 122.502)">
      <g id="Group_1836" data-name="Group 1836" transform="translate(14.963 260.777)">
        <g id="Group_1831" data-name="Group 1831">
          <path id="Path_2511" data-name="Path 2511" d="M412.758,509.006l-12.265,2.861S381.321,409.116,376.91,398.254c-3.791-9.367-19.993-45.2-25.369-72.717a19.155,19.155,0,0,1-4.21-.6h-.018q-.847-.191-1.8-.383c-.565-.127-1.166-.255-1.768-.383-.456,27.428-6.415,61.253-8.238,70.73-2.205,11.5-1.021,116.091-1.021,116.091l-12.593-.419c-23.893-84.69-11.281-116.51-11.281-116.51S288.7,317.829,296.466,290.947a180.573,180.573,0,0,1,8.8-23.929c.255-.565.492-1.112.765-1.64a160.2,160.2,0,0,1,11.135-20.612l25.606,3.208.237-.419.747.146v8.037l3.244-.164.729-.055h.018l10.625-.565,1.458-.073,9.295-.492s5.577,8.875,13.523,23.145c.292.547.6,1.093.893,1.64,2.825,5.121,5.923,10.88,9.167,17.131,12.848,24.877,8.456,96.281,8.456,96.281S419.72,421.291,412.758,509.006Z" transform="translate(-294.801 -244.766)" fill="#8bbddb"/>
        </g>
        <g id="Group_1832" data-name="Group 1832" transform="translate(10.468 2.442)">
          <path id="Path_2512" data-name="Path 2512" d="M320.884,246.616c-.091.182-6.688,15.874-20.339,19.3.255-.565.492-1.112.765-1.64,12.247-3.809,18.225-18.006,18.3-18.17Z" transform="translate(-300.545 -246.106)" fill="#6097b2"/>
        </g>
        <g id="Group_1833" data-name="Group 1833" transform="translate(63.009 8.274)">
          <path id="Path_2513" data-name="Path 2513" d="M355.108,275.44c-15.291-3.281-23.091-19.282-25.168-24.221-.365-.893-.547-1.422-.565-1.458l1.294-.456c.018.036.255.729.729,1.841,2.187,5.066,9.349,19.081,22.817,22.653C354.507,274.347,354.817,274.893,355.108,275.44Z" transform="translate(-329.375 -249.306)" fill="#6097b2"/>
        </g>
        <g id="Group_1834" data-name="Group 1834" transform="translate(39.909 8.201)">
          <path id="Path_2514" data-name="Path 2514" d="M329.3,321.235q-.848-.191-1.8-.383c-2.224-4.1-6.269-12.921-9.586-27.629-4.775-21.177,6.087-43.739,6.2-43.958l1.239.6c-.109.219-10.771,22.362-6.105,43.065.2.875.4,1.731.6,2.551.109.456.219.893.328,1.33C323.562,310.282,327.517,318.1,329.3,321.235Z" transform="translate(-316.7 -249.266)" fill="#6097b2"/>
        </g>
        <g id="Group_1835" data-name="Group 1835" transform="translate(42.483 10.492)">
          <path id="Path_2515" data-name="Path 2515" d="M318.311,295.851c-.066,0-.131,0-.2-.005l.086-1.363a2.951,2.951,0,0,0,2.242-1.13c.906-1.035,2.846-4.308,1.281-12.342-2.1-10.789,5.888-29.688,6.229-30.488l1.257.536c-.082.191-8.166,19.314-6.143,29.692,1.618,8.318-.3,12.03-1.6,13.5A4.3,4.3,0,0,1,318.311,295.851Z" transform="translate(-318.112 -250.523)" fill="#6097b2"/>
        </g>
      </g>
      <path id="Path_2516" data-name="Path 2516" d="M320.344,221.659s4.055-7.341-1.648-19.952-4.532-47.472,24.04-45.988c0,0,16.949-2.808,25.5,8.3s15.489,50.238,6.55,79.272S308.863,264.55,320.344,221.659Z" transform="translate(-262.429 -57.489)" fill="#f24052"/>
      <path id="Path_2517" data-name="Path 2517" d="M359.59,301.328a58.867,58.867,0,0,1-51.959-9.623s-4.684-96.281,4.228-102.733c3.9-2.825,11.591-.565,19.008,2.88A142.8,142.8,0,0,1,349.584,202.7s16.6-2.351,29.688-.911c8.329.893,15.218,3.335,15.528,8.857C395.62,224.875,359.59,301.328,359.59,301.328Z" transform="translate(-270.298 -30.928)" fill="#ff8b66"/>
      <path id="Path_2518" data-name="Path 2518" d="M368.942,200.127c-5.613-.583-6.652,3.663-12.265,5.7a78.156,78.156,0,0,1-14.926,3.882c-2.551.237-3.9,3.408-3.9,3.408s-.911-4.283-2.3-4.647c-1.349-.346-13.249-12.32-15.728-18.5a142.805,142.805,0,0,1,18.717,10.844s16.6-2.351,29.688-.911C368.686,200.054,368.942,200.127,368.942,200.127Z" transform="translate(-259.257 -29.052)" fill="#ef6e4b"/>
      <g id="Group_1837" data-name="Group 1837" transform="translate(31.404 521.83)">
        <path id="Path_2519" data-name="Path 2519" d="M308.818,403.441c.769-5.24-1.166-8.965.2-11.492,2.116-3.907,4.35,1.033,4.35,1.033.179-5.95,10.148-5.939,11.146-3.217a18.806,18.806,0,0,0,.884,2.008c.618-1.432,1.668-2.825,3.033-2.008,5.327,3.189-1.3,11.423,3.55,17.423,6.169,7.636,2.371,19.18,2.371,19.18H304.809C301.348,410.181,308.049,408.662,308.818,403.441Z" transform="translate(-303.823 -388.007)" fill="#cfd8dc"/>
        <path id="Path_2520" data-name="Path 2520" d="M323.911,397.29s-6.986-3.671-16.251,1.19l1.822-3.343a16.253,16.253,0,0,1,13.577-.971Z" transform="translate(-300.667 -383.812)" fill="#adbec4"/>
        <path id="Path_2521" data-name="Path 2521" d="M325.914,400.325s-9.945-3.454-19.209,1.405l1.74-3.541s8.81-3.812,16.251-.959Z" transform="translate(-301.453 -381.294)" fill="#adbec4"/>
      </g>
      <g id="Group_1838" data-name="Group 1838" transform="translate(111.643 521.83)">
        <path id="Path_2522" data-name="Path 2522" d="M374.545,403.441c-.769-5.24,1.166-8.965-.2-11.492-2.116-3.907-4.35,1.033-4.35,1.033-.18-5.95-10.148-5.939-11.146-3.217a18.818,18.818,0,0,1-.884,2.008c-.62-1.432-1.669-2.825-3.033-2.008-5.327,3.189,1.3,11.423-3.55,17.423-6.171,7.636-2.373,19.18-2.373,19.18h29.548C382.014,410.181,375.314,408.662,374.545,403.441Z" transform="translate(-347.851 -388.007)" fill="#cfd8dc"/>
        <path id="Path_2523" data-name="Path 2523" d="M352.485,397.29s6.986-3.671,16.249,1.19l-1.822-3.343a16.251,16.251,0,0,0-13.577-.971Z" transform="translate(-344.039 -383.812)" fill="#adbec4"/>
        <path id="Path_2524" data-name="Path 2524" d="M351.817,400.325s9.945-3.454,19.209,1.405l-1.742-3.541s-8.808-3.812-16.249-.959Z" transform="translate(-344.588 -381.294)" fill="#adbec4"/>
      </g>
      <path id="Path_2525" data-name="Path 2525" d="M331.185,179.279s2.129,25.706-5.024,29.382c0,0,5.285,9.743,19.455,3.813,0,0-2.395-13.222,6.976-28.919C358.869,173.045,331.185,179.279,331.185,179.279Z" transform="translate(-254.046 -39.36)" fill="#ef6e4b"/>
      <g id="Group_1842" data-name="Group 1842" transform="translate(56.267 101.044)">
        <path id="Path_2526" data-name="Path 2526" d="M343.557,174.787s5.32-6.184,6.541.479c1.414,7.72-5.416,11.394-6.986,9.023S343.557,174.787,343.557,174.787Z" transform="translate(-296.864 -144.737)" fill="#ff8b66"/>
        <path id="Path_2527" data-name="Path 2527" d="M323.865,176.408s-6.2-5.307-6.4,1.465c-.228,7.846,7.08,10.443,8.274,7.86S323.865,176.408,323.865,176.408Z" transform="translate(-317.465 -142.883)" fill="#ff8b66"/>
        <path id="Path_2528" data-name="Path 2528" d="M344.314,214.376c12.777-.973,19.353-9.869,17.447-34.9-.984-12.912-8.156-20.332-22.468-19.242s-19.735,9.468-18.753,22.382C322.588,209.511,331.113,215.38,344.314,214.376Z" transform="translate(-315.029 -154.645)" fill="#ff8b66"/>
        <path id="Path_2529" data-name="Path 2529" d="M323.188,178.132a3.035,3.035,0,1,0,3.175-2.072A2.714,2.714,0,0,0,323.188,178.132Z" transform="translate(-312.766 -141.556)" fill="#db614d"/>
        <path id="Path_2530" data-name="Path 2530" d="M337.643,177.736a3.034,3.034,0,1,0,2.6-2.759A2.713,2.713,0,0,0,337.643,177.736Z" transform="translate(-300.885 -142.464)" fill="#db614d"/>
        <g id="Group_1839" data-name="Group 1839" transform="translate(14.59 19.477)">
          <path id="Path_2531" data-name="Path 2531" d="M325.84,171.414a.643.643,0,0,0,.767-.175c1.626-1.99,4.749-2.151,4.78-2.152a.64.64,0,1,0-.057-1.279c-.151.005-3.731.191-5.715,2.621a.638.638,0,0,0,.091.9A.619.619,0,0,0,325.84,171.414Z" transform="translate(-325.47 -167.807)" fill="#f24052"/>
        </g>
        <g id="Group_1840" data-name="Group 1840" transform="translate(33.099 18.437)">
          <path id="Path_2532" data-name="Path 2532" d="M336,168.486a.644.644,0,0,0,.339.056c.031,0,3.146-.312,5.052,1.405a.641.641,0,1,0,.856-.953c-2.331-2.1-5.9-1.742-6.045-1.724a.64.64,0,0,0-.2,1.216Z" transform="translate(-335.627 -167.236)" fill="#f24052"/>
        </g>
        <path id="Path_2533" data-name="Path 2533" d="M326.744,174.844c.12,1.587.933,2.819,1.815,2.752s1.5-1.407,1.378-2.994-.935-2.819-1.815-2.752S326.622,173.258,326.744,174.844Z" transform="translate(-309.846 -145.007)" fill="#1a4850"/>
        <path id="Path_2534" data-name="Path 2534" d="M336.428,174.042c.12,1.587.933,2.819,1.815,2.752s1.5-1.407,1.378-2.994-.933-2.818-1.815-2.752S336.308,172.457,336.428,174.042Z" transform="translate(-301.881 -145.666)" fill="#1a4850"/>
        <path id="Path_2535" data-name="Path 2535" d="M341.335,181.335s-7.873,1.72-12.13-.1c0,0,2.765,5.715,7.071,4.855A6.383,6.383,0,0,0,341.335,181.335Z" transform="translate(-307.809 -137.289)" fill="#1a4850"/>
        <path id="Path_2536" data-name="Path 2536" d="M332.562,174.777s-1.462-3.82-2.976-3.423-2.422,3.833-2.422,3.833l-2.36-1.028,2.291.124s.915-3.583,2.433-3.705C331.688,170.405,332.562,174.777,332.562,174.777Z" transform="translate(-311.429 -146.055)" fill="#1a4850"/>
        <path id="Path_2537" data-name="Path 2537" d="M335.888,174.705s.867-4,2.424-3.834,2.974,3.423,2.974,3.423l2.178-1.374-2.247.468s-1.447-3.4-2.965-3.291C336.09,170.251,335.888,174.705,335.888,174.705Z" transform="translate(-302.313 -146.449)" fill="#1a4850"/>
        <g id="Group_1841" data-name="Group 1841" transform="translate(24.901 32.451)">
          <path id="Path_2538" data-name="Path 2538" d="M332.835,180.481a4,4,0,0,0,.93.3l.259-1.358c-1.155-.221-1.458-.9-1.505-1.434a1.712,1.712,0,0,1,.742-1.649c.237-.091.5.055.793.434l1.1-.84a1.988,1.988,0,0,0-2.393-.88,3.035,3.035,0,0,0-1.615,3.064A2.837,2.837,0,0,0,332.835,180.481Z" transform="translate(-331.129 -174.926)" fill="#db614d"/>
        </g>
        <path id="Path_2539" data-name="Path 2539" d="M345.582,166.8s4.726-1.542,6.7,5.666c3.417,12.5,5.885,32.819,13.982,42.857,5.879,7.29,9.457,4.328,9.457,4.328a29.61,29.61,0,0,0-.911-14.43c-2.506-7.211.676-33.145-8.545-42.618s-25.5-3.415-25.5-3.415-7.839-4.651-15.487,0-9.816,25.525-2.012,34.793c0,0-.4-7.853,3.018-10.909S331.621,162.927,345.582,166.8Z" transform="translate(-316.721 -157.12)" fill="#f24052"/>
      </g>
      <g id="Group_1843" data-name="Group 1843" transform="translate(0 0)">
        <path id="Path_2540" data-name="Path 2540" d="M311.754,109.755c-2.943,9.462,4.286,13.736-1.066,20.208-3.315,4.006-8.338.744-8.338.744-2.417-5.046-8.134-11.72-11.108-14.6s-.853-2.938-.853-2.938c-.3-.244-.589-.461-.882-.678-2.214-1.673-4.1-2.573-2.014-3.215,2.344-.74,8.844,3.72,8.844,3.72-7.74-8.609-10.663-7.746-8.618-8.628,2.788-1.212,10.6,5.221,10.829,5.415-3.736-5.927-7.04-7.9-4.9-8.1,2.165-.206,10.111,9.362,12.992,12.929.651.8,1.042,1.309,1.042,1.309C309.567,108.051,311.754,109.755,311.754,109.755Z" transform="translate(-286.591 -101.676)" fill="#ff8b66"/>
        <path id="Path_2541" data-name="Path 2541" d="M298.29,108.772c.651.8,1.042,1.309,1.042,1.309a6.711,6.711,0,0,0-1.161,6.577A5.991,5.991,0,0,1,298.29,108.772Z" transform="translate(-278.245 -95.84)" fill="#ef6e4b"/>
        <path id="Path_2542" data-name="Path 2542" d="M295.725,113.223c-.709-.665-4.738-4.525-6.652-4.848-.3-.244-.589-.461-.882-.678C289.875,106.359,294.963,112.3,295.725,113.223Z" transform="translate(-285.276 -96.885)" fill="#ef6e4b"/>
      </g>
      <path id="Path_2543" data-name="Path 2543" d="M309.372,117.2s-1.059,62.429-4.306,74.825c0,0,11.354,39.212,28.354,53.444,0,0,2.65,10.636-12.045,31.571,0,0-28.589-51.146-33.183-80.411l12.843-78.685Z" transform="translate(-285.276 -88.911)" fill="#ff8b66"/>
      <path id="Path_2544" data-name="Path 2544" d="M343.95,211.208c1.456,5.17,2.265,23.344,19.5,32.67s35.682-4.325,40.694-19.214c0,0,2.1-3.162,8.917,4.522,0,0,35.848,17.374,40.464,26.391s1.841,43.526-12.491,44.042-31.645-15.431-36.2-4.952-31.208,47.9-86.453,17.8c0,0-6.949-8.688-6.949-16.433s-3.528-58.818-3.528-58.818-20.364-5.9-15.252-53.956c0,0,14.026,7.764,13.67-17.869,0,0,11.571-5.371,15.4,16.164,2.566,14.425,16.825,24.975,16.825,24.975S341.732,203.341,343.95,211.208Z" transform="translate(-282.283 -49.763)" fill="#105e99"/>
      <path id="Path_2545" data-name="Path 2545" d="M393.222,244.925c12.2-5.108,39.025-27.259,48.6-40.105l-5.744-5.322s-31.6,21.43-43.727,25.245-18.54,10.773-17.064,19.393S390.656,246,393.222,244.925Z" transform="translate(-213.817 -21.221)" fill="#ff8b66"/>
      <g id="Group_1844" data-name="Group 1844" transform="translate(222.06 165.584)">
        <path id="Path_2546" data-name="Path 2546" d="M424.386,192.533c-5.943,7.928-13.645,4.574-15.752,12.7-1.3,5.034,4.281,7.191,4.281,7.191,5.506-1,14.265-.273,18.341.448,4.082.7,2.88-1.03,2.88-1.03.374.1.72.208,1.068.319,2.653.813,4.485,1.81,3.785-.251-.775-2.335-8.2-4.99-8.2-4.99,11.512,1.228,12.522,4.1,12.041,1.93-.652-2.969-10.441-5.528-10.734-5.6,6.993-.445,10.528,1.077,9.44-.773-1.1-1.873-13.512-2.708-18.09-2.954-1.03-.057-1.673-.077-1.673-.077C427.048,193.308,424.386,192.533,424.386,192.533Z" transform="translate(-408.437 -192.533)" fill="#ff8b66"/>
        <path id="Path_2547" data-name="Path 2547" d="M419.528,196.4c-1.03-.056-1.673-.076-1.673-.076a6.7,6.7,0,0,1-4.649,4.793A5.991,5.991,0,0,0,419.528,196.4Z" transform="translate(-404.514 -189.413)" fill="#ef6e4b"/>
        <path id="Path_2548" data-name="Path 2548" d="M418.245,201.73c.955.186,6.442,1.19,7.824,2.551.374.1.72.208,1.068.319C427.233,202.452,419.437,201.81,418.245,201.73Z" transform="translate(-400.37 -184.969)" fill="#ef6e4b"/>
      </g>
    </g>
    <g id="Group_1854" data-name="Group 1854" transform="translate(354.59 213.617)">
      <path id="Path_2549" data-name="Path 2549" d="M229.419,291.23a156.266,156.266,0,0,1,23.122-46.817l23.193,3.845.231-.421,1.879.375.27-.006,0,.058,23.949,4.788a223.725,223.725,0,0,1,17.16,46.331c6.854,27.135-13.65,95.678-13.65,95.678s11.544,32.161-15.187,115.995H277.789s4.695-104.418,2.872-115.995c-1.571-9.985-3.592-46.571-2.561-74.583a16.377,16.377,0,0,1-4.563.332h0c.084,28.022-3.164,64.461-5.068,74.379-2.211,11.511-1.031,116.088-1.031,116.088l-12.586-.423c-23.894-84.685-11.276-116.5-11.276-116.5S221.657,318.119,229.419,291.23Z" transform="translate(-193.52 -75.395)" fill="#ff8b66"/>
      <path id="Path_2550" data-name="Path 2550" d="M329.318,210.651c-.816-14.232-45.228-7.959-45.228-7.959s-28.811-20.18-37.725-13.725c-3.155,2.287-4.605,15.834-5.161,32.378-3.348,5.927-6.249,14.86-.288,22.976.1,24.308,1.225,47.377,1.225,47.377a58.887,58.887,0,0,0,51.966,9.628s10.638-22.571,20.222-45.467c6.16-4.981,7.485-12.211,7.286-18.137C326.276,225.471,329.572,215.066,329.318,210.651Z" transform="translate(-185.53 -122.045)" fill="#0e3944"/>
      <path id="Path_2551" data-name="Path 2551" d="M314.073,167.794c-12.892-22-45.473-19.3-56.619-4.957-13.481,17.35-6.315,57.758-6.315,57.758s31.048-25.87,49.653,9.493C300.793,230.088,328.493,192.4,314.073,167.794Z" transform="translate(-175.852 -151.672)" fill="#ffb878"/>
      <g id="Group_1846" data-name="Group 1846" transform="translate(50.684 430.715)">
        <path id="Path_2552" data-name="Path 2552" d="M241.776,403.441c.767-5.24-1.166-8.965.2-11.492,2.116-3.907,4.35,1.033,4.35,1.033.179-5.95,10.148-5.939,11.144-3.217a18.806,18.806,0,0,0,.886,2.008c.618-1.432,1.668-2.825,3.033-2.008,5.327,3.189-1.3,11.423,3.55,17.423,6.169,7.636,2.371,19.18,2.371,19.18H237.767C234.306,410.181,241.007,408.662,241.776,403.441Z" transform="translate(-236.781 -388.007)" fill="#0e3944"/>
        <path id="Path_2553" data-name="Path 2553" d="M256.869,397.29s-6.987-3.671-16.251,1.19l1.823-3.343a16.253,16.253,0,0,1,13.577-.971Z" transform="translate(-233.625 -383.812)" fill="#205260"/>
        <path id="Path_2554" data-name="Path 2554" d="M258.872,400.325s-9.945-3.454-19.209,1.405l1.74-3.541s8.808-3.812,16.251-.959Z" transform="translate(-234.411 -381.294)" fill="#205260"/>
      </g>
      <g id="Group_1847" data-name="Group 1847" transform="translate(76.214 430.715)">
        <path id="Path_2555" data-name="Path 2555" d="M277.484,403.441c-.769-5.24,1.166-8.965-.2-11.492-2.116-3.907-4.35,1.033-4.35,1.033-.18-5.95-10.147-5.939-11.146-3.217a18.818,18.818,0,0,1-.884,2.008c-.62-1.432-1.669-2.825-3.033-2.008-5.327,3.189,1.3,11.423-3.55,17.423-6.171,7.636-2.373,19.18-2.373,19.18h29.548C284.953,410.181,278.253,408.662,277.484,403.441Z" transform="translate(-250.79 -388.007)" fill="#0e3944"/>
        <path id="Path_2556" data-name="Path 2556" d="M255.424,397.29s6.985-3.671,16.249,1.19l-1.822-3.343a16.252,16.252,0,0,0-13.578-.971Z" transform="translate(-246.978 -383.812)" fill="#205260"/>
        <path id="Path_2557" data-name="Path 2557" d="M254.756,400.325s9.943-3.454,19.209,1.405l-1.742-3.541s-8.808-3.812-16.249-.959Z" transform="translate(-247.527 -381.294)" fill="#205260"/>
      </g>
      <path id="Path_2558" data-name="Path 2558" d="M264.144,179.279s1.237,15.535-5.025,29.382c0,0,5.285,9.743,19.455,3.813,0,0-2.395-13.222,6.976-28.919C291.827,173.045,264.144,179.279,264.144,179.279Z" transform="translate(-167.725 -130.475)" fill="#ef6e4b"/>
      <g id="Group_1851" data-name="Group 1851" transform="translate(80.926 4.989)">
        <path id="Path_2559" data-name="Path 2559" d="M280.445,175.151s6.734-4.607,6.2,2.147c-.62,7.824-8.165,9.617-9.072,6.922S280.445,175.151,280.445,175.151Z" transform="translate(-233.59 -138.611)" fill="#ff8b66"/>
        <path id="Path_2560" data-name="Path 2560" d="M260.4,171.994s-4.622-6.723-6.555-.231c-2.24,7.523,4.155,11.913,5.97,9.727S260.4,171.994,260.4,171.994Z" transform="translate(-253.375 -142.461)" fill="#ff8b66"/>
        <path id="Path_2561" data-name="Path 2561" d="M273.076,212.188c12.6,2.347,21.241-4.556,25.841-29.236,2.371-12.73-2.65-21.746-16.759-24.374s-21.509,4.07-23.882,16.8C253.335,201.9,260.064,209.762,273.076,212.188Z" transform="translate(-250.68 -151.445)" fill="#ff8b66"/>
        <path id="Path_2562" data-name="Path 2562" d="M258.988,173.435a3.035,3.035,0,1,0,3.6-1.183A2.712,2.712,0,0,0,258.988,173.435Z" transform="translate(-248.859 -139.922)" fill="#db614d"/>
        <path id="Path_2563" data-name="Path 2563" d="M273.086,176.74a3.034,3.034,0,1,0,3.22-2A2.713,2.713,0,0,0,273.086,176.74Z" transform="translate(-237.175 -137.708)" fill="#db614d"/>
        <g id="Group_1848" data-name="Group 1848" transform="translate(17.754 19.397)">
          <path id="Path_2564" data-name="Path 2564" d="M263.345,167.3a.643.643,0,0,0,.787.029c2.083-1.505,5.143-.857,5.172-.849a.641.641,0,1,0,.275-1.252c-.148-.033-3.654-.773-6.2,1.063a.639.639,0,0,0-.036,1.01Z" transform="translate(-263.117 -165.052)" fill="#ffb878"/>
        </g>
        <g id="Group_1849" data-name="Group 1849" transform="translate(36.514 21.993)">
          <path id="Path_2565" data-name="Path 2565" d="M273.639,167.609a.671.671,0,0,0,.312.142c.031,0,3.122.507,4.521,2.655a.641.641,0,1,0,1.073-.7c-1.711-2.632-5.249-3.2-5.4-3.222a.641.641,0,0,0-.508,1.124Z" transform="translate(-273.411 -166.477)" fill="#ffb878"/>
        </g>
        <path id="Path_2566" data-name="Path 2566" d="M263.356,171.293c-.291,1.564.177,2.963,1.046,3.126s1.81-.975,2.1-2.539-.177-2.965-1.046-3.127S263.648,169.728,263.356,171.293Z" transform="translate(-245.237 -142.624)" fill="#1a4850"/>
        <path id="Path_2567" data-name="Path 2567" d="M272.782,173.193c-.292,1.564.177,2.963,1.046,3.126s1.81-.975,2.1-2.541-.177-2.963-1.046-3.126S273.074,171.628,272.782,173.193Z" transform="translate(-237.485 -141.062)" fill="#1a4850"/>
        <path id="Path_2568" data-name="Path 2568" d="M275.406,181.476s-8.052-.365-11.695-3.222c0,0,1.2,6.235,5.582,6.512A6.387,6.387,0,0,0,275.406,181.476Z" transform="translate(-244.874 -134.797)" fill="#1a4850"/>
        <path id="Path_2569" data-name="Path 2569" d="M269.031,172.337s-.43-4.068-1.994-4.073-3.328,3.082-3.328,3.082l-2.016-1.6,2.182.709s1.806-3.226,3.3-2.952C269.312,167.887,269.031,172.337,269.031,172.337Z" transform="translate(-246.533 -143.655)" fill="#1a4850"/>
        <path id="Path_2570" data-name="Path 2570" d="M272.383,173.4s1.866-3.639,3.328-3.08,2,4.071,2,4.071l2.457-.767-2.291-.124s-.523-3.66-2.018-3.946C273.724,169.152,272.383,173.4,272.383,173.4Z" transform="translate(-237.742 -141.972)" fill="#1a4850"/>
        <g id="Group_1850" data-name="Group 1850" transform="translate(24.329 33.781)">
          <path id="Path_2571" data-name="Path 2571" d="M267.795,178.225a3.91,3.91,0,0,0,.824.525l.6-1.245a1.593,1.593,0,0,1-1.086-1.773,1.705,1.705,0,0,1,1.143-1.4c.253-.029.472.18.654.622l1.278-.529a1.989,1.989,0,0,0-2.087-1.467,3.035,3.035,0,0,0-2.349,2.544A2.832,2.832,0,0,0,267.795,178.225Z" transform="translate(-266.725 -172.945)" fill="#db614d"/>
        </g>
        <path id="Path_2572" data-name="Path 2572" d="M257.432,188.265s-5.238-15.271,4.263-27.8,35.148-3.231,39.854,6.417-4.485,29.145-4.485,29.145,7.1-25.854-7.192-30.125c0,0-1.773,6.473-12.856,11.07-10.9,4.522-17.428,3.845-17.428,3.845Z" transform="translate(-251.223 -154.409)" fill="#ffb878"/>
      </g>
      <path id="Path_2573" data-name="Path 2573" d="M282.145,195.75s16.184.3,55.85,40.131c5.5,5.526-.769,22.848-17.213,12.165-18.108-11.762-30.122-23.938-33.9-19.435C286.886,228.611,277.438,205.806,282.145,195.75Z" transform="translate(-149.867 -115.419)" fill="#ef6e4b"/>
      <path id="Path_2574" data-name="Path 2574" d="M325.167,243.655c-.126-13.222-10.508-46.427-18.792-60.142l-7.1,3.311s7.917,37.348,6.871,50.021,2.976,21.235,11.514,23.122S325.195,246.437,325.167,243.655Z" transform="translate(-134.694 -125.483)" fill="#ff8b66"/>
      <g id="Group_1852" data-name="Group 1852" transform="translate(158.777 29.809)">
        <path id="Path_2575" data-name="Path 2575" d="M296.092,180.182c5.1,8.5-.915,14.361,5.817,19.38,4.168,3.109,8.276-1.248,8.276-1.248,1.154-5.475,5.132-13.311,7.339-16.814s.133-3.056.133-3.056c.23-.308.465-.587.7-.867,1.755-2.151,3.37-3.47,1.2-3.6-2.453-.162-7.713,5.708-7.713,5.708,5.484-10.2,8.527-10.049,6.333-10.423-3-.518-9.061,7.58-9.242,7.824,2.227-6.643,4.972-9.342,2.849-9.032-2.152.313-7.609,11.489-9.564,15.635-.443.931-.705,1.52-.705,1.52C297.814,178.01,296.092,180.182,296.092,180.182Z" transform="translate(-296.092 -168.028)" fill="#ff8b66"/>
        <path id="Path_2576" data-name="Path 2576" d="M299.769,176.62c-.443.931-.705,1.52-.705,1.52a6.7,6.7,0,0,1,2.685,6.114A5.991,5.991,0,0,0,299.769,176.62Z" transform="translate(-293.648 -160.961)" fill="#ef6e4b"/>
        <path id="Path_2577" data-name="Path 2577" d="M305.008,180.455c.532-.815,3.534-5.518,5.316-6.284.23-.308.465-.587.7-.867C309.069,172.4,305.531,179.381,305.008,180.455Z" transform="translate(-288.759 -163.755)" fill="#ef6e4b"/>
      </g>
      <path id="Path_2578" data-name="Path 2578" d="M275.237,187.754s-15.99-3.377-62.975,27.485c-6.519,4.283-3.929,22.52,14.356,15.435,20.135-7.8,35.325-17.374,38.1-12.194C264.714,218.479,277.783,198.561,275.237,187.754Z" transform="translate(-208.932 -122.085)" fill="#ef6e4b"/>
      <path id="Path_2579" data-name="Path 2579" d="M210.471,226.12c2.834-12.916,19.8-43.287,30.718-55.015l6.268,4.695s-15.4,34.935-16.974,47.554-7.264,20.173-16.009,20.271S209.875,228.837,210.471,226.12Z" transform="translate(-208.97 -135.689)" fill="#ff8b66"/>
      <g id="Group_1853" data-name="Group 1853" transform="translate(25.305 7.114)">
        <path id="Path_2580" data-name="Path 2580" d="M245.692,170.8c-6.732,7.272-2.047,14.244-9.665,17.778-4.718,2.189-7.846-2.918-7.846-2.918-.007-5.595-2.294-14.082-3.738-17.962-1.425-3.889.5-3.018.5-3.018-.16-.35-.333-.671-.5-.993-1.276-2.462-2.586-4.086-.432-3.769,2.433.343,6.38,7.166,6.38,7.166-3.279-11.1-6.287-11.582-4.064-11.5,3.04.108,7.315,9.276,7.443,9.552-.818-6.958-2.952-10.162-.937-9.424,2.043.747,5.094,12.8,6.158,17.262.242,1,.377,1.631.377,1.631C244.451,168.316,245.692,170.8,245.692,170.8Z" transform="translate(-222.856 -155.575)" fill="#ff8b66"/>
        <path id="Path_2581" data-name="Path 2581" d="M233.371,165.121c.242,1,.377,1.631.377,1.631a6.707,6.707,0,0,0-3.88,5.436A5.992,5.992,0,0,1,233.371,165.121Z" transform="translate(-217.244 -147.724)" fill="#ef6e4b"/>
        <path id="Path_2582" data-name="Path 2582" d="M228.143,168.266c-.354-.906-2.327-6.124-3.917-7.239-.16-.35-.333-.671-.5-.993C225.82,159.553,227.852,167.109,228.143,168.266Z" transform="translate(-222.143 -151.926)" fill="#ef6e4b"/>
      </g>
      <path id="Path_2583" data-name="Path 2583" d="M258.179,242.164s-54.157,74.167-37.16,152.712c0,0,18.329,17.036,32.7,11.114s29.243,15.473,42.083,8.648,24.162-11.837,33.08-8.192,23.905-11.567,23.905-11.567-6.63-86.846-39.549-144.21C313.234,250.668,286.42,262.926,258.179,242.164Z" transform="translate(-201.776 -77.245)" fill="#ffb878"/>
      <path id="Path_2584" data-name="Path 2584" d="M253.012,398.532s5.921,7.441,3.528,19.18h-5S250.387,407.161,253.012,398.532Z" transform="translate(-174.167 51.364)" fill="#07262d"/>
    </g>
    <g id="Group_1861" data-name="Group 1861" transform="translate(173.225 216.135)">
      <path id="Path_2585" data-name="Path 2585" d="M155.774,297.411s9.889,31.122,34.033,72.881c0,0-4.135,44.22,64.415,126.219l9.457-5.2s-35.261-82.443-41-106.881-3.275-57.036-21.718-108.012Z" transform="translate(-71.358 -51.59)" fill="#ff8b66"/>
      <path id="Path_2586" data-name="Path 2586" d="M201.96,259.448l-32.425-13.156c-5.637,17.979-20.193,30.977-19.034,59.2.574,13.973,9.665,28.314,9.665,28.314,38.283-1.381,51.3-17.419,51.3-17.419l-5.808-26.982S201.73,271.185,201.96,259.448Z" transform="translate(-75.749 -76.367)" fill="#ce364c"/>
      <path id="Path_2587" data-name="Path 2587" d="M136.551,278.615s-1.064,32.639,7.758,80.059c0,0-18.658,40.306,18.593,140.481l10.651-1.744s-5.723-89.485-2.974-114.437,17.089-46.919,15.578-109.068Z" transform="translate(-87.201 -53.654)" fill="#ff8b66"/>
      <path id="Path_2588" data-name="Path 2588" d="M216.05,261l-12.83,21.76-3.116,5.267-6.634,11.263-4.265,30.089-.2,1.349-.091.656c-32.9-3.791-50.41,6.452-50.41,6.452l-.31-2.825-.091-.911c-.055-.164-.109-.31-.182-.492-3.062-8.967-7.363-33.205-2.26-49.7,8.329-26.991,23.291-24.439,34.609-39.493C170.325,244.416,216.05,261,216.05,261Z" transform="translate(-89.843 -77.91)" fill="#f24052"/>
      <path id="Path_2589" data-name="Path 2589" d="M147.41,395.448s4.219,9.364,2.916,15.642c-.785,3.793-4.859,8.657-1.593,14.733h25.6a12.574,12.574,0,0,0-3.047-13.213c-3.324-3.526-5.775-19.9-5.775-19.9-2.861.456-2.127,2.734-2.127,2.734s.087-7.718-6.379-6.683c-7.751,1.241-5.923,8.05-5.923,8.05A2.6,2.6,0,0,0,147.41,395.448Z" transform="translate(-78.237 40.734)" fill="#0c476b"/>
      <path id="Path_2590" data-name="Path 2590" d="M253.922,426.369H210.857s-1.2-9.149.693-12.211c2.734-4.41-6.725-14.179-6.725-14.179s5.741-7.162,10.825-3.1c0,0-.456-8.967,5.923-8.875,0,0,5.923,15.2,12.757,20.63a4.522,4.522,0,0,0,.474.346c5.121,3.681,14.306,4.611,17.915,9.623C254.086,420.483,254.651,422.961,253.922,426.369Z" transform="translate(-31.015 40.188)" fill="#0c476b"/>
      <g id="Group_1855" data-name="Group 1855" transform="translate(48.078 177.732)">
        <path id="Path_2591" data-name="Path 2591" d="M188.924,324.842l-.4,1.294c-.547-.164-1.075-.31-1.6-.474-27.027-7.508-45.635,1.331-50.81,4.283l-.091-.911c-.055-.164-.109-.31-.182-.492a56.208,56.208,0,0,1,13.3-5.1,186.943,186.943,0,0,1,.037-39.165c2.351-20.94,22.854-33.57,23.072-33.7l.693,1.185c-.164.091-14.653,9.039-20.357,24.239,19.027-.219,26.59-24.02,26.663-24.257l1.312.4c-.073.255-8,25.223-28.23,25.223h-.237a33.855,33.855,0,0,0-1.567,7.071,185.987,185.987,0,0,0-.055,38.673c9.112-2.1,21.614-2.934,36.65,1.2C187.7,324.477,188.322,324.659,188.924,324.842Z" transform="translate(-135.835 -250.576)" fill="#ce364c"/>
        <path id="Path_2592" data-name="Path 2592" d="M177.332,256.906c-.016.188-1.85,18.837-10.472,32.948l1.166.713c8.784-14.377,10.651-33.342,10.667-33.532Z" transform="translate(-110.318 -245.37)" fill="#ce364c"/>
      </g>
      <path id="Path_2593" data-name="Path 2593" d="M224.49,256.809s-3.189,15.035-6.606,16.174-.456-7.727-.456-7.727-23.652-9.526-33.353-10.24S188.041,235.851,224.49,256.809Z" transform="translate(-50.57 -75.924)" fill="#0c476b"/>
      <path id="Path_2594" data-name="Path 2594" d="M223.561,281.552s-24.939-11.39-42.2-10.479,23.973-56.5,34.224-50.574S228.117,274.262,223.561,281.552Z" transform="translate(-53.742 -97.934)" fill="#0c476b"/>
      <path id="Path_2595" data-name="Path 2595" d="M168.72,196.743s2.438-6.266,14.811-7.4,23.262,11.711,20.893,19.3S168.72,196.743,168.72,196.743Z" transform="translate(-60.71 -123.269)" fill="#0c476b"/>
      <path id="Path_2596" data-name="Path 2596" d="M204.1,172.2s-.86-15.956-15.781-18.462-26.767,1.139-21.527,22.553,1.822,29.945-7.973,30.92-9.112-10.5-9.112-10.5-2.05,10.558,8.657,14.43c0,0-11.3.911-7.246,7.973s16.539,5.923,21.461,0c0,0,.364,4.813,6.515,3.089a3.708,3.708,0,0,1-2.269-4c.219-3.189,17.142,2.2,22.453-17.76s-5.3-23.246-5.3-23.246Z" transform="translate(-76.478 -153.053)" fill="#0e3944"/>
      <path id="Path_2597" data-name="Path 2597" d="M198.534,198.3c-9.045-.425-9.4,8.595-4.771,17.406s48.917,48.66,55.735,41.15c2.633-2.9-4.959-16.2-4.959-16.2a349.608,349.608,0,0,1-29.023-29.619C208,202.495,203.25,198.518,198.534,198.3Z" transform="translate(-42.52 -115.855)" fill="#ff8b66"/>
      <path id="Path_2598" data-name="Path 2598" d="M234.863,250.793c2.482-12.987-1.154-47.587-6.572-62.664l-7.609,1.846s.4,38.177-3.124,50.395-1.265,21.4,6.734,24.937S234.342,253.527,234.863,250.793Z" transform="translate(-21.866 -124.205)" fill="#ff8b66"/>
      <g id="Group_1856" data-name="Group 1856" transform="translate(189.99 36.107)">
        <path id="Path_2599" data-name="Path 2599" d="M213.7,192.336c8.252,5.486,5.338,13.364,13.574,15.006a5.186,5.186,0,0,0,4.066-.76,6.134,6.134,0,0,0,2.458-6.058,70.006,70.006,0,0,1-.177-16.2c.47-4.115-1.192-2.818-1.192-2.818.075-.377.166-.729.257-1.083.661-2.7,1.555-4.58-.465-3.765-2.285.906-4.516,8.465-4.516,8.465.574-11.564,3.386-12.735,1.245-12.132-2.929.82-4.928,10.738-4.988,11.035-.84-6.956.479-10.572-1.3-9.38-1.81,1.206-1.939,13.643-1.926,18.226,0,1.032.016,1.675.016,1.675C214.324,189.633,213.7,192.336,213.7,192.336Z" transform="translate(-213.703 -172.866)" fill="#ff8b66"/>
        <path id="Path_2600" data-name="Path 2600" d="M217.561,183.844c0,1.031.016,1.675.016,1.675a6.7,6.7,0,0,1,5.05,4.37A5.992,5.992,0,0,0,217.561,183.844Z" transform="translate(-210.53 -163.836)" fill="#ef6e4b"/>
        <path id="Path_2601" data-name="Path 2601" d="M222.826,186.054c.129-.966.822-6.5,2.1-7.959.075-.377.166-.729.257-1.083C223.036,177.037,222.837,184.859,222.826,186.054Z" transform="translate(-206.2 -169.455)" fill="#ef6e4b"/>
      </g>
      <path id="Path_2602" data-name="Path 2602" d="M187.764,199.809s12.294-5.066,27.33,3.917,24.035,23.262,24.035,23.262.144-26.781,4.686-31.237c0,0,5.62,6.738,12.6,7.975,0,0,17.913,37.109,6.523,60.18s-45.106,0-45.106,0Z" transform="translate(-45.047 -117.937)" fill="#0c476b"/>
      <path id="Path_2603" data-name="Path 2603" d="M153.581,284.721s9.012-23.687,4.416-37.175c-7.862-23.071-3.565-42.56,4.7-48.319,13.366-9.318,41.335,1.334,41.335,1.334s27.226-2.889,30,5.38,9.285,41.784-3.689,59.651-30.971,45.5-30.971,45.5S160.871,307.553,153.581,284.721Z" transform="translate(-73.161 -118.22)" fill="#cfd8dc"/>
      <path id="Path_2604" data-name="Path 2604" d="M177.534,260.648s-3.736,12.814-8.52,11.988-25.465-11.928-25.491-13.782,2.938-5.952,2.938-5.952-1.139-9.8,1.367-10.707S177.534,260.648,177.534,260.648Z" transform="translate(-81.434 -79.763)" fill="#0c476b"/>
      <path id="Path_2605" data-name="Path 2605" d="M186.183,196.053S214.572,245.4,213.2,307.571c0,0,12.91-3.435,15.34-26.672s-5.887-67.752-17.219-79.438C211.326,201.462,203.2,192.98,186.183,196.053Z" transform="translate(-46.347 -118.239)" fill="#105e99"/>
      <path id="Path_2606" data-name="Path 2606" d="M197.262,196.019s21.2,75.731-19.728,105.118c0,0-17.177-.975-29.478-14.385s4.337-85.494,4.337-85.494S174.3,186.772,197.262,196.019Z" transform="translate(-81.434 -120.253)" fill="#105e99"/>
      <path id="Path_2607" data-name="Path 2607" d="M180.887,221.568s-.1-22.766-2.681-28.77-9.486,2.768-9.486,2.768S170.615,206.133,180.887,221.568Z" transform="translate(-60.71 -122.092)" fill="#0c476b"/>
      <path id="Path_2608" data-name="Path 2608" d="M197.089,218.655s2.615-22.418-5.143-26.357-7.891,10.058-7.891,10.058S190.869,201.662,197.089,218.655Z" transform="translate(-48.097 -121.351)" fill="#0c476b"/>
      <path id="Path_2609" data-name="Path 2609" d="M180.74,182.313s1.832,15.475-3.893,29.551c0,0,8.174,12.068,15.972,4.126,0,0,.714-14.181,9.477-30.226C208.163,175.02,180.74,182.313,180.74,182.313Z" transform="translate(-54.026 -130.977)" fill="#ef6e4b"/>
      <g id="Group_1860" data-name="Group 1860" transform="translate(104.166 12.768)">
        <path id="Path_2610" data-name="Path 2610" d="M174.9,182.139s-6.894-4.363-6.116,2.367c.9,7.8,8.505,9.316,9.316,6.59S174.9,182.139,174.9,182.139Z" transform="translate(-164.876 -143.044)" fill="#ff8b66"/>
        <path id="Path_2611" data-name="Path 2611" d="M193.925,178.326s4.376-6.885,6.543-.467c2.508,7.436-3.723,12.054-5.617,9.932S193.925,178.326,193.925,178.326Z" transform="translate(-144.35 -147.671)" fill="#ff8b66"/>
        <path id="Path_2612" data-name="Path 2612" d="M198.485,218.684c-12.506,2.8-21.392-3.789-26.876-28.287-2.83-12.635,1.864-21.826,15.87-24.962s21.64,3.293,24.47,15.93C217.843,207.689,211.4,215.792,198.485,218.684Z" transform="translate(-163.147 -156.285)" fill="#ff8b66"/>
        <path id="Path_2613" data-name="Path 2613" d="M194.725,179.724a3.035,3.035,0,1,1-3.641-1.053A2.714,2.714,0,0,1,194.725,179.724Z" transform="translate(-148.108 -144.979)" fill="#db614d"/>
        <path id="Path_2614" data-name="Path 2614" d="M180.811,183.53a3.035,3.035,0,1,1-3.291-1.883A2.715,2.715,0,0,1,180.811,183.53Z" transform="translate(-159.762 -142.341)" fill="#db614d"/>
        <g id="Group_1857" data-name="Group 1857" transform="translate(31.554 21.071)">
          <path id="Path_2615" data-name="Path 2615" d="M190.28,173.881a.638.638,0,0,1-.354-.108c-2.138-1.427-5.168-.669-5.2-.663a.635.635,0,0,1-.78-.459.644.644,0,0,1,.461-.782c.148-.036,3.621-.9,6.231.838a.641.641,0,0,1-.357,1.174Z" transform="translate(-183.925 -171.621)" fill="#0e3944"/>
        </g>
        <g id="Group_1858" data-name="Group 1858" transform="translate(13.725 24.208)">
          <path id="Path_2616" data-name="Path 2616" d="M174.782,177.736a.64.64,0,0,1-.547-.97c1.617-2.688,5.13-3.386,5.28-3.415a.653.653,0,0,1,.747.51.64.64,0,0,1-.507.749c-.031.005-3.105.625-4.425,2.816A.635.635,0,0,1,174.782,177.736Z" transform="translate(-174.142 -173.343)" fill="#0e3944"/>
        </g>
        <path id="Path_2617" data-name="Path 2617" d="M189.179,177.746c.346,1.553-.071,2.969-.933,3.162s-1.844-.909-2.192-2.462.071-2.969.933-3.162S188.831,176.193,189.179,177.746Z" transform="translate(-150.721 -147.556)" fill="#1a4850"/>
        <path id="Path_2618" data-name="Path 2618" d="M179.648,179.881c.348,1.553-.069,2.969-.933,3.16s-1.844-.908-2.191-2.46.069-2.969.931-3.162S179.3,178.328,179.648,179.881Z" transform="translate(-158.558 -145.8)" fill="#1a4850"/>
        <path id="Path_2619" data-name="Path 2619" d="M181.516,188.17a22.032,22.032,0,0,0,12.008-3.614s1.367,9.338-5,10.171C184.1,195.307,181.516,188.17,181.516,188.17Z" transform="translate(-154.352 -139.912)" fill="#1a4850"/>
        <path id="Path_2620" data-name="Path 2620" d="M185.328,178.941s.282-4.08,1.846-4.142,3.437,2.96,3.437,2.96l1.956-1.673-2.154.787s-1.921-3.158-3.408-2.832C184.889,174.5,185.328,178.941,185.328,178.941Z" transform="translate(-151.248 -148.58)" fill="#1a4850"/>
        <path id="Path_2621" data-name="Path 2621" d="M182.212,180.162s-2-3.568-3.437-2.958-1.846,4.141-1.846,4.141l-2.484-.678,2.285-.208s.392-3.676,1.875-4.015C180.718,175.961,182.212,180.162,182.212,180.162Z" transform="translate(-160.168 -146.615)" fill="#1a4850"/>
        <g id="Group_1859" data-name="Group 1859" transform="translate(28.011 35.617)">
          <path id="Path_2622" data-name="Path 2622" d="M184.722,185.379l-.643-1.221a1.6,1.6,0,0,0,1.021-1.813,1.705,1.705,0,0,0-1.192-1.359c-.25-.013-.465.2-.631.645l-1.3-.483a1.987,1.987,0,0,1,2.032-1.54,3.034,3.034,0,0,1,2.438,2.457A2.982,2.982,0,0,1,184.722,185.379Z" transform="translate(-181.981 -179.602)" fill="#db614d"/>
        </g>
        <path id="Path_2623" data-name="Path 2623" d="M177.622,203.563a77.027,77.027,0,0,1-2.132-12.845,19.218,19.218,0,0,1,13.379-19.983,27.126,27.126,0,0,1,9.971-1.05,15.515,15.515,0,0,1,12.83,9.295,87.407,87.407,0,0,1,5.573,16.761s2.232-7.3.144-18.527-11.232-20.565-32.651-15.947C166.427,165.216,158.545,187.237,177.622,203.563Z" transform="translate(-166.611 -160.059)" fill="#1a4850"/>
        <path id="Path_2624" data-name="Path 2624" d="M201.294,164.156s-2.327,17.4-26.019,19.586c0,0,14.352-5.057,14.352-15.156,0,0-5.7,12.929-19.364,11.418C170.263,180,168.993,159.2,201.294,164.156Z" transform="translate(-163.613 -157.318)" fill="#1a4850"/>
      </g>
      <path id="Path_2625" data-name="Path 2625" d="M176.535,200.56C188.077,204,195.87,222.674,193.44,224.8s-56.868,12.65-56.868,12.65l33.158,47.831-5.606,8.167S112.41,247.733,112.7,232.054,176.535,200.56,176.535,200.56Z" transform="translate(-106.788 -113.981)" fill="#ff8b66"/>
      <path id="Path_2626" data-name="Path 2626" d="M147.539,246.272a113.057,113.057,0,0,1,11.737,1.934c4.536,1.133,10.583,2.267,10.773,3.213s-10.016,0-10.016,0,8.316,3.415,8.5,4.731-10.583-.951-10.583-.951,6.8,4.157,6.426,5.291-8.759-1.7-8.759-1.7a26.484,26.484,0,0,0,3.175,5.857s-1.624.893-4.917-2.766-8.553-2.482-12.717-5.73S143.747,245.785,147.539,246.272Z" transform="translate(-84.455 -76.404)" fill="#ff8b66"/>
      <path id="Path_2627" data-name="Path 2627" d="M180.414,197.5s20.266,2.327,21.177,32.194-44.383,20.321-44.383,20.321,11.072,12.712,7.642,26.891c0,0-12.318-.093-11.935,6.089,0,0-18.99,1.181-37.552-24.567S122.931,203.892,180.414,197.5Z" transform="translate(-109.454 -116.496)" fill="#0c476b"/>
      <path id="Path_2628" data-name="Path 2628" d="M209.308,216.2c1.334,4.385.3,8.586-2.322,9.382s-5.821-2.112-7.157-6.5-.3-8.586,2.322-9.382S207.972,211.817,209.308,216.2Z" transform="translate(-35.602 -106.568)" fill="#0c476b"/>
      <ellipse id="Ellipse_29" data-name="Ellipse 29" cx="9.072" cy="7.542" rx="9.072" ry="7.542" transform="translate(100.072 123.215) rotate(-87.446)" fill="#0c476b"/>
      <path id="Path_2629" data-name="Path 2629" d="M140.448,216.17c-4.89,1.094-9.59-1.314-10.5-5.378s2.315-8.249,7.2-9.342,9.59,1.312,10.5,5.378S145.337,215.075,140.448,216.17Z" transform="translate(-92.725 -113.466)" fill="#105e99"/>
      <path id="Path_2630" data-name="Path 2630" d="M148.688,405.979s6.987-9.07,21.263-1.823c0,0,.607,6.379-6.074,5.163S153.244,412.964,148.688,405.979Z" transform="translate(-77.186 51.162)" fill="#105e99"/>
      <path id="Path_2631" data-name="Path 2631" d="M243.787,409.139c-9.149,4.41-28.1-6.051-28.1-6.051,3.007.51,7.509-1.9,10.188-3.572C230.994,403.2,240.179,404.127,243.787,409.139Z" transform="translate(-22.083 49.655)" fill="#105e99"/>
    </g>
  </g>
</svg>
