<svg width="517" height="306" viewBox="0 0 517 306" fill="none" xmlns="http://www.w3.org/2000/svg">
<path d="M481.794 218.137L481.797 218.137C468.819 210.89 459.51 202.519 461.928 187.822C463.744 176.796 470.608 167.799 475.694 158.908C500.673 115.246 496.692 85.5018 477.429 66.2923C445.585 34.5365 371.976 31.5735 318.396 42.1398C275.095 50.6789 250.798 68.951 233.738 85.5216C222.359 96.5772 214.203 106.877 205.772 113.022C201.171 116.373 196.491 118.491 191.161 118.817C161.456 120.642 102.778 84.2674 34.6865 149.923C12.118 171.673 0.476842 198.254 0.0151785 228.572C-0.560029 266.576 15.3759 294.35 20.1863 304.531L497.933 304.477C527.371 244.385 481.794 218.137 481.794 218.137Z" fill="#EBF3FA"/>
<path d="M306.37 14.1948H197.521V183.648H306.37V14.1948Z" fill="#CCA789"/>
<path d="M303.93 14.1948H195.08V183.648H303.93V14.1948Z" fill="#B7835C"/>
<path d="M299.997 18.7424H198.891V180.222H299.997V18.7424Z" fill="white"/>
<mask id="mask0_84_565" style="mask-type:luminance" maskUnits="userSpaceOnUse" x="198" y="18" width="102" height="163">
<path d="M299.997 18.7424H198.891V180.222H299.997V18.7424Z" fill="white"/>
</mask>
<g mask="url(#mask0_84_565)">
<path d="M304.807 183.663H197.182C197.182 183.663 210.49 106.008 233.525 153.672C243.684 174.694 271.522 149.343 268.2 147.597C214.164 119.2 261.204 88.8918 252.546 76.2825C250.792 73.7288 236.474 63.8361 233.789 86.5325C231.105 109.229 207.432 32.5982 260.39 45.5329C313.348 58.4673 274.545 16.2472 274.545 16.2472H304.807V183.663Z" fill="#A8D29F"/>
</g>
<mask id="mask1_84_565" style="mask-type:luminance" maskUnits="userSpaceOnUse" x="198" y="18" width="102" height="163">
<path d="M299.997 18.7424H198.891V180.222H299.997V18.7424Z" fill="white"/>
</mask>
<g mask="url(#mask1_84_565)">
<path d="M196.755 176.487L197.313 15.4669H260.765C260.765 15.4669 277.848 32.062 268.575 35.4786C259.301 38.8953 212.932 21.324 203.902 59.3952C201.068 71.3442 201.697 75.2267 203.895 74.9291C207.398 74.4546 210.137 77.849 208.762 81.1054C203.622 93.2788 197.986 169.552 196.755 176.487Z" fill="#EE9849"/>
</g>
<path d="M253.958 5.61304H249.932V2.01331C249.932 0.90137 250.833 -0.00012207 251.945 -0.00012207C253.057 -0.00012207 253.959 0.90137 253.959 2.01331L253.958 5.61304Z" fill="#233862"/>
<path d="M279.156 8.41968H224.734V4.81995C224.734 3.70801 225.635 2.80652 226.747 2.80652H279.156L279.156 8.41968Z" fill="#4A75CB"/>
<path d="M281.226 8.41968H277.199V4.81995C277.199 3.70801 278.101 2.80652 279.213 2.80652C280.325 2.80652 281.226 3.7078 281.226 4.81995L281.226 8.41968Z" fill="#AFCDFB"/>
<path d="M469.881 14.1948H361.032V183.648H469.881V14.1948Z" fill="#CCA789"/>
<path d="M467.441 14.1948H358.591V183.648H467.441V14.1948Z" fill="#B7835C"/>
<path d="M463.508 18.7424H362.402V180.222H463.508V18.7424Z" fill="white"/>
<mask id="mask2_84_565" style="mask-type:luminance" maskUnits="userSpaceOnUse" x="362" y="18" width="102" height="163">
<path d="M463.508 18.7424H362.402V180.222H463.508V18.7424Z" fill="white"/>
</mask>
<g mask="url(#mask2_84_565)">
<path d="M360.694 16.2469H468.318C468.318 16.2469 444.89 101.908 427.318 86.5325C409.747 71.1574 400.473 50.3083 397.301 52.3132C394.128 54.3183 404.297 111.018 412.955 123.627C414.708 126.181 429.027 136.074 431.711 113.378C434.395 90.6812 458.068 167.312 405.11 154.377C352.152 141.443 390.955 183.663 390.955 183.663H360.693L360.694 16.2469Z" fill="#A8D29F"/>
</g>
<mask id="mask3_84_565" style="mask-type:luminance" maskUnits="userSpaceOnUse" x="362" y="18" width="102" height="163">
<path d="M463.508 18.7424H362.402V180.222H463.508V18.7424Z" fill="white"/>
</mask>
<g mask="url(#mask3_84_565)">
<path d="M466.854 85.8004V183.663H403.402C403.402 183.663 386.319 167.068 395.592 163.651C404.866 160.235 451.816 177.939 460.265 139.735C461.837 132.626 460.676 126.673 457.904 121.711C452.169 111.443 454.468 98.6184 463.515 91.1037C465.296 89.6249 466.486 87.8735 466.854 85.8004Z" fill="#EE9849"/>
</g>
<path d="M425.032 133.566C425.032 133.566 403.069 140.521 393.918 94.3982C384.767 48.2757 375.982 147.11 425.032 133.566Z" fill="#82B378"/>
<path d="M412.955 65.1378C412.955 65.1378 432.118 95.8877 441.392 78.1536C450.666 60.4195 439.022 92.7962 412.955 65.1378Z" fill="#82B378"/>
<path d="M417.47 5.61304H413.443V2.01331C413.443 0.90137 414.344 -0.00012207 415.456 -0.00012207C416.568 -0.00012207 417.47 0.90137 417.47 2.01331L417.47 5.61304Z" fill="#233862"/>
<path d="M442.668 8.41968H388.245V4.81995C388.245 3.70801 389.147 2.80652 390.259 2.80652H442.668L442.668 8.41968Z" fill="#4A75CB"/>
<path d="M444.737 8.41968H440.71V4.81995C440.71 3.70801 441.612 2.80652 442.724 2.80652C443.836 2.80652 444.738 3.7078 444.738 4.81995L444.737 8.41968Z" fill="#AFCDFB"/>
<path d="M458.554 230.852C458.554 230.852 463.882 226.491 460.325 222.484C460.325 222.484 457.627 220.114 455.135 219.824C455.135 219.824 457.585 226.305 456.351 226.686C455.116 227.068 454.141 219.268 454.141 219.268C454.141 219.268 447.378 217.374 444.975 218.044C444.975 218.044 450 223.906 448.71 223.972C447.42 224.038 441.841 218.629 441.841 218.629C441.841 218.629 435.308 218.13 434.954 222.099C434.599 226.067 436.591 227.666 437.58 227.735C438.569 227.804 444.629 226.649 444.61 227.465C444.593 228.282 440.715 230.271 438.301 229.967C438.301 229.967 441.93 235.751 445.187 234.849C448.444 233.946 449.106 231.713 451.129 231.192C453.151 230.671 454.748 230.957 453.821 231.691C452.893 232.425 449.356 232.669 447.95 234.371C446.542 236.073 445.355 237.178 448.544 237.264C451.732 237.349 457.184 235.977 457.869 233.414C458.554 230.852 458.554 230.852 458.554 230.852Z" fill="#1C468A"/>
<path d="M438.082 222.764C438.082 222.764 455.598 225.193 458.554 230.852C458.554 230.852 458.95 233.548 461.152 236.331L461.361 237.515C461.361 237.515 458.741 233.733 457.696 233.349C457.696 233.349 460.653 227.551 438.082 222.764Z" fill="#1C468A"/>
<path d="M461.152 236.331C461.152 236.331 464.394 239.758 463.774 244.738L463.086 244.678C463.086 244.678 462.802 239.364 461.002 236.985C459.202 234.605 461.152 236.331 461.152 236.331Z" fill="#1C468A"/>
<path d="M475.133 227.127C475.133 227.127 468.814 221.946 473.04 217.195C473.04 217.195 476.244 214.387 479.201 214.045C479.201 214.045 476.287 221.733 477.751 222.186C479.215 222.64 480.381 213.386 480.381 213.386C480.381 213.386 488.407 211.147 491.258 211.944C491.258 211.944 485.289 218.895 486.82 218.974C488.35 219.054 494.898 212.11 494.898 212.11C494.898 212.11 502.728 212.056 503.144 216.765C503.561 221.474 501.196 223.369 500.023 223.45C498.849 223.531 491.66 222.154 491.681 223.123C491.701 224.092 496.301 226.456 499.165 226.097C499.165 226.097 494.853 232.957 490.989 231.882C487.126 230.808 486.342 228.158 483.943 227.538C481.543 226.917 479.648 227.255 480.748 228.127C481.848 228.999 486.044 229.292 487.712 231.313C489.379 233.333 490.787 234.646 487.004 234.745C483.221 234.843 476.753 233.208 475.943 230.168C475.133 227.127 475.133 227.127 475.133 227.127Z" fill="#4A75CB"/>
<path d="M499.431 217.552C499.431 217.552 478.646 220.415 475.133 227.127C475.133 227.127 474.66 230.325 472.044 233.625L471.794 235.029C471.794 235.029 474.703 230.623 475.943 230.168C475.943 230.168 472.645 223.208 499.431 217.552Z" fill="#1C468A"/>
<path d="M472.045 233.625C472.045 233.625 468.194 237.688 468.924 243.598L469.741 243.527C469.741 243.527 470.083 237.222 472.222 234.401C474.36 231.58 472.045 233.625 472.045 233.625Z" fill="#1C468A"/>
<path d="M464.933 219.717C464.933 219.717 475.107 216.184 472.042 208.384C472.042 208.384 469.357 203.451 465.854 201.682C465.854 201.682 465.96 212.519 463.943 212.414C461.925 212.309 464.695 200.33 464.695 200.33C464.695 200.33 455.785 193.906 451.895 193.595C451.895 193.595 456.116 204.911 454.186 204.312C452.256 203.714 447.317 192.143 447.317 192.143C447.317 192.143 437.655 188.513 434.996 194.149C432.338 199.784 434.401 203.206 435.816 203.84C437.23 204.474 446.75 206.042 446.284 207.232C445.817 208.422 439.051 209.253 435.672 207.505C435.672 207.505 437.883 217.954 443.152 218.383C448.421 218.813 450.596 215.891 453.847 216.216C457.099 216.54 459.289 217.821 457.531 218.399C455.774 218.977 450.449 217.43 447.467 219.171C444.484 220.912 442.145 221.895 446.78 223.739C451.416 225.582 460.254 226.593 462.64 223.2C465.026 219.807 464.933 219.717 464.933 219.717Z" fill="#4A75CB"/>
<path d="M439.23 196.812C439.23 196.812 463.642 209.815 464.932 219.717C464.932 219.717 464.062 223.89 465.795 229.162L465.466 231.012C465.466 231.012 463.872 224.238 462.546 223.11C462.546 223.11 469.794 216.001 439.23 196.812Z" fill="#1C468A"/>
<path d="M465.795 229.162C465.795 229.162 468.71 235.94 465.117 242.919L464.138 242.46C464.138 242.46 466.585 234.504 465.223 230.041C463.862 225.578 465.795 229.162 465.795 229.162Z" fill="#1C468A"/>
<path d="M422.948 304.971H468.607L461.787 276.053C460.39 270.13 456.992 264.787 452.22 261.009C447.448 257.231 441.468 255.151 435.382 255.151H376.048V267.353H409.63L422.948 304.971Z" fill="#AFCDFB"/>
<path d="M359.128 255.256V255.151H336.401C335.616 255.151 334.833 255.187 334.053 255.256H302.674C296.588 255.256 290.608 257.336 285.835 261.114C281.063 264.891 277.666 270.234 276.268 276.158L269.473 304.971H315.712L321.872 278.855C323.332 272.661 328.493 268.075 334.68 267.353H362.008V255.256H359.128Z" fill="#1C468A"/>
<path d="M276.813 304.344L282.825 278.855C284.422 272.083 290.396 267.353 297.354 267.353H396.335C403.292 267.353 409.267 272.083 410.864 278.855L416.875 304.344H429.412L422.74 276.053C421.343 270.13 417.945 264.787 413.173 261.009C408.401 257.232 402.421 255.151 396.334 255.151H297.353C291.267 255.151 285.287 257.232 280.515 261.009C275.743 264.787 272.345 270.13 270.948 276.053L264.275 304.344H276.813Z" fill="#4A75CB"/>
<path d="M193.544 304.971H239.204L232.383 276.053C230.986 270.13 227.589 264.787 222.816 261.009C218.044 257.231 212.064 255.151 205.978 255.151H146.644V267.353H180.226L193.544 304.971Z" fill="#AFCDFB"/>
<path d="M129.723 255.256V255.151H106.997C106.212 255.151 105.428 255.187 104.649 255.256H73.2699C67.1834 255.256 61.2035 257.336 56.4313 261.114C51.6591 264.891 48.2615 270.234 46.8644 276.158L40.0688 304.971H86.3084L92.468 278.854C93.9285 272.661 99.0889 268.074 105.276 267.353H132.604V255.255L129.723 255.256Z" fill="#1C468A"/>
<path d="M47.4086 304.344L53.4202 278.855C55.0174 272.083 60.9917 267.353 67.9493 267.353H166.93C173.888 267.353 179.862 272.083 181.459 278.855L187.471 304.344H200.008L193.336 276.053C191.939 270.13 188.541 264.787 183.769 261.009C178.997 257.232 173.017 255.151 166.93 255.151H67.9493C61.8629 255.151 55.8829 257.232 51.1107 261.009C46.3385 264.787 42.9409 270.13 41.5439 276.053L34.8716 304.344H47.4086Z" fill="#4A75CB"/>
<path d="M211.208 101.454C211.208 101.454 212.4 95.7364 215.378 94.4263C218.355 93.1157 220.142 87.8748 221.333 89.3041C222.524 90.7334 220.976 100.263 218.713 101.454C216.449 102.645 215.377 103.875 215.377 103.875L211.208 101.454Z" fill="#ED985F"/>
<path d="M160.089 78.6987C160.089 78.6987 179.071 111.807 185.958 117.899L211.208 99.0735C211.208 99.0735 214.872 100.197 216.477 103.875C216.477 103.875 201.143 135.115 186.046 136.439C170.949 137.764 149.759 98.9951 149.759 98.9951L160.089 78.6987Z" fill="#A8302D"/>
<path d="M101.346 283.55C101.346 283.55 96.9576 287.618 97.8139 290.508C98.6703 293.398 102.631 295.325 103.166 298.857C103.701 302.39 105.842 304.316 107.769 304.316C109.696 304.316 116.954 304.316 116.954 304.316C116.954 304.316 118.373 301.831 114.947 301.081C111.522 300.332 110.23 296.181 110.445 292.328C110.659 288.474 110.124 283.336 110.124 283.336L102.845 281.624L101.346 283.55Z" fill="#233862"/>
<path d="M156.044 304.168C156.172 304.232 156.393 304.291 156.696 304.344H180.921C180.733 303.498 179.988 301.757 177.024 301.276C173.188 300.654 166.538 298.426 165.056 293.518C165.009 293.359 164.966 293.2 164.929 293.035C163.752 287.789 155.188 294.64 155.188 294.64C155.188 294.64 155.163 294.849 155.126 295.207C154.927 297.132 154.417 303.354 156.044 304.168Z" fill="#233862"/>
<path d="M176.006 163.879C176.006 163.879 174.705 180.105 173.177 199.61C171.099 226.106 168.601 258.651 168.354 264.817C167.927 275.523 166.212 292.649 166.212 292.649C166.212 292.649 162.146 296.717 154.009 295.003C154.009 295.003 146.758 270.555 144.687 244.69C144.655 244.265 144.623 243.838 144.591 243.411C142.664 217.079 139.668 161.631 139.668 161.631L176.006 163.879Z" fill="#2B478B"/>
<path d="M176.006 163.879C176.006 163.879 174.705 180.105 173.177 199.61L144.687 244.689C144.655 244.265 144.623 243.838 144.591 243.411C142.664 217.079 139.668 161.631 139.668 161.631L176.006 163.879Z" fill="#233862"/>
<path d="M170.066 165.806C170.066 165.806 146.624 224.571 131.21 252.188C115.797 279.804 110.98 287.511 110.98 287.511C110.98 287.511 102.149 283.979 101.346 281.57C101.346 281.57 107.24 228.256 117.563 215.259C123.395 207.915 130.247 185.876 130.568 178.169C130.889 170.462 132.655 155.209 132.655 155.209L170.066 165.806Z" fill="#2B478B"/>
<path d="M158.044 75.0957C159.086 68.9418 159.118 65.2943 159.118 65.2943L147.224 55.7087C147.666 68.8892 139.22 75.2267 139.22 75.2267C139.22 75.2267 155.07 83.0286 164.231 80.1388C164.231 80.1388 161.976 77.2561 158.044 75.0957Z" fill="#ED985F"/>
<path d="M161.919 65.0767C161.919 65.0767 146.788 67.5907 145.368 58.1436C143.948 48.6966 141.038 42.6588 150.639 40.6545C160.239 38.6502 162.663 41.9719 163.904 45.0099C165.145 48.0478 165.819 64.1794 161.919 65.0767Z" fill="#ED985F"/>
<path d="M177.016 165.23C176.741 165.46 176.421 165.597 176.054 165.597C172.614 165.551 162.582 167.461 154.095 166.59C146.939 165.903 140.606 163.783 133.805 160.734C132.902 160.329 130.823 159.22 130.869 158.21C130.9 157.105 131.01 155.502 131.147 153.483C131.629 146.463 132.468 134.388 131.65 120.457C131.503 117.863 131.425 115.29 131.416 112.757C131.346 93.8771 135.09 77.271 142.613 71.6507C143.255 71.1905 147.2 73.1187 150.824 74.9063C154.173 76.5583 157.522 76.7407 160.686 76.1006L163.85 78.8978C167.704 82.4757 171.924 87.3386 173.759 94.7233C175.32 101.008 176.236 112.339 176.741 124.082C176.97 129.403 177.154 134.771 177.201 139.864V140.046C177.245 140.55 177.245 141.102 177.245 141.606C177.43 154.679 177.246 165.046 177.016 165.23Z" fill="#C94C43"/>
<path d="M131.147 153.482C131.628 146.462 132.467 134.388 131.65 120.457C131.502 117.863 131.425 115.29 131.416 112.757C134.55 105.155 137.111 99.6426 137.111 99.6426H145.01C145.01 99.6426 150.801 139.197 131.147 153.482Z" fill="#A8302D"/>
<path d="M115.78 155.942L114.28 158.526C114.28 158.526 117.218 164.747 110.249 167.071C110.249 167.071 107.251 167.828 106.995 165.749C106.738 163.671 107.18 164.488 106.745 161.554C106.31 158.619 107.456 156.005 109.621 155.307L111.329 153.672L115.78 155.942Z" fill="#ED985F"/>
<path d="M111.805 156.648C114.649 157.203 117.732 156.978 117.732 156.978C117.732 156.978 126.177 130.892 127.263 128.51C128.351 126.127 152.346 97.9228 152.346 97.9228L142.35 72.9062C142.35 72.9062 116.396 116.259 113.761 122.35C109.406 132.417 107.895 154.986 107.895 154.986C107.895 154.986 109.571 156.213 111.805 156.648Z" fill="#C94C43"/>
<path d="M145.356 57.2344C145.356 57.2344 146.909 56.9749 146.658 54.8361C146.407 52.6972 146.41 49.9019 148.15 50.423C149.888 50.944 149.975 52.336 150.689 51.5231C151.404 50.7102 151.417 47.285 156.591 47.0464C161.765 46.8081 163.867 48.609 166.273 47.5509C168.679 46.4933 168.806 42.8515 168.806 42.8515C168.806 42.8515 168.122 44.1519 167.089 44.5653C167.089 44.5653 171.103 39.0753 166.455 35.3104C161.808 31.5458 157.069 34.0105 154.379 34.1731C148.454 34.5318 144.626 34.8874 142.691 38.7812C140.755 42.675 141.553 53.4864 145.356 57.2344Z" fill="#233862"/>
<path d="M212.22 96.4322L218.376 83.9449C218.495 83.7028 218.791 83.6026 219.032 83.7217L222.458 85.4105C222.7 85.5299 222.801 85.8256 222.681 86.0675L216.526 98.5548C216.407 98.7965 216.111 98.8971 215.869 98.778L212.443 97.089C212.201 96.9696 212.101 96.6741 212.22 96.4322Z" fill="#2B478B"/>
<path d="M215.41 98.1348L221.668 85.4372C221.759 85.2531 221.984 85.177 222.168 85.2675L224.177 86.2574C224.361 86.3482 224.437 86.5732 224.346 86.7575L218.088 99.4545C217.997 99.6387 217.772 99.7153 217.588 99.6244L215.58 98.6345C215.395 98.544 215.319 98.3192 215.41 98.1348Z" fill="#233862"/>
<path d="M159.118 65.2945C159.118 65.2945 159.123 67.6758 158.648 70.9919L150.966 64.3984C150.966 64.3984 154.03 65.5528 159.118 65.2945Z" fill="#DB8449"/>
<path d="M478.966 304.971H453.855L446.706 238.083H486.116L478.966 304.971Z" fill="#81ACEA"/>
<path d="M477.983 241.374L476.941 300.443L482.719 241.374H477.983Z" fill="#AFCDFB"/>
<path d="M515.973 305.843H10.2985C9.81897 305.843 9.42676 305.451 9.42676 304.972C9.42676 304.492 9.81917 304.1 10.2985 304.1H515.974C516.453 304.1 516.845 304.492 516.845 304.971C516.845 305.451 516.453 305.843 515.973 305.843Z" fill="#2E3552"/>
<path d="M486.705 240.778H446.1C445.356 240.778 444.752 240.175 444.752 239.431C444.752 238.686 445.356 238.083 446.1 238.083H486.705C487.449 238.083 488.052 238.686 488.052 239.431C488.052 240.175 487.449 240.778 486.705 240.778Z" fill="#4A75CB"/>
<path d="M299.996 57.2341V123.122C299.996 123.122 242.473 159.24 238.731 150.292C234.989 141.344 281.358 130.724 285.588 114.964C289.818 99.2049 240.339 135.211 251.945 114.964C259.394 101.971 299.996 84.8979 299.996 57.2341Z" fill="#EE9849"/>
<path d="M239.87 134.853C239.87 134.853 229.457 123.514 235.965 103.875C242.473 84.2369 212.049 112.418 239.87 134.853Z" fill="#82B378"/>
</svg>
